<?xml version="1.0" encoding="utf-8"?>
<!-- Generator: Adobe Illustrator 23.0.3, SVG Export Plug-In . SVG Version: 6.00 Build 0)  -->
<svg version="1.1" id="Layer_1" xmlns="http://www.w3.org/2000/svg" xmlns:xlink="http://www.w3.org/1999/xlink" x="0px" y="0px"
	 viewBox="0 0 200 200" style="enable-background:new 0 0 200 200;" xml:space="preserve">
<style type="text/css">
	.st0{fill:#49BBE5;}
	.st1{fill:none;stroke:#FFFFFF;stroke-width:4;stroke-miterlimit:10;}
</style>
<g>
	<circle class="st0" cx="100" cy="100.2" r="81"/>
</g>
<g>
	<path class="st1" d="M99.1,69.3c-4.4,0-8,3.6-8,8c0,4.4,3.6,8,8,8c4.4,0,8-3.6,8-8S103.4,69.3,99.1,69.3z"/>
	<path class="st1" d="M111.3,118.6h-3.5c-0.5,0-0.8-0.4-0.8-0.8V93.5c0-0.5-0.4-0.8-0.8-0.8H87.8c-0.5,0-0.8,0.4-0.8,0.8v6.1
		c0,0.4,0.3,0.8,0.8,0.8l3.7,0.1c0.4,0,0.8,0.4,0.8,0.8v16.4c0,0.5-0.4,0.8-0.8,0.8h-3.5c-0.5,0-0.8,0.4-0.8,0.8v9
		c0,0.5,0.4,0.8,0.8,0.8h23.2c0.5,0,0.8-0.4,0.8-0.8v-8.9C112.2,119,111.8,118.6,111.3,118.6z"/>
</g>
</svg>
