<?xml version="1.0" encoding="utf-8"?>
<!-- Generator: Adobe Illustrator 23.0.3, SVG Export Plug-In . SVG Version: 6.00 Build 0)  -->
<svg version="1.1" id="Layer_1" xmlns="http://www.w3.org/2000/svg" xmlns:xlink="http://www.w3.org/1999/xlink" x="0px" y="0px"
	 viewBox="0 0 200 200" style="enable-background:new 0 0 200 200;" xml:space="preserve">
<style type="text/css">
	.st0{fill:#49BBE5;}
	.st1{fill:#FFFFFF;}
</style>
<g>
	<circle class="st0" cx="100" cy="100.2" r="81"/>
	<path class="st1" d="M99.1,71.2c-4.4,0-8,3.6-8,8s3.6,8,8,8s8-3.6,8-8S103.4,71.2,99.1,71.2z"/>
	<path class="st1" d="M111.3,118.2h-3.5c-0.5,0-0.8-0.4-0.8-0.8V93.1c0-0.5-0.4-0.8-0.8-0.8H87.8c-0.5,0-0.8,0.4-0.8,0.8v6.1
		c0,0.4,0.3,0.8,0.8,0.8l3.7,0.1c0.4,0,0.8,0.4,0.8,0.8v16.4c0,0.5-0.4,0.8-0.8,0.8H88c-0.5,0-0.8,0.4-0.8,0.8v9
		c0,0.5,0.4,0.8,0.8,0.8h23.2c0.5,0,0.8-0.4,0.8-0.8V119C112.2,118.6,111.8,118.2,111.3,118.2z"/>
</g>
</svg>
