<?xml version="1.0" encoding="utf-8"?>
<!-- Generator: Adobe Illustrator 23.0.3, SVG Export Plug-In . SVG Version: 6.00 Build 0)  -->
<svg version="1.1" id="Layer_1" xmlns="http://www.w3.org/2000/svg" xmlns:xlink="http://www.w3.org/1999/xlink" x="0px" y="0px"
	 viewBox="0 0 200 200" style="enable-background:new 0 0 200 200;" xml:space="preserve">
<style type="text/css">
	.st0{stroke:#000000;stroke-miterlimit:10;}
	.st1{fill-rule:evenodd;clip-rule:evenodd;stroke:#000000;stroke-miterlimit:10;}
</style>
<g>
	<g>
		<path class="st0" d="M130.6,112.8c-0.4,0-0.7-0.1-1.1-0.2l-8-3.7c-0.5-0.3-1-0.8-1.3-1.3s-0.4-1.2-0.4-1.8V86.4
			c0-0.6,0.1-1.2,0.4-1.8c0.3-0.5,0.7-1,1.3-1.3l8-3.7c0.8-0.4,1.8-0.3,2.5,0.2c1.1,0.9,1.8,2.2,1.7,3.6v25.3
			c0.1,1.4-0.6,2.8-1.7,3.6C131.6,112.7,131.1,112.8,130.6,112.8L130.6,112.8z M123,106.1l7.3,3.4c0.1-0.2,0.1-0.5,0.1-0.7V83.5
			c0-0.2,0-0.5-0.1-0.7l-7.3,3.4c0,0.1,0,0.2,0,0.3v19.4C123,105.9,123,106,123,106.1L123,106.1z"/>
		<path class="st0" d="M109.4,119.7H74.3c-2.1,0-4.1-0.8-5.6-2.3s-2.3-3.5-2.3-5.6V81.9c0-2.1,0.8-4.1,2.3-5.6s3.5-2.3,5.6-2.3h35.1
			c2.1,0,4.1,0.8,5.6,2.3s2.3,3.5,2.3,5.6v29.8c0,2.1-0.8,4.1-2.3,5.6C113.6,118.8,111.6,119.7,109.4,119.7z M74.3,77.1
			c-1.3,0-2.5,0.5-3.4,1.4s-1.4,2.1-1.4,3.4v29.8c0,1.3,0.5,2.5,1.4,3.4s2.1,1.4,3.4,1.4h35.1c1.3,0,2.5-0.5,3.4-1.4
			s1.4-2.1,1.4-3.4V81.9c0-1.3-0.5-2.5-1.4-3.4s-2.1-1.4-3.4-1.4H74.3z"/>
		<g>
			<path class="st1" d="M91.6,84.7c-0.5,0-1,0.2-1.4,0.6s-0.6,0.8-0.6,1.4c0,0.5,0.2,1,0.6,1.4s0.8,0.6,1.4,0.6c0.5,0,1-0.2,1.4-0.6
				s0.6-0.8,0.6-1.4c0-0.5-0.2-1-0.6-1.4S92.1,84.7,91.6,84.7z"/>
			<path class="st1" d="M91.6,90.7c-0.5,0-1,0.3-1.3,0.7c-0.4,0.4-0.5,1-0.5,1.7v15.4c0,0.6,0.2,1.2,0.5,1.7
				c0.4,0.4,0.8,0.7,1.4,0.7c0.5,0,1-0.3,1.4-0.7c0.4-0.4,0.6-1,0.5-1.7V93.1c0-0.6-0.2-1.2-0.6-1.7S92.1,90.7,91.6,90.7L91.6,90.7z
				"/>
		</g>
	</g>
	<path d="M71.4,90.7h-7c-0.6,0-1-0.5-1-1v-1c0-0.6,0.4-1,1-1h7c0.5,0,1,0.4,1,1v1C72.4,90.2,71.9,90.7,71.4,90.7z"/>
	<path d="M71.4,98.8h-7c-0.6,0-1-0.4-1-1v-1c0-0.6,0.4-1,1-1h7c0.5,0,1,0.4,1,1v1C72.4,98.3,71.9,98.8,71.4,98.8z"/>
	<path d="M71.4,106.9h-7c-0.6,0-1-0.4-1-1v-1c0-0.6,0.4-1,1-1h7c0.5,0,1,0.4,1,1v1C72.4,106.4,71.9,106.9,71.4,106.9z"/>
</g>
</svg>
