<?xml version="1.0" encoding="utf-8"?>
<!-- Generator: Adobe Illustrator 23.0.3, SVG Export Plug-In . SVG Version: 6.00 Build 0)  -->
<svg version="1.1" id="Layer_1" xmlns="http://www.w3.org/2000/svg" xmlns:xlink="http://www.w3.org/1999/xlink" x="0px" y="0px"
	 viewBox="0 0 200 200" style="enable-background:new 0 0 200 200;" xml:space="preserve">
<style type="text/css">
	.st0{fill:#49BBE5;}
	.st1{fill:#FFFFFF;stroke:#FFFFFF;stroke-width:0.5;stroke-miterlimit:10;}
</style>
<g>
	<circle class="st0" cx="100" cy="100" r="81"/>
	<path class="st1" d="M108.9,94.2c12.5-8.8,6.4-28.6-9.1-28.7c-15.5,0.1-21.6,19.9-9.1,28.7c-5.9,1.9-11.1,5.7-14.7,10.7
		c-3.7,5-5.6,11.1-5.6,17.3c0,9.8,5.3,10.7,14.4,6.3c11.6-5.4,18.6-5.3,30.2,0c8.4,4.1,14.4,4.1,14.4-6.3c0-6.2-2-12.3-5.6-17.3
		C120,99.8,114.8,96.1,108.9,94.2L108.9,94.2z M88.4,81.3c0-3,1.2-5.9,3.3-8.1c2.1-2.1,5.1-3.4,8.1-3.4c15.2,0.6,15.2,22.2,0,22.9
		c-3,0-5.9-1.2-8.1-3.3C89.6,87.2,88.4,84.3,88.4,81.3L88.4,81.3z M124,126.5c-1,0.6-4.5-0.9-7.4-2.1c-4.6-2-10.4-4.4-16.8-4.4
		c-6.4,0-12.2,2.5-16.8,4.4c-2.9,1.2-6.4,2.8-7.4,2.1c-0.2-0.1-0.9-0.8-0.9-4.4c0-6.7,2.6-13,7.3-17.7c4.7-4.7,11.1-7.3,17.7-7.3
		c6.7,0,13,2.6,17.7,7.3c4.7,4.7,7.3,11.1,7.3,17.7C124.9,125.8,124.2,126.5,124,126.5L124,126.5z"/>
</g>
</svg>
