<?xml version="1.0" encoding="utf-8"?>
<!-- Generator: Adobe Illustrator 23.0.3, SVG Export Plug-In . SVG Version: 6.00 Build 0)  -->
<svg version="1.1" id="Layer_1" xmlns="http://www.w3.org/2000/svg" xmlns:xlink="http://www.w3.org/1999/xlink" x="0px" y="0px"
	 viewBox="0 0 200 200" style="enable-background:new 0 0 200 200;" xml:space="preserve">
<style type="text/css">
	.st0{fill:#49BBE5;}
	.st1{fill:#FFFFFF;}
</style>
<g>
	<circle class="st0" cx="100" cy="100" r="81"/>
	<path class="st1" d="M112.8,95.3c-3.1,3.5-7.7,5.8-12.8,5.8s-9.6-2.2-12.8-5.8c-6.8,4.8-11.2,13.3-11.2,23.1
		c0,12.2,10.7,11.9,24,11.9s24,1.4,24-11.9C124,108.6,119.5,100.1,112.8,95.3z"/>
	<path class="st1" d="M100,70c-7.5,0-13.6,6.2-13.6,13.7c0,3.8,1.5,7.2,4,9.7s5.9,4,9.6,4s7.1-1.5,9.6-4s4-5.9,4-9.7
		C113.6,76.2,107.5,70,100,70z"/>
</g>
</svg>
