<?xml version="1.0" encoding="utf-8"?>
<!-- Generator: Adobe Illustrator 23.0.3, SVG Export Plug-In . SVG Version: 6.00 Build 0)  -->
<svg version="1.1" id="Layer_1" xmlns="http://www.w3.org/2000/svg" xmlns:xlink="http://www.w3.org/1999/xlink" x="0px" y="0px"
	 viewBox="0 0 200 200" style="enable-background:new 0 0 200 200;" xml:space="preserve">
<style type="text/css">
	.st0{fill:#49BBE5;}
	.st1{fill:#FFFFFF;}
</style>
<g>
	<circle class="st0" cx="100" cy="99.6" r="81"/>
</g>
<path class="st1" d="M71.3,130.1c-4.8,0-8.7-3.9-8.7-8.7V86.5c0-4.8,3.9-8.7,8.7-8.7h10.4l2.8-7.1c0.2-0.5,0.5-0.9,1-1.2
	c0.4-0.3,0.9-0.5,1.5-0.5h24.4l0,0c0.5,0,1,0.2,1.5,0.5c0.4,0.3,0.8,0.7,1,1.2l2.8,7.1h10.4c4.8,0,8.7,3.9,8.7,8.7v34.9
	c0,4.8-3.9,8.7-8.7,8.7H71.3z M71.3,124.9h55.8c2,0,3.5-1.5,3.5-3.5V86.5c0-2-1.5-3.5-3.5-3.5h-12.2c-0.5,0-1-0.2-1.5-0.4
	c-0.4-0.3-0.8-0.7-1-1.2l-2.8-7.1H88.8L86,81.4l0,0c-0.2,0.5-0.5,0.9-1,1.2c-0.5,0.3-1,0.4-1.5,0.4H71.3c-2,0-3.5,1.5-3.5,3.5v34.9
	C67.8,123.4,69.3,124.9,71.3,124.9L71.3,124.9z M99.2,120.5c-9.1,0-16.6-7.4-16.6-16.6S90,87.3,99.2,87.3s16.6,7.4,16.6,16.6
	S108.3,120.5,99.2,120.5z M99.2,115.3c6.3,0,11.3-5,11.3-11.3s-5-11.3-11.3-11.3s-11.3,5-11.3,11.3
	C87.9,110.2,92.9,115.3,99.2,115.3z"/>
</svg>
