<?xml version="1.0" encoding="utf-8"?>
<!-- Generator: Adobe Illustrator 23.0.3, SVG Export Plug-In . SVG Version: 6.00 Build 0)  -->
<svg version="1.1" id="Layer_1" xmlns="http://www.w3.org/2000/svg" xmlns:xlink="http://www.w3.org/1999/xlink" x="0px" y="0px"
	 viewBox="0 0 200 200" style="enable-background:new 0 0 200 200;" xml:space="preserve">
<style type="text/css">
	.st0{fill:#49BBE5;}
	.st1{fill-rule:evenodd;clip-rule:evenodd;fill:#FFFFFF;}
	.st2{fill:none;stroke:#FFFFFF;stroke-width:3;}
</style>
<g>
	<circle class="st0" cx="98.5" cy="100" r="81"/>
	<g>
		<g>
			<path class="st1" d="M125.3,102.9v17.5h-53v-7.5l12-12.5l6,6.3l19.3-20L125.3,102.9z"/>
			<path class="st1" d="M98,88.7c0,4-3.3,7.2-7.5,7.2c-4.1,0-7.5-3.2-7.5-7.2s3.3-7.2,7.5-7.2C94.6,81.5,98,84.7,98,88.7z"/>
		</g>
		<path class="st2" d="M71.3,78h55c0.8,0,1.5,0.7,1.5,1.5v42c0,0.8-0.7,1.5-1.5,1.5h-55c-0.8,0-1.5-0.7-1.5-1.5v-42
			C69.8,78.7,70.4,78,71.3,78z"/>
	</g>
</g>
</svg>
