<?xml version="1.0" encoding="utf-8"?>
<!-- Generator: Adobe Illustrator 23.0.3, SVG Export Plug-In . SVG Version: 6.00 Build 0)  -->
<svg version="1.1" id="Layer_1" xmlns="http://www.w3.org/2000/svg" xmlns:xlink="http://www.w3.org/1999/xlink" x="0px" y="0px"
	 viewBox="0 0 200 200" style="enable-background:new 0 0 200 200;" xml:space="preserve">
<style type="text/css">
	.st0{fill:#49BBE5;}
	.st1{fill:#FFFFFF;}
</style>
<g>
	<circle class="st0" cx="98.5" cy="99.6" r="81"/>
	<g>
		<path class="st1" d="M128.7,127.6H71.3c-1.5,0-2.9-0.6-3.9-1.6c-1-1-1.6-2.4-1.6-3.9v-45c0-1.5,0.6-2.9,1.6-3.9
			c1-1,2.4-1.6,3.9-1.6h57.4c1.5,0,2.9,0.6,3.9,1.6c1,1,1.6,2.4,1.6,3.9v45c0,1.5-0.6,2.9-1.6,3.9
			C131.6,127,130.2,127.6,128.7,127.6z M71.3,75.9c-0.7,0-1.2,0.5-1.2,1.2v45c0,0.7,0.5,1.2,1.2,1.2h57.4c0.7,0,1.2-0.5,1.2-1.2v-45
			c0-0.7-0.5-1.2-1.2-1.2L71.3,75.9z"/>
		<path class="st1" d="M78.8,118.3h42.5c0.5,0,0.9-0.1,1.2-0.4c0.3-0.3,0.6-0.7,0.6-1.2c0.1-0.5-0.1-0.9-0.3-1.3l-5.9-8
			c-0.3-0.4-0.8-0.7-1.3-0.7c-0.5,0-1,0.1-1.4,0.5l-6,5.7l-14-19v0c-0.4-0.5-0.9-0.8-1.5-0.7c-0.6,0-1.1,0.3-1.5,0.8l-14,21.4l0,0
			c-0.2,0.4-0.3,0.8-0.3,1.3c0.1,0.4,0.3,0.8,0.6,1.1C77.9,118.2,78.3,118.3,78.8,118.3L78.8,118.3z"/>
		<path class="st1" d="M119.6,87.8c0,3.5-2.9,6.4-6.4,6.4c-3.5,0-6.4-2.9-6.4-6.4c0-3.5,2.9-6.4,6.4-6.4
			C116.7,81.5,119.6,84.3,119.6,87.8"/>
	</g>
</g>
</svg>
