<?xml version="1.0" encoding="utf-8"?>
<!-- Generator: Adobe Illustrator 23.0.3, SVG Export Plug-In . SVG Version: 6.00 Build 0)  -->
<svg version="1.1" id="Layer_1" xmlns="http://www.w3.org/2000/svg" xmlns:xlink="http://www.w3.org/1999/xlink" x="0px" y="0px"
	 viewBox="0 0 200 200" style="enable-background:new 0 0 200 200;" xml:space="preserve">
<style type="text/css">
	.st0{fill:#49BBE5;}
	.st1{fill:#FFFFFF;}
</style>
<g>
	<circle class="st0" cx="100" cy="100" r="81"/>
	<path class="st1" d="M126.3,85.6l-12.7,5.6v-6.7c0-1.2-0.5-2.3-1.3-3.2c-0.8-0.8-2-1.3-3.2-1.3H75.5c-1.2,0-2.3,0.5-3.2,1.3
		c-0.8,0.8-1.3,2-1.3,3.2v31.4c0,1.2,0.5,2.3,1.3,3.2c0.8,0.8,2,1.3,3.2,1.3h33.7c1.2,0,2.3-0.5,3.2-1.3c0.8-0.8,1.3-2,1.3-3.2v-6.7
		l12.7,5.6c0.3,0.1,0.7,0.2,1.1,0.1c0.4,0,0.7-0.2,1-0.4c0.3-0.2,0.5-0.5,0.7-0.8s0.3-0.7,0.3-1.1v-25c0-0.4-0.1-0.7-0.3-1.1
		c-0.2-0.3-0.4-0.6-0.7-0.8s-0.6-0.3-1-0.4C127,85.4,126.7,85.5,126.3,85.6L126.3,85.6z"/>
</g>
</svg>
