<?xml version="1.0" encoding="utf-8"?>
<!-- Generator: Adobe Illustrator 23.0.3, SVG Export Plug-In . SVG Version: 6.00 Build 0)  -->
<svg version="1.1" id="Layer_1" xmlns="http://www.w3.org/2000/svg" xmlns:xlink="http://www.w3.org/1999/xlink" x="0px" y="0px"
	 viewBox="0 0 200 200" style="enable-background:new 0 0 200 200;" xml:space="preserve">
<path d="M132.8,84.2c-1.4-0.9-3.2-1.1-4.7-0.4l-10.5,4.5v-3.7c0-2-0.8-3.9-2.2-5.3c-1.4-1.4-3.3-2.2-5.3-2.2H72.5
	c-2,0-3.9,0.8-5.3,2.2c-1.4,1.4-2.2,3.3-2.2,5.3v30c0,2,0.8,3.9,2.2,5.3c1.4,1.4,3.3,2.2,5.3,2.2H110c2,0,3.9-0.8,5.3-2.2
	c1.4-1.4,2.2-3.3,2.2-5.3v-3.7l10.6,4.5c1.5,0.7,3.3,0.5,4.7-0.4s2.3-2.5,2.3-4.2V88.3C135,86.7,134.2,85.1,132.8,84.2L132.8,84.2z
	 M112.5,114.6c0,0.7-0.3,1.3-0.7,1.8c-0.5,0.5-1.1,0.7-1.8,0.7H72.5c-0.7,0-1.3-0.3-1.8-0.7c-0.5-0.5-0.7-1.1-0.7-1.8v-30
	c0-0.7,0.3-1.3,0.7-1.8c0.5-0.5,1.1-0.7,1.8-0.7H110c0.7,0,1.3,0.3,1.8,0.7c0.5,0.5,0.7,1.1,0.7,1.8V114.6z M117.5,105.5V93.7
	l12.5-5.4v22.5L117.5,105.5z"/>
</svg>
