<svg width="25" height="23" viewBox="0 0 25 23" fill="none" xmlns="http://www.w3.org/2000/svg">
<path d="M22.1543 20.0222L2.14857 13.0451C1.82215 12.9312 1.53778 12.7213 1.33281 12.4429C1.12783 12.1645 1.01182 11.8306 1 11.4851V9.61651C1.00141 9.26214 1.11261 8.91691 1.3183 8.62833C1.52398 8.33976 1.81405 8.12202 2.14857 8.00508L22.1543 1.04508C22.2827 1.00169 22.4196 0.989392 22.5537 1.00919C22.6879 1.02898 22.8154 1.0803 22.9258 1.15894C23.0362 1.23758 23.1264 1.3413 23.189 1.46156C23.2516 1.58183 23.2847 1.71523 23.2857 1.85079V19.2165C23.2847 19.3521 23.2516 19.4855 23.189 19.6057C23.1264 19.726 23.0362 19.8297 22.9258 19.9084C22.8154 19.987 22.6879 20.0383 22.5537 20.0581C22.4196 20.0779 22.2827 20.0656 22.1543 20.0222Z" stroke="black" stroke-width="1.71429" stroke-linecap="round" stroke-linejoin="round"/>
<path d="M14.68 17.451C14.5357 18.6418 13.9428 19.7328 13.0223 20.5018C12.1017 21.2708 10.9226 21.66 9.72514 21.5901C8.52767 21.5202 7.40188 20.9964 6.57707 20.1255C5.75226 19.2546 5.29045 18.102 5.28571 16.9025V14.1768" stroke="black" stroke-width="1.71429" stroke-linecap="round" stroke-linejoin="round"/>
</svg>
