<svg width="25" height="19" viewBox="0 0 25 19" fill="none" xmlns="http://www.w3.org/2000/svg">
<path d="M1.85714 2.71429C2.33053 2.71429 2.71429 2.33053 2.71429 1.85714C2.71429 1.38376 2.33053 1 1.85714 1C1.38376 1 1 1.38376 1 1.85714C1 2.33053 1.38376 2.71429 1.85714 2.71429Z" stroke="black" stroke-width="1.71429" stroke-linecap="round" stroke-linejoin="round"/>
<path d="M7.85712 1.85742H23.2857" stroke="black" stroke-width="1.71429" stroke-linecap="round" stroke-linejoin="round"/>
<path d="M1.85714 10.4291C2.33053 10.4291 2.71429 10.0454 2.71429 9.57199C2.71429 9.0986 2.33053 8.71484 1.85714 8.71484C1.38376 8.71484 1 9.0986 1 9.57199C1 10.0454 1.38376 10.4291 1.85714 10.4291Z" stroke="black" stroke-width="1.71429" stroke-linecap="round" stroke-linejoin="round"/>
<path d="M7.85712 9.57227H23.2857" stroke="black" stroke-width="1.71429" stroke-linecap="round" stroke-linejoin="round"/>
<path d="M1.85714 18.142C2.33053 18.142 2.71429 17.7583 2.71429 17.2849C2.71429 16.8115 2.33053 16.4277 1.85714 16.4277C1.38376 16.4277 1 16.8115 1 17.2849C1 17.7583 1.38376 18.142 1.85714 18.142Z" stroke="black" stroke-width="1.71429" stroke-linecap="round" stroke-linejoin="round"/>
<path d="M7.85712 17.2852H23.2857" stroke="black" stroke-width="1.71429" stroke-linecap="round" stroke-linejoin="round"/>
</svg>
