<?xml version="1.0" encoding="utf-8"?>
<!-- Generator: Adobe Illustrator 23.0.3, SVG Export Plug-In . SVG Version: 6.00 Build 0)  -->
<svg version="1.1" id="Layer_1" xmlns="http://www.w3.org/2000/svg" xmlns:xlink="http://www.w3.org/1999/xlink" x="0px" y="0px"
	 viewBox="0 0 70 70" style="enable-background:new 0 0 70 70;" xml:space="preserve">
<style type="text/css">
	.st0{fill-rule:evenodd;clip-rule:evenodd;}
</style>
<g>
	<path class="st0" d="M12.9,24.4c0-0.8,0.8-1.4,1.8-1.4h40.6c1,0,1.8,0.6,1.8,1.4c0,0.8-0.8,1.4-1.8,1.4H14.7
		C13.7,25.8,12.9,25.2,12.9,24.4L12.9,24.4z"/>
	<path class="st0" d="M12.9,32.8c0-0.8,0.8-1.4,1.8-1.4h40.6c1,0,1.8,0.6,1.8,1.4c0,0.8-0.8,1.4-1.8,1.4H14.7
		C13.7,34.2,12.9,33.6,12.9,32.8L12.9,32.8z"/>
	<path class="st0" d="M12.9,41.1c0-0.8,0.8-1.4,1.8-1.4h18.4c1,0,1.8,0.6,1.8,1.4c0,0.8-0.8,1.4-1.8,1.4H14.7
		C13.7,42.5,12.9,41.9,12.9,41.1z"/>
	<path class="st0" d="M40.6,41.1c0-0.7,0.4-1.2,1-1.2h9.7c0.5,0,1,0.5,1,1.2c0,0.7-0.4,1.2-1,1.2h-9.7C41,42.3,40.6,41.8,40.6,41.1z
		"/>
	<path class="st0" d="M46.5,35.3c0.7,0,1.2,0.4,1.2,1V46c0,0.5-0.5,1-1.2,1c-0.7,0-1.2-0.4-1.2-1v-9.7
		C45.2,35.7,45.8,35.3,46.5,35.3z"/>
</g>
</svg>
