<?xml version="1.0" encoding="utf-8"?>
<!-- Generator: Adobe Illustrator 23.0.3, SVG Export Plug-In . SVG Version: 6.00 Build 0)  -->
<svg version="1.1" id="Layer_1" xmlns="http://www.w3.org/2000/svg" xmlns:xlink="http://www.w3.org/1999/xlink" x="0px" y="0px"
	 viewBox="0 0 70 70" style="enable-background:new 0 0 70 70;" xml:space="preserve">
<g>
	<path d="M14.7,51.8c0-1.2,0.9-1.6,1.3-1.7l13.2-6.2c1-0.4,1.6-1.3,1.7-2.3c0.2-1-0.3-2-1.1-2.7c-3.1-2.5-4.6-8-4.6-10.9v-7.5
		c0-3.1,5.5-7.5,10.5-7.5c5.1,0,10.5,4.3,10.5,7.5v7.5c0,2.8-1.2,8.4-4.4,10.9c-0.8,0.7-1.3,1.6-1.1,2.7c0.2,1,0.7,1.9,1.7,2.4
		l4.5,2.1l0.7-3l-4-1.9c4.1-3.3,5.5-9.7,5.5-13.3v-7.5c0-4.9-6.9-10.5-13.5-10.5s-13.5,5.5-13.5,10.5v7.5c0,3.3,1.5,9.9,5.7,13.3
		l-13.2,6.2c0,0-3,1.3-3,3v4.5c0,1.6,1.3,3,3,3h33v-3h-33L14.7,51.8z M58.1,48.8h-4.5v-4.5c0-0.8-0.7-1.5-1.5-1.5s-1.5,0.7-1.5,1.5
		v4.5h-4.5c-0.8,0-1.5,0.7-1.5,1.5s0.7,1.5,1.5,1.5h4.5v4.5c0,0.8,0.7,1.5,1.5,1.5s1.5-0.7,1.5-1.5v-4.5h4.5c0.8,0,1.5-0.7,1.5-1.5
		S58.9,48.8,58.1,48.8z"/>
</g>
</svg>
