<?xml version="1.0" encoding="utf-8"?>
<!-- Generator: Adobe Illustrator 23.0.3, SVG Export Plug-In . SVG Version: 6.00 Build 0)  -->
<svg version="1.1" id="Layer_1" xmlns="http://www.w3.org/2000/svg" xmlns:xlink="http://www.w3.org/1999/xlink" x="0px" y="0px"
	 viewBox="0 0 70 70" style="enable-background:new 0 0 70 70;" xml:space="preserve">
<style type="text/css">
	.st0{clip-path:url(#SVGID_2_);}
	.st1{fill:#010101;}
	.st2{fill:none;stroke:#010101;stroke-width:1.5;stroke-miterlimit:10;}
</style>
<g>
	<defs>
		<rect id="SVGID_1_" x="11" y="15.3" width="48" height="39.5"/>
	</defs>
	<clipPath id="SVGID_2_">
		<use xlink:href="#SVGID_1_"  style="overflow:visible;"/>
	</clipPath>
	<g class="st0">
		<path class="st1" d="M47.3,17.7c0.7,0,1.2-0.5,1.2-1.2c0-0.7-0.5-1.2-1.2-1.2c-4.1,0-7.4,3.1-8,7.2H38c-0.7,0-1.2,0.5-1.2,1.2
			c0,0.7,0.5,1.2,1.2,1.2h1.3c0.6,4,3.9,7.2,8,7.2c0.7,0,1.2-0.5,1.2-1.2c0-0.7-0.5-1.2-1.2-1.2c-2.8,0-5.1-2.1-5.7-4.8h5.7
			c0.7,0,1.2-0.5,1.2-1.2c0-0.7-0.5-1.2-1.2-1.2h-5.7C42.1,19.7,44.5,17.7,47.3,17.7z"/>
		<path class="st2" d="M23.7,37.1H13c-0.6,0-1.1,0.5-1.1,1.2v14.3c0,0.7,0.5,1.2,1.1,1.2h10.7c0.6,0,1.1-0.5,1.1-1.2V38.3
			C24.8,37.6,24.3,37.1,23.7,37.1z"/>
		<path class="st2" d="M54.5,34c-0.7,0-1.4,0.2-2.2,0.6l-5.6,2.9c-1.5,0.8-4.1,1.4-6.4,1.4c-0.6,0-1.2,0-1.6-0.1L33.9,38
			c-3.3-0.6-5.9,1.9-5.9,5.2V48c0,1.5,0.5,2.8,1.4,3.8c1,1,2.2,1.5,3.6,1.5c0.3,0,0.6,0,0.8-0.1l7-1c2.6-0.4,6.7-1.9,9-3.3l3.7-2.3
			c2.5-1.6,4.5-5.2,4.5-8.3C58.1,35.8,56.6,34,54.5,34z"/>
	</g>
</g>
</svg>
