<?xml version="1.0" encoding="utf-8"?>
<!-- Generator: Adobe Illustrator 23.0.3, SVG Export Plug-In . SVG Version: 6.00 Build 0)  -->
<svg version="1.1" id="Layer_1" xmlns="http://www.w3.org/2000/svg" xmlns:xlink="http://www.w3.org/1999/xlink" x="0px" y="0px"
	 viewBox="0 0 70 70" style="enable-background:new 0 0 70 70;" xml:space="preserve">
<style type="text/css">
	.st0{fill:none;stroke:#000000;stroke-width:2.5;stroke-linecap:round;stroke-linejoin:round;}
	.st1{fill:none;stroke:#171717;stroke-width:2.5;stroke-linecap:round;stroke-linejoin:round;}
</style>
<g>
	<path class="st0" d="M-168.6-504.2h47.7"/>
	<path class="st0" d="M-140.9-486.3l20.1-17.9l-20.1-17.9"/>
</g>
<g>
	<path class="st1" d="M-78.8-500.5l24.1-24.1l24.1,24.1"/>
	<path class="st1" d="M-71.4-507.9v24.1H-38v-24.1"/>
	<path class="st1" d="M-54.7-483.8v-14.9"/>
</g>
<path class="st1" d="M56.5-515.9l-10.2,4.2v-5c0-0.9-0.4-1.7-1.1-2.4c-0.7-0.6-1.6-1-2.5-1h-27c-1,0-1.9,0.4-2.5,1
	c-0.7,0.6-1.1,1.5-1.1,2.4v23.4c0,0.9,0.4,1.7,1.1,2.4c0.7,0.6,1.6,1,2.5,1h27c1,0,1.9-0.4,2.5-1c0.7-0.6,1.1-1.5,1.1-2.4v-5
	l10.2,4.2c0.3,0.1,0.6,0.1,0.9,0.1c0.3,0,0.6-0.1,0.8-0.3c0.2-0.2,0.4-0.4,0.6-0.6c0.1-0.2,0.2-0.5,0.2-0.8v-18.6
	c0-0.3-0.1-0.5-0.2-0.8c-0.1-0.2-0.3-0.4-0.6-0.6c-0.2-0.2-0.5-0.3-0.8-0.3C57.1-516,56.8-516,56.5-515.9L56.5-515.9z"/>
<g>
	<path class="st0" d="M53.6,51.2l-37.1-13c-0.6-0.2-1.1-0.6-1.5-1.1s-0.6-1.1-0.6-1.8v-3.5c0-0.7,0.2-1.3,0.6-1.8
		c0.4-0.5,0.9-0.9,1.5-1.2L53.6,16c0.2-0.1,0.5-0.1,0.7-0.1s0.5,0.1,0.7,0.3c0.2,0.1,0.4,0.3,0.5,0.6c0.1,0.2,0.2,0.5,0.2,0.7v32.2
		c0,0.3-0.1,0.5-0.2,0.7c-0.1,0.2-0.3,0.4-0.5,0.6c-0.2,0.1-0.4,0.2-0.7,0.3C54.1,51.3,53.8,51.3,53.6,51.2z"/>
	<path class="st0" d="M39.7,46.4c-0.3,2.2-1.4,4.2-3.1,5.7c-1.7,1.4-3.9,2.1-6.1,2s-4.3-1.1-5.8-2.7c-1.5-1.6-2.4-3.8-2.4-6v-5.1"/>
</g>
</svg>
