<?xml version="1.0" encoding="utf-8"?>
<!-- Generator: Adobe Illustrator 23.0.3, SVG Export Plug-In . SVG Version: 6.00 Build 0)  -->
<svg version="1.1" id="Layer_1" xmlns="http://www.w3.org/2000/svg" xmlns:xlink="http://www.w3.org/1999/xlink" x="0px" y="0px"
	 viewBox="0 0 70 70" style="enable-background:new 0 0 70 70;" xml:space="preserve">
<style type="text/css">
	.st0{stroke:#000000;stroke-width:0.75;stroke-miterlimit:10;}
</style>
<g>
	<path class="st0" d="M13.7,47.7l9.1,9.1c0.1,0.1,0.2,0.1,0.3,0.1h23.5c0.2,0,0.4-0.2,0.4-0.4v-9.7c0-0.2-0.2-0.4-0.4-0.4
		c-0.2,0-0.4,0.2-0.4,0.4V56l-22.9,0l-8.3-8.3h7.6v4.9c0,0.2,0.2,0.4,0.4,0.4c0.2,0,0.4-0.2,0.4-0.4v-5.4c0,0,0,0,0,0
		c0-0.2-0.2-0.4-0.4-0.4h-8.7V15.4h31.8v8.9l-11,2.8v-1.3c0-0.1-0.1-0.2-0.1-0.3c-0.1-0.1-0.2-0.1-0.3-0.1L28,26.1
		c-1.2,0.1-2.2,1.2-2.2,2.4v0.2h-1.1c-1.3,0-2.3,1-2.3,2.3v5.2c0,1.3,1,2.3,2.3,2.3h1.1v0.3c0,1.2,0.8,2.2,2,2.4l1.8,0.3
		c0,0,0,0,0,0.1l3.8,8.8c0.1,0.2,0.2,0.3,0.4,0.3h2.9c0.1,0,0.3-0.1,0.3-0.2c0.1-0.1,0.1-0.2,0.1-0.4l-1.2-5.4h0.7
		c0.2,0,0.4-0.2,0.4-0.4c0-0.2-0.2-0.4-0.4-0.4h-0.9l-0.6-2.5V40l11.3,2.9l0.1,0c1.6,0.4,2.8,1.9,2.8,3.6v0.1c0,0,0,0,0,0
		c0,1.5,1.1,2.6,2.3,2.6c1.3,0,2.3-1.2,2.3-2.7l0-26c0-1.5-1.1-2.7-2.3-2.7c-1.3,0-2.3,1.2-2.3,2.6c0,0,0,0,0,0v0.1
		c0,1.5-0.9,2.9-2.3,3.4l0-9.1c0-0.2-0.2-0.4-0.4-0.4H14c-0.2,0-0.4,0.2-0.4,0.4v32.3c0,0,0,0,0,0.1c0,0,0,0,0,0.1
		C13.7,47.5,13.7,47.6,13.7,47.7L13.7,47.7z M24.8,37.5c-0.8,0-1.4-0.6-1.4-1.4V31c0-0.8,0.6-1.4,1.4-1.4h1.1v8L24.8,37.5z
		 M34.2,49.7l-3.5-8.1l0.8,0.1c0,0,0.1,0,0.1,0c0.2,0,0.4-0.1,0.4-0.4c0-0.2-0.1-0.5-0.4-0.5L28,40.2c-0.8-0.1-1.3-0.8-1.3-1.6V38
		c0,0,0,0,0,0v-8.8c0,0,0,0,0,0v-0.6c0-0.8,0.6-1.5,1.4-1.6l6.3-0.7v15c0,0,0,0,0,0c0,0,0,0,0,0.1l1.8,8.3L34.2,49.7z M50.4,20.5
		c0-1,0.7-1.8,1.5-1.8c0.8,0,1.5,0.8,1.5,1.8v26c0,1-0.7,1.8-1.5,1.8c-0.8,0-1.5-0.8-1.5-1.8V20.5z M49.5,23.3v20.5
		c-0.6-0.9-1.5-1.5-2.6-1.8l-11.6-2.9l0-11l11.6-2.9c0,0,0,0,0,0C48,24.8,48.9,24.2,49.5,23.3L49.5,23.3z"/>
	<path class="st0" d="M61.3,33.1h-1.9c-0.2,0-0.4,0.2-0.4,0.4c0,0.2,0.2,0.4,0.4,0.4h1.9c0.2,0,0.4-0.2,0.4-0.4
		C61.8,33.3,61.6,33.1,61.3,33.1L61.3,33.1z"/>
	<path class="st0" d="M57.3,28.2c0.1,0.2,0.2,0.2,0.4,0.2c0.1,0,0.1,0,0.2,0l1.8-0.9c0.2-0.1,0.3-0.4,0.2-0.6
		c-0.1-0.2-0.4-0.3-0.6-0.2l-1.8,0.9C57.3,27.7,57.2,28,57.3,28.2L57.3,28.2z"/>
	<path class="st0" d="M59.7,39.6l-1.8-0.9c-0.2-0.1-0.5,0-0.6,0.2c-0.1,0.2,0,0.5,0.2,0.6l1.8,0.9c0.1,0,0.1,0,0.2,0
		c0.2,0,0.3-0.1,0.4-0.2C60,40,59.9,39.7,59.7,39.6L59.7,39.6z"/>
	<path class="st0" d="M28.6,20.5c0-0.2-0.2-0.4-0.4-0.4h-9.6c-0.2,0-0.4,0.2-0.4,0.4c0,0.2,0.2,0.4,0.4,0.4h9.6
		C28.4,21,28.6,20.8,28.6,20.5z"/>
</g>
</svg>
