<?xml version="1.0" encoding="utf-8"?>
<!-- Generator: Adobe Illustrator 23.0.3, SVG Export Plug-In . SVG Version: 6.00 Build 0)  -->
<svg version="1.1" id="Layer_1" xmlns="http://www.w3.org/2000/svg" xmlns:xlink="http://www.w3.org/1999/xlink" x="0px" y="0px"
	 viewBox="0 0 70 70" style="enable-background:new 0 0 70 70;" xml:space="preserve">
<style type="text/css">
	.st0{fill:none;stroke:#000000;stroke-width:2.5;stroke-linecap:round;stroke-linejoin:round;}
</style>
<path class="st0" d="M45.5,17.9h6.3c1.1,0,2.2,0.4,3,1c0.8,0.7,1.2,1.6,1.2,2.5v35.3c0,0.9-0.4,1.8-1.2,2.5c-0.8,0.7-1.9,1-3,1H18.1
	c-1.1,0-2.2-0.4-3-1c-0.8-0.7-1.2-1.6-1.2-2.5V21.4c0-0.9,0.4-1.8,1.2-2.5c0.8-0.7,1.9-1,3-1h6.3"/>
<path class="st0" d="M41.3,14.3H28.7c-2.3,0-4.2,1.6-4.2,3.5v1.8c0,1.9,1.9,3.5,4.2,3.5h12.7c2.3,0,4.2-1.6,4.2-3.5v-1.8
	C45.5,15.9,43.7,14.3,41.3,14.3z"/>
</svg>
