<?xml version="1.0" encoding="utf-8"?>
<!-- Generator: Adobe Illustrator 23.0.3, SVG Export Plug-In . SVG Version: 6.00 Build 0)  -->
<svg version="1.1" id="Layer_1" xmlns="http://www.w3.org/2000/svg" xmlns:xlink="http://www.w3.org/1999/xlink" x="0px" y="0px"
	 viewBox="0 0 100 100.5" style="enable-background:new 0 0 100 100.5;" xml:space="preserve">
<style type="text/css">
	.st0{fill:none;stroke:#000000;stroke-width:2;stroke-linecap:round;stroke-miterlimit:10;}
	.st1{stroke:#000000;stroke-width:0.2;stroke-miterlimit:10;}
</style>
<g>
	<line class="st0" x1="80.2" y1="25.7" x2="84.3" y2="23.8"/>
	<line class="st0" x1="86.3" y1="38.6" x2="90.4" y2="36.7"/>
	<line class="st0" x1="87.8" y1="49.9" x2="92.1" y2="51.3"/>
	<line class="st0" x1="82" y1="61.8" x2="84.8" y2="65.3"/>
</g>
<path class="st1" d="M81.6,46.1c0-2.6-1-5-2.7-6.9s-4.1-3-6.7-3.2V21c0-0.4-0.3-0.7-0.7-0.7h-6.3c-0.2,0-0.4,0.1-0.5,0.2
	s-0.2,0.3-0.2,0.5v5.8l-18.2,6.1h-21c-2.6,0-5.2,1-7.2,2.7s-3.3,4.1-3.7,6.7h-2.5c-1.4,0-2.7,0.7-3.4,1.9c-0.7,1.2-0.7,2.7,0,3.9
	s2,1.9,3.4,1.9h2.5c0.4,2.6,1.7,5,3.7,6.7s4.6,2.7,7.2,2.7h1.6L33,84c0.1,0.3,0.4,0.6,0.7,0.5H40c0.4,0,0.7-0.3,0.7-0.7V65.3
	l5.7-5.8l17.9,6v5.8c0,0.2,0.1,0.4,0.2,0.5S64.8,72,65,72h6.3c0.4,0,0.7-0.3,0.7-0.7v-15c2.6-0.2,5-1.3,6.7-3.2
	C80.6,51.1,81.6,48.7,81.6,46.1L81.6,46.1z M11.8,48.5c-0.9,0-1.7-0.5-2.1-1.2s-0.4-1.7,0-2.4s1.2-1.2,2.1-1.2h2.4v0.2v4.5v0.2
	L11.8,48.5z M15.6,48.3v-4.5c0-2.5,1-5,2.8-6.8s4.2-2.8,6.8-2.8h1.5v23.7h-1.5c-2.5,0-5-1-6.8-2.8C16.6,53.3,15.6,50.9,15.6,48.3
	L15.6,48.3z M34.3,83.1l-5.9-23.7h16.2l-4.8,4.8h-6c-0.4,0-0.7,0.3-0.7,0.7c0,0.4,0.3,0.7,0.7,0.7h5.6V83L34.3,83.1z M47,58.1v-5.8
	c0-0.4-0.3-0.7-0.7-0.7s-0.7,0.3-0.7,0.7v5.6H28.2V34.3h17.4v11.8c0,0.4,0.3,0.7,0.7,0.7s0.7-0.3,0.7-0.7v-12l17.4-5.8V64L47,58.1z
	 M70.7,70.5h-4.8V21.7h4.8V70.5z M72.2,54.8V37.4c2.9,0.2,5.5,1.9,6.9,4.5s1.4,5.7,0,8.3S75.1,54.5,72.2,54.8L72.2,54.8z"/>
</svg>
