<?xml version="1.0" encoding="utf-8"?>
<!-- Generator: Adobe Illustrator 23.0.3, SVG Export Plug-In . SVG Version: 6.00 Build 0)  -->
<svg version="1.1" id="Layer_1" xmlns="http://www.w3.org/2000/svg" xmlns:xlink="http://www.w3.org/1999/xlink" x="0px" y="0px"
	 viewBox="0 0 100 100.5" style="enable-background:new 0 0 100 100.5;" xml:space="preserve">
<style type="text/css">
	.st0{fill:none;stroke:#000000;stroke-width:2;stroke-linecap:round;stroke-miterlimit:10;}
</style>
<path class="st0" d="M75.2,61.5v16c0,3.7-3,6.7-6.7,6.7H31.5c-3.7,0-6.7-3-6.7-6.7v-15v-0.9 M55,51.5v26.9 M44.9,73.5V39.9
	c0-0.8-0.6-1.5-1.3-1.6l0,0l0,0h-0.1h-0.1h-0.1h-0.1h-0.1h-5.8c-0.5,0-0.8-0.6-0.6-1l13.1-21l13.2,21.1c0.3,0.4,0,0.9-0.5,0.9h-5.9
	c-0.8,0-1.5,0.6-1.6,1.4l0,0l0,0v0.1v0.1V40v0.1v6.7"/>
</svg>
