<?xml version="1.0" encoding="utf-8"?>
<!-- Generator: Adobe Illustrator 23.0.3, SVG Export Plug-In . SVG Version: 6.00 Build 0)  -->
<svg version="1.1" id="Layer_1" xmlns="http://www.w3.org/2000/svg" xmlns:xlink="http://www.w3.org/1999/xlink" x="0px" y="0px"
	 viewBox="0 0 100 100.5" style="enable-background:new 0 0 100 100.5;" xml:space="preserve">
<style type="text/css">
	.st0{fill:none;stroke:#000000;stroke-width:2;stroke-linecap:round;stroke-miterlimit:10;}
</style>
<g>
	<path class="st0" d="M27,38.2c0-1.8-1.5-3.3-3.3-3.3h-6.6c-1.8,0-3.3,1.5-3.3,3.3v6.6c0,1.8,1.5,3.3,3.3,3.3h6.6
		c1.8,0,3.3-1.5,3.3-3.3V38.2z M73,41.5v-3.3c0-1.8,1.5-3.3,3.3-3.3h6.6c1.8,0,3.3,1.5,3.3,3.3l0,6.6 M43.1,51.2
		c-1.2,0-2.2-1-2.2-2.2V35.4c0-1.2,1-2.2,2.2-2.2h13.5c1.3,0,2.3,1,2.3,2.2v6c0,0.7-0.7,1.2-1.4,1L50.6,40c-0.8-0.3-1.8-0.1-2.3,0.6
		c-0.6,0.6-0.8,1.5-0.5,2.3l2.4,7c0.2,0.7-0.3,1.3-0.9,1.3L43.1,51.2z M55.3,46.5l27.2,9.3c0.8,0.3,0.8,1.4,0.1,1.7l-11.3,5
		c-0.5,0.2-0.9,0.6-1.1,1.2l-5,11.2c-0.3,0.8-1.4,0.7-1.7-0.1l-9.3-27.2C53.9,46.9,54.6,46.2,55.3,46.5z"/>
</g>
</svg>
