<?xml version="1.0" encoding="utf-8"?>
<!-- Generator: Adobe Illustrator 23.0.3, SVG Export Plug-In . SVG Version: 6.00 Build 0)  -->
<svg version="1.1" id="Layer_1" xmlns="http://www.w3.org/2000/svg" xmlns:xlink="http://www.w3.org/1999/xlink" x="0px" y="0px"
	 viewBox="0 0 70 70" style="enable-background:new 0 0 70 70;" xml:space="preserve">
<g>
	<path d="M22.8,50.1c-0.3,0-0.6-0.2-0.7-0.4l-4.3-8.7c-0.1-0.3-0.1-0.7,0.2-0.9l15.6-14.9c0.2-0.2,0.4-0.2,0.7-0.2s0.4,0.2,0.5,0.4
		l10,20.4c0.1,0.2,0.1,0.5,0,0.7c-0.1,0.2-0.3,0.4-0.6,0.4l-21.3,3.2C22.9,50.1,22.8,50.1,22.8,50.1L22.8,50.1z M19.5,40.7l3.8,7.8
		l19.7-3L33.9,27L19.5,40.7z"/>
	<path d="M40.8,40.1c-0.1,0-0.2,0-0.2,0c-0.2-0.1-0.3-0.2-0.4-0.4l-3.3-6.8c-0.1-0.2-0.1-0.4,0-0.6c0.1-0.2,0.2-0.3,0.4-0.4l0.5-0.2
		c0.6-0.3,1.3-0.5,2-0.5c1.8,0,3.3,1,4.1,2.6c1.1,2.3,0.2,5-2.1,6.1L41.1,40C41,40.1,40.9,40.1,40.8,40.1L40.8,40.1z M38.5,32.9
		l2.7,5.4c1.4-0.8,1.9-2.5,1.2-3.9c-0.5-1-1.6-1.7-2.7-1.7C39.2,32.7,38.8,32.7,38.5,32.9L38.5,32.9z"/>
	<path d="M17.9,52.5c-0.3,0-0.5-0.2-0.7-0.4L13,43.3c-0.1-0.2-0.1-0.4,0-0.6c0.1-0.2,0.2-0.3,0.4-0.4l4.9-2.4c0.4-0.2,0.8,0,1,0.3
		l4.3,8.7c0.1,0.2,0.1,0.4,0,0.6c-0.1,0.2-0.2,0.3-0.4,0.4l-4.9,2.4C18.2,52.4,18.1,52.5,17.9,52.5L17.9,52.5z M14.7,43.3l3.6,7.4
		l3.5-1.7l-3.6-7.4L14.7,43.3z"/>
	<path d="M14.3,51.5c-1.3,0-2.5-0.7-3.1-1.9c-0.4-0.8-0.5-1.8-0.2-2.6c0.3-0.9,0.9-1.6,1.8-2l1.5-0.7c0.2-0.1,0.4-0.1,0.6,0
		c0.2,0.1,0.3,0.2,0.4,0.4l2.4,4.9c0.1,0.2,0.1,0.4,0,0.6c-0.1,0.2-0.2,0.3-0.4,0.4l-1.5,0.7C15.4,51.4,14.9,51.5,14.3,51.5
		L14.3,51.5z M14.3,45.9l-0.8,0.4c-0.5,0.2-0.8,0.6-1,1.1c-0.2,0.5-0.1,1,0.1,1.5c0.3,0.7,1,1.1,1.8,1.1c0.3,0,0.6-0.1,0.9-0.2
		l0.8-0.4L14.3,45.9z"/>
	<path d="M38.3,47.3c-0.3,0-0.5-0.2-0.7-0.4l-6.2-12.6c-0.2-0.4,0-0.8,0.3-1c0.4-0.2,0.8,0,1,0.3L39,46.2c0.2,0.4,0,0.8-0.3,1
		C38.5,47.3,38.4,47.3,38.3,47.3L38.3,47.3z"/>
	<path d="M27.1,58.8c-0.2,0-0.3-0.1-0.5-0.2l-8.2-6.9c-0.2-0.2-0.3-0.4-0.3-0.7c0-0.3,0.2-0.5,0.4-0.6l3.9-1.9
		c0.3-0.1,0.6-0.1,0.8,0.1l8.2,6.9c0.2,0.2,0.3,0.4,0.3,0.7c0,0.3-0.2,0.5-0.4,0.6l-3.9,1.9C27.3,58.8,27.2,58.8,27.1,58.8
		L27.1,58.8z M20.3,51.4l6.9,5.8l2.4-1.2l-6.9-5.8L20.3,51.4z"/>
	<path d="M22.9,42.8c-0.3,0-0.5-0.2-0.7-0.4c-0.2-0.4,0-0.8,0.3-1l1.9-0.9c0.4-0.2,0.8,0,1,0.3c0.2,0.4,0,0.8-0.3,1l-1.9,0.9
		C23.1,42.8,23,42.8,22.9,42.8L22.9,42.8z"/>
	<path d="M24.3,45.7c-0.3,0-0.5-0.2-0.7-0.4c-0.2-0.4,0-0.8,0.3-1l1.9-0.9c0.4-0.2,0.8,0,1,0.3s0,0.8-0.3,1l-1.9,0.9
		C24.5,45.7,24.4,45.7,24.3,45.7L24.3,45.7z"/>
	<path d="M17,32.9c-1.6,0-2.9-1.3-2.9-2.9c0-1.6,1.3-2.9,2.9-2.9s2.9,1.3,2.9,2.9C20,31.6,18.7,32.9,17,32.9z M17,28.5
		c-0.8,0-1.4,0.6-1.4,1.4s0.6,1.4,1.4,1.4s1.4-0.6,1.4-1.4S17.8,28.5,17,28.5z"/>
	<path d="M27.9,21c-2.2,0-4-1.8-4-4s1.8-4,4-4s4,1.8,4,4S30.1,21,27.9,21z M27.9,14.5c-1.4,0-2.5,1.1-2.5,2.5c0,1.4,1.1,2.5,2.5,2.5
		s2.5-1.1,2.5-2.5C30.4,15.6,29.2,14.5,27.9,14.5z"/>
	<path d="M60.3,14.5H41.9c-0.4,0-0.8-0.3-0.8-0.8c0-0.4,0.3-0.8,0.8-0.8h18.4c0.4,0,0.8,0.3,0.8,0.8C61.1,14.1,60.7,14.5,60.3,14.5z
		"/>
	<path d="M60.3,17.7H41.9c-0.4,0-0.8-0.3-0.8-0.8s0.3-0.8,0.8-0.8h18.4c0.4,0,0.8,0.3,0.8,0.8S60.7,17.7,60.3,17.7z"/>
	<path d="M60.3,21H41.9c-0.4,0-0.8-0.3-0.8-0.8s0.3-0.8,0.8-0.8h18.4c0.4,0,0.8,0.3,0.8,0.8S60.7,21,60.3,21z"/>
	<path d="M60.3,24.2H41.9c-0.4,0-0.8-0.3-0.8-0.8s0.3-0.8,0.8-0.8h18.4c0.4,0,0.8,0.3,0.8,0.8S60.7,24.2,60.3,24.2z"/>
	<path d="M60.3,27.5h-9.7c-0.4,0-0.8-0.3-0.8-0.8s0.3-0.8,0.8-0.8h9.7c0.4,0,0.8,0.3,0.8,0.8S60.7,27.5,60.3,27.5z"/>
	<path d="M60.3,30.7h-9.7c-0.4,0-0.8-0.3-0.8-0.8c0-0.4,0.3-0.8,0.8-0.8h9.7c0.4,0,0.8,0.3,0.8,0.8C61.1,30.4,60.7,30.7,60.3,30.7z"
		/>
	<path d="M60.3,33.9h-9.7c-0.4,0-0.8-0.3-0.8-0.8s0.3-0.8,0.8-0.8h9.7c0.4,0,0.8,0.3,0.8,0.8S60.7,33.9,60.3,33.9z"/>
	<path d="M60.3,37.2h-9.7c-0.4,0-0.8-0.3-0.8-0.8c0-0.4,0.3-0.8,0.8-0.8h9.7c0.4,0,0.8,0.3,0.8,0.8C61.1,36.9,60.7,37.2,60.3,37.2z"
		/>
	<path d="M52.7,58.8H14.9c-0.4,0-0.8-0.3-0.8-0.8c0-0.4,0.3-0.8,0.8-0.8h37.9c0.4,0,0.8,0.3,0.8,0.8C53.5,58.5,53.2,58.8,52.7,58.8z
		"/>
</g>
</svg>
