<?xml version="1.0" encoding="utf-8"?>
<!-- Generator: Adobe Illustrator 23.0.3, SVG Export Plug-In . SVG Version: 6.00 Build 0)  -->
<svg version="1.1" id="Layer_1" xmlns="http://www.w3.org/2000/svg" xmlns:xlink="http://www.w3.org/1999/xlink" x="0px" y="0px"
	 viewBox="0 0 70 70" style="enable-background:new 0 0 70 70;" xml:space="preserve">
<g>
	<path d="M51,29.8c-0.9-0.7-2.1-1.7-2.3-1.9c0-1-0.8-1.8-1.8-1.8c-1,0-1.8,0.8-1.8,1.8V44c-1.5-0.9-3.4-1.5-5.5-1.5
		c-5.1,0-9.2,3.3-9.2,7.3s4.1,7.3,9.2,7.3s9.2-3.3,9.2-7.3V32.7c2.6,2,5.5,4.3,5.5,8c0,1,0.8,1.8,1.8,1.8c1,0,1.8-0.8,1.8-1.8
		C57.9,35.2,53.8,31.9,51,29.8L51,29.8z M39.6,53.5c-3,0-5.5-1.7-5.5-3.7c0-2,2.5-3.7,5.5-3.7c3,0,5.5,1.7,5.5,3.7
		C45.1,51.8,42.6,53.5,39.6,53.5z M30,57.2H17.6c-3,0-5.5-2.5-5.5-5.5v-8.9c0-3.2,2-6,5-7l4.7-1.6c0.7-0.2,1.3-0.9,1.3-1.7v-2
		c-2.3-2.1-3.7-5-3.7-8.2V19c0-5.6,4-10.6,9.6-11.3c6.7-0.9,12.5,4.4,12.5,10.9v3.7c0,3.1-1.3,6.1-3.7,8.2v2c0,0.8,0.5,1.5,1.3,1.7
		l2.4,0.8v3.9l-3.6-1.2c-2.2-0.7-3.8-2.9-3.8-5.2v-3c0-0.6,0.3-1,0.7-1.4c1.9-1.4,2.9-3.5,2.9-5.8V19c0-3.8-2.8-7.3-6.6-7.6
		c-4.4-0.4-8.1,3-8.1,7.3v3.7c0,2.3,1.1,4.4,2.9,5.8c0.4,0.3,0.7,0.8,0.7,1.4v3c0,2.4-1.5,4.5-3.8,5.2l-4.7,1.6
		c-1.5,0.5-2.5,1.9-2.5,3.5v8.9c0,1,0.8,1.8,1.8,1.8h9.9C28.1,54.9,28.9,56.1,30,57.2L30,57.2z"/>
</g>
</svg>
