<svg id="Layer_1" data-name="Layer 1" xmlns="http://www.w3.org/2000/svg" viewBox="0 0 40 40"><defs><style>.cls-1{fill:#e0e2e4;}.cls-2,.cls-3{fill:none;stroke:#000;stroke-miterlimit:10;}.cls-2{stroke-linecap:round;}</style></defs><title>Untitled-1</title><path class="cls-1" d="M19.5,18.5V6.5s-10,1-12,7,.6,13.12,1.8,14.06,6.2,6.94,15.2,3.94A15.23,15.23,0,0,0,28,29a20.64,20.64,0,0,0,3.46-4.41,12.87,12.87,0,0,0,1-4.91l-13-.18Z"/><path class="cls-2" d="M32.5,19.5a13,13,0,1,1-13-13"/><polyline class="cls-2" points="19.5 6.5 19.5 19.5 32.5 19.5"/><path class="cls-3" d="M35,26.64a17.35,17.35,0,0,1-1.92,3.18"/><path class="cls-3" d="M36.44,21.47a16.66,16.66,0,0,1-.89,3.81"/><path class="cls-2" d="M31.91,31.18a17,17,0,1,1,2.18-20.5"/></svg>