<?xml version="1.0" encoding="utf-8"?>
<!-- Generator: Adobe Illustrator 23.0.3, SVG Export Plug-In . SVG Version: 6.00 Build 0)  -->
<svg version="1.1" id="Layer_1" xmlns="http://www.w3.org/2000/svg" xmlns:xlink="http://www.w3.org/1999/xlink" x="0px" y="0px"
	 viewBox="0 0 70 70" style="enable-background:new 0 0 70 70;" xml:space="preserve">
<style type="text/css">
	.st0{fill:#E0E2E4;stroke:#242830;stroke-linecap:round;stroke-linejoin:round;stroke-miterlimit:10;}
	.st1{fill:none;stroke:#242830;stroke-linecap:round;stroke-linejoin:round;stroke-miterlimit:10;}
</style>
<g>
	<path class="st0" d="M57,45.6c0.5-0.1,0.8-0.6,0.6-1.1c-0.1-0.5-0.6-0.8-1.1-0.6c-4.8,1.2-10-5.7-10-5.8c-0.2-0.3-0.6-0.4-1-0.3
		c-0.4,0.1-0.6,0.5-0.6,0.8v15.6c-1.1-1.2-2.8-2-4.5-2c-3.5,0-6.4,2.9-6.4,6.4s2.9,6.4,6.4,6.4s6.4-2.9,6.4-6.4V41.1
		C49,43.3,52.9,46.6,57,45.6L57,45.6z M35.9,58.7"/>
	<g>
		<path class="st1" d="M30.5,58.3H12.9v-4.7c0-1.3,0.4-2.6,1.1-3.7c0.7-1.1,1.7-2,2.9-2.5l13.7-5.9l0,0c0.5-0.2,0.9-0.8,0.9-1.3
			v-4.8c0-0.5-0.2-1-0.5-1.5c-1.2-1.8-2-3.8-2.2-5.9c0-0.4-0.3-0.8-0.6-1c-1.4-1-2.2-2.5-2.2-4.1c0-0.3,0.1-0.6,0.3-0.8
			c0.2-0.2,0.5-0.3,0.8-0.3c0.4,0,0.8-0.1,1.1-0.4c0.3-0.3,0.5-0.7,0.5-1.1v-4.5l0,0c0-1,0.2-2,0.6-3c1.1-2.8,4-5.8,7.6-5.8h0.9v1.6
			c0,0.8,0.6,1.4,1.3,1.5c2.3,0.3,4.3,1.6,5.6,3.5c0.6,0.8,0.9,1.7,0.9,2.7v3.9c0,0.4,0.2,0.8,0.4,1c0.3,0.3,0.7,0.4,1,0.4
			s0.6,0.1,0.8,0.3c0.2,0.2,0.3,0.5,0.3,0.8c0,1.6-0.8,3.1-2.1,4c-0.3,0.2-0.5,0.6-0.6,1c-0.2,2.2-1,4.3-2.3,6.1"/>
	</g>
</g>
</svg>
