<?xml version="1.0" encoding="utf-8"?>
<!-- Generator: Adobe Illustrator 23.0.3, SVG Export Plug-In . SVG Version: 6.00 Build 0)  -->
<svg version="1.1" id="Layer_1" xmlns="http://www.w3.org/2000/svg" xmlns:xlink="http://www.w3.org/1999/xlink" x="0px" y="0px"
	 viewBox="0 0 70 70" style="enable-background:new 0 0 70 70;" xml:space="preserve">
<style type="text/css">
	.st0{fill:#E0E2E4;}
	.st1{fill:none;stroke:#242830;stroke-linecap:round;stroke-linejoin:round;stroke-miterlimit:10;}
	.st2{fill:none;stroke:#242830;stroke-width:2;stroke-miterlimit:10;}
	.st3{fill:#242830;}
</style>
<g>
	<path class="st0" d="M21.2,14c6.2,0,11.2,7.3,11.2,13.9s-5,10.3-11.2,10.3s-12-5.3-12-12S15,14,21.2,14z"/>
	<path class="st0" d="M40.6,14.9L40.3,33l10,0.4l0.6,4.6c0,0,9.1,1.2,9.7-1.3c1.1-4.2,0.3-14.6,0.3-14.6L52.7,14
		C52.7,14,40.6,13,40.6,14.9z"/>
</g>
<path class="st0" d="M40.9,42.7L33,38.3c-0.4-0.2-0.8-0.2-1.2,0c-0.4,0.2-0.6,0.6-0.6,1v8.9c0,0.4,0.2,0.8,0.6,1
	c0.4,0.2,0.8,0.2,1.2,0l7.9-4.4l0,0c0.4-0.2,0.6-0.6,0.6-1.1C41.5,43.4,41.3,43,40.9,42.7L40.9,42.7z"/>
<g>
	<g>
		<path class="st1" d="M40.9,42.7L33,38.3c-0.4-0.2-0.8-0.2-1.2,0c-0.4,0.2-0.6,0.6-0.6,1v8.9c0,0.4,0.2,0.8,0.6,1
			c0.4,0.2,0.8,0.2,1.2,0l7.9-4.4l0,0c0.4-0.2,0.6-0.6,0.6-1.1C41.5,43.4,41.3,43,40.9,42.7L40.9,42.7z"/>
		<path class="st1" d="M50.5,38.1l7.8-0.2c0.7,0,1.3-0.3,1.8-0.8s0.8-1.1,0.8-1.8v-12c0-0.1,0-1.2-0.1-1.3l-1.5-1.6
			c-0.8-1,0.2,0.3,0.2,0.2L52.9,14c-0.2-0.2-0.4-0.2-0.6-0.3h-9.5c-0.7,0-1.3,0.3-1.8,0.8s-0.8,1.1-0.8,1.8l0.1,16.4h-9.2
			c3.9-7.8-1.2-19.1-9.9-19c-14.5,0.5-16.5,20.6-2.6,24l1.7,0.2 M49.1,54.4H21.8c-0.8,0-1.4-0.6-1.4-1.4V38
			c4.2,0.3,8.3-1.6,10.8-5.1h18.2c0.7,0,1.3,0.6,1.3,1.3v18.9C50.5,53.7,49.9,54.4,49.1,54.4z"/>
		<path class="st2" d="M44.5,19"/>
		<path class="st1" d="M44.5,20.7H47"/>
		<path class="st1" d="M44.5,24.5h6.9"/>
		<path class="st1" d="M44.4,28.5h11.2"/>
	</g>
	<path class="st3" d="M27.8,22.2c0.3,0,0.5-0.4,0.4-0.6c0-0.3-0.4-0.4-0.6-0.4c-2.7,0.7-5.5-3-5.5-3.1C22,18,21.7,17.9,21.6,18
		c-0.2,0.1-0.4,0.3-0.4,0.5V27c-0.6-0.6-1.5-1-2.5-1c-1.9,0-3.4,1.5-3.4,3.5c0,1.9,1.6,3.5,3.4,3.5s3.5-1.5,3.5-3.5v-9.6
		C23.5,21,25.6,22.8,27.8,22.2L27.8,22.2z M18.8,31.8c-1.4,0-2.5-1.1-2.5-2.5s1.1-2.5,2.5-2.5c1.3,0,2.4,1.1,2.4,2.5
		C21.3,30.7,20.2,31.8,18.8,31.8z"/>
</g>
</svg>
