<?xml version="1.0" encoding="utf-8"?>
<!-- Generator: Adobe Illustrator 23.0.3, SVG Export Plug-In . SVG Version: 6.00 Build 0)  -->
<svg version="1.1" id="Layer_1" xmlns="http://www.w3.org/2000/svg" xmlns:xlink="http://www.w3.org/1999/xlink" x="0px" y="0px"
	 viewBox="0 0 70 70" style="enable-background:new 0 0 70 70;" xml:space="preserve">
<g>
	<path d="M50.1,10.4H27.9c-2.3,0-4.5,0.9-6.2,2.6c-1.6,1.6-2.6,3.9-2.6,6.2v8.7h4.8l0-8.7c0-1.1,0.4-2.1,1.2-2.8
		c0.7-0.7,1.8-1.2,2.8-1.2h22.2c1.1,0,2.1,0.4,2.8,1.2c0.7,0.7,1.2,1.8,1.2,2.8v22.2c0,1.1-0.4,2.1-1.2,2.8
		c-0.7,0.7-1.8,1.2-2.8,1.2h-8.7v4.8l8.7,0c2.3,0,4.5-0.9,6.2-2.6c1.6-1.6,2.6-3.9,2.6-6.2V19.1c0-2.3-0.9-4.5-2.6-6.2
		C54.6,11.3,52.4,10.4,50.1,10.4L50.1,10.4z"/>
	<path d="M23.9,35.8h-4.8v9.5H9.6v4.8h9.5v9.5h4.8v-9.5h9.5v-4.8h-9.5V35.8z"/>
</g>
</svg>
