<?xml version="1.0" encoding="utf-8"?>
<!-- Generator: Adobe Illustrator 23.0.3, SVG Export Plug-In . SVG Version: 6.00 Build 0)  -->
<svg version="1.1" id="Layer_1" xmlns="http://www.w3.org/2000/svg" xmlns:xlink="http://www.w3.org/1999/xlink" x="0px" y="0px"
	 viewBox="0 0 70 70" style="enable-background:new 0 0 70 70;" xml:space="preserve">
<g>
	<path d="M17,10.3c-1.2,0-2.2,0.9-2.2,2.2v44.9c0,1.3,1.1,2.2,2.2,2.2h36c1.2,0,2.2-1,2.2-2.2V22.6c0-0.3-0.1-0.6-0.4-0.8
		c0,0-11.8-11.2-11.8-11.2c-0.2-0.2-0.5-0.3-0.8-0.3L17,10.3z M17,12.5h23.6v9.6c0,0.6,0.2,1.2,0.7,1.7c0.4,0.4,1,0.6,1.6,0.6H53
		v33.1H17L17,12.5z M42.9,13.5c1.7,1.6,7.2,6.8,9,8.6h-9L42.9,13.5z M23.1,20.4c-0.6,0-1.1,0.6-1.1,1.2c0,0.6,0.6,1.1,1.2,1.1h12.4
		c0.6,0,1.1-0.5,1.1-1.1c0-0.6-0.5-1.1-1.1-1.1L23.1,20.4L23.1,20.4z M23.1,26c-0.6,0-1.1,0.6-1.1,1.2c0,0.6,0.6,1.1,1.2,1.1h12.4
		c0.6,0,1.1-0.5,1.1-1.1c0-0.6-0.5-1.1-1.1-1.1L23.1,26L23.1,26z M23.1,31.6c-0.6,0-1.1,0.6-1.1,1.2c0,0.6,0.6,1.1,1.2,1.1h22.5
		c0.6,0,1.1-0.5,1.1-1.1c0-0.6-0.5-1.1-1.1-1.1L23.1,31.6L23.1,31.6z M23.1,36.7c-0.6,0-1.1,0.6-1.1,1.2c0,0.6,0.6,1.1,1.2,1.1h22.5
		c0.6,0,1.1-0.5,1.1-1.1s-0.5-1.1-1.1-1.1L23.1,36.7L23.1,36.7z M23.1,41.7c-0.6,0-1.1,0.6-1.1,1.2c0,0.6,0.6,1.1,1.2,1.1h22.5
		c0.6,0,1.1-0.5,1.1-1.1c0-0.6-0.5-1.1-1.1-1.1L23.1,41.7L23.1,41.7z M48.4,46.2c-0.3,0-0.6,0.2-0.7,0.4l-4.9,5.9l-2.5-2.1
		c-0.5-0.4-1.2-0.3-1.6,0.1c-0.4,0.5-0.3,1.2,0.1,1.6l3.4,2.8c0.5,0.4,1.2,0.3,1.6-0.1l5.6-6.7c0.3-0.3,0.4-0.9,0.2-1.3
		C49.3,46.4,48.8,46.2,48.4,46.2L48.4,46.2z"/>
</g>
</svg>
