<?xml version="1.0" encoding="utf-8"?>
<!-- Generator: Adobe Illustrator 23.0.3, SVG Export Plug-In . SVG Version: 6.00 Build 0)  -->
<svg version="1.1" id="Layer_1" xmlns="http://www.w3.org/2000/svg" xmlns:xlink="http://www.w3.org/1999/xlink" x="0px" y="0px"
	 viewBox="0 0 70 70" style="enable-background:new 0 0 70 70;" xml:space="preserve">
<g>
	<path d="M32.4,35h-3.6c-0.5,0-0.9,0.4-0.9,0.9v6.2c0,0.7-0.3,1.3-0.7,1.8c-0.5,0.5-1.1,0.8-1.8,0.9c0.5-0.8,0.7-1.7,0.7-2.7
		c0-1.9-1-3.7-2.7-4.6c-1.7-1-3.7-1-5.4,0c-1.7,1-2.7,2.7-2.7,4.6c0,0.9,0.2,1.9,0.7,2.7c-0.7-0.1-1.3-0.4-1.8-0.9
		c-0.5-0.5-0.7-1.2-0.7-1.8v-6.2c0-0.2-0.1-0.5-0.3-0.6C13.2,35.1,13,35,12.8,35H9.2c-0.5,0-0.9,0.4-0.9,0.9v8
		c0,1.7,0.6,3.4,1.8,4.7c1.2,1.3,2.7,2.1,4.5,2.4v10.8c0,0.2,0.1,0.5,0.3,0.6c0.2,0.2,0.4,0.3,0.6,0.3h10.7c0.2,0,0.5-0.1,0.6-0.3
		s0.3-0.4,0.3-0.6V51c1.7-0.2,3.3-1.1,4.5-2.4c1.2-1.3,1.8-3,1.8-4.7v-8c0-0.2-0.1-0.5-0.3-0.6C32.9,35.1,32.7,35,32.4,35L32.4,35z
		 M31.5,43.9c0,1.4-0.6,2.8-1.6,3.8c-1,1-2.4,1.6-3.8,1.6c-0.5,0-0.9,0.4-0.9,0.9v10.7h-8.9V50.2c0-0.2-0.1-0.5-0.3-0.6
		c-0.2-0.2-0.4-0.3-0.6-0.3c-1.4,0-2.8-0.6-3.8-1.6c-1-1-1.6-2.4-1.6-3.8v-7.2h1.8v5.3c0,1.2,0.5,2.3,1.3,3.2c0.8,0.8,2,1.3,3.2,1.3
		h1.8c0.4,0,0.7-0.2,0.8-0.6c0.1-0.4,0-0.8-0.3-1c-0.9-0.7-1.5-1.7-1.5-2.9c0-1.3,0.7-2.5,1.8-3.1c1.1-0.6,2.5-0.6,3.6,0
		c1.1,0.6,1.8,1.8,1.8,3.1c0,1.1-0.5,2.2-1.5,2.9c-0.3,0.2-0.4,0.6-0.3,1c0.1,0.4,0.5,0.6,0.8,0.6h1.8c1.2,0,2.3-0.5,3.2-1.3
		c0.8-0.8,1.3-2,1.3-3.2v-5.3h1.8L31.5,43.9z"/>
	<path d="M60.1,35h-3.6c-0.5,0-0.9,0.4-0.9,0.9v6.2c0,0.7-0.3,1.3-0.7,1.8c-0.5,0.5-1.1,0.8-1.8,0.9c0.5-0.8,0.7-1.7,0.7-2.7
		c0-1.9-1-3.7-2.7-4.6c-1.7-1-3.7-1-5.4,0c-1.7,1-2.7,2.7-2.7,4.6c0,0.9,0.2,1.9,0.7,2.7c-0.7-0.1-1.3-0.4-1.8-0.9s-0.7-1.2-0.7-1.8
		v-6.2c0-0.2-0.1-0.5-0.3-0.6c-0.2-0.2-0.4-0.3-0.6-0.3h-3.6c-0.5,0-0.9,0.4-0.9,0.9v8c0,1.7,0.6,3.4,1.8,4.7
		c1.2,1.3,2.7,2.1,4.5,2.4v10.8c0,0.2,0.1,0.5,0.3,0.6c0.2,0.2,0.4,0.3,0.6,0.3h10.7c0.2,0,0.5-0.1,0.6-0.3c0.2-0.2,0.3-0.4,0.3-0.6
		V51c1.7-0.2,3.3-1.1,4.5-2.4c1.2-1.3,1.8-3,1.8-4.7v-8c0-0.2-0.1-0.5-0.3-0.6C60.6,35.1,60.4,35,60.1,35L60.1,35z M59.2,43.9
		c0,1.4-0.6,2.8-1.6,3.8c-1,1-2.4,1.6-3.8,1.6c-0.5,0-0.9,0.4-0.9,0.9v10.7H44V50.2c0-0.2-0.1-0.5-0.3-0.6c-0.2-0.2-0.4-0.3-0.6-0.3
		c-1.4,0-2.8-0.6-3.8-1.6c-1-1-1.6-2.4-1.6-3.8v-7.2h1.8v5.3c0,1.2,0.5,2.3,1.3,3.2c0.8,0.8,2,1.3,3.2,1.3h1.8
		c0.4,0,0.7-0.2,0.8-0.6c0.1-0.4,0-0.8-0.3-1c-0.9-0.7-1.5-1.7-1.5-2.9c0-1.3,0.7-2.5,1.8-3.1c1.1-0.6,2.5-0.6,3.6,0
		c1.1,0.6,1.8,1.8,1.8,3.1c0,1.1-0.5,2.2-1.5,2.9c-0.3,0.2-0.4,0.6-0.3,1c0.1,0.4,0.5,0.6,0.8,0.6H53c1.2,0,2.3-0.5,3.2-1.3
		c0.8-0.8,1.3-2,1.3-3.2v-5.3h1.8L59.2,43.9z"/>
	<path d="M61.1,19.3L60,19c0-0.2-0.1-0.4-0.1-0.5l0.9-0.8c0.3-0.3,0.4-0.7,0.2-1c-0.4-0.9-0.9-1.8-1.5-2.6c-0.2-0.3-0.6-0.4-1-0.3
		l-1.1,0.4c-0.1-0.1-0.3-0.3-0.4-0.4l0.4-1.1c0.1-0.4,0-0.8-0.3-1c-0.8-0.6-1.7-1.1-2.6-1.5c-0.4-0.1-0.8-0.1-1,0.2l-0.8,0.9
		c-0.2-0.1-0.4-0.1-0.5-0.1l-0.2-1.2c-0.1-0.4-0.4-0.7-0.8-0.7c-1-0.1-2-0.1-3,0c-0.4,0-0.7,0.3-0.8,0.7L46.9,11
		c-0.2,0-0.4,0.1-0.5,0.1l-0.8-0.9c-0.3-0.3-0.7-0.4-1-0.2c-0.9,0.4-1.8,0.9-2.6,1.5c-0.3,0.2-0.4,0.6-0.3,1l0.4,1.1
		c-0.1,0.1-0.3,0.3-0.4,0.4l-1.1-0.4c-0.4-0.1-0.8,0-1,0.3c-0.6,0.8-1.1,1.7-1.5,2.6c-0.1,0.4-0.1,0.8,0.2,1l0.9,0.8
		c-0.1,0.2-0.1,0.4-0.1,0.5l-1.2,0.2v0C37.3,19.3,37,19.7,37,20c-0.1,1-0.1,2,0,3c0,0.4,0.3,0.7,0.7,0.8l1.2,0.2
		c0,0.2,0.1,0.4,0.1,0.5l-0.9,0.8c-0.3,0.3-0.4,0.7-0.2,1c0.4,0.9,0.9,1.8,1.5,2.6c0.2,0.3,0.6,0.4,1,0.3l1.1-0.4
		c0.1,0.1,0.3,0.3,0.4,0.4l-0.4,1.1c-0.1,0.4,0,0.8,0.3,1c0.8,0.6,1.7,1.1,2.6,1.5c0.4,0.1,0.8,0.1,1-0.2l0.8-0.9
		c0.2,0.1,0.4,0.1,0.5,0.1l0.2,1.2c0.1,0.4,0.4,0.7,0.8,0.7c1,0.1,2,0.1,3,0c0.4,0,0.7-0.3,0.8-0.7l0.2-1.2c0.2,0,0.4-0.1,0.5-0.1
		l0.8,0.9v0c0.3,0.3,0.7,0.4,1,0.2c0.9-0.4,1.8-0.9,2.6-1.5c0.3-0.2,0.4-0.6,0.3-1l-0.4-1.1c0.1-0.1,0.3-0.3,0.4-0.4l1.1,0.4h0
		c0.4,0.1,0.8,0,1-0.3c0.6-0.8,1.1-1.7,1.5-2.6c0.1-0.4,0.1-0.8-0.2-1l-0.9-0.8c0.1-0.2,0.1-0.4,0.1-0.5l1.2-0.2h0
		c0.4-0.1,0.7-0.4,0.7-0.8c0.1-1,0.1-2,0-3C61.8,19.7,61.5,19.3,61.1,19.3L61.1,19.3z M60.1,22.2L59,22.5c-0.4,0.1-0.6,0.4-0.7,0.7
		c-0.1,0.5-0.2,1-0.4,1.4c-0.1,0.3,0,0.7,0.2,1l0.8,0.7c-0.2,0.4-0.4,0.8-0.7,1.2l-1.1-0.3c-0.3-0.1-0.7,0-1,0.3
		c-0.3,0.4-0.7,0.7-1.1,1.1c-0.3,0.2-0.4,0.6-0.3,1l0.3,1h0c-0.4,0.3-0.8,0.5-1.2,0.7l-0.7-0.8h0c-0.2-0.3-0.6-0.4-1-0.2
		c-0.5,0.2-0.9,0.3-1.4,0.4c-0.4,0.1-0.6,0.3-0.7,0.7l-0.2,1.1h0c-0.4,0-0.9,0-1.4,0l-0.2-1.1v0c-0.1-0.4-0.4-0.6-0.7-0.7
		c-0.5-0.1-1-0.2-1.4-0.4c-0.3-0.1-0.7,0-1,0.2l-0.7,0.8c-0.4-0.2-0.8-0.4-1.2-0.7l0.3-1c0.1-0.3,0-0.7-0.3-1
		c-0.4-0.3-0.7-0.7-1.1-1.1c-0.2-0.3-0.6-0.4-1-0.3l-1.1,0.3c-0.3-0.4-0.5-0.8-0.7-1.2l0.8-0.7c0.3-0.2,0.4-0.6,0.2-1
		c-0.2-0.5-0.3-0.9-0.4-1.4c-0.1-0.4-0.3-0.6-0.7-0.7l-1.1-0.2c0-0.2,0-0.5,0-0.7s0-0.4,0-0.7l1.1-0.2c0.4-0.1,0.6-0.4,0.7-0.7
		c0.1-0.5,0.2-1,0.4-1.4c0.1-0.3,0-0.7-0.2-1l-0.8-0.7c0.2-0.4,0.4-0.8,0.7-1.2l1.1,0.3c0.3,0.1,0.7,0,1-0.3
		c0.3-0.4,0.7-0.7,1.1-1.1c0.3-0.2,0.4-0.6,0.3-1l-0.3-1h0c0.4-0.3,0.8-0.5,1.2-0.7l0.7,0.8h0c0.2,0.3,0.6,0.4,1,0.2
		c0.5-0.2,0.9-0.3,1.4-0.4c0.4-0.1,0.6-0.3,0.7-0.7l0.2-1.1h0c0.4,0,0.9,0,1.4,0l0.2,1.1v0c0.1,0.4,0.4,0.6,0.7,0.7
		c0.5,0.1,1,0.2,1.4,0.4c0.3,0.1,0.7,0,1-0.2l0.7-0.8c0.4,0.2,0.8,0.4,1.2,0.7l-0.3,1c-0.1,0.3,0,0.7,0.3,1c0.4,0.3,0.7,0.7,1.1,1.1
		c0.2,0.3,0.6,0.4,1,0.3l1.1-0.3c0.3,0.4,0.5,0.8,0.7,1.2l-0.8,0.7c-0.3,0.2-0.4,0.6-0.2,1c0.2,0.5,0.3,0.9,0.4,1.4
		c0.1,0.4,0.3,0.6,0.7,0.7l1.1,0.2c0,0.2,0,0.5,0,0.7S60.1,22,60.1,22.2L60.1,22.2z"/>
	<path d="M49.4,14.4c-1.9,0-3.7,0.8-5.1,2.1c-1.3,1.3-2.1,3.2-2.1,5.1c0,1.9,0.8,3.7,2.1,5.1c1.3,1.3,3.2,2.1,5.1,2.1
		c1.9,0,3.7-0.8,5.1-2.1c1.3-1.3,2.1-3.2,2.1-5.1c0-1.9-0.8-3.7-2.1-5.1C53.1,15.2,51.3,14.4,49.4,14.4L49.4,14.4z M49.4,26.9
		c-1.4,0-2.8-0.6-3.8-1.6c-1-1-1.6-2.4-1.6-3.8c0-1.4,0.6-2.8,1.6-3.8c1-1,2.4-1.6,3.8-1.6c1.4,0,2.8,0.6,3.8,1.6
		c1,1,1.6,2.4,1.6,3.8c0,1.4-0.6,2.8-1.6,3.8C52.2,26.4,50.8,26.9,49.4,26.9L49.4,26.9z"/>
	<path d="M47.1,18.1c-0.3,0.2-0.4,0.5-0.4,0.8v5.4c0,0.3,0.2,0.6,0.4,0.8c0.3,0.2,0.6,0.2,0.9,0l5.4-2.7c0.3-0.2,0.5-0.5,0.5-0.8
		c0-0.3-0.2-0.6-0.5-0.8L48,18.1C47.7,17.9,47.4,17.9,47.1,18.1L47.1,18.1z M48.5,20.3l2.5,1.2l-2.5,1.2V20.3z"/>
	<path d="M32.5,19.3L31.3,19c0-0.2-0.1-0.4-0.1-0.5l0.9-0.8c0.3-0.3,0.4-0.7,0.2-1c-0.4-0.9-0.9-1.8-1.5-2.6c-0.2-0.3-0.6-0.4-1-0.3
		l-1.1,0.4c-0.1-0.1-0.3-0.3-0.4-0.4l0.4-1.1c0.1-0.4,0-0.8-0.3-1c-0.8-0.6-1.7-1.1-2.6-1.5c-0.4-0.1-0.8-0.1-1,0.2l-0.8,0.9
		c-0.2-0.1-0.4-0.1-0.5-0.1l-0.2-1.2c-0.1-0.4-0.4-0.7-0.8-0.7c-1-0.1-2-0.1-3,0c-0.4,0-0.7,0.3-0.8,0.7L18.3,11
		c-0.2,0-0.4,0.1-0.5,0.1l-0.8-0.9h0c-0.3-0.3-0.7-0.4-1-0.2c-0.9,0.4-1.8,0.9-2.6,1.5c-0.3,0.2-0.4,0.6-0.3,1l0.4,1.1
		c-0.1,0.1-0.3,0.3-0.4,0.4l-1.1-0.4c-0.4-0.1-0.8,0-1,0.3c-0.6,0.8-1.1,1.7-1.5,2.6c-0.1,0.4-0.1,0.8,0.2,1l0.9,0.8
		c-0.1,0.2-0.1,0.4-0.1,0.5l-1.2,0.2c-0.4,0.1-0.7,0.4-0.7,0.8c-0.1,1-0.1,2,0,3c0,0.4,0.3,0.7,0.7,0.8l1.2,0.2
		c0,0.2,0.1,0.4,0.1,0.5l-0.9,0.8c-0.3,0.3-0.4,0.7-0.2,1c0.4,0.9,0.9,1.8,1.5,2.6c0.2,0.3,0.6,0.4,1,0.3l1.1-0.4
		c0.1,0.1,0.3,0.3,0.4,0.4L13,30.5c-0.1,0.4,0,0.8,0.3,1c0.8,0.6,1.7,1.1,2.6,1.5c0.4,0.1,0.8,0.1,1-0.2l0.8-0.9
		c0.2,0.1,0.4,0.1,0.5,0.1l0.2,1.2c0.1,0.4,0.4,0.7,0.8,0.7c0.5,0.1,1,0.1,1.5,0.1c0.5,0,1,0,1.5-0.1c0.4,0,0.7-0.3,0.8-0.7l0.2-1.2
		c0.2,0,0.4-0.1,0.5-0.1l0.8,0.9c0.3,0.3,0.7,0.4,1,0.2c0.9-0.4,1.8-0.9,2.6-1.5c0.3-0.2,0.4-0.6,0.3-1l-0.4-1.1
		c0.1-0.1,0.3-0.3,0.4-0.4l1.1,0.4v0c0.4,0.1,0.8,0,1-0.3c0.6-0.8,1.1-1.7,1.5-2.6c0.1-0.4,0.1-0.8-0.2-1l-0.9-0.8
		c0.1-0.2,0.1-0.4,0.1-0.5l1.2-0.2l0,0c0.4-0.1,0.7-0.4,0.7-0.8c0.1-1,0.1-2,0-3C33.2,19.7,32.9,19.3,32.5,19.3L32.5,19.3z
		 M31.5,22.2l-1.1,0.2c-0.4,0.1-0.6,0.4-0.7,0.7c-0.1,0.5-0.2,1-0.4,1.4c-0.1,0.3,0,0.7,0.2,1l0.8,0.7c-0.2,0.4-0.4,0.8-0.7,1.2
		l-1.1-0.3c-0.3-0.1-0.7,0-1,0.3c-0.3,0.4-0.7,0.7-1.1,1.1c-0.3,0.2-0.4,0.6-0.3,1l0.3,1h0c-0.4,0.3-0.8,0.5-1.2,0.7l-0.7-0.8h0
		c-0.2-0.3-0.6-0.4-1-0.2c-0.5,0.2-0.9,0.3-1.4,0.4c-0.4,0.1-0.6,0.3-0.7,0.7l-0.2,1.1h0c-0.4,0-0.9,0-1.4,0l-0.2-1.1v0
		c-0.1-0.4-0.4-0.6-0.7-0.7c-0.5-0.1-1-0.2-1.4-0.4c-0.3-0.1-0.7,0-1,0.2L16,31.2c-0.4-0.2-0.8-0.4-1.2-0.7l0.3-1
		c0.1-0.3,0-0.7-0.3-1c-0.4-0.3-0.7-0.7-1.1-1.1c-0.2-0.3-0.6-0.4-1-0.3l-1.1,0.3c-0.3-0.4-0.5-0.8-0.7-1.2l0.8-0.7
		c0.3-0.2,0.4-0.6,0.2-1c-0.2-0.5-0.3-0.9-0.4-1.4c-0.1-0.4-0.3-0.6-0.7-0.7l-1.1-0.2c0-0.2,0-0.5,0-0.7s0-0.4,0-0.7l1.1-0.2
		c0.4-0.1,0.6-0.4,0.7-0.7c0.1-0.5,0.2-1,0.4-1.4c0.1-0.3,0-0.7-0.2-1l-0.8-0.7c0.2-0.4,0.4-0.8,0.7-1.2l1.1,0.3
		c0.3,0.1,0.7,0,1-0.3c0.3-0.4,0.7-0.7,1.1-1.1c0.3-0.2,0.4-0.6,0.3-1l-0.3-1.1c0.4-0.3,0.8-0.5,1.2-0.7l0.7,0.8
		c0.2,0.3,0.6,0.4,1,0.2c0.5-0.2,0.9-0.3,1.4-0.4c0.4-0.1,0.6-0.3,0.7-0.7l0.2-1.1c0.4,0,0.9,0,1.4,0l0.2,1.1l0,0
		c0.1,0.4,0.4,0.6,0.7,0.7c0.5,0.1,1,0.2,1.4,0.4c0.3,0.1,0.7,0,1-0.2l0.7-0.8c0.4,0.2,0.8,0.4,1.2,0.7l-0.3,1c-0.1,0.3,0,0.7,0.3,1
		c0.4,0.3,0.7,0.7,1.1,1.1c0.2,0.3,0.6,0.4,1,0.3l1.1-0.3c0.3,0.4,0.5,0.8,0.7,1.2l-0.8,0.7c-0.3,0.2-0.4,0.6-0.2,1
		c0.2,0.5,0.3,0.9,0.4,1.4c0.1,0.4,0.3,0.6,0.7,0.7l1.1,0.2c0,0.2,0,0.5,0,0.7S31.5,22,31.5,22.2L31.5,22.2z"/>
	<path d="M20.8,14.4c-1.9,0-3.7,0.8-5.1,2.1c-1.3,1.3-2.1,3.2-2.1,5.1c0,1.9,0.8,3.7,2.1,5.1c1.3,1.3,3.2,2.1,5.1,2.1
		c1.9,0,3.7-0.8,5.1-2.1c1.3-1.3,2.1-3.2,2.1-5.1c0-1.9-0.8-3.7-2.1-5.1C24.5,15.2,22.7,14.4,20.8,14.4z M20.8,26.9
		c-1.4,0-2.8-0.6-3.8-1.6c-1-1-1.6-2.4-1.6-3.8c0-1.4,0.6-2.8,1.6-3.8c1-1,2.4-1.6,3.8-1.6s2.8,0.6,3.8,1.6c1,1,1.6,2.4,1.6,3.8
		c0,1.4-0.6,2.8-1.6,3.8C23.6,26.4,22.2,26.9,20.8,26.9L20.8,26.9z"/>
	<path d="M18.5,18.1c-0.3,0.2-0.4,0.5-0.4,0.8v5.4c0,0.3,0.2,0.6,0.4,0.8c0.3,0.2,0.6,0.2,0.9,0l5.4-2.7c0.3-0.2,0.5-0.5,0.5-0.8
		c0-0.3-0.2-0.6-0.5-0.8l-5.4-2.7C19.1,17.9,18.8,17.9,18.5,18.1L18.5,18.1z M19.9,20.3l2.5,1.2l-2.5,1.2V20.3z"/>
	<path d="M49.4,57.3h1.8v1.8h-1.8V57.3z"/>
	<path d="M18.1,57.3h1.8v1.8h-1.8V57.3z"/>
</g>
</svg>
