<?xml version="1.0" encoding="utf-8"?>
<!-- Generator: Adobe Illustrator 23.0.3, SVG Export Plug-In . SVG Version: 6.00 Build 0)  -->
<svg version="1.1" id="Layer_1" xmlns="http://www.w3.org/2000/svg" xmlns:xlink="http://www.w3.org/1999/xlink" x="0px" y="0px"
	 viewBox="0 0 70 70" style="enable-background:new 0 0 70 70;" xml:space="preserve">
<g>
	<path d="M32,50.4L32,50.4l-12.6,0c-0.4,0-0.7-0.3-0.7-0.7c0-0.4,0.3-0.7,0.7-0.7h0L32,49h0c2.8,0,5.5-0.8,7.9-2.2L55.5,37
		c0.5-0.3,0.8-0.9,0.9-1.5c0-0.6-0.3-1.2-0.8-1.5c-0.6-0.4-1.4-0.4-2,0c-1.9,1.2-4.4,2.8-7.7,4.8c-1.6,1-3.3,2.1-5.2,3.3
		c-0.3,0.2-0.8,0.1-1-0.2c-0.2-0.3-0.1-0.8,0.2-1c1.9-1.2,3.6-2.3,5.2-3.3c3.2-2,5.8-3.6,7.7-4.8c1.1-0.7,2.5-0.6,3.5,0.1
		c0.9,0.6,1.4,1.6,1.4,2.7c0,1.1-0.6,2.1-1.5,2.7l-15.7,9.7C38,49.5,35,50.4,32,50.4L32,50.4z"/>
	<path d="M37.8,44.2h-7.5c-0.4,0-0.7-0.3-0.7-0.7s0.3-0.7,0.7-0.7h7.5c1,0,1.9-0.8,1.9-1.8c0-0.5-0.2-1-0.5-1.4
		c-0.4-0.4-0.9-0.6-1.4-0.6l-9.3,0h0c-1.3,0-5.4,0-7.8,2.5c-0.2,0.2-0.4,0.5-0.6,0.8c-0.2,0.3-0.7,0.4-1,0.2s-0.4-0.7-0.2-1
		c0.2-0.3,0.5-0.6,0.8-0.9c1.2-1.2,2.8-2.1,4.8-2.5c1.5-0.3,2.9-0.4,4-0.4h9.3c0.9,0,1.8,0.4,2.5,1.1c0.6,0.7,1,1.5,0.9,2.5
		C41,42.8,39.6,44.2,37.8,44.2L37.8,44.2z"/>
	<path d="M18.2,52.7h-3.7c-1,0-1.9-0.8-1.9-1.9V39.4c0-1,0.8-1.9,1.9-1.9h3.7c1,0,1.9,0.8,1.9,1.9v11.4
		C20.1,51.9,19.3,52.7,18.2,52.7z M14.5,39c-0.3,0-0.5,0.2-0.5,0.5v11.4c0,0.3,0.2,0.5,0.5,0.5h3.7c0.3,0,0.5-0.2,0.5-0.5V39.4
		c0-0.3-0.2-0.5-0.5-0.5H14.5z"/>
	<path d="M37.7,39h-9.7C26.9,39,26,38,26,36.9c0-1.1,0.9-2.1,2.1-2.1h9.7c1.1,0,2.1,0.9,2.1,2.1C39.8,38,38.9,39,37.7,39z
		 M28.1,36.2c-0.4,0-0.7,0.3-0.7,0.7c0,0.4,0.3,0.7,0.7,0.7h9.7c0.4,0,0.7-0.3,0.7-0.7c0-0.4-0.3-0.7-0.7-0.7H28.1z"/>
	<path d="M37.7,36.2h-9.7c-1.1,0-2.1-0.9-2.1-2.1c0-1.1,0.9-2.1,2.1-2.1h9.7c1.1,0,2.1,0.9,2.1,2.1C39.8,35.3,38.9,36.2,37.7,36.2z
		 M28.1,33.4c-0.4,0-0.7,0.3-0.7,0.7c0,0.4,0.3,0.7,0.7,0.7h9.7c0.4,0,0.7-0.3,0.7-0.7c0-0.4-0.3-0.7-0.7-0.7H28.1z"/>
	<path d="M37.7,33.4h-9.7c-1.1,0-2.1-0.9-2.1-2.1c0-1.1,0.9-2.1,2.1-2.1h9.7c1.1,0,2.1,0.9,2.1,2.1C39.8,32.5,38.9,33.4,37.7,33.4z
		 M28.1,30.7c-0.4,0-0.7,0.3-0.7,0.7c0,0.4,0.3,0.7,0.7,0.7h9.7c0.4,0,0.7-0.3,0.7-0.7c0-0.4-0.3-0.7-0.7-0.7H28.1z"/>
	<path d="M37.7,30.7h-9.7c-1.1,0-2.1-0.9-2.1-2.1c0-1.1,0.9-2.1,2.1-2.1h9.7c1.1,0,2.1,0.9,2.1,2.1C39.8,29.8,38.9,30.7,37.7,30.7z
		 M28.1,27.9c-0.4,0-0.7,0.3-0.7,0.7s0.3,0.7,0.7,0.7h9.7c0.4,0,0.7-0.3,0.7-0.7s-0.3-0.7-0.7-0.7H28.1z"/>
	<path d="M34.7,24.9c0,0-0.1,0-0.1,0l-1.7-0.3l-1.7,0.3c-0.2,0-0.5,0-0.6-0.2l-1.2-1.2l-1.5-0.8c-0.2-0.1-0.3-0.3-0.4-0.5l-0.3-1.7
		L26.4,19c-0.1-0.2-0.1-0.4,0-0.6l0.8-1.5l0.3-1.7c0-0.2,0.2-0.4,0.4-0.5l1.5-0.8l1.2-1.2c0.2-0.2,0.4-0.2,0.6-0.2l1.7,0.3l1.7-0.3
		c0.2,0,0.5,0,0.6,0.2l1.2,1.2l1.5,0.8c0.2,0.1,0.3,0.3,0.4,0.5l0.3,1.7l0.8,1.5c0.1,0.2,0.1,0.4,0,0.6l-0.8,1.5l-0.3,1.7
		c0,0.2-0.2,0.4-0.4,0.5l-1.5,0.8l-1.2,1.2C35.1,24.9,34.9,24.9,34.7,24.9L34.7,24.9z M28.8,21.6l1.3,0.7c0.1,0,0.1,0.1,0.2,0.1
		l1,1.1l1.5-0.2c0.1,0,0.2,0,0.2,0l1.5,0.2l1-1.1c0.1-0.1,0.1-0.1,0.2-0.1l1.3-0.7l0.2-1.5c0-0.1,0-0.1,0.1-0.2l0.7-1.3l-0.7-1.3
		c0-0.1-0.1-0.1-0.1-0.2L37,15.6L35.7,15c-0.1,0-0.1-0.1-0.2-0.1l-1-1.1L33,14c-0.1,0-0.2,0-0.2,0l-1.5-0.2l-1,1.1
		c-0.1,0.1-0.1,0.1-0.2,0.1l-1.3,0.7l-0.2,1.5c0,0.1,0,0.1-0.1,0.2l-0.7,1.3l0.7,1.3c0,0.1,0.1,0.1,0.1,0.2L28.8,21.6z"/>
	<path d="M30.9,21.4c-0.2,0-0.4-0.1-0.5-0.2c-0.3-0.3-0.3-0.7,0-1l4.1-4.1c0.3-0.3,0.7-0.3,1,0c0.3,0.3,0.3,0.7,0,1l-4.1,4.1
		C31.2,21.3,31,21.4,30.9,21.4z"/>
	<path d="M32.1,17c0,0.5-0.4,0.8-0.8,0.8c-0.5,0-0.8-0.4-0.8-0.8c0-0.5,0.4-0.8,0.8-0.8C31.7,16.2,32.1,16.6,32.1,17"/>
	<path d="M35.3,20.2c0,0.5-0.4,0.8-0.8,0.8c-0.5,0-0.8-0.4-0.8-0.8s0.4-0.8,0.8-0.8C35,19.4,35.3,19.8,35.3,20.2"/>
</g>
</svg>
