<?xml version="1.0" encoding="utf-8"?>
<!-- Generator: Adobe Illustrator 23.0.3, SVG Export Plug-In . SVG Version: 6.00 Build 0)  -->
<svg version="1.1" id="Layer_1" xmlns="http://www.w3.org/2000/svg" xmlns:xlink="http://www.w3.org/1999/xlink" x="0px" y="0px"
	 viewBox="0 0 19 19" style="enable-background:new 0 0 19 19;" xml:space="preserve">
<style type="text/css">
	.st0{fill:none;stroke:#000000;stroke-miterlimit:10;}
</style>
<g>
	<path class="st0" d="M14.4,17.3h-11c-0.7,0-1.2-0.5-1.2-1.2v-11c0-0.7,0.5-1.2,1.2-1.2h11c0.7,0,1.2,0.5,1.2,1.2v11
		C15.6,16.8,15.1,17.3,14.4,17.3z"/>
	<line class="st0" x1="2.2" y1="7.4" x2="15.6" y2="7.4"/>
	<circle cx="5.8" cy="10.7" r="0.8"/>
	<circle cx="9" cy="10.7" r="0.8"/>
	<circle cx="12.2" cy="10.7" r="0.8"/>
	<circle cx="5.8" cy="13.9" r="0.8"/>
	<circle cx="9" cy="13.9" r="0.8"/>
	<circle cx="12.2" cy="13.9" r="0.8"/>
	<line class="st0" x1="4.9" y1="1.7" x2="4.9" y2="4"/>
	<line class="st0" x1="13.1" y1="1.7" x2="13.1" y2="4"/>
</g>
</svg>
