<?xml version="1.0" encoding="utf-8"?>
<!-- Generator: Adobe Illustrator 23.0.3, SVG Export Plug-In . SVG Version: 6.00 Build 0)  -->
<svg version="1.1" id="Layer_1" xmlns="http://www.w3.org/2000/svg" xmlns:xlink="http://www.w3.org/1999/xlink" x="0px" y="0px"
	 viewBox="0 0 70 70" style="enable-background:new 0 0 70 70;" xml:space="preserve">
<style type="text/css">
	.st0{fill:none;stroke:#242830;stroke-linecap:round;stroke-linejoin:round;stroke-miterlimit:10;}
	.st1{fill:#E0E2E4;stroke:#242830;stroke-linecap:round;stroke-linejoin:round;stroke-miterlimit:10;}
</style>
<path class="st0" d="M36,60c0,0.6-0.5,1-1,1C20.6,61,9,49.4,9,35C9,20.6,20.6,9,35,9c14.4,0,26,11.7,26,26"/>
<path class="st1" d="M47.5,50.6h-25c-0.6,0-1-0.5-1-1V32.9c0-0.6,0.5-1,1-1h25c0.6,0,1,0.5,1,1v16.7C48.5,50.2,48.1,50.6,47.5,50.6
	L47.5,50.6z"/>
<path class="st1" d="M35,50.6c-0.6,0-1-0.5-1-1v-4.2"/>
<path class="st1" d="M41.2,50.6c-0.6,0-1-0.5-1-1v-8.3"/>
<path class="st1" d="M29.8,37.1v12.5c0,0.6-0.5,1-1,1"/>
<path class="st0" d="M23.5,31.9h22.9v-1c0-0.6-0.5-1-1-1h-8.3c-0.6,0-1-0.5-1-1l0-10.4c0-0.6-0.5-1-1-1c-0.6,0-1,0.5-1,1v10.4
	c0,0.6-0.5,1-1,1h-8.3c-0.6,0-1,0.5-1,1L23.5,31.9z"/>
</svg>
