<?xml version="1.0" encoding="utf-8"?>
<!-- Generator: Adobe Illustrator 23.0.3, SVG Export Plug-In . SVG Version: 6.00 Build 0)  -->
<svg version="1.1" id="Layer_1" xmlns="http://www.w3.org/2000/svg" xmlns:xlink="http://www.w3.org/1999/xlink" x="0px" y="0px"
	 viewBox="0 0 70 70" style="enable-background:new 0 0 70 70;" xml:space="preserve">
<style type="text/css">
	.st0{fill:#E0E2E4;stroke:#242830;stroke-linecap:round;stroke-linejoin:round;stroke-miterlimit:10;}
	.st1{fill:#242830;stroke:#E0E2E4;stroke-linecap:round;stroke-linejoin:round;stroke-miterlimit:10;}
	.st2{fill:none;stroke:#242830;stroke-linecap:round;stroke-linejoin:round;stroke-miterlimit:10;}
	.st3{fill:#242830;}
	.st4{fill:none;stroke:#242830;stroke-linecap:round;stroke-miterlimit:10;}
</style>
<path class="st0" d="M53,21.9l7.8,14.8c0,0-0.9,1.9-2.9,4c-1.5,1.6-3.3,2.9-3.3,2.9L40.3,27.8c0,0-0.6-0.6-1.6-0.8
	c-0.7-0.1-2.1,0.4-2.1,0.4l-8.1,4.4c0,0-1.9,1.3-3.2-0.6c-1.3-1.8,1-3.5,1-3.5s7.3-6,12.1-8.2c2.4-1.1,4.6-0.7,6.1,0.1
	c1.5,0.8,3.9,2.5,5.1,3C51.1,23.2,53,21.9,53,21.9L53,21.9z"/>
<path class="st0" d="M67.9,33.9l-8.6-16c-0.2-0.4-0.7-0.6-1.2-0.4l-3.3,1.7c-0.4,0.2-0.6,0.7-0.4,1.2l8.6,16
	c0.2,0.4,0.7,0.6,1.2,0.4l3.3-1.8C68,34.8,68.2,34.3,67.9,33.9L67.9,33.9z"/>
<path class="st1" d="M64.6,34.1c-0.7,0-1.2-0.5-1.2-1.2s0.5-1.2,1.2-1.2c0.7,0,1.2,0.5,1.2,1.2C65.8,33.6,65.3,34.1,64.6,34.1z"/>
<path class="st2" d="M18.7,42.7c-0.1,0-1.3-0.7-3.5-2.7c-1.3-1.1-2.7-3.2-2.7-3.2c-0.2-0.3-0.2-0.6-0.1-0.9l7.7-14.5
	c0.2-0.4,0.7-0.6,1.1-0.4c0,0,0.4,0.2,1.4,0.3c1,0.2,1.7,0,3-0.4c0.2-0.1,0.5-0.2,0.8-0.2c0.7-0.2,1.5-0.6,2.3-1.1
	c0.9-0.5,1.9-1.1,3-1.4c2.4-0.6,3.9,1.1,3.9,1.2"/>
<path class="st0" d="M23,46.2c-0.9,0.9-2.3,0.9-3.2,0c-0.9-0.9-0.9-2.3,0-3.2l1.1-1.1c0.9-0.9,2.3-0.9,3.2,0c0.9,0.9,0.9,2.3,0,3.2
	L23,46.2z"/>
<path class="st0" d="M27.4,49.8c-0.9,0.9-2.3,0.9-3.2,0c-0.9-0.9-0.9-2.3,0-3.2l3.5-3.5c0.9-0.9,2.3-0.9,3.2,0
	c0.9,0.9,0.9,2.3,0,3.2L27.4,49.8z"/>
<path class="st0" d="M32.4,53.3c-0.9,0.9-2.3,0.9-3.2,0c-0.9-0.9-0.9-2.3,0-3.2l4.5-4.5c0.9-0.9,2.3-0.9,3.2,0
	c0.9,0.9,0.9,2.3,0,3.2L32.4,53.3z"/>
<path class="st0" d="M37.6,56.1c-0.9,0.9-2.3,0.9-3.2,0c-0.9-0.9-0.9-2.3,0-3.2l2.3-2.3c0.9-0.9,2.3-0.9,3.2,0
	c0.9,0.9,0.9,2.3,0,3.2L37.6,56.1z"/>
<path class="st3" d="M7.8,33.6c0,0.4-0.3,0.7-0.7,0.7c-0.4,0-0.7-0.3-0.7-0.7c0-0.4,0.3-0.7,0.7-0.7C7.5,32.9,7.8,33.2,7.8,33.6"/>
<path class="st2" d="M13.5,17c-1,0-1.8,0.5-2.3,1.4l0,0l0,0l-7.4,14c-0.3,0.6-0.4,1.3-0.2,2c0.2,0.7,0.6,1.2,1.2,1.5L7,37.1l0,0l0,0
	c0.4,0.2,0.8,0.3,1.2,0.3c1,0,1.8-0.5,2.3-1.4l0,0l7.4-14c0.7-1.3,0.2-2.8-1-3.5l-2.1-1.2l0,0C14.4,17.1,14,17,13.5,17L13.5,17z"/>
<path class="st4" d="M41.5,54.7c0,0,4.3,1.5,4.3-2.9l-5.7-6.6c0,0,6.1,7.4,8.7,6.1c1.7-0.9,3.8-2.9-3.6-9.4c0,0,6.9,6.2,7.8,6.5
	c1,0.3,4.6-1.1,3-3.8"/>
<image style="overflow:visible;" width="70" height="70" xlink:href="../SAM/VOD/26-channel-partners.png"  transform="matrix(1 0 0 1 154.0264 -51.0769)">
</image>
</svg>
