<?xml version="1.0" encoding="utf-8"?>
<!-- Generator: Adobe Illustrator 23.0.3, SVG Export Plug-In . SVG Version: 6.00 Build 0)  -->
<svg version="1.1" id="Layer_1" xmlns="http://www.w3.org/2000/svg" xmlns:xlink="http://www.w3.org/1999/xlink" x="0px" y="0px"
	 viewBox="0 0 70 70" style="enable-background:new 0 0 70 70;" xml:space="preserve">
<style type="text/css">
	.st0{fill:none;stroke:#242830;stroke-linecap:round;stroke-linejoin:round;stroke-miterlimit:10;}
	.st1{fill:#E0E2E4;stroke:#242830;stroke-linecap:round;stroke-linejoin:round;stroke-miterlimit:10;}
</style>
<path class="st0" d="M13.8,56.8c0-1.4,1.3-2.7,2.4-3.7c1-1,2.5-1.5,3.9-1.5h35.3c0.1,0,0.2,0,0.3-0.1c0.1-0.1,0.1-0.2,0.1-0.3V10.1
	c0-0.1,0-0.2-0.1-0.3c-0.1-0.1-0.2-0.1-0.3-0.1v0H20c-1.7,0-3.2,0.7-4.4,1.8c-1.2,1.2-1.8,2.8-1.8,4.4V57c0,1.7,0.7,3.2,1.8,4.4
	c1.2,1.2,2.8,1.8,4.4,1.8h35.3c0.3,0,0.5-0.2,0.5-0.5"/>
<path class="st0" d="M19.3,57c0,0.1,0,0.2,0.1,0.3c0.1,0.1,0.2,0.1,0.3,0.1h35.6c0.3,0,0.5-0.2,0.5-0.5"/>
<path class="st1" d="M37.2,29.9c1.3-0.7,2.2-2,2.5-3.4c0.3-1.5-0.1-3-1.1-4.1c-0.9-1.1-2.3-1.8-3.8-1.8c-1.5,0-2.9,0.7-3.8,1.8
	c-0.9,1.1-1.3,2.6-1.1,4.1c0.3,1.5,1.2,2.7,2.5,3.4c-2.2,0.5-4.2,1.8-5.7,3.6c-1.4,1.8-2.2,4-2.2,6.3c0,1.4,0.3,2.2,0.9,2.6
	c0.9,0.6,2.2,0,3.8-0.7v0c1.7-0.9,3.6-1.4,5.5-1.5c1.9,0.1,3.8,0.6,5.5,1.5c0.9,0.5,1.9,0.8,2.9,0.9c0.3,0,0.7-0.1,0.9-0.3
	c0.6-0.4,0.9-1.2,0.9-2.6c0-2.3-0.8-4.6-2.2-6.4C41.5,31.7,39.4,30.5,37.2,29.9L37.2,29.9z"/>
</svg>
