<?xml version="1.0" encoding="utf-8"?>
<!-- Generator: Adobe Illustrator 23.0.3, SVG Export Plug-In . SVG Version: 6.00 Build 0)  -->
<svg version="1.1" id="Layer_1" xmlns="http://www.w3.org/2000/svg" xmlns:xlink="http://www.w3.org/1999/xlink" x="0px" y="0px"
	 viewBox="0 0 70 70" style="enable-background:new 0 0 70 70;" xml:space="preserve">
<style type="text/css">
	.st0{fill:none;stroke:#242830;stroke-linecap:round;stroke-linejoin:round;stroke-miterlimit:10;}
	.st1{fill:#E0E2E4;}
</style>
<path class="st0" d="M52.7,38.9H35"/>
<path class="st0" d="M52.7,47.3H35"/>
<path class="st1" d="M49.6,24.6v-5.8c0,0,0.5-1.2-4.1-0.8s-15.9-0.1-15.9-0.1s-0.5,0.9-0.9,0.3s-0.5-2.8-0.5-2.8s0-1.4-0.4-1.5
	c-0.4,0-16.1-0.3-16.1-0.3s-0.2,1.4-0.3,2s0,22.6,0,22.6v15.3c0,0-1.6,2.1,1.6,2.7c3.2,0.5,7.5-0.3,7.5-0.3l1-25.8L21.3,26
	c0,0-0.1-1.2,2.3-1.4S49.6,24.6,49.6,24.6z"/>
<path class="st0" d="M57.5,56.1h-45c-0.5,0-1-0.2-1.3-0.5s-0.5-0.8-0.5-1.3V15.4c0-0.5,0.2-1,0.5-1.3s0.8-0.5,1.3-0.5h14.3
	c0.5,0,1,0.2,1.3,0.5s0.5,0.8,0.5,1.3v2.2c0,0.1,0.1,0.3,0.2,0.4s0.2,0.1,0.4,0.1h19c0.5,0,1,0.2,1.3,0.5s0.5,0.8,0.5,1.3v4.6h7.5
	c0.5,0,1,0.2,1.3,0.5s0.5,0.8,0.5,1.3v27.8c0,0.5-0.2,1-0.5,1.3C58.4,55.9,58,56.1,57.5,56.1L57.5,56.1z M20.4,56.1V26.5
	c0-0.5,0.2-1,0.5-1.3s0.8-0.5,1.3-0.5h27.5"/>
</svg>
