<?xml version="1.0" encoding="utf-8"?>
<!-- Generator: Adobe Illustrator 23.0.3, SVG Export Plug-In . SVG Version: 6.00 Build 0)  -->
<svg version="1.1" id="Layer_1" xmlns="http://www.w3.org/2000/svg" xmlns:xlink="http://www.w3.org/1999/xlink" x="0px" y="0px"
	 viewBox="0 0 70 70" style="enable-background:new 0 0 70 70;" xml:space="preserve">
<style type="text/css">
	.st0{fill:none;stroke:#242830;stroke-linecap:round;stroke-linejoin:round;stroke-miterlimit:10;}
	.st1{fill:#E0E2E4;stroke:#242830;stroke-linecap:round;stroke-linejoin:round;stroke-miterlimit:10;}
</style>
<g>
	<path class="st0" d="M32.6,5.9c-11,0-20,9-20,20c0,8.2,4.9,15.4,12.4,18.5c0.2,0.1,0.4,0.3,0.5,0.5l7.1,17.8l7.1-17.8
		c0.1-0.2,0.2-0.4,0.5-0.5c7.6-3.1,12.4-10.3,12.4-18.5C52.6,14.9,43.6,5.9,32.6,5.9L32.6,5.9z"/>
	<path class="st1" d="M32.6,15.6c-5.7,0-10.3,4.6-10.3,10.3S27,36.1,32.6,36.1s10.3-4.6,10.3-10.3S38.3,15.6,32.6,15.6z"/>
</g>
</svg>
