<?xml version="1.0" encoding="utf-8"?>
<!-- Generator: Adobe Illustrator 23.0.3, SVG Export Plug-In . SVG Version: 6.00 Build 0)  -->
<svg version="1.1" id="Layer_1" xmlns="http://www.w3.org/2000/svg" xmlns:xlink="http://www.w3.org/1999/xlink" x="0px" y="0px"
	 viewBox="0 0 70 70" style="enable-background:new 0 0 70 70;" xml:space="preserve">
<style type="text/css">
	.st0{fill:none;stroke:#000000;stroke-width:2.5;stroke-linecap:round;stroke-linejoin:round;}
</style>
<g>
	<path class="st0" d="M17.1,19.5v31.1c0,1.6,1.3,2.8,2.8,2.8H51c1.6,0,2.8-1.3,2.8-2.8V19.5c0-1.6-1.3-2.8-2.8-2.8H19.9
		C18.3,16.6,17.1,17.9,17.1,19.5z"/>
	<path class="st0" d="M28.4,46.3V32.2"/>
	<path class="st0" d="M28.4,32.2c2.3,0,4.2-1.9,4.2-4.2s-1.9-4.2-4.2-4.2s-4.2,1.9-4.2,4.2S26,32.2,28.4,32.2z"/>
	<path class="st0" d="M42.5,23.7v8.5"/>
	<path class="st0" d="M42.5,40.6v5.6"/>
	<path class="st0" d="M42.5,40.6c2.3,0,4.2-1.9,4.2-4.2s-1.9-4.2-4.2-4.2s-4.2,1.9-4.2,4.2S40.2,40.6,42.5,40.6z"/>
</g>
</svg>
