<?xml version="1.0" encoding="utf-8"?>
<!-- Generator: Adobe Illustrator 23.0.3, SVG Export Plug-In . SVG Version: 6.00 Build 0)  -->
<svg version="1.1" id="Layer_1" xmlns="http://www.w3.org/2000/svg" xmlns:xlink="http://www.w3.org/1999/xlink" x="0px" y="0px"
	 viewBox="0 0 70 70" style="enable-background:new 0 0 70 70;" xml:space="preserve">
<style type="text/css">
	.st0{fill:none;stroke:#000000;stroke-miterlimit:10;}
	.st1{fill:#E0E2E4;stroke:#242830;stroke-linecap:round;stroke-linejoin:round;stroke-miterlimit:10;}
</style>
<path class="st0" d="M58.6,50.6c-1-1-3.6-2.8-6-4c1.5-2.8,1.8-6.1,1-9c0.4-1.2,0.6-2.5,0.7-3.8c0.1-0.6,0.1-1.3,0.1-2
	c0-2.8-0.5-5.5-1.6-8.1c-3.3-7.9-11-13.1-19.6-13.1c-4,0-7.9,1.1-11.3,3.3c-0.5,0.3-1,0.7-1.5,1c-1-1.5-2.7-2.4-4.6-2.4
	c-3.1,0-5.7,2.5-5.7,5.7c0,1.7,1.6,4.5,3.1,6.7c-0.8,2.2-1.2,4.5-1.2,6.9c0,7.4,4,14.4,10.3,18.2c3.3,1.9,7,3,10.9,3
	c1.9,0,3.7-0.3,5.5-0.7c1.1,0.4,2.3,0.6,3.6,0.6c2,0,3.9-0.5,5.7-1.4c1.2,2.4,3,5,4,6c0.9,0.9,2.1,1.4,3.3,1.4
	c1.2,0,2.4-0.5,3.3-1.4c0.9-0.9,1.4-2.1,1.4-3.3C60,52.7,59.5,51.5,58.6,50.6L58.6,50.6z"/>
<path class="st0" d="M15.7,13.7c2.5,0,4.5,2,4.5,4.5c0,1.7-2.3,5.4-4.5,8.3c-2.2-2.9-4.5-6.6-4.5-8.3C11.2,15.7,13.2,13.7,15.7,13.7
	L15.7,13.7z"/>
<path class="st0" d="M39.1,38c0,0-0.1,0-0.2,0c-1.5-2-6.3-8.6-6.3-11.7c0-3.5,2.9-6.4,6.4-6.4c3.5,0,6.4,2.9,6.4,6.4
	C45.5,28.7,42.2,33.9,39.1,38L39.1,38z"/>
<path class="st1" d="M34.7,48.5c-2-2-3.1-4.7-3.1-7.5c0-2.8,1.1-5.4,3-7.4c0.6,1,1.3,1.9,1.9,2.8c-2.3,2.9-2.1,7.1,0.6,9.8
	c1.4,1.4,3.3,2.2,5.2,2.2c1.9,0,3.8-0.7,5.2-2.2c2.9-2.9,2.9-7.6,0-10.4c-1.1-1.1-2.5-1.8-3.9-2c0.6-1,1.2-2,1.7-2.9
	c1.7,0.5,3.3,1.4,4.6,2.7c4.1,4.1,4.1,10.9,0,15c-2,2-4.7,3.1-7.5,3.1C39.4,51.6,36.7,50.5,34.7,48.5L34.7,48.5z"/>
<path class="st1" d="M39.1,22.2c-2.1,0-3.7,1.7-3.7,3.7c0,2.1,1.7,3.7,3.7,3.7c2.1,0,3.7-1.7,3.7-3.7C42.8,23.9,41.1,22.2,39.1,22.2
	z"/>
<path class="st0" d="M14,17.9c0-0.9,0.8-1.7,1.7-1.7c0.9,0,1.7,0.8,1.7,1.7c0,0.9-0.8,1.7-1.7,1.7C14.8,19.6,14,18.9,14,17.9z"/>
</svg>
