<svg id="Layer_1" data-name="Layer 1" xmlns="http://www.w3.org/2000/svg" viewBox="0 0 40 40"><defs><style>.cls-1{fill:#e0e2e4;}.cls-2{fill:none;stroke:#242830;stroke-miterlimit:10;}</style></defs><title>Untitled-2</title><circle class="cls-1" cx="31" cy="33" r="6"/><polygon class="cls-1" points="24.5 2.5 24.5 9.5 31.5 9.5 30.18 7.6 24.5 2.5"/><path class="cls-2" d="M32.31,27.31V9.74L24.5,1.93H8.87A2.91,2.91,0,0,0,6,4.84V33.18a2.91,2.91,0,0,0,2.91,2.91H26.46"/><circle class="cls-2" cx="31.34" cy="33.16" r="5.86"/><polyline class="cls-2" points="31.34 30.26 31.34 34.16 33.29 35.14"/><line class="cls-2" x1="11.82" y1="17.55" x2="26.46" y2="17.55"/><line class="cls-2" x1="11.82" y1="12.52" x2="24" y2="12.52"/><line class="cls-2" x1="11.82" y1="23.4" x2="26.46" y2="23.4"/><path class="cls-2" d="M24,1.93V8.36A1.14,1.14,0,0,0,25.14,9.5h7.17"/></svg>