<?xml version="1.0" encoding="utf-8"?>
<!-- Generator: Adobe Illustrator 23.0.3, SVG Export Plug-In . SVG Version: 6.00 Build 0)  -->
<svg version="1.1" id="Layer_1" xmlns="http://www.w3.org/2000/svg" xmlns:xlink="http://www.w3.org/1999/xlink" x="0px" y="0px"
	 viewBox="0 0 70 70" style="enable-background:new 0 0 70 70;" xml:space="preserve">
<style type="text/css">
	.st0{fill:#E0E2E4;}
	.st1{fill:none;stroke:#242830;stroke-miterlimit:10;}
</style>
<g>
	<path class="st0" d="M54.8,49.9H3.3v1.4c0,2.1,3.6,3.9,8.1,3.9h50c4.5,0,6.1-1.3,6.1-3.5v-1.8"/>
	<path class="st0" d="M21.2,27.5c0,0,2.3,1,1.1,3.3c-1.2,2.3-2.6,4.3-2.6,6.2s-0.3,3.8-0.5,4.3s-1.3,2.6-3.1,1.1s-1.3-1.4-1.4-3.6
		c-0.1-2.2,1.9-8.1,2.7-9.4c0.8-1.2,2.2-2.5,2.9-2.3C21,27.5,21.2,27.5,21.2,27.5z"/>
	<path class="st0" d="M33,20c0,0,6.3-0.8,8.8,0.3c2.5,1,11,5.1,12.7,10.8s2.9,9,1.8,10c-1.1,1-2.1,2.4-3.6,1.1
		c-1.4-1.2-0.7-4.7-2-7.3c-1.3-2.5-5.7-10.7-13.1-10.8s-5.8,0.6-6.4-1.4C30.6,20.8,33,20,33,20z"/>
	<g>
		<path class="st1" d="M8.1,46.4v-29c0-2.1,1.6-3.9,3.5-3.9h47.9c1.9,0,3.5,1.7,3.5,3.9v29"/>
		<path class="st1" d="M67.7,50.9c0,2.5-2.1,4.4-4.6,4.4H7.9c-2.5,0-4.6-2-4.6-4.4v-1h64.4L67.7,50.9L67.7,50.9z"/>
		<path class="st1" d="M20.8,27c-0.7,0-1.3,0.3-1.7,0.8c-2.8,3.7-4.3,8-4.3,12.6c0,1.2,1,2.2,2.2,2.2s2.2-1,2.2-2.2
			c0-3.6,1.2-7,3.3-9.9c0.6-0.8,0.6-1.8,0.1-2.6C22.2,27.4,21.5,27,20.8,27L20.8,27z"/>
		<path class="st1" d="M35.5,24.2c8.9-0.4,16.3,7.3,16.3,16.3c0,1.2,1,2.2,2.2,2.2s2.2-1,2.2-2.2c0-11.4-9.3-20.7-20.7-20.7
			c-0.8,0-1.7,0-2.5,0.1s-1.4,0.6-1.8,1.3c-0.3,0.7-0.3,1.5,0.2,2.2c0.4,0.7,1.3,1,2.1,0.9c0.6-0.1,1.6-0.1,2.2-0.1L35.5,24.2z"/>
		<path class="st1" d="M35.5,34.6c-0.2,0-0.4,0-0.6,0.1L26,21.1c-0.5-0.8-1.5-1-2.3-0.5s-1,1.5-0.5,2.3l8.9,13.6
			c-0.4,0.6-0.6,1.3-0.6,2.1c0,2.2,1.8,4,4,4s4-1.8,4-4C39.5,36.4,37.7,34.6,35.5,34.6L35.5,34.6z"/>
	</g>
</g>
</svg>
