<svg width="27" height="27" viewBox="0 0 27 27" fill="none" xmlns="http://www.w3.org/2000/svg">
<path d="M6.76929 26.0001L12.8077 11.9039C12.8647 11.7672 12.9608 11.6505 13.084 11.5683C13.2072 11.4862 13.352 11.4424 13.5001 11.4424C13.6481 11.4424 13.7929 11.4862 13.9161 11.5683C14.0393 11.6505 14.1354 11.7672 14.1924 11.9039L20.2308 26.0001" stroke="black" stroke-width="1.71429" stroke-linecap="round" stroke-linejoin="round"/>
<path d="M9.48077 19.6729H17.5192" stroke="black" stroke-width="1.71429" stroke-linecap="round" stroke-linejoin="round"/>
<path d="M1 7.73077C1 5.94566 1.70913 4.23366 2.9714 2.9714C4.23366 1.70913 5.94566 1 7.73077 1" stroke="black" stroke-width="1.71429" stroke-linecap="round" stroke-linejoin="round"/>
<path d="M1 7.73077C1 5.94566 1.70913 4.23366 2.9714 2.9714C4.23366 1.70913 5.94566 1 7.73077 1" stroke="black" stroke-width="1.71429" stroke-linecap="round" stroke-linejoin="round"/>
<path d="M5.80768 7.73069C5.80768 7.22066 6.01029 6.73152 6.37093 6.37087C6.73158 6.01023 7.22072 5.80762 7.73076 5.80762" stroke="black" stroke-width="1.71429" stroke-linecap="round" stroke-linejoin="round"/>
<path d="M5.80768 7.73069C5.80768 7.22066 6.01029 6.73152 6.37093 6.37087C6.73158 6.01023 7.22072 5.80762 7.73076 5.80762" stroke="black" stroke-width="1.71429" stroke-linecap="round" stroke-linejoin="round"/>
<path d="M19.2692 1C21.0543 1 22.7663 1.70913 24.0286 2.9714C25.2909 4.23366 26 5.94566 26 7.73077" stroke="black" stroke-width="1.71429" stroke-linecap="round" stroke-linejoin="round"/>
<path d="M19.2692 1C21.0543 1 22.7663 1.70913 24.0286 2.9714C25.2909 4.23366 26 5.94566 26 7.73077" stroke="black" stroke-width="1.71429" stroke-linecap="round" stroke-linejoin="round"/>
<path d="M19.2692 5.80762C19.7793 5.80762 20.2684 6.01023 20.629 6.37087C20.9897 6.73152 21.1923 7.22066 21.1923 7.73069" stroke="black" stroke-width="1.71429" stroke-linecap="round" stroke-linejoin="round"/>
<path d="M19.2692 5.80762C19.7793 5.80762 20.2684 6.01023 20.629 6.37087C20.9897 6.73152 21.1923 7.22066 21.1923 7.73069" stroke="black" stroke-width="1.71429" stroke-linecap="round" stroke-linejoin="round"/>
</svg>
