<svg width="26" height="23" viewBox="0 0 26 23" fill="none" xmlns="http://www.w3.org/2000/svg">
<path d="M10.2308 14.2557V8.05264C10.2308 7.59111 10.6554 7.31418 10.9877 7.53572L15.5108 10.6373C15.591 10.6974 15.6562 10.7755 15.701 10.8652C15.7459 10.9549 15.7692 11.0539 15.7692 11.1542C15.7692 11.2545 15.7459 11.3534 15.701 11.4432C15.6562 11.5329 15.591 11.6109 15.5108 11.6711L10.9877 14.8465C10.6554 14.9942 10.2308 14.7173 10.2308 14.2557Z" stroke="black" stroke-width="1.71429" stroke-linecap="round" stroke-linejoin="round"/>
<path d="M18.5384 1H7.46151C6.44191 1 5.61536 1.82655 5.61536 2.84615V19.4615C5.61536 20.4811 6.44191 21.3077 7.46151 21.3077H18.5384C19.558 21.3077 20.3846 20.4811 20.3846 19.4615V2.84615C20.3846 1.82655 19.558 1 18.5384 1Z" stroke="black" stroke-width="1.71429" stroke-linecap="round" stroke-linejoin="round"/>
<path d="M1 3.76953V18.5388" stroke="black" stroke-width="1.71429" stroke-linecap="round" stroke-linejoin="round"/>
<path d="M25 3.76953V18.5388" stroke="black" stroke-width="1.71429" stroke-linecap="round" stroke-linejoin="round"/>
</svg>
