<?xml version="1.0" encoding="utf-8"?>
<!-- Generator: Adobe Illustrator 23.0.3, SVG Export Plug-In . SVG Version: 6.00 Build 0)  -->
<svg version="1.1" id="Layer_1" xmlns="http://www.w3.org/2000/svg" xmlns:xlink="http://www.w3.org/1999/xlink" x="0px" y="0px"
	 viewBox="0 0 70 70" style="enable-background:new 0 0 70 70;" xml:space="preserve">
<style type="text/css">
	.st0{fill:#E0E2E4;}
	.st1{fill:none;stroke:#242830;stroke-linecap:round;stroke-linejoin:round;stroke-miterlimit:10;}
	.st2{fill:#242830;}
</style>
<g>
	<path class="st0" d="M23.5,45.8V32.9c0-1.1,2.6-2.9,3.6-2.5l11.4,6.1c1,0.6,1.1,3.8,0,4.4L28.1,47C27.1,47.8,23.5,47.1,23.5,45.8z"
		/>
	<g>
		<path class="st1" d="M26.6,47.5c-1.7,0-3.2-1.5-3.2-3.2V33.4c0-1.7,1.5-3.2,3.2-3.2c0.5,0,1.1,0.1,1.6,0.4l9.6,5.4
			c1,0.6,1.6,1.6,1.6,2.7c0,1.1-0.6,2.2-1.6,2.7l-9.6,5.4C27,47.5,27.1,47.5,26.6,47.5z"/>
	</g>
</g>
<path class="st1" d="M60.5,28.5C60,24.1,58,20,54.9,16.8l0,0c-3.1-3.2-7.2-5.2-11.7-5.7"/>
<path class="st1" d="M55.9,28.4c-0.5-3.2-2-6.1-4.3-8.4s-5.2-3.8-8.4-4.3l0,0"/>
<path class="st1" d="M51.3,28.4c-0.4-1.9-1.4-3.7-2.8-5.1c-1.4-1.4-3.2-2.4-5.1-2.8"/>
<path class="st2" d="M45.2,27.4c0,0.7-0.6,1.3-1.3,1.3s-1.3-0.6-1.3-1.3c0-0.7,0.6-1.3,1.3-1.3C44.6,26.1,45.2,26.7,45.2,27.4"/>
<path class="st1" d="M35.7,19.9H15.3c-1.5,0-3,0.6-4.1,1.7s-1.7,2.6-1.7,4.1V52c0,1.5,0.6,3,1.7,4.1s2.6,1.7,4.1,1.7h32
	c1.5,0,3-0.6,4.1-1.7c1.1-1.1,1.7-2.6,1.7-4.1V36"/>
</svg>
