<svg id="Layer_1" data-name="Layer 1" xmlns="http://www.w3.org/2000/svg" viewBox="0 0 40 40"><defs><style>.cls-1{fill:#e0e2e4;}.cls-2{fill:none;stroke:#000;stroke-linecap:round;stroke-miterlimit:10;}</style></defs><title>Untitled-3</title><path class="cls-1" d="M27.77,24.18V34.37a4.1,4.1,0,0,1-4.1,4.09H6.59A4.09,4.09,0,0,1,2.5,34.37V5.63A4.09,4.09,0,0,1,6.59,1.54H23.67a4.1,4.1,0,0,1,4.1,4.09V16.05"/><path class="cls-2" d="M27.77,24.18V34.37a4.1,4.1,0,0,1-4.1,4.09H6.59A4.09,4.09,0,0,1,2.5,34.37V5.63A4.09,4.09,0,0,1,6.59,1.54H23.67a4.1,4.1,0,0,1,4.1,4.09V16.05"/><line class="cls-2" x1="12.7" y1="19.51" x2="37" y2="19.51"/><polyline class="cls-2" points="32.14 14.65 37 19.51 32.14 24.37"/></svg>