<?xml version="1.0" encoding="utf-8"?>
<!-- Generator: Adobe Illustrator 23.0.3, SVG Export Plug-In . SVG Version: 6.00 Build 0)  -->
<svg version="1.1" id="Layer_1" xmlns="http://www.w3.org/2000/svg" xmlns:xlink="http://www.w3.org/1999/xlink" x="0px" y="0px"
	 viewBox="0 0 70 70" style="enable-background:new 0 0 70 70;" xml:space="preserve">
<style type="text/css">
	.st0{fill:none;stroke:#000000;stroke-width:1.75;stroke-linecap:round;stroke-linejoin:round;}
	.st1{fill:none;stroke:#000000;stroke-width:1.75;stroke-miterlimit:10;}
</style>
<g>
	<path d="M18.2,42.6h-2.8c-0.8,0-1.4,0.6-1.4,1.4c0,0.8,0.6,1.4,1.4,1.4h2.8c0.8,0,1.4-0.6,1.4-1.4C19.6,43.2,19,42.6,18.2,42.6z"/>
	<path d="M54.6,42.6H23.8c-0.8,0-1.4,0.6-1.4,1.4c0,0.8,0.6,1.4,1.4,1.4h30.8c0.8,0,1.4-0.6,1.4-1.4C56,43.2,55.3,42.6,54.6,42.6z"
		/>
	<path d="M11.2,51h47.5h0c0.4,0,0.7-0.1,1-0.4s0.4-0.6,0.4-1V18.8c0-0.4-0.1-0.7-0.4-1s-0.6-0.4-1-0.4H11.2c-0.8,0-1.4,0.6-1.4,1.4
		v30.8v0c0,0.4,0.1,0.7,0.4,1C10.5,50.8,10.9,51,11.2,51L11.2,51z M12.6,20.2h44.7v28H12.6L12.6,20.2z"/>
</g>
<g>
	<path class="st0" d="M41.4,36.3l4.6-10.7c0-0.1,0.1-0.2,0.2-0.2c0.1-0.1,0.2-0.1,0.3-0.1c0.1,0,0.2,0,0.3,0.1
		c0.1,0.1,0.2,0.2,0.2,0.2l4.6,10.7"/>
	<path class="st0" d="M43.4,31.5h6.1"/>
</g>
<path class="st1" d="M21.3,25.5c-0.7-0.3-1.6-0.3-2.3,0.1c-0.7,0.4-1.1,1.2-1.1,2v6.6c0,0.8,0.4,1.5,1.1,2c0.7,0.4,1.5,0.5,2.3,0.1
	L28,33c0.8-0.4,1.3-1.2,1.3-2.1s-0.5-1.7-1.3-2.1L21.3,25.5z"/>
</svg>
