<?xml version="1.0" encoding="utf-8"?>
<!-- Generator: Adobe Illustrator 23.0.3, SVG Export Plug-In . SVG Version: 6.00 Build 0)  -->
<svg version="1.1" id="Layer_1" xmlns="http://www.w3.org/2000/svg" xmlns:xlink="http://www.w3.org/1999/xlink" x="0px" y="0px"
	 viewBox="0 0 70 70" style="enable-background:new 0 0 70 70;" xml:space="preserve">
<path d="M35,10.4c-13.9,0-25.2,11.3-25.2,25.2S21.1,60.8,35,60.8s25.2-11.3,25.2-25.2S48.9,10.4,35,10.4z M35,55.8
	c-11.1,0-20.2-9-20.2-20.2s9-20.2,20.2-20.2s20.2,9,20.2,20.2S46.1,55.8,35,55.8z M35,24.3c-6.3,0-11.3,5.1-11.3,11.3S28.7,47,35,47
	s11.3-5.1,11.3-11.3S41.3,24.3,35,24.3z M35,38.2c-1.4,0-2.5-1.1-2.5-2.5s1.1-2.5,2.5-2.5s2.5,1.1,2.5,2.5S36.4,38.2,35,38.2z"/>
</svg>
