<?xml version="1.0" encoding="utf-8"?>
<!-- Generator: Adobe Illustrator 23.0.3, SVG Export Plug-In . SVG Version: 6.00 Build 0)  -->
<svg version="1.1" id="Layer_1" xmlns="http://www.w3.org/2000/svg" xmlns:xlink="http://www.w3.org/1999/xlink" x="0px" y="0px"
	 viewBox="0 0 70 70" style="enable-background:new 0 0 70 70;" xml:space="preserve">
<g>
	<path d="M58.6,21.5c-1.1-1.1-2.5-1.7-4.1-1.7H42.1v-3c0-1.5-0.6-3-1.7-4.1c-1.1-1.1-2.5-1.7-4.1-1.7H15.4c-1.5,0-3,0.6-4.1,1.7
		c-1.1,1.1-1.7,2.5-1.7,4.1l0,14.9c0,1.5,0.6,3,1.7,4.1c0.9,0.9,2,1.4,3.1,1.6l-0.4,8.9c0,0.4,0.2,0.8,0.6,0.9c0.1,0,0.2,0,0.3,0
		c0.3,0,0.6-0.1,0.7-0.4l6.1-9.4l6.1,0v3c0,1.5,0.6,3,1.7,4.1c1.1,1.1,2.5,1.7,4.1,1.7h14.7l5.7,9.2c0.2,0.3,0.5,0.4,0.7,0.4
		c0.1,0,0.2,0,0.2,0c0.4-0.1,0.6-0.5,0.6-0.9l-0.1-8.8c1.2-0.2,2.2-0.8,3.1-1.6c1.1-1.1,1.6-2.5,1.6-4V25.6
		C60.3,24,59.7,22.6,58.6,21.5L58.6,21.5z M48.2,30.1c-0.2,2.3-1.2,4.7-2.7,6.7c-0.4,0.5-0.8,0.9-1.2,1.3c-1.2-1.1-2.1-2.5-2.8-3.8
		c0.4-0.8,0.6-1.7,0.6-2.6v-1.6L48.2,30.1z M21.3,35.7c-0.3,0-0.6,0.2-0.7,0.4L16,43.1l0.3-6.5c0-0.2-0.1-0.5-0.2-0.7
		c-0.2-0.2-0.4-0.3-0.6-0.3c-2.2,0-4-1.8-4-4l0-14.9c0-2.2,1.8-4,4-4h20.9c2.2,0,4,1.8,4,4v12.4v0v0v2.5c0,0.7-0.2,1.3-0.5,1.9
		c-0.1,0.1-0.2,0.3-0.3,0.4c-0.7,1-1.9,1.7-3.3,1.7L21.3,35.7z M58.6,40.5c0,2.1-1.7,3.9-3.9,4c-0.5,0-0.9,0.4-0.9,0.9l0.1,6.5
		l-4.3-6.9c-0.2-0.3-0.4-0.4-0.7-0.4l-15.2,0c-2.2,0-4-1.8-4-4v-3h6.6c1.5,0,2.9-0.6,4-1.6c0.8,1.3,1.7,2.4,2.6,3.4
		c-1.2,0.8-2.5,1.2-3.8,1.2c-0.5,0-0.9,0.4-0.9,0.9c0,0.5,0.4,0.9,0.9,0.9c1.5,0,2.9-0.4,4.3-1.2c0.3-0.2,0.6-0.3,0.8-0.5
		c0.6,0.4,1.2,0.8,1.8,1.1c1,0.5,2,0.7,3.1,0.7c0.5,0,0.9-0.4,0.9-0.9c0-0.5-0.4-0.9-0.9-0.9c-1.2,0-2.4-0.5-3.4-1.2
		c0.4-0.4,0.8-0.9,1.2-1.4c1.7-2.3,2.9-5.1,3.1-7.8h1.8c0.5,0,0.9-0.4,0.9-0.9c0-0.5-0.4-0.9-0.9-0.9H45v-2.5c0-0.5-0.4-0.9-0.9-0.9
		c-0.5,0-0.9,0.4-0.9,0.9v2.5h-1.2l0-6.7h12.5c2.2,0,4,1.8,4,4L58.6,40.5z"/>
	<path d="M29.8,27.6l1.5,4.1c0.1,0.3,0.5,0.5,0.8,0.5h0.5c0.3,0,0.5-0.2,0.4-0.5l-6.1-16.2c-0.1-0.3-0.5-0.5-0.8-0.5h-0.3
		c-0.3,0-0.7,0.2-0.8,0.5l-6.1,16.2c-0.1,0.3,0.1,0.5,0.4,0.5h0.5c0.3,0,0.7-0.2,0.8-0.6l1.5-4.1c0.1-0.3,0.5-0.6,0.8-0.6H29
		C29.3,27,29.6,27.3,29.8,27.6L29.8,27.6z M28.5,25.6h-5.8c1.9-5.2,2.9-8,3-8.2l0.1-0.3c0.1-0.3,0.1-0.5,0.2-0.5
		c0.1,0.4,0.2,0.8,0.4,1.2l2.6,7.2C29,25.4,28.8,25.6,28.5,25.6L28.5,25.6z"/>
</g>
</svg>
