<?xml version="1.0" encoding="utf-8"?>
<!-- Generator: Adobe Illustrator 23.0.3, SVG Export Plug-In . SVG Version: 6.00 Build 0)  -->
<svg version="1.1" id="Layer_1" xmlns="http://www.w3.org/2000/svg" xmlns:xlink="http://www.w3.org/1999/xlink" x="0px" y="0px"
	 viewBox="0 0 70 70" style="enable-background:new 0 0 70 70;" xml:space="preserve">
<style type="text/css">
	.st0{fill:none;stroke:#000000;stroke-width:2.5;stroke-miterlimit:10;}
</style>
<g>
	<path class="st0" d="M15.9,52.1h34.9c0.8,0,1.4-0.6,1.4-1.4V15.8c0-1.1-0.9-1.9-1.9-1.9H15.6c-0.9,0-1.6,0.7-1.6,1.6v34.7
		C14,51.3,14.8,52.1,15.9,52.1z"/>
	<path class="st0" d="M26.8,37.9V20.3c0-0.5,0.5-0.8,1-0.5l15.3,9.4c0.4,0.3,0.4,0.9,0,1.1L28.8,39C27.9,39.6,26.8,38.9,26.8,37.9z"
		/>
	<path class="st0" d="M18.7,56.1l33-0.1c2.4,0,4.3-1.9,4.3-4.3V18.9"/>
	<path d="M25.6,47.8H20c-0.2,0-0.4-0.2-0.4-0.4v-0.6c0-0.2,0.2-0.4,0.4-0.4h5.6c0.2,0,0.5,0.2,0.5,0.4v0.6
		C26,47.6,25.8,47.8,25.6,47.8z"/>
</g>
</svg>
