<?xml version="1.0" encoding="utf-8"?>
<!-- Generator: Adobe Illustrator 23.0.3, SVG Export Plug-In . SVG Version: 6.00 Build 0)  -->
<svg version="1.1" id="Layer_1" xmlns="http://www.w3.org/2000/svg" xmlns:xlink="http://www.w3.org/1999/xlink" x="0px" y="0px"
	 viewBox="0 0 70 70" style="enable-background:new 0 0 70 70;" xml:space="preserve">
<style type="text/css">
	.st0{fill:#E0E2E4;stroke:#242830;stroke-linecap:round;stroke-linejoin:round;stroke-miterlimit:10;}
</style>
<g>
	<path class="st0" d="M17,49c0.9,0.9,2.1,1.4,3.4,1.4s2.5-0.5,3.4-1.4l0.7-0.7c0.9,0.6,1.9,1,3,0.9c1-0.1,2-0.5,2.8-1.3l1.3-1.3
		l7.3,7.4c0.6,0.6,1.4,0.9,2.3,0.9c1,0,1.9-0.4,2.6-1.1c0.7-0.7,1.1-1.6,1.2-2.6s-0.3-1.9-0.9-2.5l-7.4-7.4c2.9-2.6,5.8-3.3,9.6-3.4
		l0.4,0.4c0.7,0.7,1.6,1.1,2.5,1.1s1.9-0.4,2.5-1.1c0.7-0.7,1-1.6,1-2.6s-0.3-1.9-1-2.6L32.6,13.5c-0.7-0.7-1.6-1.1-2.5-1.1
		c-1,0-1.8,0.4-2.5,1.1c-0.8,0.7-1.1,1.6-1.1,2.6s0.3,1.9,1,2.6l0.4,0.4c-0.2,4.2-0.9,7.3-4,10.5l-5.7,5.8c-0.8,0.8-1.2,1.8-1.3,2.8
		c-0.1,1.1,0.3,2.1,0.9,3l-0.7,0.7c-0.9,0.9-1.4,2.1-1.4,3.4C15.7,46.7,16.1,48.1,17,49z M44.3,35.8c-3.4,0.4-7.8,2.8-10.6,5.4
		l-9.3-8.8c2.5-2.9,5.3-7.6,5.6-11.1L44.3,35.8z M33.7,41.2l-5,5.1c-0.4,0.4-1,0.7-1.6,0.7s-1.1-0.3-1.6-0.7l-5.8-5.9
		c-0.4-0.4-0.6-1.1-0.6-1.7s0.1-1.2,0.6-1.6l5-5"/>
	<path class="st0" d="M47.2,20l2.3-2.4"/>
	<path class="st0" d="M49.6,26L49.6,26l3.3-0.2"/>
	<path class="st0" d="M39.7,12.6l-0.2,3.3"/>
	<path class="st0" d="M41.8,12.6"/>
</g>
</svg>
