<?xml version="1.0" encoding="utf-8"?>
<!-- Generator: Adobe Illustrator 23.0.3, SVG Export Plug-In . SVG Version: 6.00 Build 0)  -->
<svg version="1.1" id="Layer_1" xmlns="http://www.w3.org/2000/svg" xmlns:xlink="http://www.w3.org/1999/xlink" x="0px" y="0px"
	 viewBox="0 0 70 70" style="enable-background:new 0 0 70 70;" xml:space="preserve">
<style type="text/css">
	.st0{fill:#E0E2E4;}
	.st1{fill:none;stroke:#242830;stroke-linecap:round;stroke-linejoin:round;stroke-miterlimit:10;}
</style>
<path class="st0" d="M28.8,34.3H16.5c-2.5,0-4.6-2.1-4.6-4.6V17.4c0-2.5,2.1-4.6,4.6-4.6h12.3c2.5,0,4.6,2.1,4.6,4.6v12.3
	C33.4,32.2,31.3,34.3,28.8,34.3z"/>
<path class="st1" d="M29.7,13.1H15.8c-1.1,0-2.2,0.4-3,1.2s-1.2,1.9-1.2,3v13.4c0,1.1,0.4,2.2,1.2,3s1.9,1.2,3,1.2h13.4
	c1.1,0,2.2-0.4,3-1.2s1.2-1.9,1.2-3V17.3c0-1.1-0.4-2.2-1.2-3s-1.9-1.2-3-1.2L29.7,13.1z M22.4,38.3c-2.9,0-5.6,1.1-7.7,3.2
	c-2,2-3.2,4.8-3.2,7.7s1.1,5.6,3.2,7.7c2,2,4.8,3.2,7.7,3.2s5.6-1.1,7.7-3.2c2-2,3.2-4.8,3.2-7.7s-1.1-5.6-3.2-7.7
	C28.1,39.4,25.3,38.3,22.4,38.3L22.4,38.3z M47.6,38.3c-2.9,0-5.6,1.1-7.7,3.2c-2,2-3.2,4.8-3.2,7.7s1.1,5.6,3.2,7.7
	c2,2,4.8,3.2,7.7,3.2s5.6-1.1,7.7-3.2s3.2-4.8,3.2-7.7s-1.2-5.6-3.2-7.7C53.2,39.4,50.5,38.3,47.6,38.3L47.6,38.3z M47.6,34.9
	L47.6,34.9c2.9,0,5.6-1.1,7.7-3.2c2-2,3.2-4.8,3.2-7.7s-1.1-5.6-3.2-7.7c-2-2-4.8-3.2-7.7-3.2s-5.6,1.1-7.7,3.2
	c-2,2-3.2,4.8-3.2,7.7s1.1,5.6,3.2,7.7C41.9,33.7,44.7,34.9,47.6,34.9L47.6,34.9z"/>
</svg>
