<?xml version="1.0" encoding="utf-8"?>
<!-- Generator: Adobe Illustrator 23.0.3, SVG Export Plug-In . SVG Version: 6.00 Build 0)  -->
<svg version="1.1" id="Layer_1" xmlns="http://www.w3.org/2000/svg" xmlns:xlink="http://www.w3.org/1999/xlink" x="0px" y="0px"
	 viewBox="0 0 70 70" style="enable-background:new 0 0 70 70;" xml:space="preserve">
<style type="text/css">
	.st0{fill:#E0E2E4;}
	.st1{fill:none;stroke:#242830;stroke-miterlimit:10;}
	.st2{fill:none;stroke:#242830;stroke-linecap:round;stroke-linejoin:round;stroke-miterlimit:10;}
</style>
<g>
	<path class="st0" d="M61,25H10.6c-1.1,0-2-0.9-2-2v-3.3c0-2.8,2.3-5,5-5h44.5c2.2,0,3.9,1.8,3.9,3.9v5.3C62.1,24.5,61.6,25,61,25z"
		/>
	<g>
		<path class="st1" d="M57.3,56.8H13.1c-1.3,0-2.5-0.5-3.4-1.4S8.3,53.3,8.3,52V19.5c0-1.3,0.5-2.5,1.4-3.4s2.1-1.4,3.4-1.4h44.2
			c1.3,0,2.5,0.5,3.4,1.4s1.4,2.1,1.4,3.4V52c0,1.3-0.5,2.5-1.4,3.4C59.9,56.3,58.6,56.8,57.3,56.8L57.3,56.8z"/>
		<path class="st2" d="M18.1,11.4v6.5"/>
		<path class="st2" d="M54.1,11v6.5"/>
		<path class="st2" d="M8.8,24.4h53.1"/>
		<path class="st2" d="M41.5,37.8l-6.1-6.1l-6.1,6.1"/>
		<path class="st2" d="M29.2,42.7l6.1,6.1l6.1-6.1"/>
	</g>
</g>
</svg>
