<?xml version="1.0" encoding="utf-8"?>
<!-- Generator: Adobe Illustrator 23.0.3, SVG Export Plug-In . SVG Version: 6.00 Build 0)  -->
<svg version="1.1" id="Layer_1" xmlns="http://www.w3.org/2000/svg" xmlns:xlink="http://www.w3.org/1999/xlink" x="0px" y="0px"
	 viewBox="0 0 70 70" style="enable-background:new 0 0 70 70;" xml:space="preserve">
<style type="text/css">
	.st0{fill:#E0E2E4;}
	.st1{fill:none;stroke:#242830;stroke-linecap:round;stroke-linejoin:round;stroke-miterlimit:10;}
	.st2{fill:#FFFFFF;stroke:#242830;stroke-miterlimit:10;}
</style>
<path class="st0" d="M50,52.6H12.6c-1.4,0-2.6-1.2-2.6-2.6V12.7c0-1.4,1.2-2.6,2.6-2.6H50c1.4,0,2.6,1.2,2.6,2.6V50
	C52.6,51.5,51.4,52.6,50,52.6z"/>
<g>
	<g>
		<path class="st1" d="M12,52.7h39.1c0.9,0,1.6-0.7,1.6-1.6V12c0-1.2-1-2.1-2.1-2.1H11.7c-1,0-1.8,0.8-1.8,1.8v38.9
			C9.9,51.8,10.8,52.7,12,52.7z"/>
	</g>
	<path class="st2" d="M43.4,25c0.6-0.1,0.9-0.7,0.7-1.2c-0.1-0.6-0.7-0.9-1.2-0.7C37.6,24.5,32,17,32,16.8c-0.2-0.3-0.7-0.4-1.1-0.3
		s-0.7,0.6-0.7,0.9v17c-1.2-1.3-3-2.1-4.9-2.1c-3.8,0-6.9,3.1-6.9,6.9c0,3.8,3.1,6.9,6.9,6.9s6.9-3.1,6.9-6.9V20.1
		C34.7,22.6,38.9,26.1,43.4,25L43.4,25z"/>
	<g>
		<path class="st1" d="M18.3,60.1l37-0.1c2.7,0,4.8,0.5,4.8-4.8V18.4"/>
	</g>
</g>
</svg>
