<svg width="27" height="26" viewBox="0 0 27 26" fill="none" xmlns="http://www.w3.org/2000/svg">
<path d="M4.73913 24.9998C6.8042 24.9998 8.47827 23.3257 8.47827 21.2606C8.47827 19.1956 6.8042 17.5215 4.73913 17.5215C2.67407 17.5215 1 19.1956 1 21.2606C1 23.3257 2.67407 24.9998 4.73913 24.9998Z" stroke="black" stroke-width="1.71429" stroke-linecap="round" stroke-linejoin="round"/>
<path d="M21.5652 20.3259C23.6303 20.3259 25.3044 18.6519 25.3044 16.5868C25.3044 14.5217 23.6303 12.8477 21.5652 12.8477C19.5002 12.8477 17.8261 14.5217 17.8261 16.5868C17.8261 18.6519 19.5002 20.3259 21.5652 20.3259Z" stroke="black" stroke-width="1.71429" stroke-linecap="round" stroke-linejoin="round"/>
<path d="M25.3043 16.587V1.92954C25.3035 1.78651 25.2699 1.64556 25.2061 1.51756C25.1422 1.38956 25.0498 1.27792 24.9361 1.19123C24.8223 1.10454 24.6901 1.04512 24.5498 1.01754C24.4094 0.98996 24.2646 0.99496 24.1265 1.03215L9.16995 5.18259C8.9723 5.23581 8.79758 5.35242 8.67262 5.51454C8.54766 5.67665 8.47936 5.8753 8.47821 6.07998V21.2609" stroke="black" stroke-width="1.71429" stroke-linecap="round" stroke-linejoin="round"/>
<path d="M8.47821 10.9786L25.3043 6.30469" stroke="black" stroke-width="1.71429" stroke-linecap="round" stroke-linejoin="round"/>
</svg>
