<?xml version="1.0" encoding="utf-8"?>
<!-- Generator: Adobe Illustrator 23.0.3, SVG Export Plug-In . SVG Version: 6.00 Build 0)  -->
<svg version="1.1" id="Layer_1" xmlns="http://www.w3.org/2000/svg" xmlns:xlink="http://www.w3.org/1999/xlink" x="0px" y="0px"
	 viewBox="0 0 70 70" style="enable-background:new 0 0 70 70;" xml:space="preserve">
<style type="text/css">
	.st0{fill:#E0E2E4;}
	.st1{fill:none;stroke:#242830;stroke-linecap:round;stroke-linejoin:round;stroke-miterlimit:10;}
	.st2{fill:none;stroke:#242830;stroke-width:2;stroke-miterlimit:10;}
</style>
<path class="st0" d="M62,20.4l-0.4,35c0,0-19-6.3-26.4-0.7c0,0-12.7-5.9-26,0L9,19.2l4.9-1.5l-0.2,31.1c0,0,9.4-3.3,15.7-1.3
	s6.3,1.3,6.3,1.3s3.1-2.6,11.8-1.5s9.1,1.5,9.1,1.5V17L62,20.4z"/>
<g>
	<path class="st1" d="M13.6,17.1V49L13,49.2c6.8-2.2,14.7-2.5,21.5-0.3V17C27.8,14.3,20.3,14.3,13.6,17.1L13.6,17.1z"/>
	<path class="st2" d="M39.1,20.6"/>
	<path class="st1" d="M52.1,21c-3.9-1.6-8.3-1.6-12.3,0c-0.1,0-0.1,0-0.2,0"/>
	<path class="st1" d="M52.1,28.4c-3.9-1.6-8.3-1.6-12.3,0c-0.1,0-0.1,0-0.2,0"/>
	<path class="st1" d="M30.3,28.4c-3.9-1.6-8.3-1.6-12.3,0c-0.1,0-0.1,0-0.2,0"/>
	<path class="st1" d="M30.3,36.3c-3.9-1.6-8.3-1.6-12.3,0c-0.1,0-0.1,0-0.2,0"/>
	<path class="st1" d="M30.3,42.6C26.4,41,22,41,18,42.6c-0.1,0-0.1,0-0.2,0"/>
	<path class="st1" d="M30.3,21c-3.9-1.6-8.3-1.6-12.3,0c-0.1,0-0.1,0-0.2,0"/>
	<path class="st1" d="M52.1,36.3c-3.9-1.6-8.3-1.6-12.3,0c-0.1,0-0.1,0-0.2,0"/>
	<path class="st1" d="M52.2,43.3c-3.9-1.6-8.3-1.6-12.3,0c-0.1,0-0.1,0-0.2,0"/>
	<path class="st1" d="M34.9,49.1c5.9-1.9,12.8-2.3,19-0.9c1.3,0.3,2.6-0.7,2.6-2V17c-6.7-2.8-14.2-2.8-20.9,0l-1.1,0.7"/>
	<path class="st1" d="M56.4,18.3c0-0.2,0.1-0.3,0.2-0.4c0.1-0.1,0.3-0.1,0.5-0.1c1.3,0.4,2.7,0.9,3.9,1.4c0.2,0.1,0.3,0.3,0.3,0.5
		v34.6c0,0.2-0.1,0.3-0.2,0.5c-0.1,0.1-0.3,0.1-0.5,0.1c-8.2-2.9-17.2-2.9-25.4,0c-0.1,0-0.3,0-0.4,0c-8.2-2.9-17.2-2.9-25.4,0
		c-0.1,0-0.1,0-0.2,0l0,0c-0.3,0-0.5-0.2-0.5-0.5V19.7c0-0.2,0.1-0.4,0.3-0.5c1.3-0.6,2.6-1,3.9-1.4c0.2,0,0.3,0,0.5,0.1
		s0.2,0.3,0.2,0.4"/>
</g>
</svg>
