<svg width="26" height="34" viewBox="0 0 26 34" fill="none" xmlns="http://www.w3.org/2000/svg">
<path d="M15.4 29.8C15.3988 30.2091 15.293 30.6111 15.0926 30.9678C14.8923 31.3246 14.6042 31.6242 14.2555 31.8382C13.9068 32.0522 13.5092 32.1735 13.1005 32.1906C12.6917 32.2078 12.2854 32.1201 11.92 31.936L2.32 27.136C1.92421 26.9366 1.59137 26.6314 1.35838 26.2544C1.12539 25.8774 1.00134 25.4432 1 25V1L14.08 7.528C14.4794 7.72927 14.8147 8.03816 15.0479 8.41982C15.2812 8.80148 15.4031 9.24072 15.4 9.688V29.8Z" stroke="black" stroke-width="1.71429" stroke-linecap="round" stroke-linejoin="round"/>
<path d="M1 1H22.6C23.2365 1 23.847 1.25286 24.2971 1.70294C24.7471 2.15303 25 2.76348 25 3.4V25C25 25.6365 24.7471 26.247 24.2971 26.6971C23.847 27.1471 23.2365 27.4 22.6 27.4H15.4" stroke="black" stroke-width="1.71429" stroke-linecap="round" stroke-linejoin="round"/>
</svg>
