<svg width="26" height="26" viewBox="0 0 26 26" fill="none" xmlns="http://www.w3.org/2000/svg">
<path d="M22.2334 13.922V10.2292C22.2334 9.73951 22.0389 9.26987 21.6926 8.92361C21.3464 8.57734 20.8767 8.38281 20.3871 8.38281H2.84639C2.35669 8.38281 1.88706 8.57734 1.54079 8.92361C1.19453 9.26987 1 9.73951 1 10.2292V23.1539C1 23.6436 1.19453 24.1132 1.54079 24.4595C1.88706 24.8058 2.35669 25.0003 2.84639 25.0003H20.3871C20.8767 25.0003 21.3464 24.8058 21.6926 24.4595C22.0389 24.1132 22.2334 23.6436 22.2334 23.1539V18.5379" stroke="black" stroke-width="1.71429" stroke-linecap="round" stroke-linejoin="round"/>
<path d="M7.16687 3.76656L17.6359 1.03391C17.7535 1.00076 17.8767 0.991793 17.9979 1.00755C18.1191 1.0233 18.2358 1.06345 18.3411 1.12557C18.4463 1.18769 18.5379 1.27049 18.6103 1.36898C18.6827 1.46747 18.7343 1.5796 18.7622 1.6986L19.2792 3.76656" stroke="black" stroke-width="1.71429" stroke-linecap="round" stroke-linejoin="round"/>
<path d="M24.0798 13.9219H19.4638C18.954 13.9219 18.5406 14.3352 18.5406 14.8451V17.6146C18.5406 18.1245 18.954 18.5378 19.4638 18.5378H24.0798C24.5897 18.5378 25.003 18.1245 25.003 17.6146V14.8451C25.003 14.3352 24.5897 13.9219 24.0798 13.9219Z" stroke="black" stroke-width="1.71429" stroke-linecap="round" stroke-linejoin="round"/>
</svg>
