<?xml version="1.0" encoding="utf-8"?>
<!-- Generator: Adobe Illustrator 23.0.3, SVG Export Plug-In . SVG Version: 6.00 Build 0)  -->
<svg version="1.1" id="Layer_1" xmlns="http://www.w3.org/2000/svg" xmlns:xlink="http://www.w3.org/1999/xlink" x="0px" y="0px"
	 viewBox="0 0 70 70" style="enable-background:new 0 0 70 70;" xml:space="preserve">
<style type="text/css">
	.st0{fill:#E0E2E4;}
	.st1{fill:none;stroke:#242830;stroke-linecap:round;stroke-linejoin:round;stroke-miterlimit:10;}
</style>
<g>
	<path class="st0" d="M44.4,23.8h8.6c0,0,1.6-0.9,1.9,2.3c0.2,3.2,0.1,9.2,0.1,9.2s-7.6-0.5-7.6,1.5c0,1.9,0.6,7.7,0.7,8.3
		c0,0,0,0.1,0.1,0.1l7.1,0.4l-0.3,10.3c0,0,0.2,2.6-3.6,2.6s-38,0.4-38,0.4s-3-0.8-3.1-6.3c-0.1-5.5,0-26.5,0-26.5s-0.1-2,4.7-2.4
		S44.4,23.8,44.4,23.8z"/>
	<g>
		<path class="st1" d="M55.2,35.6v-7.9c0-1.1-0.4-2-1.2-2.7c-0.7-0.7-1.8-1.2-2.7-1.2H14c-1.1,0-2,0.4-2.7,1.2
			c-0.7,0.7-1.2,1.8-1.2,2.7v27.4c0,1.1,0.4,2,1.2,2.7C12,58.6,13.1,59,14,59h37.2c1.1,0,2-0.4,2.7-1.2c0.7-0.7,1.2-1.8,1.2-2.7
			v-9.8"/>
		<path class="st1" d="M23.1,14l22.2-5.8c0.2-0.1,0.5-0.1,0.8,0c0.2,0,0.5,0.1,0.7,0.2c0.2,0.1,0.5,0.4,0.6,0.5
			c0.1,0.2,0.2,0.5,0.4,0.7l1.1,4.4"/>
		<path class="st1" d="M59.1,35.6h-9.8c-1.1,0-2,0.8-2,2v5.9c0,1.1,0.8,2,2,2h9.8c1.1,0,2-0.8,2-2v-5.9
			C61.1,36.5,60.1,35.6,59.1,35.6z"/>
	</g>
</g>
</svg>
