<?xml version="1.0" encoding="utf-8"?>
<!-- Generator: Adobe Illustrator 23.0.3, SVG Export Plug-In . SVG Version: 6.00 Build 0)  -->
<svg version="1.1" id="Layer_1" xmlns="http://www.w3.org/2000/svg" xmlns:xlink="http://www.w3.org/1999/xlink" x="0px" y="0px"
	 viewBox="0 0 70 70" style="enable-background:new 0 0 70 70;" xml:space="preserve">
<path d="M59.2,10.6H11.9c-1,0-1.9,0.8-1.9,1.9v40.2c0,0.4,0.3,0.8,0.8,0.8h13.4v3.5c0,2,1.6,3.5,3.5,3.5h14.5c1.9,0,3.5-1.6,3.5-3.5
	v-3.5h12.9c0.7,0,1.3-0.6,1.3-1.3l0-40.8C59.9,10.9,59.6,10.6,59.2,10.6L59.2,10.6z M24.3,38.6h-1.9v-3.1h1.9V38.6z M25.8,56.9V39.3
	v-3.8H35v23.4h-7.2C26.7,58.9,25.8,58,25.8,56.9L25.8,56.9z M39.5,35.5v23.4h-2.9V35.5H39.5z M44.2,56.9c0,1.1-0.9,2-2,2H41V35.5
	h3.2v3.8C44.2,45.3,44.2,51.4,44.2,56.9L44.2,56.9z M47.6,35.5v3.1h-1.9v-3.1H47.6z M57.5,51.9H45.7V40.1h2.6c0.4,0,0.8-0.3,0.8-0.8
	v-4.6c0-0.4-0.3-0.8-0.8-0.8H21.6c-0.4,0-0.8,0.3-0.8,0.8v4.6c0,0.4,0.3,0.8,0.8,0.8h2.6v11.8l-11.1,0c-0.9,0-1.6-0.7-1.6-1.6V13.6
	c0-0.8,0.7-1.5,1.5-1.5h43.8c0.8,0,1.5,0.7,1.5,1.5l0,37.4C58.4,51.5,58,51.9,57.5,51.9z"/>
<path d="M17.3,27h35.5c0.5,0,0.8-0.3,0.8-0.8v-10c0-0.5-0.3-0.8-0.8-0.8H17.3c-0.5,0-0.8,0.3-0.8,0.8v10C16.5,26.6,16.8,27,17.3,27
	L17.3,27z M18,17h34v8.5H18V17z"/>
<path d="M33.3,49.3c0-1.7-1.4-3.1-3.1-3.1c-1.7,0-3.1,1.4-3.1,3.1c0,0.5,0.2,1,0.4,1.4c-1.1,2,0.4,4.5,2.7,4.5
	c2.3,0,3.8-2.5,2.7-4.5C33.1,50.3,33.3,49.8,33.3,49.3L33.3,49.3z M30.2,47.7c0.8,0,1.6,0.7,1.6,1.6c0,0.4-0.2,0.7-0.4,1
	c-0.5,0.5-1.3,0.7-1.9,0.5c-0.5-0.2-0.9-0.8-0.9-1.4C28.6,48.4,29.3,47.7,30.2,47.7L30.2,47.7z M30.2,53.8c-1,0-1.7-0.8-1.5-1.8
	c0.9,0.5,2.2,0.5,3.1,0C31.8,52.9,31.2,53.8,30.2,53.8z"/>
</svg>
