<svg width="22" height="28" viewBox="0 0 22 28" fill="none" xmlns="http://www.w3.org/2000/svg">
<path d="M19.8571 25.22C19.7795 25.7114 19.4445 26.1653 18.9168 26.494C18.3892 26.8227 17.7063 27.003 17 27H5C4.29367 27.003 3.6108 26.8227 3.08316 26.494C2.55553 26.1653 2.22054 25.7114 2.14286 25.22L1 18H21L19.8571 25.22Z" stroke="black" stroke-width="1.71429" stroke-linecap="round" stroke-linejoin="round"/>
<path d="M6 18V10C6 8.67392 6.52678 7.40215 7.46447 6.46447C8.40215 5.52678 9.67392 5 11 5C12.3261 5 13.5979 5.52678 14.5355 6.46447C15.4732 7.40215 16 8.67392 16 10V18" stroke="black" stroke-width="1.71429" stroke-linecap="round" stroke-linejoin="round"/>
<path d="M11 5V1" stroke="black" stroke-width="1.71429" stroke-linecap="round" stroke-linejoin="round"/>
<path d="M6 12H2" stroke="black" stroke-width="1.71429" stroke-linecap="round" stroke-linejoin="round"/>
<path d="M4 5L6.62 7.62" stroke="black" stroke-width="1.71429" stroke-linecap="round" stroke-linejoin="round"/>
<path d="M16 12H20" stroke="black" stroke-width="1.71429" stroke-linecap="round" stroke-linejoin="round"/>
<path d="M18 5L15.38 7.62" stroke="black" stroke-width="1.71429" stroke-linecap="round" stroke-linejoin="round"/>
</svg>
