<?xml version="1.0" encoding="utf-8"?>
<!-- Generator: Adobe Illustrator 23.0.3, SVG Export Plug-In . SVG Version: 6.00 Build 0)  -->
<svg version="1.1" id="Layer_1" xmlns="http://www.w3.org/2000/svg" xmlns:xlink="http://www.w3.org/1999/xlink" x="0px" y="0px"
	 viewBox="0 0 70 70" style="enable-background:new 0 0 70 70;" xml:space="preserve">
<style type="text/css">
	.st0{fill:none;stroke:#000000;stroke-width:2.5;stroke-linecap:round;stroke-linejoin:round;}
</style>
<g>
	<path class="st0" d="M53.7,56.3c-0.2,1-0.8,1.9-1.9,2.5c-1,0.7-2.4,1-3.8,1H24.3c-1.4,0-2.8-0.4-3.8-1c-1-0.7-1.7-1.6-1.9-2.5
		L16.4,42H56L53.7,56.3z"/>
	<path class="st0" d="M26.3,42V26.1c0-2.6,1-5.1,2.9-7s4.4-2.9,7-2.9s5.1,1,7,2.9s2.9,4.4,2.9,7V42"/>
	<path class="st0" d="M36.2,16.2V8.3"/>
	<path class="st0" d="M26.3,30.1h-7.9"/>
	<path class="st0" d="M22.3,16.2l5.2,5.2"/>
	<path class="st0" d="M46.1,30.1H54"/>
	<path class="st0" d="M50.1,16.2l-5.2,5.2"/>
</g>
</svg>
