<?xml version="1.0" encoding="utf-8"?>
<!-- Generator: Adobe Illustrator 23.0.3, SVG Export Plug-In . SVG Version: 6.00 Build 0)  -->
<svg version="1.1" id="Layer_1" xmlns="http://www.w3.org/2000/svg" xmlns:xlink="http://www.w3.org/1999/xlink" x="0px" y="0px"
	 viewBox="0 0 70 70" style="enable-background:new 0 0 70 70;" xml:space="preserve">
<style type="text/css">
	.st0{fill:#E0E2E4;stroke:#242830;stroke-linecap:round;stroke-linejoin:round;stroke-miterlimit:10;}
	.st1{fill:none;stroke:#242830;stroke-linecap:round;stroke-linejoin:round;stroke-miterlimit:10;}
</style>
<g>
	<path class="st0" d="M50.7,54.5c-0.2,1-0.8,1.9-1.9,2.5c-1,0.7-2.4,1-3.8,1H21.3c-1.4,0-2.8-0.4-3.8-1c-1-0.7-1.7-1.6-1.9-2.5
		l-2.2-14.3H53L50.7,54.5z"/>
	<path class="st1" d="M23.3,40.2V24.3c0-2.6,1-5.1,2.9-7s4.4-2.9,7-2.9s5.1,1,7,2.9s2.9,4.4,2.9,7v15.9"/>
	<path class="st1" d="M33.2,14.4V6.5"/>
	<path class="st1" d="M23.3,28.3h-7.9"/>
	<path class="st1" d="M19.3,14.4l5.2,5.2"/>
	<path class="st1" d="M43.1,28.3H51"/>
	<path class="st1" d="M47.1,14.4l-5.2,5.2"/>
</g>
</svg>
