<?xml version="1.0" encoding="utf-8"?>
<!-- Generator: Adobe Illustrator 23.0.3, SVG Export Plug-In . SVG Version: 6.00 Build 0)  -->
<svg version="1.1" id="Layer_1" xmlns="http://www.w3.org/2000/svg" xmlns:xlink="http://www.w3.org/1999/xlink" x="0px" y="0px"
	 viewBox="0 0 70 70" style="enable-background:new 0 0 70 70;" xml:space="preserve">
<style type="text/css">
	.st0{fill:none;stroke:#000000;stroke-width:2.5;stroke-linecap:round;stroke-linejoin:round;}
</style>
<g>
	<path class="st0" d="M55.4,12.9H16c-2,0-3.6,1.6-3.6,3.6V56c0,2,1.6,3.6,3.6,3.6h39.5c2,0,3.6-1.6,3.6-3.6V16.5
		C59,14.5,57.4,12.9,55.4,12.9z"/>
	<path class="st0" d="M30.3,49V35.2c0-0.2,0.1-0.4,0.2-0.6c0.1-0.2,0.3-0.3,0.4-0.4c0.2-0.1,0.4-0.2,0.6-0.2s0.4,0,0.6,0.1L44,41
		c0.2,0.1,0.4,0.3,0.5,0.5s0.2,0.4,0.2,0.6s-0.1,0.4-0.2,0.6c-0.1,0.2-0.3,0.4-0.5,0.5l-11.9,6.9c-0.2,0.1-0.4,0.1-0.6,0.1
		s-0.4-0.1-0.6-0.2c-0.2-0.1-0.3-0.3-0.4-0.4C30.4,49.4,30.3,49.2,30.3,49L30.3,49z"/>
	<path class="st0" d="M12.4,25.4H59"/>
	<path class="st0" d="M24.9,25.4l5.4-12.6"/>
	<path class="st0" d="M41.1,25.4l5.4-12.6"/>
</g>
</svg>
