<?xml version="1.0" encoding="utf-8"?>
<!-- Generator: Adobe Illustrator 23.0.3, SVG Export Plug-In . SVG Version: 6.00 Build 0)  -->
<svg version="1.1" id="Layer_1" xmlns="http://www.w3.org/2000/svg" xmlns:xlink="http://www.w3.org/1999/xlink" x="0px" y="0px"
	 viewBox="0 0 70 70" style="enable-background:new 0 0 70 70;" xml:space="preserve">
<style type="text/css">
	.st0{fill:#E0E2E4;}
	.st1{fill:none;stroke:#242830;stroke-linecap:round;stroke-linejoin:round;stroke-miterlimit:10;}
</style>
<g>
	<path class="st0" d="M12.3,17v35.6c0,0,4.1,7.1,10,4.6s33.9-18.6,33.9-18.6s4.7-5.3-2.4-9.4s-33.1-18-33.1-18S11.7,12.4,12.3,17z"
		/>
	<g>
		<path class="st1" d="M19.6,57.7c-4,0-7.3-3.1-7.3-6.9V18.2c0-3.8,3.3-6.9,7.3-6.9c1.2,0,2.2,0.2,3.3,0.8l31.2,16.3
			c2.3,1.2,3.6,3.5,3.6,6c0,2.6-1.4,5-3.7,6.2L23,56.9C21.9,57.5,20.8,57.7,19.6,57.7L19.6,57.7z"/>
		<path class="st1" d="M38.7,28.7L25.8,41.5l-5.7-5.7"/>
	</g>
</g>
</svg>
