<svg width="26" height="26" viewBox="0 0 26 26" fill="none" xmlns="http://www.w3.org/2000/svg">
<path d="M23.1538 1H2.84615C1.82655 1 1 1.82655 1 2.84615V23.1538C1 24.1734 1.82655 25 2.84615 25H23.1538C24.1734 25 25 24.1734 25 23.1538V2.84615C25 1.82655 24.1734 1 23.1538 1Z" stroke="black" stroke-width="1.71429" stroke-linecap="round" stroke-linejoin="round"/>
<path d="M10.2123 19.572V12.5013C10.2174 12.3926 10.2492 12.2869 10.3048 12.1933C10.3603 12.0998 10.438 12.0214 10.5309 11.9649C10.6239 11.9083 10.7293 11.8755 10.8379 11.8693C10.9465 11.863 11.055 11.8835 11.1538 11.9289L17.283 15.4551C17.3823 15.5163 17.4643 15.6018 17.5211 15.7036C17.5779 15.8054 17.6078 15.9201 17.6078 16.0366C17.6078 16.1532 17.5779 16.2679 17.5211 16.3697C17.4643 16.4715 17.3823 16.557 17.283 16.6182L11.1538 20.1628C11.0533 20.2041 10.9443 20.2209 10.836 20.2116C10.7277 20.2024 10.6232 20.1674 10.5311 20.1096C10.439 20.0518 10.362 19.9729 10.3066 19.8794C10.2511 19.7859 10.2188 19.6805 10.2123 19.572V19.572Z" stroke="black" stroke-width="1.71429" stroke-linecap="round" stroke-linejoin="round"/>
<path d="M1 7.46191H25" stroke="black" stroke-width="1.71429" stroke-linecap="round" stroke-linejoin="round"/>
<path d="M7.46155 7.46154L10.2308 1" stroke="black" stroke-width="1.71429" stroke-linecap="round" stroke-linejoin="round"/>
<path d="M15.7692 7.46154L18.5385 1" stroke="black" stroke-width="1.71429" stroke-linecap="round" stroke-linejoin="round"/>
</svg>
