<svg width="25" height="25" viewBox="0 0 25 25" fill="none" xmlns="http://www.w3.org/2000/svg">
<path d="M10.4306 1.949C10.6126 1.65854 10.8653 1.41908 11.1652 1.25308C11.4651 1.08708 11.8022 1 12.1449 1C12.4877 1 12.8248 1.08708 13.1246 1.25308C13.4245 1.41908 13.6773 1.65854 13.8592 1.949L17.1849 7.21185L21.5221 7.74328C21.8818 7.78347 22.2237 7.92107 22.5109 8.14125C22.7982 8.36143 23.02 8.65583 23.1522 8.99273C23.2845 9.32963 23.3224 9.69625 23.2617 10.0531C23.201 10.4099 23.044 10.7434 22.8078 11.0176L19.1906 15.1661L20.3563 20.909C20.4294 21.2837 20.394 21.6715 20.2543 22.0268C20.1147 22.3821 19.8765 22.6901 19.5678 22.9147C19.2552 23.1352 18.8869 23.2634 18.505 23.2846C18.1231 23.3058 17.7428 23.2192 17.4078 23.0347L12.1449 20.1547L6.88206 23.0347C6.54698 23.2192 6.16678 23.3058 5.78484 23.2846C5.40291 23.2634 5.03463 23.1352 4.72206 22.9147C4.41336 22.6901 4.17518 22.3821 4.03549 22.0268C3.89581 21.6715 3.86042 21.2837 3.93349 20.909L5.0992 15.1661L1.48206 11.0176C1.2458 10.7434 1.08887 10.4099 1.02817 10.0531C0.967465 9.69625 1.0053 9.32963 1.13759 8.99273C1.26988 8.65583 1.49161 8.36143 1.77888 8.14125C2.06615 7.92107 2.40807 7.78347 2.76777 7.74328L7.10491 7.21185L10.4306 1.949Z" stroke="black" stroke-width="1.71429" stroke-linecap="round" stroke-linejoin="round"/>
</svg>
