<?xml version="1.0" encoding="utf-8"?>
<!-- Generator: Adobe Illustrator 23.0.3, SVG Export Plug-In . SVG Version: 6.00 Build 0)  -->
<svg version="1.1" id="Layer_1" xmlns="http://www.w3.org/2000/svg" xmlns:xlink="http://www.w3.org/1999/xlink" x="0px" y="0px"
	 viewBox="0 0 70 70" style="enable-background:new 0 0 70 70;" xml:space="preserve">
<g>
	<path d="M38.1,35.1c0.2,0.9,0,1.9-0.7,2.6c-0.4,0.4-0.9,0.8-1.4,0.9v0.7c0,0.5-0.4,1-1,1c-0.5,0-1-0.4-1-1v-0.8
		c-0.6-0.2-1.1-0.5-1.6-0.8c-0.4-0.3-0.5-1-0.2-1.4c0.3-0.4,1-0.5,1.4-0.2c0,0,1.5,1.2,2.2,0.3l0,0c0.2-0.2,0.4-0.5,0.3-0.9
		c-0.3-0.6-0.8-1.1-1.5-1.3c-1.3-0.4-2.3-1.4-2.7-2.6c-0.2-0.9,0-1.9,0.7-2.6c0.4-0.4,0.9-0.8,1.4-0.9v-0.7c0-0.5,0.4-1,1-1
		c0.5,0,1,0.4,1,1v0.8c0.6,0.2,1.1,0.5,1.6,0.8c0.4,0.3,0.5,1,0.2,1.4c-0.3,0.4-1,0.5-1.4,0.2c0,0-1.5-1.2-2.2-0.3
		c-0.2,0.2-0.4,0.5-0.3,0.9c0.3,0.6,0.8,1.1,1.5,1.3C36.7,32.8,37.7,33.8,38.1,35.1L38.1,35.1z M55.8,43.3c0,1.1-0.4,2.1-1.2,2.8
		c-0.7,0.7-1.8,1.2-2.8,1.2c-1.1,0-2.1-0.4-2.8-1.2l-10.2,6c0.1,0.4,0.2,0.7,0.2,1.1c0,1.4-0.8,2.7-2,3.4c-1.2,0.7-2.7,0.7-4,0
		c-1.2-0.7-2-2-2-3.4c0-0.4,0.1-0.7,0.2-1.1l-10.2-6c-0.9,0.9-2.1,1.3-3.3,1.1c-1.2-0.2-2.3-0.9-2.9-2c-0.6-1.1-0.7-2.4-0.2-3.5
		c0.5-1.1,1.5-2,2.7-2.3V27.3C16,26.9,15,26.1,14.5,25c-0.5-1.1-0.4-2.4,0.2-3.5c0.6-1.1,1.7-1.8,2.9-2c1.2-0.2,2.5,0.3,3.3,1.1
		l10.2-6c-0.1-0.4-0.2-0.7-0.2-1.1c0-1.4,0.8-2.7,2-3.4c1.2-0.7,2.7-0.7,4,0c1.2,0.7,2,2,2,3.4c0,0.4-0.1,0.7-0.2,1.1l10.2,6
		c0.9-0.9,2.1-1.3,3.3-1.1c1.2,0.2,2.3,0.9,2.9,2c0.6,1.1,0.7,2.4,0.2,3.5c-0.5,1.1-1.5,2-2.7,2.3v12.2c0.8,0.2,1.6,0.7,2.1,1.4
		C55.6,41.5,55.8,42.4,55.8,43.3L55.8,43.3z M50.9,39.4V27.3c-0.7-0.2-1.3-0.5-1.8-1l-4.2,2.5h0c1.4,2.9,1.4,6.4,0,9.3l4.2,2.5h0
		C49.6,40,50.2,39.6,50.9,39.4L50.9,39.4z M44,33.3c0-2.4-0.9-4.6-2.6-6.3c-1.7-1.7-3.9-2.6-6.3-2.6c-2.4,0-4.6,0.9-6.3,2.6
		c-1.7,1.7-2.6,3.9-2.6,6.3s0.9,4.6,2.6,6.3s3.9,2.6,6.3,2.6c2.4,0,4.6-0.9,6.3-2.6C43,38,44,35.7,44,33.3z M21,40.5l4.2-2.5h0
		c-1.4-2.9-1.4-6.4,0-9.3L21,26.2c-0.5,0.5-1.1,0.9-1.8,1v12.2C19.9,39.6,20.5,40,21,40.5L21,40.5z M49.9,23.4c0,0.5,0.2,1,0.6,1.4
		c0.4,0.4,0.9,0.6,1.4,0.6c0.5,0,1-0.2,1.4-0.6s0.6-0.9,0.6-1.4c0-0.5-0.2-1-0.6-1.4c-0.4-0.4-0.9-0.6-1.4-0.6c-0.5,0-1,0.2-1.4,0.6
		S49.9,22.9,49.9,23.4L49.9,23.4z M37.8,16.3c-0.5,0.5-1.1,0.9-1.8,1v5.1c3.1,0.3,6,1.9,7.9,4.5l4.2-2.5c-0.2-0.7-0.2-1.5,0-2.2
		L37.8,16.3z M33.1,13.5c0,0.5,0.2,1,0.6,1.4c0.4,0.4,0.9,0.6,1.4,0.6s1-0.2,1.4-0.6c0.4-0.4,0.6-0.9,0.6-1.4c0-0.5-0.2-1-0.6-1.4
		c-0.4-0.4-0.9-0.6-1.4-0.6c-0.5,0-1,0.2-1.4,0.6C33.3,12.5,33.1,13,33.1,13.5L33.1,13.5z M22,22.4c0.2,0.7,0.2,1.5,0,2.2l4.2,2.5
		c1.8-2.6,4.7-4.2,7.9-4.5v-5.1c-0.7-0.2-1.3-0.5-1.8-1L22,22.4z M18.2,25.4c0.5,0,1-0.2,1.4-0.6c0.4-0.4,0.6-0.9,0.6-1.4
		c0-0.5-0.2-1-0.6-1.4c-0.4-0.4-0.9-0.6-1.4-0.6c-0.5,0-1,0.2-1.4,0.6c-0.4,0.4-0.6,0.9-0.6,1.4c0,0.5,0.2,1,0.6,1.4
		C17.2,25.2,17.7,25.4,18.2,25.4L18.2,25.4z M20.2,43.3c0-0.5-0.2-1-0.6-1.4c-0.4-0.4-0.9-0.6-1.4-0.6c-0.5,0-1,0.2-1.4,0.6
		c-0.4,0.4-0.6,0.9-0.6,1.4c0,0.5,0.2,1,0.6,1.4c0.4,0.4,0.9,0.6,1.4,0.6c0.5,0,1-0.2,1.4-0.6C20,44.3,20.2,43.8,20.2,43.3
		L20.2,43.3z M32.2,50.4L32.2,50.4c0.5-0.5,1.1-0.9,1.8-1v-5.1c-3.1-0.3-6-1.9-7.9-4.5L22,42.2c0.2,0.7,0.2,1.5,0,2.2L32.2,50.4z
		 M37,53.2c0-0.5-0.2-1-0.6-1.4c-0.4-0.4-0.9-0.6-1.4-0.6s-1,0.2-1.4,0.6c-0.4,0.4-0.6,0.9-0.6,1.4c0,0.5,0.2,1,0.6,1.4
		c0.4,0.4,0.9,0.6,1.4,0.6c0.5,0,1-0.2,1.4-0.6S37,53.7,37,53.2L37,53.2z M48.1,44.3c-0.2-0.7-0.2-1.5,0-2.2l-4.2-2.5
		c-1.8,2.6-4.7,4.2-7.9,4.5v5.1c0.7,0.2,1.3,0.5,1.8,1L48.1,44.3z M53.9,43.3c0-0.5-0.2-1-0.6-1.4c-0.4-0.4-0.9-0.6-1.4-0.6
		c-0.5,0-1,0.2-1.4,0.6c-0.4,0.4-0.6,0.9-0.6,1.4c0,0.5,0.2,1,0.6,1.4c0.4,0.4,0.9,0.6,1.4,0.6c0.5,0,1-0.2,1.4-0.6
		S53.9,43.8,53.9,43.3L53.9,43.3z"/>
</g>
</svg>
