<?xml version="1.0" encoding="utf-8"?>
<!-- Generator: Adobe Illustrator 23.0.3, SVG Export Plug-In . SVG Version: 6.00 Build 0)  -->
<svg version="1.1" id="Layer_1" xmlns="http://www.w3.org/2000/svg" xmlns:xlink="http://www.w3.org/1999/xlink" x="0px" y="0px"
	 viewBox="0 0 70 70" style="enable-background:new 0 0 70 70;" xml:space="preserve">
<g>
	<path d="M16.4,33.3l-0.2-0.1H16v0c-0.4-0.1-0.8,0-1,0.3c-0.1,0.1-0.2,0.2-0.2,0.4c-0.1,0.1-0.1,0.3-0.1,0.4c0,0.3,0.1,0.6,0.3,0.8
		c0.2,0.2,0.5,0.3,0.8,0.3H16l0.2-0.1l0.2-0.1h0c0.1,0,0.1-0.1,0.2-0.1c0.4-0.4,0.4-1.2,0-1.6C16.5,33.5,16.5,33.4,16.4,33.3
		L16.4,33.3z"/>
	<path d="M15.1,20.7c0,0.8-0.7,1.5-1.5,1.5c-0.8,0-1.5-0.7-1.5-1.5c0-0.8,0.7-1.5,1.5-1.5C14.4,19.2,15.1,19.8,15.1,20.7"/>
	<path d="M19.9,20.7c0,0.8-0.7,1.5-1.5,1.5S17,21.5,17,20.7c0-0.8,0.7-1.5,1.5-1.5S19.9,19.8,19.9,20.7"/>
	<path d="M24.8,20.7c0,0.8-0.7,1.5-1.5,1.5c-0.8,0-1.5-0.7-1.5-1.5c0-0.8,0.7-1.5,1.5-1.5C24.1,19.2,24.8,19.8,24.8,20.7"/>
	<path d="M60.2,55.1h-4.3c0.7-1,1.1-2.2,1.1-3.4V20.5c0-1.5-0.6-2.9-1.7-4c-1.1-1.1-2.5-1.7-4-1.7H13.8c-1.5,0-2.9,0.6-4,1.7
		c-1.1,1.1-1.7,2.5-1.7,4v31.3c0,1.5,0.6,2.9,1.7,4c1.1,1.1,2.5,1.7,4,1.7h46.4c0.6,0,1.1-0.5,1.1-1.1
		C61.3,55.6,60.8,55.1,60.2,55.1L60.2,55.1z M54.8,25.4v26.3c0,0.9-0.4,1.8-1,2.4c-0.6,0.6-1.5,1-2.4,1H13.8c-0.9,0-1.8-0.4-2.4-1
		c-0.6-0.6-1-1.5-1-2.4V26.5h4.3v4.2c0,0.6,0.5,1.1,1.1,1.1c0.6,0,1.1-0.5,1.1-1.1v-4.2h3.6v9.7c0,0.2,0,0.5,0,0.7
		c0.1,0.9,0.4,1.9,0.9,2.7l0.1,0.1c0.1,0.1,0.1,0.2,0.2,0.3c0.1,0.2,0.2,0.3,0.4,0.5l0.1,0.1l0.4,0.4c1.1,1.1,2.7,1.7,4.3,1.7
		c1.6,0,3.1-0.7,4.2-1.8c0.1-0.1,0.3-0.3,0.4-0.4c0.2-0.2,0.4-0.5,0.6-0.8c0.1-0.1,0.2-0.3,0.2-0.4c0.2-0.4,0.3-0.7,0.4-1.1
		c0.1-0.2,0.1-0.4,0.2-0.6c0.1-0.3,0.1-0.7,0.1-1c0.7,0.3,1.5,0.3,2.3,0V38c0,1.7,0.9,3.2,2.3,4.1c0.7,0.4,1.5,0.6,2.3,0.6
		c0.2,0,0.3,0,0.5,0c0.8-0.1,1.5-0.4,2.1-0.8c0.3,1,1,1.9,1.8,2.5c0.7,0.5,1.5,0.8,2.4,0.8c2.5,0,4.5-2.3,4.5-5.2V26.5
		c0-0.2-0.1-0.4-0.2-0.5c0.1-0.2,0.2-0.4,0.2-0.6c0-0.3-0.1-0.6-0.3-0.8c-0.2-0.2-0.5-0.3-0.8-0.3H10.4v-3.8c0-0.9,0.4-1.8,1-2.4
		c0.6-0.6,1.5-1,2.4-1h37.6c0.9,0,1.8,0.4,2.4,1c0.6,0.6,1,1.5,1,2.4L54.8,25.4z M43.2,36.9c-0.6,0-1.1,0.5-1.1,1.1
		c0,0.6-0.2,1.2-0.6,1.6c-0.4,0.5-0.9,0.7-1.5,0.8h-0.2c-0.4,0-0.8-0.1-1.1-0.3c-0.7-0.5-1.2-1.3-1.1-2.2v-4.8
		c0-0.6-0.5-1.1-1.1-1.1c-0.6,0-1.1,0.5-1.1,1.1c0.1,0.4-0.1,0.9-0.5,1.1c-0.4,0.2-0.8,0.3-1.2,0c-0.1-0.1-0.2-0.1-0.3-0.2
		c-0.2-0.2-0.3-0.5-0.3-0.8c0-0.6-0.5-1.1-1.1-1.1c-0.6,0-1.1,0.5-1.1,1.1v3c0,0.3,0,0.6-0.1,0.9c0,0.1-0.1,0.3-0.1,0.4
		c-0.1,0.2-0.2,0.5-0.3,0.7c0,0.1-0.1,0.2-0.1,0.2c-0.1,0.2-0.2,0.4-0.4,0.6l-0.3,0.3c-0.7,0.7-1.7,1.1-2.7,1.1c-1,0-2-0.4-2.7-1.1
		l-0.2-0.2L23.8,39c-0.1-0.1-0.1-0.2-0.2-0.3h0c-0.1-0.1-0.1-0.2-0.1-0.2c-0.3-0.6-0.5-1.2-0.6-1.8v-0.5v-9.7h26.1v13.4
		c0.1,0.7-0.1,1.4-0.5,1.9c-0.4,0.5-1,0.9-1.7,1c-0.4,0-0.8-0.1-1.1-0.4c-0.8-0.6-1.2-1.6-1.2-2.6V38c0-0.3-0.1-0.6-0.3-0.8
		C43.8,37,43.5,36.9,43.2,36.9L43.2,36.9z"/>
	<path d="M64.5,55.4c-0.3-0.3-0.8-0.4-1.2-0.2c-0.4,0.2-0.7,0.6-0.7,1.1c0,0.6,0.5,1.1,1.1,1.1s1.1-0.5,1.1-1.1
		C64.8,55.9,64.7,55.7,64.5,55.4z"/>
	<path d="M26.2,45.2c-0.6,0-1.1,0.5-1.1,1.1V52c0,0.6,0.5,1.1,1.1,1.1c0.6,0,1.1-0.5,1.1-1.1v-5.7c0-0.3-0.1-0.6-0.3-0.8
		C26.8,45.3,26.5,45.2,26.2,45.2z"/>
	<path d="M34.2,41.8c-0.6,0-1.1,0.5-1.1,1.1v4.5c0,0.6,0.5,1.1,1.1,1.1c0.6,0,1.1-0.5,1.1-1.1v-4.5c0-0.3-0.1-0.6-0.3-0.8
		C34.8,41.9,34.5,41.8,34.2,41.8z"/>
</g>
</svg>
