<?xml version="1.0" encoding="utf-8"?>
<!-- Generator: Adobe Illustrator 23.0.3, SVG Export Plug-In . SVG Version: 6.00 Build 0)  -->
<svg version="1.1" id="Layer_1" xmlns="http://www.w3.org/2000/svg" xmlns:xlink="http://www.w3.org/1999/xlink" x="0px" y="0px"
	 viewBox="0 0 70 70" style="enable-background:new 0 0 70 70;" xml:space="preserve">
<g>
	<path d="M29.7,22.7h-0.2c-0.1-0.5-0.4-1.1-0.6-1.6L29,21c0.2-0.2,0.4-0.6,0.4-0.9c0-0.3-0.1-0.7-0.4-0.9l-0.6-0.6
		c-0.2-0.2-0.6-0.4-0.9-0.4c-0.3,0-0.7,0.1-0.9,0.4l-0.2,0.2c-0.5-0.3-1-0.5-1.6-0.6v-0.2c0-0.3-0.1-0.7-0.4-0.9
		c-0.2-0.2-0.6-0.4-0.9-0.4h-0.9c-0.3,0-0.7,0.1-0.9,0.4c-0.2,0.2-0.4,0.6-0.4,0.9V18c-0.5,0.1-1.1,0.4-1.6,0.6l-0.2-0.2
		c-0.2-0.2-0.6-0.4-0.9-0.4c-0.3,0-0.7,0.1-0.9,0.4l-0.6,0.6c-0.2,0.2-0.4,0.6-0.4,0.9c0,0.3,0.1,0.7,0.4,0.9l0.2,0.2
		c-0.3,0.5-0.5,1-0.6,1.6h-0.2c-0.3,0-0.7,0.2-0.9,0.4c-0.2,0.2-0.4,0.6-0.4,0.9v0.9c0,0.3,0.1,0.7,0.4,0.9c0.2,0.2,0.6,0.4,0.9,0.4
		h0.2c0.1,0.5,0.3,1.1,0.6,1.6l-0.2,0.2c-0.2,0.2-0.4,0.6-0.4,0.9c0,0.3,0.1,0.7,0.4,0.9l0.6,0.6c0.2,0.2,0.6,0.4,0.9,0.4
		c0.3,0,0.7-0.1,0.9-0.4l0.2-0.2c0.5,0.3,1,0.5,1.6,0.6v0.2c0,0.3,0.1,0.7,0.4,0.9c0.2,0.2,0.6,0.4,0.9,0.4h0.9
		c0.3,0,0.7-0.1,0.9-0.4c0.2-0.2,0.4-0.6,0.4-0.9v-0.2c0.5-0.1,1.1-0.4,1.6-0.6l0.2,0.2c0.2,0.2,0.6,0.4,0.9,0.4s0.7-0.1,0.9-0.4
		l0.6-0.6h0c0.2-0.2,0.4-0.6,0.4-0.9c0-0.3-0.1-0.7-0.4-0.9l-0.2-0.2c0.3-0.5,0.5-1,0.6-1.6h0.2c0.3,0,0.7-0.1,0.9-0.4
		c0.2-0.2,0.4-0.6,0.4-0.9V24c0-0.3-0.1-0.7-0.4-0.9C30.4,22.8,30,22.7,29.7,22.7L29.7,22.7z M29.9,24.9c0,0.1-0.1,0.2-0.2,0.2h-1.1
		l-0.1,0.5c-0.1,0.7-0.4,1.4-0.8,2l-0.3,0.4l0.8,0.8h0c0.1,0.1,0.1,0.2,0,0.2l-0.6,0.6h0c0,0-0.1,0.1-0.1,0.1s-0.1,0-0.1-0.1
		l-0.8-0.8l-0.4,0.3c-0.6,0.4-1.3,0.7-2,0.8L23.7,30v1.1c0,0.1-0.1,0.2-0.2,0.2h-0.9c-0.1,0-0.2-0.1-0.2-0.2V30L22,29.9
		c-0.7-0.1-1.4-0.4-2-0.8l-0.4-0.3l-0.8,0.8c-0.1,0.1-0.2,0.1-0.2,0L17.9,29h0c-0.1-0.1-0.1-0.2,0-0.2l0.8-0.8l-0.3-0.4h0
		c-0.4-0.6-0.7-1.3-0.8-2l-0.1-0.5h-1.1c-0.1,0-0.2-0.1-0.2-0.2V24c0-0.1,0.1-0.2,0.2-0.2h1.1l0.1-0.5h0c0.1-0.7,0.4-1.4,0.8-2
		l0.3-0.4l-0.8-0.8c-0.1-0.1-0.1-0.2,0-0.2l0.6-0.6l0,0c0.1-0.1,0.2-0.1,0.2,0l0.8,0.8l0.4-0.3v0c0.6-0.4,1.3-0.7,2-0.8l0.5-0.1
		v-1.1c0-0.1,0.1-0.2,0.2-0.2h0.9c0.1,0,0.2,0.1,0.2,0.2v1.1l0.5,0.1c0.7,0.1,1.4,0.4,2,0.8l0.4,0.3l0.8-0.8v0c0,0,0.1-0.1,0.1-0.1
		c0,0,0.1,0,0.1,0.1l0.6,0.6h0c0.1,0.1,0.1,0.2,0,0.2L27.4,21l0.3,0.4l0,0c0.4,0.6,0.7,1.3,0.8,2l0.1,0.5h1.1c0.1,0,0.2,0.1,0.2,0.2
		L29.9,24.9z"/>
	<path d="M23.1,20.4c-1.1,0-2.1,0.4-2.9,1.2c-0.8,0.8-1.2,1.8-1.2,2.9c0,1.1,0.4,2.1,1.2,2.9c0.8,0.8,1.8,1.2,2.9,1.2
		c1.1,0,2.1-0.4,2.9-1.2c0.8-0.8,1.2-1.8,1.2-2.9c0-1.1-0.4-2.1-1.2-2.9C25.2,20.8,24.1,20.4,23.1,20.4z M23.1,27.4
		c-0.8,0-1.5-0.3-2.1-0.9c-0.5-0.5-0.9-1.3-0.9-2.1c0-0.8,0.3-1.5,0.9-2.1s1.3-0.9,2.1-0.9c0.8,0,1.5,0.3,2.1,0.9s0.9,1.3,0.9,2.1
		c0,0.8-0.3,1.5-0.9,2.1C24.6,27.1,23.8,27.4,23.1,27.4z"/>
</g>
<path d="M23.1,39.9c-4.8,0-8.7,3.9-8.7,8.7s3.9,8.6,8.7,8.6c2.3,0,4.5-0.9,6.1-2.5c1.6-1.6,2.5-3.8,2.5-6.2s-0.9-4.5-2.5-6.1
	C27.5,40.8,25.4,39.9,23.1,39.9L23.1,39.9z M27.6,53.1c-1.2,1.2-2.8,1.9-4.5,1.9c-3.5,0-6.4-2.9-6.4-6.4c0-1.7,0.7-3.4,1.9-4.5
	c1.2-1.2,2.8-1.9,4.5-1.9c1.7,0,3.4,0.7,4.5,1.9c1.2,1.2,1.9,2.8,1.9,4.5S28.8,51.9,27.6,53.1z"/>
<path d="M57.7,32.4l-2.1-3.6c-0.7-1.3-1.8-2.3-3.1-3.1c-0.5-1.5-1.4-2.8-2.6-3.7l-3.2-2.6c-1.1-1-2.5-1.6-3.9-1.9
	c-1-1.1-2.2-2.1-3.6-2.6l-3.9-1.4c-0.5-0.2-1.1-0.4-1.7-0.4l-0.4-0.1c-0.4-0.5-0.7-1-1.2-1.4c-1.9-1.9-4.3-2.8-6.8-2.8h-4.4
	c-5.4,0-9.8,4.4-9.8,9.8l0.1,33.1c0,5.4,4.4,9.8,9.8,9.8h4.4c3.5,0,6.6-1.9,8.3-4.6l21-12.2c2.1-1.2,3.5-3.1,4.1-5.4
	C59.2,36.7,58.9,34.4,57.7,32.4L57.7,32.4z M45.8,20.4l3.2,2.7c1,0.8,1.8,2,2.2,3.3c0.8,2.5,0.3,5.1-1.3,7.1L35.7,50.6l8.6-24
	l0.1-0.4c0.2-0.7,0.4-1.3,0.4-2v-0.6c0-0.5,0-1-0.1-1.4c0-0.2-0.1-0.4-0.1-0.7c-0.1-0.5-0.3-1-0.4-1.6c-0.1-0.1-0.1-0.2-0.1-0.4
	v-0.1C44.8,19.7,45.3,20,45.8,20.4L45.8,20.4z M34.3,14.7c0.1,0.1,0.3,0.1,0.4,0.1l3.9,1.4c1.3,0.5,2.4,1.3,3.2,2.3
	c1.6,2,2.1,4.6,1.2,7.1l-8,22.4L35,18.4c0-1.1-0.2-2.2-0.6-3.3L34.3,14.7L34.3,14.7z M25.3,59.1h-4.4c-4.1,0-7.5-3.4-7.5-7.4
	l-0.1-33.1c0-4.2,3.4-7.5,7.4-7.5h4.4c4.1,0,7.5,3.4,7.5,7.4l0.1,33.1C32.7,55.7,29.4,59.1,25.3,59.1z M57.2,38.7
	c-0.5,1.9-1.7,3.5-3.4,4.5L34.7,54.3l16.5-19.8c0.4-0.5,0.8-1.1,1.1-1.7c0.1-0.2,0.1-0.4,0.2-0.6c0.2-0.4,0.4-0.9,0.4-1.4
	c0.1-0.2,0.1-0.4,0.1-0.6c0.1-0.5,0.1-1.1,0.1-1.6v-0.4v-0.1c0.4,0.4,0.8,1,1.2,1.6l2.1,3.6C57.4,34.8,57.7,36.7,57.2,38.7
	L57.2,38.7z"/>
</svg>
