<?xml version="1.0" encoding="utf-8"?>
<!-- Generator: Adobe Illustrator 23.0.3, SVG Export Plug-In . SVG Version: 6.00 Build 0)  -->
<svg version="1.1" id="Layer_1" xmlns="http://www.w3.org/2000/svg" xmlns:xlink="http://www.w3.org/1999/xlink" x="0px" y="0px"
	 viewBox="0 0 70 70" style="enable-background:new 0 0 70 70;" xml:space="preserve">
<g>
	<path d="M44.5,61.8H26c-2.8,0-5.1-2.3-5.1-5.1V15.1c0-2.8,2.3-5.1,5.1-5.1h18.4c2.8,0,5.1,2.3,5.1,5.1v41.6
		C49.6,59.5,47.3,61.8,44.5,61.8L44.5,61.8z M26,11.3c-2.1,0-3.8,1.7-3.8,3.8v41.6c0,2.1,1.7,3.8,3.8,3.8h18.4
		c2.1,0,3.8-1.7,3.8-3.8l0-41.6c0-2.1-1.7-3.8-3.8-3.8L26,11.3z"/>
	<path d="M39.3,15.3h-7.3c-0.4,0-0.7-0.3-0.7-0.7s0.3-0.7,0.7-0.7h7.3c0.4,0,0.7,0.3,0.7,0.7S39.7,15.3,39.3,15.3z"/>
	<path d="M35.2,58.7c-1.5,0-2.7-1.2-2.7-2.8c0-1.5,1.2-2.8,2.7-2.8S38,54.4,38,56C38,57.5,36.8,58.7,35.2,58.7z M35.2,54.5
		c-0.8,0-1.4,0.6-1.4,1.4c0,0.8,0.6,1.4,1.4,1.4s1.4-0.7,1.4-1.4C36.7,55.2,36,54.5,35.2,54.5z"/>
	<path d="M36.8,47.8h-2.9c-0.7,0-1.2-0.5-1.2-1.2v-1.2c-0.7-0.2-1.4-0.5-2-0.8l-0.9,0.9c-0.2,0.2-0.5,0.3-0.9,0.3
		c-0.3,0-0.6-0.1-0.9-0.3l-2.1-2c-0.2-0.2-0.4-0.5-0.4-0.9c0-0.3,0.1-0.6,0.4-0.9l0.9-0.9c-0.4-0.6-0.6-1.3-0.8-2h-1.3
		c-0.7,0-1.2-0.5-1.2-1.2v-2.9c0-0.7,0.5-1.2,1.2-1.2l1.3,0c0.2-0.7,0.5-1.3,0.8-1.9L26,30.7c-0.5-0.5-0.5-1.2,0-1.7l2.1-2
		c0.2-0.2,0.5-0.4,0.9-0.4c0.3,0,0.6,0.1,0.9,0.4l0.9,0.9c0.6-0.3,1.3-0.6,2-0.8v-1.2c0-0.7,0.5-1.2,1.2-1.2l2.9,0
		c0.7,0,1.3,0.6,1.3,1.2v1.2c0.7,0.2,1.3,0.5,2,0.8l0.9-0.9c0,0,0,0,0,0c0.2-0.2,0.5-0.3,0.9-0.3c0.3,0,0.6,0.1,0.9,0.4l2,2
		c0.2,0.2,0.4,0.5,0.4,0.9c0,0.3-0.1,0.6-0.4,0.9l-0.9,0.9c0.4,0.6,0.6,1.3,0.8,1.9h1.3c0.7,0,1.2,0.5,1.2,1.2v0v2.9
		c0,0.7-0.6,1.2-1.2,1.2l-1.3,0c-0.2,0.7-0.5,1.3-0.8,2l0.9,0.9c0.5,0.5,0.5,1.2,0,1.7l-2.1,2.1c-0.2,0.2-0.5,0.4-0.9,0.4
		c-0.3,0-0.6-0.1-0.9-0.3L40,44.5c-0.6,0.4-1.3,0.6-2,0.8v1.2C38,47.2,37.5,47.8,36.8,47.8L36.8,47.8z M30.6,43.3
		c0.1,0,0.2,0,0.3,0.1c0.7,0.4,1.6,0.8,2.5,1c0.2,0.1,0.4,0.3,0.4,0.5v1.7c0,0,0,0.1,0.1,0.1h2.9c0.1,0,0.1-0.1,0.1-0.1v-1.7
		c0-0.3,0.2-0.5,0.4-0.5c0.9-0.2,1.7-0.5,2.4-1c0.2-0.1,0.5-0.1,0.7,0.1l1.2,1.2c0,0,0.1,0,0.1,0c0,0,0.1,0,0.1,0l2.1-2
		c0,0,0-0.1,0-0.2l-1.2-1.2c-0.2-0.2-0.2-0.5-0.1-0.7c0.4-0.7,0.8-1.6,1-2.4c0.1-0.2,0.3-0.4,0.5-0.4h0l1.7,0c0.1,0,0.2-0.1,0.2-0.1
		v-2.9c0-0.1-0.1-0.1-0.2-0.1h-1.7c-0.3,0-0.5-0.2-0.5-0.4c-0.2-0.8-0.5-1.7-1-2.4c-0.1-0.2-0.1-0.4,0-0.6c0-0.1,0.1-0.1,0.2-0.2
		l1.1-1.1c0,0,0-0.1,0-0.1c0,0,0-0.1,0-0.1l-2.1-2c0,0-0.1,0-0.1,0c0,0-0.1,0-0.1,0l-1.2,1.2C40.3,29,40,29,39.8,28.9
		c-0.7-0.5-1.6-0.8-2.4-1c-0.2-0.1-0.4-0.3-0.4-0.5v-1.7c0,0-0.1-0.1-0.2-0.1l-2.9,0c-0.1,0-0.1,0.1-0.1,0.1v1.7
		c0,0.3-0.2,0.5-0.4,0.5c-0.9,0.2-1.7,0.6-2.5,1c-0.2,0.1-0.5,0.1-0.7-0.1L29,27.7c0,0-0.1,0-0.1,0c0,0-0.1,0-0.1,0l-2.1,2
		c-0.1,0.1-0.1,0.1,0,0.2L28,31c0.2,0.2,0.2,0.5,0.1,0.7c-0.5,0.8-0.8,1.6-1,2.4c-0.1,0.2-0.3,0.4-0.5,0.4l-1.7,0
		c-0.1,0-0.1,0.1-0.1,0.1v2.9c0,0.1,0.1,0.1,0.1,0.1h1.7c0.3,0,0.5,0.2,0.5,0.4c0.2,0.8,0.5,1.6,1,2.4c0.1,0.1,0.1,0.3,0.1,0.4
		c0,0.1-0.1,0.2-0.2,0.3l-1.1,1.1c0,0,0,0.1,0,0.1c0,0,0,0.1,0,0.1l2.1,2c0,0,0.1,0,0.1,0c0,0,0.1,0,0.1,0l1.2-1.2
		C30.3,43.3,30.5,43.3,30.6,43.3L30.6,43.3z M35.3,41.5c-0.7,0-1.4-0.1-2-0.4c0,0-0.1,0-0.1-0.1c0,0,0,0,0,0c-0.1,0-0.1-0.1-0.2-0.1
		c-0.2-0.1-0.3-0.2-0.4-0.2l0,0c-0.1,0-0.2-0.1-0.3-0.2c-0.1,0-0.1-0.1-0.2-0.1l0,0c0,0-0.1-0.1-0.1-0.1c-0.2-0.1-0.3-0.3-0.5-0.5
		c-0.2-0.2-0.3-0.4-0.5-0.6c-0.1-0.1-0.1-0.2-0.2-0.2c-0.1-0.2-0.3-0.5-0.4-0.8c0,0,0,0,0,0c-0.3-0.7-0.4-1.4-0.4-2.1
		c0-1.5,0.7-3,1.8-4c0,0,0.1,0,0.1-0.1c0.1-0.1,0.1-0.1,0.2-0.2c0,0,0.1,0,0.1-0.1l0,0c0,0,0.1-0.1,0.1-0.1c0,0,0.1,0,0.1-0.1
		c0,0,0,0,0,0c0.2-0.1,0.4-0.3,0.7-0.4l0,0c0,0,0,0,0,0c0,0,0.1,0,0.1-0.1c0,0,0,0,0.1,0c0,0,0,0,0,0c0.7-0.3,1.4-0.4,2.1-0.4
		c0.9,0,1.7,0.2,2.5,0.6c0,0,0,0,0,0c0,0,0,0,0,0c0,0,0.1,0.1,0.1,0.1c0.1,0.1,0.2,0.1,0.3,0.2c0.1,0,0.1,0.1,0.2,0.1c0,0,0,0,0,0
		c0,0,0.1,0.1,0.1,0.1c0.1,0,0.1,0.1,0.1,0.1c0,0,0,0,0,0c0.1,0.1,0.2,0.2,0.3,0.3c0.1,0.1,0.1,0.1,0.2,0.2c0.1,0.1,0.3,0.3,0.4,0.5
		c0,0,0,0.1,0.1,0.1c0,0,0,0.1,0.1,0.1c0,0,0,0,0,0l0,0c0,0,0.1,0.1,0.1,0.1c0,0,0,0,0,0.1c0,0.1,0.1,0.1,0.1,0.2
		c0,0.1,0.1,0.1,0.1,0.2c0,0,0,0,0,0c0.4,0.7,0.5,1.5,0.5,2.3c0,0.4-0.1,0.9-0.2,1.3c0,0.1,0,0.2-0.1,0.3c0,0.1-0.1,0.2-0.1,0.3
		l0,0.1c0,0,0,0,0,0l0,0c0,0.1,0,0.1-0.1,0.2c0,0,0,0.1,0,0.1c0,0,0,0,0,0c0,0.1-0.1,0.2-0.2,0.3C40,38.9,39.9,39,39.9,39
		c0,0,0,0,0,0c0,0,0,0,0,0c0,0-0.1,0.1-0.1,0.1c0,0,0,0,0,0.1c0,0,0,0,0,0c0,0,0,0,0,0l0,0c0,0,0,0.1-0.1,0.1l0,0c0,0,0,0,0,0.1
		c0,0.1-0.1,0.1-0.2,0.2c-0.1,0.1-0.1,0.1-0.2,0.2c0,0-0.1,0.1-0.1,0.1c-0.1,0.1-0.2,0.2-0.3,0.3c0,0,0,0-0.1,0c0,0-0.1,0.1-0.1,0.1
		c0,0,0,0,0,0c0,0-0.1,0.1-0.1,0.1l-0.1,0c0,0,0,0,0,0c-0.1,0-0.1,0.1-0.1,0.1c0,0-0.1,0-0.1,0.1c0,0-0.1,0-0.1,0.1l0,0
		c0,0-0.1,0-0.1,0.1c0,0,0,0,0,0C37,41.3,36.2,41.5,35.3,41.5L35.3,41.5z M33.8,40.1c0.5,0.2,1,0.3,1.5,0.3c0.7,0,1.3-0.2,2-0.5
		c0.1,0,0.1-0.1,0.2-0.1l0,0c0,0,0,0,0,0c0,0,0,0,0.1,0c0,0,0.1-0.1,0.2-0.1l0,0c0,0,0.1-0.1,0.1-0.1c0,0,0,0,0,0c0,0,0,0,0,0
		c0,0,0.1,0,0.1-0.1c0.1-0.1,0.2-0.1,0.2-0.2c0,0,0.1-0.1,0.1-0.1c0,0,0,0,0,0c0,0,0.1-0.1,0.1-0.1c0,0,0-0.1,0.1-0.1
		c0,0,0,0,0.1-0.1c0-0.1,0.1-0.1,0.1-0.1l0,0c0,0,0-0.1,0.1-0.1c0,0,0,0,0.1-0.1c0,0,0,0,0,0c0,0,0,0,0-0.1c0,0,0,0,0,0
		c0,0,0-0.1,0.1-0.1c0,0,0.1-0.1,0.1-0.2c0-0.1,0.1-0.1,0.1-0.2c0,0,0,0,0,0c0,0,0-0.1,0-0.1c0,0,0,0,0,0c0,0,0,0,0,0
		c0,0,0-0.1,0.1-0.1l0-0.1c0-0.1,0.1-0.2,0.1-0.2c0,0,0,0,0-0.1c0,0,0-0.1,0.1-0.2c0.1-0.4,0.1-0.7,0.1-1.1c0-0.6-0.1-1.2-0.4-1.8
		c0,0,0-0.1-0.1-0.1c0,0-0.1-0.1-0.1-0.1c0,0-0.1-0.1-0.1-0.1l0,0c0,0-0.1-0.1-0.1-0.1c0,0,0,0,0-0.1c0,0,0,0,0,0
		c-0.1-0.1-0.2-0.3-0.3-0.4c0,0,0,0-0.1-0.1c0,0,0-0.1-0.1-0.1c0,0,0,0-0.1-0.1c0,0-0.1-0.1-0.2-0.1c0,0,0,0,0,0c0,0,0,0-0.1-0.1
		c0,0-0.1,0-0.1-0.1c0,0-0.1-0.1-0.1-0.1c0,0,0,0-0.1-0.1c0,0-0.1,0-0.1-0.1c0,0,0,0-0.1,0c-0.1-0.1-0.1-0.1-0.2-0.1
		c0,0-0.1,0-0.1-0.1c0,0,0,0,0,0c0,0,0,0-0.1,0c-0.6-0.3-1.3-0.5-2-0.5c-0.6,0-1.1,0.1-1.7,0.3c0,0-0.1,0-0.1,0.1c0,0-0.1,0-0.1,0
		l0,0c-0.2,0.1-0.4,0.2-0.5,0.3c0,0-0.1,0.1-0.2,0.1c0,0,0,0-0.1,0c0,0,0,0,0,0c0,0,0,0-0.1,0c0,0-0.1,0.1-0.1,0.1
		c0,0-0.1,0.1-0.1,0.1c-0.9,0.8-1.4,1.9-1.4,3.1c0,0.6,0.1,1.1,0.3,1.7c0.1,0.3,0.2,0.5,0.3,0.6c0,0.1,0.1,0.1,0.1,0.2c0,0,0,0,0,0
		c0.1,0.1,0.2,0.3,0.4,0.5c0.1,0.2,0.3,0.3,0.4,0.4c0,0,0,0,0.1,0.1c0,0,0,0,0,0l0,0c0.1,0,0.1,0.1,0.2,0.1c0,0,0,0,0,0
		c0,0,0.1,0.1,0.1,0.1c0,0,0,0,0,0l0,0c0.1,0.1,0.2,0.1,0.3,0.2c0,0,0,0,0,0c0,0,0,0,0,0c0,0,0.1,0,0.1,0c0,0,0,0,0,0
		C33.7,40.1,33.8,40.1,33.8,40.1L33.8,40.1z"/>
</g>
</svg>
