<?xml version="1.0" encoding="utf-8"?>
<!-- Generator: Adobe Illustrator 23.0.3, SVG Export Plug-In . SVG Version: 6.00 Build 0)  -->
<svg version="1.1" id="Layer_1" xmlns="http://www.w3.org/2000/svg" xmlns:xlink="http://www.w3.org/1999/xlink" x="0px" y="0px"
	 viewBox="0 0 70 70" style="enable-background:new 0 0 70 70;" xml:space="preserve">
<g>
	<path d="M58.6,30.6L54.7,30c-0.5-2-1.3-3.7-2.2-5.5l2.3-3.2c0.3-0.4,0.3-1-0.1-1.3l-4.8-4.8c-0.4-0.4-0.9-0.4-1.3-0.1l-3.2,2.3
		c-1.7-1-3.5-1.8-5.5-2.2l-0.6-3.9c-0.1-0.5-0.5-0.9-1-0.9h-6.8c-0.5,0-0.9,0.4-1,0.9L30,15.3c-2,0.5-3.7,1.3-5.5,2.2l-3.2-2.3
		c-0.4-0.3-1-0.3-1.3,0.1L15.3,20c-0.4,0.4-0.4,0.9-0.1,1.3l2.3,3.2c-1,1.7-1.8,3.5-2.2,5.5l-3.9,0.6c-0.5,0.1-0.9,0.5-0.9,1v6.8
		c0,0.5,0.4,0.9,0.9,1l3.9,0.6c0.5,2,1.3,3.7,2.2,5.5l-2.3,3.2c-0.3,0.4-0.3,1,0.1,1.3l4.8,4.8c0.4,0.4,0.9,0.4,1.3,0.1l3.2-2.3
		c1.7,1,3.5,1.8,5.5,2.2l0.6,3.9c0.1,0.5,0.5,0.9,1,0.9h6.8c0.5,0,0.9-0.4,1-0.9l0.6-3.9c2-0.5,3.7-1.3,5.5-2.2l3.2,2.3
		c0.4,0.3,1,0.3,1.3-0.1l4.8-4.8c0.4-0.4,0.4-0.9,0.1-1.3l-2.3-3.2c1.1-1.8,1.8-3.5,2.2-5.5l3.9-0.6c0.5-0.1,0.9-0.5,0.9-1v-6.8
		C59.5,31.1,59.1,30.7,58.6,30.6z M57.5,37.5l-3.7,0.6c-0.4,0.1-0.7,0.4-0.8,0.8c-0.5,2.1-1.3,4.2-2.5,6c-0.2,0.3-0.2,0.8,0,1.1
		l2.2,3l-3.6,3.6l-3-2.2c-0.3-0.3-0.8-0.3-1.1,0c-1.9,1.2-3.9,2-6,2.5c-0.4,0.1-0.7,0.4-0.8,0.8l-0.6,3.7h-5.1L32,53.6
		c-0.1-0.4-0.4-0.7-0.8-0.8c-2.1-0.5-4.2-1.3-6-2.5c-0.4-0.2-0.8-0.2-1.1,0l-3,2.2l-3.6-3.6l2.2-3c0.2-0.3,0.3-0.8,0-1.1
		c-1.2-1.9-2-3.9-2.5-6c-0.1-0.4-0.4-0.7-0.8-0.8l-3.7-0.5v-5.1l3.8-0.6c0.4-0.1,0.7-0.4,0.8-0.8c0.5-2.1,1.3-4.2,2.5-6
		c0.2-0.3,0.2-0.8,0-1.1l-2.2-3l3.6-3.6l3,2.2c0.3,0.3,0.8,0.3,1.1,0c1.9-1.2,3.9-2,6-2.5c0.4-0.1,0.7-0.4,0.8-0.8l0.6-3.8h5.1
		l0.6,3.8c0.1,0.4,0.4,0.7,0.8,0.8c2.1,0.5,4.2,1.3,6,2.5c0.4,0.2,0.8,0.2,1.1,0l3-2.2l3.6,3.6l-2.2,3c-0.2,0.3-0.3,0.8,0,1.1
		c1.2,1.9,2,3.9,2.5,6c0.1,0.4,0.4,0.7,0.8,0.8l3.8,0.6l0,5.1L57.5,37.5z"/>
	<path d="M35.1,21.7c-7.3,0-13.3,5.9-13.3,13.3s5.9,13.3,13.3,13.3S48.4,42.3,48.4,35S42.4,21.7,35.1,21.7z M35.1,46.3
		c-6.2,0-11.3-5.1-11.3-11.3s5.1-11.3,11.3-11.3S46.4,28.7,46.4,35S41.3,46.3,35.1,46.3z"/>
	<path d="M36.5,29.3c0.8,0,1.6,0.6,2.1,1.8c0.3,0.5,0.9,0.7,1.4,0.4c0.5-0.3,0.7-0.9,0.4-1.4c-1-1.8-2.3-2.7-3.8-2.7
		c-2,0-3.7,1.8-4.5,4.3h-2c-0.6,0-1,0.4-1,1c0,0.6,0.4,1,1,1h1.7c-0.1,0.4-0.1,0.9-0.1,1.4s0,0.9,0.1,1.4H30c-0.6,0-1,0.4-1,1
		s0.4,1,1,1h2c0.8,2.5,2.4,4.3,4.5,4.3c1.5,0,2.9-1,3.8-2.7c0.3-0.5,0.1-1.1-0.4-1.4c-0.5-0.3-1.1-0.1-1.4,0.4
		c-0.6,1.1-1.4,1.8-2.1,1.8c-0.9,0-1.9-0.9-2.4-2.3h2.4c0.6,0,1-0.4,1-1s-0.4-1-1-1h-2.9c-0.1-0.4-0.1-0.9-0.1-1.4s0-0.9,0.1-1.4
		h2.9c0.6,0,1-0.4,1-1s-0.4-1-1-1h-2.3C34.7,30.2,35.6,29.3,36.5,29.3L36.5,29.3z"/>
</g>
</svg>
