<?xml version="1.0" encoding="utf-8"?>
<!-- Generator: Adobe Illustrator 23.0.3, SVG Export Plug-In . SVG Version: 6.00 Build 0)  -->
<svg version="1.1" id="Layer_1" xmlns="http://www.w3.org/2000/svg" xmlns:xlink="http://www.w3.org/1999/xlink" x="0px" y="0px"
	 viewBox="0 0 70 70" style="enable-background:new 0 0 70 70;" xml:space="preserve">
<style type="text/css">
	.st0{fill:none;stroke:#000000;stroke-width:2.5;stroke-linecap:round;stroke-linejoin:round;}
</style>
<g>
	<path class="st0" d="M29.4,19.3l1.5-3.8c0.2-0.6,0.7-1.2,1.2-1.6c0.6-0.4,1.2-0.6,1.9-0.6h2.8c0.7,0,1.4,0.2,1.9,0.6
		c0.6,0.4,1,0.9,1.2,1.6l1.5,3.8l5,2.9l4-0.6c0.7-0.1,1.4,0,2,0.3s1.1,0.8,1.5,1.4l1.4,2.4c0.3,0.6,0.5,1.3,0.5,2s-0.3,1.3-0.7,1.9
		l-2.5,3.2v5.7l2.6,3.2c0.4,0.5,0.7,1.2,0.7,1.9s-0.1,1.4-0.5,2L54,47.8c-0.3,0.6-0.8,1.1-1.5,1.4c-0.6,0.3-1.3,0.4-2,0.3l-4-0.6
		l-5,2.9L40,55.6c-0.2,0.6-0.7,1.2-1.2,1.6c-0.6,0.4-1.2,0.6-1.9,0.6H34c-0.7,0-1.4-0.2-1.9-0.6c-0.6-0.4-1-0.9-1.2-1.6l-1.5-3.8
		l-5-2.9l-4,0.6c-0.7,0.1-1.4,0-2-0.3s-1.1-0.8-1.5-1.4l-1.4-2.4c-0.3-0.6-0.5-1.3-0.5-2s0.3-1.3,0.7-1.9l2.5-3.2v-5.7l-2.6-3.2
		c-0.4-0.5-0.7-1.2-0.7-1.9c0-0.7,0.1-1.4,0.5-2l1.4-2.4c0.3-0.6,0.8-1.1,1.5-1.4c0.6-0.3,1.3-0.4,2-0.3l4,0.6L29.4,19.3z
		 M28.6,35.6c0,1.4,0.4,2.7,1.2,3.8c0.8,1.1,1.8,2,3.1,2.5c1.2,0.5,2.6,0.7,3.9,0.4c1.3-0.3,2.5-0.9,3.5-1.9s1.6-2.2,1.9-3.5
		c0.3-1.3,0.1-2.7-0.4-3.9s-1.4-2.3-2.5-3.1c-1.1-0.8-2.4-1.2-3.8-1.2c-1.8,0-3.5,0.7-4.8,2C29.3,32,28.6,33.7,28.6,35.6L28.6,35.6z
		"/>
</g>
</svg>
