<?xml version="1.0" encoding="utf-8"?>
<!-- Generator: Adobe Illustrator 23.0.3, SVG Export Plug-In . SVG Version: 6.00 Build 0)  -->
<svg version="1.1" id="Layer_1" xmlns="http://www.w3.org/2000/svg" xmlns:xlink="http://www.w3.org/1999/xlink" x="0px" y="0px"
	 viewBox="0 0 70 70" style="enable-background:new 0 0 70 70;" xml:space="preserve">
<style type="text/css">
	.st0{fill:none;stroke:#242830;stroke-linecap:round;stroke-linejoin:round;stroke-miterlimit:10;}
	.st1{fill:#E0E2E4;stroke:#242830;stroke-linecap:round;stroke-linejoin:round;stroke-miterlimit:10;}
</style>
<path class="st0" d="M16.9,41.3c-0.1,0-0.2,0-0.3,0.1l-1,0.7c-0.4,0.2-0.9,0.2-1.2-0.1l-1-1c-0.3-0.3-0.4-0.8-0.1-1.2l0.7-1
	c0.1-0.2,0.1-0.5,0-0.7c-0.6-0.9-1-2-1.3-3c-0.1-0.2-0.2-0.4-0.5-0.5L11,34.4c-0.4-0.1-0.7-0.5-0.7-0.9v-1.3c0-0.4,0.3-0.8,0.7-0.9
	l1.2-0.2c0.2,0,0.4-0.2,0.5-0.5c0.2-1.1,0.7-2.1,1.3-3c0.1-0.2,0.1-0.5,0-0.7l-0.7-1c-0.2-0.4-0.2-0.9,0.1-1.2l0.9-0.9
	c0.3-0.3,0.8-0.4,1.2-0.1l1,0.7c0.2,0.1,0.5,0.1,0.7,0c0.9-0.6,1.9-1,3-1.3c0.2-0.1,0.4-0.2,0.5-0.5l0.2-1.2
	c0.1-0.4,0.5-0.7,0.9-0.7h1.4c0.4,0,0.8,0.3,0.9,0.7l0.2,1.2c0,0.2,0.2,0.4,0.5,0.5c1.1,0.2,2.1,0.7,3,1.3c0.2,0.1,0.5,0.1,0.7,0
	l1-0.7c0.4-0.2,0.9-0.2,1.2,0.1l0.9,0.9c0.3,0.3,0.4,0.8,0.1,1.2l-0.7,1c-0.1,0.2-0.1,0.5,0,0.7c0.6,0.9,1,1.9,1.3,3
	c0.1,0.2,0.2,0.4,0.5,0.5l1.2,0.2c0.4,0.1,0.7,0.5,0.7,0.9v1.3c0,0.4-0.3,0.8-0.7,0.9l-1.2,0.2c-0.2,0-0.4,0.2-0.5,0.5
	c-0.2,1.1-0.7,2.1-1.3,3c-0.1,0.2-0.1,0.5,0,0.7l0.7,1c0.2,0.4,0.2,0.9-0.1,1.2l-0.9,0.9c-0.3,0.3-0.8,0.4-1.2,0.1l-1-0.7
	c-0.2-0.1-0.5-0.1-0.7,0c-0.9,0.6-2,1-3,1.3c-0.2,0.1-0.4,0.2-0.5,0.5l-0.2,1.2C24,44.7,23.6,45,23.2,45h-1.4
	c-0.4,0-0.8-0.3-0.9-0.7l-0.2-1.2c0-0.2-0.2-0.4-0.5-0.5c-1.1-0.2-2.1-0.7-3-1.3C17.1,41.3,17,41.3,16.9,41.3L16.9,41.3z"/>
<path class="st1" d="M17.9,32.8c0-2.6,2.1-4.6,4.6-4.6s4.6,2.1,4.6,4.6c0,2.6-2.1,4.6-4.6,4.6S17.9,35.4,17.9,32.8z"/>
<path class="st1" d="M43.4,16.4c2,0,3.7,1.7,3.7,3.7s-1.7,3.7-3.7,3.7s-3.7-1.7-3.7-3.7S41.3,16.4,43.4,16.4z"/>
<path class="st0" d="M33.5,19.6c0-0.3,0.2-0.6,0.5-0.6l1-0.2c0.2,0,0.4-0.2,0.5-0.5c0.2-0.9,0.5-1.7,1-2.4c0.1-0.2,0.1-0.5,0-0.7
	L36,14.4c-0.2-0.3-0.1-0.6,0.1-0.8l0.8-0.8c0.2-0.2,0.6-0.3,0.8-0.1l0.8,0.5c0.2,0.1,0.5,0.1,0.7,0c0.8-0.5,1.6-0.8,2.4-1
	c0.2-0.1,0.4-0.2,0.5-0.5l0.2-1c0.1-0.3,0.3-0.5,0.6-0.5H44c0.3,0,0.6,0.2,0.6,0.5l0.2,1c0,0.2,0.2,0.4,0.5,0.5
	c0.9,0.2,1.7,0.5,2.4,1c0.2,0.1,0.5,0.1,0.7,0l0.8-0.5c0.3-0.2,0.6-0.1,0.8,0.1l0.8,0.8c0.2,0.2,0.3,0.6,0.1,0.8l-0.5,0.8
	c-0.1,0.2-0.1,0.5,0,0.7c0.5,0.8,0.8,1.6,1,2.4c0.1,0.2,0.2,0.4,0.5,0.5l1,0.2c0.3,0.1,0.5,0.3,0.5,0.6v1.1c0,0.3-0.2,0.6-0.5,0.6
	l-1,0.2c-0.2,0-0.4,0.2-0.5,0.5c-0.2,0.9-0.5,1.7-1,2.4c-0.1,0.2-0.1,0.5,0,0.7l0.5,0.8c0.2,0.3,0.1,0.6-0.1,0.8L50,27.6
	c-0.2,0.2-0.6,0.3-0.8,0.1l-0.8-0.5c-0.2-0.1-0.5-0.1-0.7,0c-0.8,0.5-1.6,0.8-2.4,1c-0.2,0.1-0.4,0.2-0.5,0.5l-0.2,1
	c-0.1,0.3-0.3,0.5-0.6,0.5h-1.1c-0.3,0-0.6-0.2-0.6-0.5l-0.2-1c0-0.2-0.2-0.4-0.5-0.5c-0.9-0.2-1.7-0.5-2.4-1
	C39,27.1,38.9,27,38.7,27s-0.2,0-0.3,0.1l-0.8,0.5c-0.3,0.2-0.6,0.1-0.8-0.1L36,26.8c-0.2-0.2-0.3-0.6-0.1-0.8l0.5-0.8
	c0.1-0.2,0.1-0.5,0-0.7c-0.5-0.8-0.8-1.6-1-2.4c-0.1-0.2-0.2-0.4-0.5-0.5l-1-0.2c-0.3-0.1-0.5-0.3-0.5-0.6L33.5,19.6z"/>
<path class="st1" d="M54.1,51.7c-3.3,1.6-7.2,1.3-10.2-0.8c-0.2-0.1-0.4-0.1-0.6,0L26,59.3c-2.4,1.1-5.3,0.1-6.4-2.3
	c-0.6-1.2-0.6-2.5-0.2-3.7s1.3-2.2,2.5-2.8l17.3-8.4c0.2-0.1,0.3-0.3,0.3-0.5c0.3-3.2,2-6.1,4.7-7.8c1.7-1.1,3.6-1.6,5.5-1.6
	c1.6,0,3.2,0.4,4.7,1.2l0,0v0.1l-3.7,1.8c-0.4,0.2-0.7,0.6-0.9,1.1L48.6,42c-0.1,0.7,0.2,1.4,0.8,1.7l5.1,2.6c0.4,0.2,0.9,0.2,1.4,0
	l3.8-1.8l0,0C59,47.7,57,50.3,54.1,51.7L54.1,51.7z"/>
<path class="st0" d="M25.9,55.2c-0.1,0.4-0.4,0.7-0.8,0.9s-0.8,0.2-1.2,0.1c-0.4-0.1-0.7-0.4-0.9-0.8c-0.4-0.8,0-1.8,0.8-2.1
	c0.4-0.2,0.8-0.2,1.2-0.1c0.4,0.1,0.7,0.4,0.9,0.8C26,54.4,26.1,54.8,25.9,55.2L25.9,55.2z"/>
</svg>
