<svg width="25" height="27" viewBox="0 0 25 27" fill="none" xmlns="http://www.w3.org/2000/svg">
<path d="M9.07296 4.36538L9.89988 2.23077C10.0393 1.86935 10.2847 1.55848 10.6038 1.33887C10.9229 1.11926 11.301 1.00114 11.6883 1H13.2653C13.6527 1.00114 14.0307 1.11926 14.3498 1.33887C14.6689 1.55848 14.9143 1.86935 15.0537 2.23077L15.8806 4.36538L18.6883 5.98077L20.9576 5.63462C21.3354 5.58333 21.72 5.64553 22.0624 5.81331C22.4048 5.9811 22.6896 6.24689 22.8806 6.57692L23.6499 7.92308C23.847 8.25836 23.9378 8.64554 23.9103 9.0335C23.8829 9.42146 23.7384 9.79198 23.496 10.0962L22.0922 11.8846V15.1154L23.5345 16.9038C23.7769 17.208 23.9213 17.5785 23.9488 17.9665C23.9763 18.3545 23.8855 18.7416 23.6883 19.0769L22.9191 20.4231C22.7281 20.7531 22.4433 21.0189 22.1009 21.1867C21.7585 21.3545 21.3739 21.4167 20.996 21.3654L18.7268 21.0192L15.9191 22.6346L15.0922 24.7692C14.9527 25.1306 14.7074 25.4415 14.3882 25.6611C14.0691 25.8807 13.6911 25.9989 13.3037 26H11.6883C11.301 25.9989 10.9229 25.8807 10.6038 25.6611C10.2847 25.4415 10.0393 25.1306 9.89988 24.7692L9.07296 22.6346L6.26526 21.0192L3.99603 21.3654C3.61818 21.4167 3.23361 21.3545 2.89119 21.1867C2.54877 21.0189 2.26396 20.7531 2.07296 20.4231L1.30373 19.0769C1.10661 18.7416 1.0158 18.3545 1.04326 17.9665C1.07073 17.5785 1.21519 17.208 1.45757 16.9038L2.86142 15.1154V11.8846L1.41911 10.0962C1.17673 9.79198 1.03227 9.42146 1.0048 9.0335C0.977336 8.64554 1.06815 8.25836 1.26526 7.92308L2.0345 6.57692C2.2255 6.24689 2.51031 5.9811 2.85273 5.81331C3.19515 5.64553 3.57972 5.58333 3.95757 5.63462L6.2268 5.98077L9.07296 4.36538ZM8.63065 13.5C8.63065 14.2607 8.85622 15.0043 9.27884 15.6368C9.70146 16.2693 10.3022 16.7623 11.0049 17.0534C11.7077 17.3445 12.4811 17.4207 13.2271 17.2723C13.9732 17.1238 14.6585 16.7575 15.1964 16.2196C15.7343 15.6817 16.1006 14.9964 16.2491 14.2503C16.3975 13.5043 16.3213 12.7309 16.0302 12.0281C15.7391 11.3253 15.2461 10.7247 14.6136 10.302C13.9811 9.87942 13.2375 9.65385 12.4768 9.65385C11.4567 9.65385 10.4785 10.0591 9.75716 10.7804C9.03587 11.5017 8.63065 12.4799 8.63065 13.5V13.5Z" stroke="black" stroke-width="1.71429" stroke-linecap="round" stroke-linejoin="round"/>
</svg>
