<?xml version="1.0" encoding="utf-8"?>
<!-- Generator: Adobe Illustrator 23.0.3, SVG Export Plug-In . SVG Version: 6.00 Build 0)  -->
<svg version="1.1" id="Layer_1" xmlns="http://www.w3.org/2000/svg" xmlns:xlink="http://www.w3.org/1999/xlink" x="0px" y="0px"
	 viewBox="0 0 70 70" style="enable-background:new 0 0 70 70;" xml:space="preserve">
<style type="text/css">
	.st0{fill:#E0E2E4;}
	.st1{fill:none;stroke:#242830;stroke-linecap:round;stroke-linejoin:round;stroke-miterlimit:10;}
</style>
<g>
	<circle class="st0" cx="17.9" cy="16.4" r="4.9"/>
	<circle class="st0" cx="52.1" cy="50.5" r="4.9"/>
	<g>
		<path class="st1" d="M17.9,21.8c2.8,0,5.1-2.3,5.1-5.1s-2.3-5.1-5.1-5.1s-5.1,2.3-5.1,5.1S15,21.8,17.9,21.8z"/>
		<path class="st1" d="M23,16.6h34.3"/>
		<path class="st1" d="M35,38.9c2.8,0,5.1-2.3,5.1-5.1s-2.3-5.1-5.1-5.1s-5.1,2.3-5.1,5.1S32.2,38.9,35,38.9z"/>
		<path class="st1" d="M12.7,33.8h17.1"/>
		<path class="st1" d="M40.1,33.8h17.1"/>
		<path class="st1" d="M52.1,56.1c2.8,0,5.1-2.3,5.1-5.1s-2.3-5.1-5.1-5.1S47,48.2,47,51S49.3,56.1,52.1,56.1z"/>
		<path class="st1" d="M47,50.9H12.7"/>
	</g>
</g>
</svg>
