<svg width="25" height="25" viewBox="0 0 25 25" fill="none" xmlns="http://www.w3.org/2000/svg">
<path d="M3.57143 6.14286C4.99159 6.14286 6.14286 4.99159 6.14286 3.57143C6.14286 2.15127 4.99159 1 3.57143 1C2.15127 1 1 2.15127 1 3.57143C1 4.99159 2.15127 6.14286 3.57143 6.14286Z" stroke="black" stroke-width="1.71429" stroke-linecap="round" stroke-linejoin="round"/>
<path d="M6.14288 3.57129H23.2857" stroke="black" stroke-width="1.71429" stroke-linecap="round" stroke-linejoin="round"/>
<path d="M12.1428 14.7141C13.563 14.7141 14.7143 13.5629 14.7143 12.1427C14.7143 10.7226 13.563 9.57129 12.1428 9.57129C10.7227 9.57129 9.57141 10.7226 9.57141 12.1427C9.57141 13.5629 10.7227 14.7141 12.1428 14.7141Z" stroke="black" stroke-width="1.71429" stroke-linecap="round" stroke-linejoin="round"/>
<path d="M1 12.1426H9.57143" stroke="black" stroke-width="1.71429" stroke-linecap="round" stroke-linejoin="round"/>
<path d="M14.7143 12.1426H23.2857" stroke="black" stroke-width="1.71429" stroke-linecap="round" stroke-linejoin="round"/>
<path d="M20.7143 23.2854C22.1345 23.2854 23.2857 22.1342 23.2857 20.714C23.2857 19.2938 22.1345 18.1426 20.7143 18.1426C19.2942 18.1426 18.1429 19.2938 18.1429 20.714C18.1429 22.1342 19.2942 23.2854 20.7143 23.2854Z" stroke="black" stroke-width="1.71429" stroke-linecap="round" stroke-linejoin="round"/>
<path d="M18.1429 20.7139H1" stroke="black" stroke-width="1.71429" stroke-linecap="round" stroke-linejoin="round"/>
</svg>
