<?xml version="1.0" encoding="utf-8"?>
<!-- Generator: Adobe Illustrator 23.0.3, SVG Export Plug-In . SVG Version: 6.00 Build 0)  -->
<svg version="1.1" id="Layer_1" xmlns="http://www.w3.org/2000/svg" xmlns:xlink="http://www.w3.org/1999/xlink" x="0px" y="0px"
	 viewBox="0 0 70 70" style="enable-background:new 0 0 70 70;" xml:space="preserve">
<path d="M53.1,20v-0.2c-0.1-0.4-0.3-0.6-0.6-0.8c-0.7-0.8-2.2-2.3-5.4-5.4l-5.8-5.8h-0.1c-0.1,0-0.1-0.1-0.2-0.1H41
	c-0.1,0-0.1,0-0.2-0.1h-0.2H18c-0.6,0-1.1,0.5-1.1,1.1v52.8c0,0.5,0.2,0.8,0.7,1.1c0.4,0.2,0.9,0.1,1.2-0.2l2.6-2.4l2.6,2.3
	c0.5,0.4,1.1,0.4,1.5,0l2.6-2.3l2.6,2.3c0.5,0.4,1.1,0.4,1.5,0L35,60l2.6,2.3c0.5,0.4,1.1,0.4,1.5,0l2.6-2.3l2.6,2.3
	c0.5,0.4,1.1,0.4,1.5,0l2.6-2.3l2.6,2.3c0.2,0.2,0.5,0.3,0.8,0.3c0.2,0,0.3,0,0.5-0.1c0.4-0.2,0.7-0.6,0.7-1.1L53.1,20z M49.3,18.8
	h-7.5v-7.5C43.9,13.5,47.1,16.7,49.3,18.8z M49.3,57.6c-0.5-0.4-1.1-0.4-1.5,0L45.2,60l-2.6-2.3c-0.5-0.4-1.1-0.4-1.5,0L38.4,60
	l-2.6-2.3c-0.5-0.4-1.1-0.4-1.5,0L31.6,60L29,57.6c-0.5-0.4-1.1-0.4-1.5,0L24.8,60l-2.6-2.3c-0.2-0.2-0.5-0.3-0.8-0.3
	c-0.3,0-0.5,0.1-0.8,0.3L19.2,59V9.8h20.4l0,10.2c0,0.6,0.5,1.1,1.1,1.1h10.2V59L49.3,57.6z M47.5,52.4c0,0.6-0.5,1.1-1.1,1.1H23.7
	c-0.6,0-1.1-0.5-1.1-1.1c0-0.6,0.5-1.1,1.1-1.1h22.6C46.9,51.3,47.5,51.8,47.5,52.4z M35,39.2H23.7c-0.6,0-1.1-0.5-1.1-1.1
	c0-0.6,0.5-1.1,1.1-1.1H35c0.6,0,1.1,0.5,1.1,1.1C36.1,38.7,35.6,39.2,35,39.2z M31.2,45.2h-7.5c-0.6,0-1.1-0.5-1.1-1.1
	c0-0.6,0.5-1.1,1.1-1.1h7.5c0.6,0,1.1,0.5,1.1,1.1C32.4,44.7,31.8,45.2,31.2,45.2z M46.3,39.2h-3.8c-0.6,0-1.1-0.5-1.1-1.1
	c0-0.6,0.5-1.1,1.1-1.1h3.8c0.6,0,1.1,0.5,1.1,1.1C47.5,38.7,46.9,39.2,46.3,39.2z M46.3,45.2h-3.8c-0.6,0-1.1-0.5-1.1-1.1
	c0-0.6,0.5-1.1,1.1-1.1h3.8c0.6,0,1.1,0.5,1.1,1.1C47.5,44.7,46.9,45.2,46.3,45.2z M31.2,33.2h-7.5c-0.6,0-1.1-0.5-1.1-1.1
	c0-0.6,0.5-1.1,1.1-1.1h7.5c0.6,0,1.1,0.5,1.1,1.1C32.4,32.6,31.8,33.2,31.2,33.2z M46.3,33.2h-3.8c-0.6,0-1.1-0.5-1.1-1.1
	c0-0.6,0.5-1.1,1.1-1.1h3.8c0.6,0,1.1,0.5,1.1,1.1C47.5,32.6,46.9,33.2,46.3,33.2z M35,27.1H23.7c-0.6,0-1.1-0.5-1.1-1.1
	c0-0.6,0.5-1.1,1.1-1.1H35c0.6,0,1.1,0.5,1.1,1.1C36.1,26.6,35.6,27.1,35,27.1z M46.3,27.1h-3.8c-0.6,0-1.1-0.5-1.1-1.1
	c0-0.6,0.5-1.1,1.1-1.1h3.8c0.6,0,1.1,0.5,1.1,1.1C47.5,26.6,46.9,27.1,46.3,27.1z"/>
</svg>
