<?xml version="1.0" encoding="utf-8"?>
<!-- Generator: Adobe Illustrator 23.0.3, SVG Export Plug-In . SVG Version: 6.00 Build 0)  -->
<svg version="1.1" id="Layer_1" xmlns="http://www.w3.org/2000/svg" xmlns:xlink="http://www.w3.org/1999/xlink" x="0px" y="0px"
	 viewBox="0 0 70 70" style="enable-background:new 0 0 70 70;" xml:space="preserve">
<style type="text/css">
	.st0{fill:none;stroke:#242830;stroke-linecap:round;stroke-linejoin:round;stroke-miterlimit:10;}
	.st1{fill:#E0E2E4;stroke:#242830;stroke-linecap:round;stroke-linejoin:round;stroke-miterlimit:10;}
	
		.st2{fill-rule:evenodd;clip-rule:evenodd;fill:#E0E2E4;stroke:#242830;stroke-linecap:round;stroke-linejoin:round;stroke-miterlimit:10;}
	.st3{fill:#FFFFFF;}
</style>
<path class="st0" d="M7.8,7.1h-2h26.6"/>
<path class="st1" d="M61.7,12.8H5.8"/>
<path class="st2" d="M65,22.6c0-0.7-0.6-1.4-1.4-1.4H7.8c-0.7,0-1.4,0.6-1.4,1.4v39C6.4,62.3,7,63,7.8,63h55.8
	c0.7,0,1.4-0.6,1.4-1.4V22.6z"/>
<path class="st3" d="M27.8,49V36.1c0-1.1,2.6-2.9,3.6-2.5l11.4,6.1c1,0.6,1.1,3.8,0,4.4l-10.4,6.1C31.4,51,27.8,50.3,27.8,49z"/>
<g>
	<path class="st0" d="M30.9,50.7c-1.7,0-3.2-1.5-3.2-3.2V36.6c0-1.7,1.5-3.2,3.2-3.2c0.5,0,1.1,0.1,1.6,0.4l9.6,5.4
		c1,0.6,1.6,1.6,1.6,2.7c0,1.1-0.6,2.2-1.6,2.7L32.5,50C31.3,50.7,31.4,50.7,30.9,50.7z"/>
</g>
</svg>
