<svg width="26" height="23" viewBox="0 0 26 23" fill="none" xmlns="http://www.w3.org/2000/svg">
<path d="M23.8442 18.1773C16.6151 17.1481 9.2767 17.1481 2.04764 18.1773C1.91817 18.1956 1.78628 18.1861 1.66078 18.1494C1.53529 18.1126 1.41908 18.0495 1.31992 17.9643C1.22076 17.8791 1.14094 17.7736 1.08578 17.6551C1.03063 17.5365 1.00141 17.4076 1.00008 17.2768V1.91263C0.998312 1.78091 1.02546 1.65042 1.07961 1.53033C1.13376 1.41025 1.2136 1.30351 1.31349 1.21764C1.41338 1.13177 1.53089 1.06886 1.65774 1.03335C1.78459 0.997833 1.91768 0.990578 2.04764 1.0121C9.278 2.02291 16.6138 2.02291 23.8442 1.0121C23.9726 0.990841 24.1041 0.99768 24.2296 1.03214C24.3552 1.0666 24.4717 1.12787 24.5713 1.21171C24.6709 1.29556 24.7511 1.4 24.8064 1.51783C24.8617 1.63566 24.8908 1.76408 24.8917 1.89425V17.2584C24.893 17.3907 24.8658 17.5218 24.8118 17.6425C24.7578 17.7633 24.6783 17.871 24.5788 17.9583C24.4794 18.0455 24.3622 18.1103 24.2354 18.1481C24.1087 18.1859 23.9752 18.1959 23.8442 18.1773V18.1773Z" stroke="black" stroke-width="1.71429" stroke-linecap="round" stroke-linejoin="round"/>
<path d="M12.9459 17.4053V21.9998" stroke="black" stroke-width="1.71429" stroke-linecap="round" stroke-linejoin="round"/>
<path d="M8.35138 22H17.5405" stroke="black" stroke-width="1.71429" stroke-linecap="round" stroke-linejoin="round"/>
</svg>
