<svg width="26" height="25" viewBox="0 0 26 25" fill="none" xmlns="http://www.w3.org/2000/svg">
<path d="M9.30765 9.30769C11.6018 9.30769 13.4615 7.44795 13.4615 5.15385C13.4615 2.85974 11.6018 1 9.30765 1C7.01355 1 5.15381 2.85974 5.15381 5.15385C5.15381 7.44795 7.01355 9.30769 9.30765 9.30769Z" stroke="black" stroke-width="1.71429" stroke-linecap="round" stroke-linejoin="round"/>
<path d="M17.6154 23.1538H1V21.3077C1 19.1044 1.87527 16.9913 3.43327 15.4333C4.99126 13.8753 7.10436 13 9.30769 13C11.511 13 13.6241 13.8753 15.1821 15.4333C16.7401 16.9913 17.6154 19.1044 17.6154 21.3077V23.1538Z" stroke="black" stroke-width="1.71429" stroke-linecap="round" stroke-linejoin="round"/>
<path d="M16.6923 1C17.7939 1 18.8505 1.43764 19.6295 2.21663C20.4085 2.99563 20.8461 4.05218 20.8461 5.15385C20.8461 6.25551 20.4085 7.31206 19.6295 8.09106C18.8505 8.87006 17.7939 9.30769 16.6923 9.30769" stroke="black" stroke-width="1.71429" stroke-linecap="round" stroke-linejoin="round"/>
<path d="M19.6461 13.3506C21.2187 13.9488 22.5726 15.0105 23.5287 16.3951C24.4847 17.7796 24.9977 19.4219 25 21.1044V23.1537H22.2307" stroke="black" stroke-width="1.71429" stroke-linecap="round" stroke-linejoin="round"/>
</svg>
