<?xml version="1.0" encoding="utf-8"?>
<!-- Generator: Adobe Illustrator 23.0.3, SVG Export Plug-In . SVG Version: 6.00 Build 0)  -->
<svg version="1.1" id="Layer_1" xmlns="http://www.w3.org/2000/svg" xmlns:xlink="http://www.w3.org/1999/xlink" x="0px" y="0px"
	 viewBox="0 0 70 70" style="enable-background:new 0 0 70 70;" xml:space="preserve">
<style type="text/css">
	.st0{fill:none;stroke:#000000;stroke-width:1.75;stroke-linecap:round;stroke-linejoin:round;stroke-miterlimit:10;}
	.st1{fill:none;stroke:#000000;stroke-width:1.25;stroke-linecap:round;stroke-linejoin:round;stroke-miterlimit:10;}
</style>
<path class="st0" d="M41.4,19.2c0,5.4-4.4,9.8-9.8,9.8c-5.4,0-9.8-4.4-9.8-9.8c0-5.4,4.4-9.8,9.8-9.8C37,9.4,41.4,13.8,41.4,19.2"/>
<path class="st0" d="M50.8,40.5l-0.2-1c-0.8-3.6-4.6-6.5-8.3-6.5l-21.5,0c-3.7,0-7.4,2.9-8.3,6.5l-1.8,11.9h32"/>
<path class="st0" d="M42.8,51.4c0.6,4.8,4.7,8.5,9.7,8.5c5.4,0,9.8-4.4,9.8-9.8c0-5.4-4.4-9.8-9.8-9.8c-0.6,0-1.1,0.1-1.7,0.2
	c-4.6,0.8-8.1,4.8-8.1,9.6C42.7,50.6,42.7,51,42.8,51.4"/>
<g>
	<line class="st1" x1="48.5" y1="53.1" x2="56.4" y2="53.1"/>
	<line class="st1" x1="49.1" y1="53.1" x2="49.1" y2="48.9"/>
	<line class="st1" x1="52.2" y1="53.1" x2="52.2" y2="46.1"/>
	<line class="st1" x1="55.1" y1="53.1" x2="55.1" y2="43.4"/>
</g>
</svg>
