<?xml version="1.0" encoding="utf-8"?>
<!-- Generator: Adobe Illustrator 23.0.3, SVG Export Plug-In . SVG Version: 6.00 Build 0)  -->
<svg version="1.1" id="Layer_1" xmlns="http://www.w3.org/2000/svg" xmlns:xlink="http://www.w3.org/1999/xlink" x="0px" y="0px"
	 viewBox="0 0 70 70" style="enable-background:new 0 0 70 70;" xml:space="preserve">
<style type="text/css">
	.st0{fill:none;stroke:#000000;stroke-width:2.5;stroke-linecap:round;stroke-linejoin:round;}
</style>
<g>
	<path class="st0" d="M27.6,29.2c4.6,0,8.3-3.7,8.3-8.3s-3.7-8.3-8.3-8.3s-8.3,3.7-8.3,8.3C19.3,25.5,23,29.2,27.6,29.2z"/>
	<path class="st0" d="M44.2,56.8H11v-3.7c0-4.4,1.7-8.6,4.9-11.7c3.1-3.1,7.3-4.9,11.7-4.9s8.6,1.7,11.7,4.9s4.9,7.3,4.9,11.7V56.8z
		"/>
	<path class="st0" d="M42.4,12.6c2.2,0,4.3,0.9,5.9,2.4c1.6,1.6,2.4,3.7,2.4,5.9s-0.9,4.3-2.4,5.9c-1.6,1.6-3.7,2.4-5.9,2.4"/>
	<path class="st0" d="M48.3,37.3c3.1,1.2,5.8,3.3,7.8,6.1c1.9,2.8,2.9,6,2.9,9.4v4.1h-5.5"/>
</g>
</svg>
