<?xml version="1.0" encoding="utf-8"?>
<!-- Generator: Adobe Illustrator 23.0.3, SVG Export Plug-In . SVG Version: 6.00 Build 0)  -->
<svg version="1.1" id="Layer_1" xmlns="http://www.w3.org/2000/svg" xmlns:xlink="http://www.w3.org/1999/xlink" x="0px" y="0px"
	 viewBox="0 0 70 70" style="enable-background:new 0 0 70 70;" xml:space="preserve">
<g>
	<path d="M47.2,33c-1.6-0.1-3.1,0.9-3.6,2.4l-5.4-1c-0.2-2-1.3-3.7-3-4.7l1.9-3.8c0,0,0,0,0,0c0.2,0,0.4,0.1,0.6,0.1
		c0.7,0,1.4-0.2,2.1-0.7c0.8-0.6,1.3-1.4,1.4-2.3c0.2-0.9-0.1-1.9-0.6-2.7c-0.6-0.8-1.4-1.3-2.3-1.4c-1.9-0.3-3.8,1-4.1,2.9
		c-0.2,1.3,0.3,2.6,1.3,3.4l-2,3.8C33.2,29,32.7,29,32.3,29c-1.6,0-3.1,0.7-4.2,1.7l-3-3c0.3-0.5,0.6-1.1,0.6-1.7
		c0.1-2-1.4-3.7-3.3-3.8c-1-0.1-1.9,0.2-2.6,0.9c-0.7,0.6-1.1,1.5-1.2,2.4c-0.1,2,1.4,3.7,3.3,3.8c0.1,0,0.2,0,0.2,0
		c0.6,0,1.2-0.2,1.7-0.4l3.2,3.2C26.5,33,26.2,34,26.2,35c0,0.8,0.1,1.5,0.4,2.2l-4.3,3c-0.6-0.6-1.4-1-2.3-1
		c-2-0.1-3.7,1.4-3.8,3.3c-0.1,0.9,0.2,1.9,0.9,2.6c0.6,0.7,1.5,1.1,2.4,1.2c0.1,0,0.2,0,0.2,0c1.9,0,3.4-1.4,3.6-3.3
		c0-0.4,0-0.9-0.2-1.3l4.3-3c1.1,1.4,2.8,2.4,4.8,2.4c0.1,0,0.1,0,0.2,0l1.4,5.4c-0.2,0.1-0.4,0.3-0.6,0.4c-0.7,0.6-1.1,1.5-1.2,2.4
		c-0.1,2,1.4,3.7,3.3,3.8c0.1,0,0.2,0,0.2,0c0.9,0,1.7-0.3,2.3-0.9c0.7-0.6,1.1-1.5,1.2-2.4c0.1-0.9-0.2-1.9-0.9-2.6
		c-0.6-0.7-1.5-1.1-2.4-1.2c-0.1,0-0.2,0-0.3,0l-1.4-5.3c2-0.7,3.6-2.4,4-4.5l5.3,0.9c0.3,1.6,1.6,2.9,3.3,3c0.1,0,0.2,0,0.2,0
		c1.9,0,3.4-1.4,3.6-3.3C50.6,34.9,49.2,33.2,47.2,33L47.2,33z M36,22.2c0.2-0.9,0.9-1.5,1.8-1.5c0.1,0,0.2,0,0.3,0
		c0.5,0.1,0.9,0.3,1.2,0.7c0.3,0.4,0.4,0.9,0.3,1.4c-0.1,0.5-0.3,0.9-0.7,1.2c-0.4,0.3-0.9,0.4-1.4,0.3C36.5,24.2,35.8,23.2,36,22.2
		L36,22.2z M19.7,44.5c-0.5,0-0.9-0.3-1.3-0.6c-0.3-0.4-0.5-0.8-0.5-1.3c0.1-1,0.9-1.7,1.8-1.7c0,0,0.1,0,0.1,0c1,0.1,1.8,0.9,1.7,2
		C21.6,43.8,20.7,44.6,19.7,44.5L19.7,44.5z M37,48.3c0.3,0.4,0.5,0.8,0.5,1.3c0,0.5-0.3,0.9-0.6,1.3c-0.4,0.3-0.8,0.5-1.3,0.5
		c-1-0.1-1.8-0.9-1.7-2c0-0.5,0.3-0.9,0.6-1.3c0.4-0.3,0.9-0.5,1.3-0.5C36.2,47.7,36.7,47.9,37,48.3L37,48.3z M32.3,39.3
		c-2.4,0-4.3-1.9-4.3-4.3c0-2.4,1.9-4.3,4.3-4.3s4.3,1.9,4.3,4.3C36.6,37.4,34.6,39.3,32.3,39.3z M46.8,38.4c-1-0.1-1.8-0.9-1.7-2
		c0.1-1,0.9-1.8,2-1.7c1,0.1,1.8,0.9,1.7,2C48.7,37.7,47.9,38.5,46.8,38.4z"/>
	<path d="M32.3,10.9C19,10.9,8.2,21.7,8.2,35S19,59.1,32.3,59.1S56.3,48.3,56.3,35S45.5,10.9,32.3,10.9L32.3,10.9z M32.3,57.4
		c-12.3,0-22.4-10-22.4-22.4s10-22.4,22.4-22.4s22.4,10,22.4,22.4S44.6,57.4,32.3,57.4L32.3,57.4z"/>
</g>
</svg>
