<svg width="20" height="13" viewBox="0 0 20 13" fill="none" xmlns="http://www.w3.org/2000/svg">
<path d="M18.6426 5.61955C18.8727 5.87446 19 6.20564 19 6.54901C19 6.89239 18.8727 7.22357 18.6426 7.47847C17.186 9.04607 13.8704 12.098 10 12.098C6.12956 12.098 2.81403 9.04607 1.35741 7.47847C1.12735 7.22357 1 6.89239 1 6.54901C1 6.20564 1.12735 5.87446 1.35741 5.61955C2.81403 4.05196 6.12956 1 10 1C13.8704 1 17.186 4.05196 18.6426 5.61955Z" stroke="black" stroke-linecap="round" stroke-linejoin="round"/>
<path d="M9.99997 9.32343C11.5323 9.32343 12.7745 8.08124 12.7745 6.54892C12.7745 5.0166 11.5323 3.77441 9.99997 3.77441C8.46765 3.77441 7.22546 5.0166 7.22546 6.54892C7.22546 8.08124 8.46765 9.32343 9.99997 9.32343Z" stroke="black" stroke-linecap="round" stroke-linejoin="round"/>
</svg>
