<?xml version="1.0" encoding="utf-8"?>
<!-- Generator: Adobe Illustrator 23.0.3, SVG Export Plug-In . SVG Version: 6.00 Build 0)  -->
<svg version="1.1" id="Layer_1" xmlns="http://www.w3.org/2000/svg" xmlns:xlink="http://www.w3.org/1999/xlink" x="0px" y="0px"
	 viewBox="0 0 70 70" style="enable-background:new 0 0 70 70;" xml:space="preserve">
<style type="text/css">
	.st0{fill:none;stroke:#242830;stroke-linecap:round;stroke-linejoin:round;stroke-miterlimit:10;}
	.st1{fill:#E0E2E4;}
</style>
<path class="st0" d="M51.3,52.1H7.2v1.8c0,2.7,3.1,4.9,6.9,4.9h42.8c3.8,0,6.9-2.2,6.9-4.9v-1.8"/>
<g>
	<path class="st0" d="M52.2,52.1h-45"/>
	<path class="st0" d="M12.8,11.2c-3.1,0-5.7,2.5-5.7,5.7v36.2c0,3.1,2.5,5.7,5.7,5.7h45.4c3.1,0,5.7-2.5,5.7-5.7V16.9
		c0-3.1-2.5-5.7-5.7-5.7H12.8z"/>
</g>
<path class="st1" d="M29.4,35.3V24.8c0-0.9,2.1-2.4,2.9-2l9.3,5c0.8,0.5,0.9,3.1,0,3.6l-8.5,5C32.3,36.9,29.4,36.3,29.4,35.3z"/>
<g>
	<path class="st0" d="M31.9,36.7c-1.4,0-2.6-1.2-2.6-2.6v-8.9c0-1.4,1.2-2.6,2.6-2.6c0.4,0,0.9,0.1,1.3,0.3l7.8,4.4
		c0.8,0.5,1.3,1.3,1.3,2.2c0,0.9-0.5,1.8-1.3,2.2l-7.8,4.4C32.8,36.6,32.3,36.7,31.9,36.7z"/>
	<path class="st0" d="M35.5,16.2c7.6,0,13.9,6.2,13.9,13.9S43.2,44,35.5,44c-7.6,0-13.9-6.2-13.9-13.9"/>
</g>
<path class="st0" d="M16.5,55.4v-8.3"/>
</svg>
