<?xml version="1.0" encoding="utf-8"?>
<!-- Generator: Adobe Illustrator 23.0.3, SVG Export Plug-In . SVG Version: 6.00 Build 0)  -->
<svg version="1.1" id="Layer_1" xmlns="http://www.w3.org/2000/svg" xmlns:xlink="http://www.w3.org/1999/xlink" x="0px" y="0px"
	 viewBox="0 0 100 100" style="enable-background:new 0 0 100 100;" xml:space="preserve">
<style type="text/css">
	.st0{fill:none;stroke:#000000;stroke-width:2;stroke-linecap:round;stroke-linejoin:round;stroke-miterlimit:10;}
	.st1{fill:none;stroke:#000000;stroke-width:2;stroke-miterlimit:10;}
	.st2{fill:none;stroke:#000000;stroke-width:3;stroke-miterlimit:10;}
</style>
<path class="st0" d="M53.3,83.3H15.4c-2.7,0-4.8-2.1-4.8-4.8V23.7c0-2.7,2.1-4.8,4.8-4.8h68.8c2.7,0,4.8,2.1,4.8,4.8v32.7"/>
<path class="st1" d="M28.6,50.7h-7.9c-0.9,0-1.7-0.8-1.7-1.7V46c0-0.9,0.8-1.7,1.7-1.7h7.9c0.9,0,1.7,0.8,1.7,1.7V49
	C30.3,49.9,29.6,50.7,28.6,50.7z"/>
<path class="st1" d="M44.8,50.7h-7.9c-0.9,0-1.7-0.8-1.7-1.7V46c0-0.9,0.8-1.7,1.7-1.7h7.9c0.9,0,1.7,0.8,1.7,1.7V49
	C46.5,49.9,45.8,50.7,44.8,50.7z"/>
<path class="st1" d="M61.1,50.7h-7.9c-0.9,0-1.7-0.8-1.7-1.7V46c0-0.9,0.8-1.7,1.7-1.7h7.9c0.9,0,1.7,0.8,1.7,1.7V49
	C62.8,49.9,62,50.7,61.1,50.7z"/>
<path class="st1" d="M77.3,50.7h-7.9c-0.9,0-1.7-0.8-1.7-1.7V46c0-0.9,0.8-1.7,1.7-1.7h7.9c0.9,0,1.7,0.8,1.7,1.7V49
	C79,49.9,78.2,50.7,77.3,50.7z"/>
<path class="st1" d="M28.6,62.8h-7.9c-0.9,0-1.7-0.8-1.7-1.7v-2.9c0-0.9,0.8-1.7,1.7-1.7h7.9c0.9,0,1.7,0.8,1.7,1.7v2.9
	C30.3,62,29.6,62.8,28.6,62.8z"/>
<path class="st1" d="M44.8,62.8h-7.9c-0.9,0-1.7-0.8-1.7-1.7v-2.9c0-0.9,0.8-1.7,1.7-1.7h7.9c0.9,0,1.7,0.8,1.7,1.7v2.9
	C46.5,62,45.8,62.8,44.8,62.8z"/>
<path class="st1" d="M28.6,74.8h-7.9c-0.9,0-1.7-0.8-1.7-1.7v-2.9c0-0.9,0.8-1.7,1.7-1.7h7.9c0.9,0,1.7,0.8,1.7,1.7v2.9
	C30.3,74,29.6,74.8,28.6,74.8z"/>
<path class="st1" d="M44.8,74.8h-7.9c-0.9,0-1.7-0.8-1.7-1.7v-2.9c0-0.9,0.8-1.7,1.7-1.7h7.9c0.9,0,1.7,0.8,1.7,1.7v2.9
	C46.5,74,45.8,74.8,44.8,74.8z"/>
<circle class="st1" cx="72.1" cy="72.8" r="16.2"/>
<line class="st0" x1="10.6" y1="35.3" x2="89" y2="35.3"/>
<line class="st0" x1="27.5" y1="13.4" x2="27.5" y2="23"/>
<line class="st0" x1="48.5" y1="13.4" x2="48.5" y2="23"/>
<line class="st0" x1="69.5" y1="13.4" x2="69.5" y2="23"/>
<polyline class="st2" points="79,82 71,74 71,64 "/>
</svg>
