<?xml version="1.0" encoding="utf-8"?>
<!-- Generator: Adobe Illustrator 23.0.3, SVG Export Plug-In . SVG Version: 6.00 Build 0)  -->
<svg version="1.1" id="Layer_1" xmlns="http://www.w3.org/2000/svg" xmlns:xlink="http://www.w3.org/1999/xlink" x="0px" y="0px"
	 viewBox="0 0 100 100" style="enable-background:new 0 0 100 100;" xml:space="preserve">
<style type="text/css">
	.st0{fill:none;stroke:#000000;stroke-width:2;stroke-linecap:round;stroke-linejoin:round;stroke-miterlimit:10;}
	.st1{fill:none;stroke:#000000;stroke-width:2;stroke-miterlimit:10;}
</style>
<g>
	<path class="st0" d="M54.3,83.3H16.4c-2.7,0-4.8-2.1-4.8-4.8V23.7c0-2.7,2.1-4.8,4.8-4.8h68.8c2.7,0,4.8,2.1,4.8,4.8v32.7"/>
	<path class="st1" d="M29.6,50.7h-7.9c-0.9,0-1.7-0.8-1.7-1.7V46c0-0.9,0.8-1.7,1.7-1.7h7.9c0.9,0,1.7,0.8,1.7,1.7V49
		C31.3,49.9,30.6,50.7,29.6,50.7z"/>
	<path class="st1" d="M45.8,50.7h-7.9c-0.9,0-1.7-0.8-1.7-1.7V46c0-0.9,0.8-1.7,1.7-1.7h7.9c0.9,0,1.7,0.8,1.7,1.7V49
		C47.5,49.9,46.8,50.7,45.8,50.7z"/>
	<path class="st1" d="M62.1,50.7h-7.9c-0.9,0-1.7-0.8-1.7-1.7V46c0-0.9,0.8-1.7,1.7-1.7h7.9c0.9,0,1.7,0.8,1.7,1.7V49
		C63.8,49.9,63,50.7,62.1,50.7z"/>
	<path class="st1" d="M78.3,50.7h-7.9c-0.9,0-1.7-0.8-1.7-1.7V46c0-0.9,0.8-1.7,1.7-1.7h7.9c0.9,0,1.7,0.8,1.7,1.7V49
		C80,49.9,79.2,50.7,78.3,50.7z"/>
	<path class="st1" d="M29.6,62.8h-7.9c-0.9,0-1.7-0.8-1.7-1.7v-2.9c0-0.9,0.8-1.7,1.7-1.7h7.9c0.9,0,1.7,0.8,1.7,1.7v2.9
		C31.3,62,30.6,62.8,29.6,62.8z"/>
	<path class="st1" d="M45.8,62.8h-7.9c-0.9,0-1.7-0.8-1.7-1.7v-2.9c0-0.9,0.8-1.7,1.7-1.7h7.9c0.9,0,1.7,0.8,1.7,1.7v2.9
		C47.5,62,46.8,62.8,45.8,62.8z"/>
	<path class="st1" d="M29.6,74.8h-7.9c-0.9,0-1.7-0.8-1.7-1.7v-2.9c0-0.9,0.8-1.7,1.7-1.7h7.9c0.9,0,1.7,0.8,1.7,1.7v2.9
		C31.3,74,30.6,74.8,29.6,74.8z"/>
	<path class="st1" d="M45.8,74.8h-7.9c-0.9,0-1.7-0.8-1.7-1.7v-2.9c0-0.9,0.8-1.7,1.7-1.7h7.9c0.9,0,1.7,0.8,1.7,1.7v2.9
		C47.5,74,46.8,74.8,45.8,74.8z"/>
	<circle class="st1" cx="73.1" cy="72.8" r="16.2"/>
	<polyline class="st0" points="63.8,73 70.7,79.6 82.7,67.4 	"/>
	<line class="st0" x1="11.6" y1="35.3" x2="90" y2="35.3"/>
	<line class="st0" x1="28.5" y1="13.4" x2="28.5" y2="23"/>
	<line class="st0" x1="49.5" y1="13.4" x2="49.5" y2="23"/>
	<line class="st0" x1="70.5" y1="13.4" x2="70.5" y2="23"/>
</g>
</svg>
