<?xml version="1.0" encoding="utf-8"?>
<!-- Generator: Adobe Illustrator 23.0.3, SVG Export Plug-In . SVG Version: 6.00 Build 0)  -->
<svg version="1.1" id="Layer_1" xmlns="http://www.w3.org/2000/svg" xmlns:xlink="http://www.w3.org/1999/xlink" x="0px" y="0px"
	 viewBox="0 0 100 100" style="enable-background:new 0 0 100 100;" xml:space="preserve">
<style type="text/css">
	.st0{fill:none;stroke:#000000;stroke-width:2;stroke-linecap:round;stroke-linejoin:round;stroke-miterlimit:10;}
	.st1{fill:none;stroke:#000000;stroke-width:2;stroke-miterlimit:10;}
</style>
<g>
	<path class="st0" d="M54.3,76.3H14.4c-2.7,0-4.8-2.1-4.8-4.8V16.7c0-2.7,2.1-4.8,4.8-4.8h68.8c2.7,0,4.8,2.1,4.8,4.8v39.7"/>
	<circle class="st1" cx="71.1" cy="65.8" r="19.3"/>
	<line class="st0" x1="9.6" y1="54.3" x2="55.6" y2="54.3"/>
	<line class="st0" x1="40.7" y1="65.8" x2="51.7" y2="65.8"/>
	<line class="st0" x1="17.8" y1="65.8" x2="31.9" y2="65.8"/>
	<circle class="st0" cx="36.3" cy="65.8" r="4.4"/>
	<g>
		<path d="M75.2,71.2c0-0.9-0.3-1.7-0.9-2.3s-1.7-1.2-3.2-1.7c-2.1-0.6-3.6-1.5-4.5-2.5s-1.4-2.3-1.4-3.9c0-1.6,0.5-2.9,1.4-3.9
			s2.2-1.6,3.8-1.8v-3.2h2.2v3.2c1.6,0.2,2.9,0.9,3.8,2.1s1.4,2.7,1.4,4.7H75c0-1.4-0.3-2.5-1-3.3s-1.5-1.2-2.7-1.2
			c-1.2,0-2.1,0.3-2.7,0.9s-0.9,1.4-0.9,2.5c0,1,0.3,1.8,1,2.4s1.7,1.1,3.2,1.6s2.7,1,3.5,1.6c0.8,0.6,1.5,1.3,1.8,2
			s0.6,1.7,0.6,2.7c0,1.7-0.5,3-1.5,4S74,76.8,72.2,77v2.8h-2.2V77c-1.8-0.2-3.2-0.8-4.3-1.9c-1-1.1-1.5-2.7-1.5-4.6h2.7
			c0,1.4,0.4,2.4,1.1,3.1s1.7,1.1,3,1.1c1.3,0,2.3-0.3,3-0.9S75.2,72.3,75.2,71.2z"/>
	</g>
	<g>
		<path d="M37.4,46.4l-3.3-8.6H23.9l-3.4,8.6h-1.8l9.6-24.5h1.6l9.4,24.5H37.4z M33.6,36.2l-3.4-9.2c-0.1-0.2-0.2-0.5-0.3-0.9
			c-0.1-0.4-0.3-0.8-0.4-1.2c-0.1-0.4-0.3-0.8-0.4-1.2c-0.1,0.4-0.2,0.8-0.4,1.2c-0.1,0.4-0.3,0.8-0.4,1.1c-0.1,0.4-0.2,0.7-0.4,1
			l-3.5,9.1H33.6z"/>
		<path d="M61.3,34c0,2.7-0.5,5-1.4,6.9c-1,1.8-2.4,3.2-4.3,4.2c-1.9,0.9-4.2,1.4-7,1.4h-5.8V22h6.6c2.6,0,4.8,0.5,6.6,1.4
			c1.8,0.9,3.1,2.3,4,4C60.8,29.2,61.3,31.4,61.3,34z M59.5,34c0-2.3-0.4-4.3-1.1-5.8c-0.8-1.6-1.9-2.7-3.5-3.5
			c-1.6-0.8-3.5-1.2-5.9-1.2h-4.5v21.4h4c3.7,0,6.4-0.9,8.3-2.7C58.6,40.4,59.5,37.6,59.5,34z"/>
	</g>
</g>
</svg>
