<?xml version="1.0" encoding="utf-8"?>
<!-- Generator: Adobe Illustrator 23.0.3, SVG Export Plug-In . SVG Version: 6.00 Build 0)  -->
<svg version="1.1" id="Layer_1" xmlns="http://www.w3.org/2000/svg" xmlns:xlink="http://www.w3.org/1999/xlink" x="0px" y="0px"
	 viewBox="0 0 100 100" style="enable-background:new 0 0 100 100;" xml:space="preserve">
<style type="text/css">
	.st0{fill:none;stroke:#000000;stroke-width:2;stroke-linecap:round;stroke-miterlimit:10;}
	.st1{fill:none;stroke:#000000;stroke-width:2;stroke-miterlimit:10;}
</style>
<g>
	<path class="st0" d="M66.9,32.7c0.6,0.5,2.1,1.9,2.7,2.4c4.6,4.3,8.8,8.9,12.1,14.3c1.8,3,3.3,6.1,3.9,9.5c0.6,3.7-0.3,6.9-3.3,9.4
		c-2.3,1.9-5,2.2-7.8,1.6c-3-0.6-5.7-2.1-8.4-3.4c-1.2-0.6-2.4-1.1-3.7-1.4c-3.1-0.8-5.8,1.5-5.5,4.7c0.2,2.1,1.3,3.8,2.5,5.5
		c1.7,2.4,3.7,4.6,5.1,7.2c1.2,2.1,1.7,4.3,0.8,6.7c-1.1,3-3.6,4.3-6.7,3.8c-4.1-0.6-7.6-2.5-11-4.6c-5.9-3.7-11.3-8.2-16.1-13.3
		c-6.6-6.9-12.2-14.4-15.8-23.4c-1.8-4.6-2.7-8.8-2.7-15c0.2-6.3,3.4-12.9,10.3-17.6c3.1-2.1,6.7-2.6,10.3-2.4
		c8.6,0.5,16.1,4.1,23.2,8.5c0.7,0.4,1.4,0.9,2,1.3l1.1,0.8"/>
	<path class="st1" d="M73.6,4.9c1.3,0,2.1,1.1,1.7,2.4c-0.7,2.8-1.5,5.6-2.4,8.3c-2.8,8.3-6.1,16.2-10.7,23.7
		c-0.1,0.2-0.2,0.5-0.3,0.8c-0.2,1.5-1,2.9-0.7,4.5c0.4,2-0.5,3.6-1.7,5.1c-2.1,2.5-4.9,4-7.6,5.5c-0.3,0.2-0.6,0.2-0.9-0.1
		c-0.2-0.2-0.3-0.5-0.2-0.8c0.9-1.9,0.3-3.8,0.1-5.7c-0.1-1.4-0.2-2.8,0.2-4.1c0.4-1.5,1.3-2.6,2.6-3.3c0.6-0.3,1-0.9,1.2-1.5
		c0.2-0.5,0.5-0.9,1-1.1c0.6-0.2,0.8-0.6,1-1.2c3.5-11.1,8.5-21.4,14.8-31.1C72.3,5.4,72.8,4.9,73.6,4.9z"/>
	<path class="st0" d="M70.2,48.7c2.8,0.4,5.2,2.1,7.1,4.7c1.2,1.6,2,3.4,1.6,5.5c-0.4,2.4-2.2,3.8-4.6,3.5c-4.3-0.5-8.5-4.5-9-8.8
		C64.9,50.8,66.8,48.7,70.2,48.7z"/>
	<path class="st0" d="M30.5,35.1c-2.9,0-5.3-2.4-5.3-5.2c0-2.8,2.4-5.2,5.2-5.2c2.8,0,5.1,2.4,5.2,5.2
		C35.7,32.7,33.3,35.1,30.5,35.1z"/>
	<path class="st0" d="M46.2,66.2c2.9,0,5.2,2.3,5.1,5.2c0,2.9-2.4,5.2-5.2,5.2c-2.8,0-5.2-2.4-5.2-5.2C41,68.6,43.3,66.2,46.2,66.2z
		"/>
	<path class="st0" d="M34.8,65.4c-2.8,0-5.1-2.4-5-5.3c0-2.8,2.4-5.1,5.2-5.1c2.8,0,5.2,2.4,5.1,5.2C40.1,63.1,37.7,65.4,34.8,65.4z
		"/>
	<path class="st0" d="M40.8,32.4c0-2.9,2.2-5.1,5.1-5.2c2.9,0,5.2,2.2,5.2,5.1c0,2.9-2.2,5.2-5.1,5.2C43.1,37.6,40.8,35.3,40.8,32.4
		z"/>
	<path class="st0" d="M31.8,45.8c0,2.9-2.2,5.2-5.1,5.2c-2.9,0-5.2-2.3-5.2-5.1c0-2.9,2.4-5.3,5.2-5.3C29.5,40.6,31.7,43,31.8,45.8z
		"/>
</g>
</svg>
