<?xml version="1.0" encoding="utf-8"?>
<!-- Generator: Adobe Illustrator 23.0.3, SVG Export Plug-In . SVG Version: 6.00 Build 0)  -->
<svg version="1.1" id="Layer_1" xmlns="http://www.w3.org/2000/svg" xmlns:xlink="http://www.w3.org/1999/xlink" x="0px" y="0px"
	 viewBox="0 0 100 100" style="enable-background:new 0 0 100 100;" xml:space="preserve">
<style type="text/css">
	.st0{fill:none;stroke:#000000;stroke-width:2;stroke-miterlimit:10;}
	.st1{fill:none;stroke:#000000;stroke-width:1.5;stroke-miterlimit:10;}
	.st2{fill:none;stroke:#000000;stroke-width:2;stroke-linecap:round;stroke-linejoin:round;stroke-miterlimit:10;}
</style>
<g>
	<path class="st0" d="M31.3,26.5L31.3,26.5c-1.8,0-3.3-1.5-3.3-3.3v-8.6c0-1.8,1.5-3.3,3.3-3.3h0c1.8,0,3.3,1.5,3.3,3.3v8.6
		C34.6,25,33.1,26.5,31.3,26.5z"/>
	<g>
		<path class="st1" d="M27.3,81.3h-3.9c-0.9,0-1.7-0.8-1.7-1.7v-2.9c0-0.9,0.8-1.7,1.7-1.7h3.9c0.9,0,1.7,0.8,1.7,1.7v2.9
			C29,80.5,28.2,81.3,27.3,81.3z"/>
		<path class="st1" d="M44,81.3h-3.9c-0.9,0-1.7-0.8-1.7-1.7v-2.9c0-0.9,0.8-1.7,1.7-1.7H44c0.9,0,1.7,0.8,1.7,1.7v2.9
			C45.7,80.5,45,81.3,44,81.3z"/>
		<path class="st1" d="M60.8,81.3h-3.9c-0.9,0-1.7-0.8-1.7-1.7v-2.9c0-0.9,0.8-1.7,1.7-1.7h3.9c0.9,0,1.7,0.8,1.7,1.7v2.9
			C62.5,80.5,61.7,81.3,60.8,81.3z"/>
		<path class="st1" d="M44,46h-3.9c-0.9,0-1.7-0.8-1.7-1.7v-2.9c0-0.9,0.8-1.7,1.7-1.7H44c0.9,0,1.7,0.8,1.7,1.7v2.9
			C45.7,45.3,45,46,44,46z"/>
		<path class="st1" d="M60.8,46h-3.9c-0.9,0-1.7-0.8-1.7-1.7v-2.9c0-0.9,0.8-1.7,1.7-1.7h3.9c0.9,0,1.7,0.8,1.7,1.7v2.9
			C62.5,45.3,61.7,46,60.8,46z"/>
		<path class="st1" d="M77.5,46h-3.9c-0.9,0-1.7-0.8-1.7-1.7v-2.9c0-0.9,0.8-1.7,1.7-1.7h3.9c0.9,0,1.7,0.8,1.7,1.7v2.9
			C79.2,45.3,78.4,46,77.5,46z"/>
		<path class="st1" d="M27.3,57.8h-3.9c-0.9,0-1.7-0.8-1.7-1.7v-2.9c0-0.9,0.8-1.7,1.7-1.7h3.9c0.9,0,1.7,0.8,1.7,1.7v2.9
			C29,57,28.2,57.8,27.3,57.8z"/>
		<path d="M44.4,58.4h-4.7c-1.1,0-2-0.9-2-2v-3.5c0-1.1,0.9-2,2-2h4.7c1.1,0,2,0.9,2,2v3.5C46.5,57.5,45.5,58.4,44.4,58.4z"/>
		<path class="st1" d="M60.8,57.8h-3.9c-0.9,0-1.7-0.8-1.7-1.7v-2.9c0-0.9,0.8-1.7,1.7-1.7h3.9c0.9,0,1.7,0.8,1.7,1.7v2.9
			C62.5,57,61.7,57.8,60.8,57.8z"/>
		<path class="st1" d="M77.5,57.8h-3.9c-0.9,0-1.7-0.8-1.7-1.7v-2.9c0-0.9,0.8-1.7,1.7-1.7h3.9c0.9,0,1.7,0.8,1.7,1.7v2.9
			C79.2,57,78.4,57.8,77.5,57.8z"/>
		<path class="st1" d="M27.3,69.5h-3.9c-0.9,0-1.7-0.8-1.7-1.7v-2.9c0-0.9,0.8-1.7,1.7-1.7h3.9c0.9,0,1.7,0.8,1.7,1.7v2.9
			C29,68.8,28.2,69.5,27.3,69.5z"/>
		<path class="st1" d="M44,69.5h-3.9c-0.9,0-1.7-0.8-1.7-1.7v-2.9c0-0.9,0.8-1.7,1.7-1.7H44c0.9,0,1.7,0.8,1.7,1.7v2.9
			C45.7,68.8,45,69.5,44,69.5z"/>
		<path class="st1" d="M60.8,69.5h-3.9c-0.9,0-1.7-0.8-1.7-1.7v-2.9c0-0.9,0.8-1.7,1.7-1.7h3.9c0.9,0,1.7,0.8,1.7,1.7v2.9
			C62.5,68.8,61.7,69.5,60.8,69.5z"/>
		<path class="st1" d="M77.5,69.5h-3.9c-0.9,0-1.7-0.8-1.7-1.7v-2.9c0-0.9,0.8-1.7,1.7-1.7h3.9c0.9,0,1.7,0.8,1.7,1.7v2.9
			C79.2,68.8,78.4,69.5,77.5,69.5z"/>
	</g>
	<line class="st2" x1="11.6" y1="33.3" x2="88.6" y2="33.3"/>
	<path class="st0" d="M72.2,18.9h12.4c2.6,0,4.7,2.1,4.7,4.7v60c0,2.6-2.1,4.7-4.7,4.7H16.3c-2.6,0-4.7-2.1-4.7-4.7v-60
		c0-2.6,2.1-4.7,4.7-4.7H28"/>
	<line class="st0" x1="53.8" y1="18.9" x2="65.6" y2="18.9"/>
	<line class="st0" x1="34.6" y1="18.9" x2="46.8" y2="18.9"/>
	<path class="st0" d="M50.1,26.5L50.1,26.5c-1.8,0-3.3-1.5-3.3-3.3v-8.6c0-1.8,1.5-3.3,3.3-3.3h0c1.8,0,3.3,1.5,3.3,3.3v8.6
		C53.4,25,51.9,26.5,50.1,26.5z"/>
	<path class="st0" d="M68.9,26.5L68.9,26.5c-1.8,0-3.3-1.5-3.3-3.3v-8.6c0-1.8,1.5-3.3,3.3-3.3h0c1.8,0,3.3,1.5,3.3,3.3v8.6
		C72.2,25,70.7,26.5,68.9,26.5z"/>
</g>
</svg>
