<?xml version="1.0" encoding="utf-8"?>
<!-- Generator: Adobe Illustrator 23.0.3, SVG Export Plug-In . SVG Version: 6.00 Build 0)  -->
<svg version="1.1" id="Layer_1" xmlns="http://www.w3.org/2000/svg" xmlns:xlink="http://www.w3.org/1999/xlink" x="0px" y="0px"
	 viewBox="0 0 100 100" style="enable-background:new 0 0 100 100;" xml:space="preserve">
<style type="text/css">
	.st0{fill:none;stroke:#000000;stroke-width:2;stroke-linecap:round;stroke-linejoin:round;stroke-miterlimit:10;}
	.st1{display:none;}
	.st2{display:inline;fill:none;stroke:#000000;stroke-width:2;stroke-linecap:round;stroke-linejoin:round;stroke-miterlimit:10;}
	.st3{display:none;fill:none;stroke:#000000;stroke-width:2;stroke-linecap:round;stroke-linejoin:round;stroke-miterlimit:10;}
	.st4{display:none;fill:none;stroke:#000000;stroke-width:1.984;stroke-linecap:round;stroke-linejoin:round;stroke-miterlimit:10;}
	.st5{display:none;fill:none;stroke:#000000;stroke-miterlimit:10;}
	.st6{display:inline;fill:none;stroke:#000000;stroke-width:2;stroke-miterlimit:10;}
	.st7{fill:none;stroke:#000000;stroke-width:2;stroke-miterlimit:10;}
	.st8{fill:none;stroke:#000000;stroke-width:2;stroke-linecap:round;stroke-miterlimit:10;}
</style>
<path class="st0" d="M12,60V21.4c0-4.4,3.6-8,8-8h45.7c4.4,0,8,3.6,8,8v30.5c0,4.4-3.6,8-8,8H27.5L12,72.8V60z"/>
<path class="st0" d="M32,65v4.3c0,4.3,3.5,7.7,7.7,7.7h35.9l13,8.8"/>
<path class="st0" d="M79,30.5h2.3c4.3,0,7.7,3.5,7.7,7.7v31.1v16.7"/>
<g class="st1">
	<line class="st2" x1="29" y1="-82" x2="66" y2="-82"/>
	<line class="st2" x1="29" y1="-70.5" x2="60" y2="-70.5"/>
	<line class="st2" x1="29" y1="-59" x2="51" y2="-59"/>
</g>
<path class="st3" d="M169,73.5V33c0-4.7,3.8-8.5,8.5-8.5h48.1c4.7,0,8.5,3.8,8.5,8.5V65c0,4.7-3.8,8.5-8.5,8.5h-40.3L169,87V73.5z"
	/>
<path class="st4" d="M190,81.8v4.5c0,4.5,3.6,8.1,8.1,8.1h37.7l13.7,9.2"/>
<path class="st3" d="M239.5,45.5h2.4c4.5,0,8.1,3.6,8.1,8.1v32.8V104"/>
<g class="st1">
	<line class="st2" x1="183" y1="38" x2="220" y2="38"/>
	<line class="st2" x1="183" y1="49.5" x2="214" y2="49.5"/>
	<line class="st2" x1="183" y1="61" x2="205" y2="61"/>
</g>
<path class="st5" d="M-72.7,111.1c-9.1,0-18.2,0-27.2,0c-4.9,0-7.9-2-8.7-5.5c-0.8-3.9,1.4-8.1,5.6-9.9c5.3-2.2,10.7-4.3,16.1-6.3
	c2-0.8,2.4-1.5,1-3.3c-4.9-6.3-8.3-13.3-8.2-21.5c0.2-11.9,10.7-21.7,22.7-21.2c12.1,0.6,21.5,11.1,20.7,23
	c-0.5,7.4-3.6,13.6-7.9,19.4c-1.7,2.4-1.7,2.5,1,3.6c5,2,10.1,3.9,15.1,6c4,1.6,6.6,5.9,6,9.5c-0.7,3.9-3.6,6.1-8.2,6.2
	C-54,111.1-63.3,111.1-72.7,111.1z"/>
<g class="st1">
	<path class="st6" d="M176.2,12.3c2.3,0,4.7,0,7,0c2.3,0,4.6,0,6.9,0c1.3,0,1.8-0.9,1.2-2.1c-0.4-0.7-1-1.1-1.7-1.4
		c-2.4-0.9-4.7-1.8-7.1-2.8c-2.5-1-2.9-2.8-1.3-4.9c2-2.7,3.6-5.7,3.5-9.2c-0.1-4.4-3.7-7.8-8.2-7.9c-4.5,0-8.3,3.4-8.4,7.8
		c-0.1,3.6,1.5,6.6,3.6,9.4c1.6,2.1,1.1,3.8-1.3,4.8c-2.3,0.9-4.7,1.8-7,2.7c-0.4,0.1-0.8,0.3-1.1,0.5c-0.7,0.5-1.2,1.2-1,2.1
		c0.2,1,1.1,0.9,1.9,0.9C167.4,12.3,171.8,12.3,176.2,12.3z"/>
	<path class="st6" d="M193.4,10.3c0.9,0,1.8,0,2.7,0c1.3,0,1.8-0.9,1.2-2.1c-0.4-0.7-1-1.1-1.7-1.4c-2.4-0.9-4.7-1.8-7.1-2.8
		c-2.5-1-2.9-2.8-1.3-4.9c2-2.7,3.6-5.7,3.5-9.2c-0.1-4.4-3.7-7.8-8.2-7.9c-0.9,0-1.7,0.1-2.5,0.3"/>
</g>
<g>
	<circle class="st7" cx="32.9" cy="27.7" r="5.7"/>
	<circle class="st7" cx="43.5" cy="36.3" r="5.7"/>
	<circle class="st7" cx="54.4" cy="27.7" r="5.7"/>
	<path class="st8" d="M47.5,40.6c3.3,0.2,6,2.9,6,6.3v1.6c0,1.6-1.3,2.9-2.9,2.9H36.7c-1.6,0-2.9-1.3-2.9-2.9v-1.6
		c0-3.3,2.6-6.1,5.8-6.3"/>
	<path class="st0" d="M35.4,42.6h-9.7c-1.6,0-2.9-1.3-2.9-2.9v-1.6c0-3.3,2.6-6.1,5.8-6.3"/>
	<path class="st0" d="M58.5,31.8c3.3,0.2,6,2.9,6,6.3v1.6c0,1.6-1.3,2.9-2.9,2.9h-9.7"/>
</g>
</svg>
