<?xml version="1.0" encoding="utf-8"?>
<!-- Generator: Adobe Illustrator 23.0.3, SVG Export Plug-In . SVG Version: 6.00 Build 0)  -->
<svg version="1.1" id="Layer_1" xmlns="http://www.w3.org/2000/svg" xmlns:xlink="http://www.w3.org/1999/xlink" x="0px" y="0px"
	 viewBox="0 0 100 100" style="enable-background:new 0 0 100 100;" xml:space="preserve">
<style type="text/css">
	.st0{fill:none;stroke:#000000;stroke-width:2;stroke-linecap:round;stroke-linejoin:round;stroke-miterlimit:10;}
	.st1{fill:none;stroke:#000000;stroke-width:2;stroke-miterlimit:10;}
</style>
<g>
	<path class="st0" d="M22.2,80.3c-2.2-0.8-4.1-1.9-6-3.2c-0.8-0.6-1-1.4-0.9-2.3c0-1.7,0-3.5,0-6c-0.6-5.3,1-10.6,5.6-14.8
		c3.7-3.3,8-5.3,12.8-6.5c0.9-0.2,1.7,0,2.5,0.4c6.3,2.9,12.6,2.8,18.8-0.1c0.7-0.3,1.4-0.5,2.1-0.3c5.5,1.5,10.4,3.7,14.3,8
		c2.7,3,4.1,6.6,4.3,10.6c0.1,2.8,0,5.6,0,8.4c0,1.3-0.4,2.3-1.6,3c-1.7,1.1-3.5,2-5.3,2.8"/>
	<path class="st0" d="M59.2,17.4c-0.3-2,1.2-4.2,3.3-4.8c0.5-0.1,1.1-0.2,1.7-0.2c5.2,0,10.4,0,15.7,0c1.3,0,2.5,0.3,3.5,1.2
		c0.9,0.9,1.4,1.9,1.4,3.1c0,3.9,0,7.7,0,11.6c0,2.4-1.9,4.2-4.4,4.3c-1.3,0.1-2.6,0.1-3.9,0c-0.8,0-1.4,0.2-1.9,0.9
		c-0.7,0.8-1.4,3.3-2.1,4.1c-0.5,0.6-1.2,0.7-1.9,0.4c-0.7-0.2-1-0.8-1-1.5c0-0.2,0-2.1,0-2.3c0.2-1.3-0.5-1.7-1.7-1.6
		c-1.2,0.1-2.4,0-3.6,0"/>
	<path class="st1" d="M45.4,15.4c8.4,0,15,6.6,15,14.9c0,8.3-6.7,15-15.1,15c-8.1,0-15-6.9-15-14.9C30.4,22,37.1,15.4,45.4,15.4z"/>
	<path d="M70.7,26.7c0.1-1.9,0.9-3.1,1.9-4.1c0.5-0.5,1.2-1,0.8-1.9c-0.3-0.7-1-0.9-1.7-0.9c-0.8,0-1.5,0.3-1.9,1.2
		c-0.3,0.8-0.5,1.9-1.7,1.4c-1.2-0.5-0.8-1.7-0.5-2.6c0.7-1.7,2.2-2.3,3.9-2.4c1.8-0.1,3.2,0.6,4.1,2.3c0.8,1.6,0.3,2.9-0.8,4.1
		c-0.8,0.9-1.8,1.8-1.8,3.2c0,0.7-0.6,1.2-1.3,1.1C70.8,28,70.6,27.2,70.7,26.7z"/>
	<path class="st1" d="M64.1,68.8v13.4c0,4-3.3,7.3-7.3,7.3H34.1c-4,0-7.3-3.3-7.3-7.3V68.8"/>
</g>
</svg>
