<?xml version="1.0" encoding="utf-8"?>
<!-- Generator: Adobe Illustrator 23.0.3, SVG Export Plug-In . SVG Version: 6.00 Build 0)  -->
<svg version="1.1" id="Layer_1" xmlns="http://www.w3.org/2000/svg" xmlns:xlink="http://www.w3.org/1999/xlink" x="0px" y="0px"
	 viewBox="0 0 100 100" style="enable-background:new 0 0 100 100;" xml:space="preserve">
<style type="text/css">
	.st0{display:none;}
	.st1{display:inline;fill:none;stroke:#000000;stroke-width:2;stroke-miterlimit:10;}
	.st2{fill:none;stroke:#000000;stroke-width:2;stroke-linecap:round;stroke-linejoin:round;stroke-miterlimit:10;}
</style>
<g class="st0">
	<line class="st1" x1="73.2" y1="33.8" x2="83.8" y2="23.2"/>
	<line class="st1" x1="13.7" y1="23.2" x2="24.3" y2="33.8"/>
</g>
<g>
	<path class="st2" d="M24.4,34c-0.6,1.6-1.1,3.3-1.5,4.9c-0.4,1.7-0.8,3.4-1,5.2c-0.3,1.9-0.4,3.8-0.5,5.8c0,1.8,0,3.7,0.2,5.5
		c0.1,1.6,0.3,3.1,0.6,4.7c0.4,2.2,0.9,4.3,1.6,6.4c0.6,1.9,1.4,3.8,2.3,5.6c0.8,1.6,1.7,3.2,2.8,4.8c1.6,2.3,3.4,4.4,5.5,6.3
		c2,1.8,4.3,3.2,6.7,4.3c2.8,1.2,5.7,1.7,8.7,1.6c1.3,0,2.6-0.2,3.9-0.5c1.7-0.4,3.4-1,5-1.9c2.2-1.1,4.2-2.6,6-4.3
		c1.6-1.5,3-3.2,4.3-5c1.2-1.7,2.3-3.6,3.2-5.5c0.7-1.6,1.4-3.2,2-4.8c0.5-1.5,1-3.1,1.3-4.7c0.5-2.1,0.8-4.1,1-6.2
		c0.1-1.5,0.2-3,0.2-4.5c0-1.5,0-3-0.2-4.6c-0.1-1.1-0.2-2.2-0.4-3.2c-0.2-1.6-0.5-3.1-0.9-4.6c-0.4-1.7-1-3.4-1.6-5.1L24.4,34z"/>
	<path class="st2" d="M66,33.3c0-1.4,0-2.8,0-4.2c0-2.3-0.4-4.5-1.3-6.5c-1.1-2.6-2.7-4.8-4.9-6.6c-2-1.6-4.2-2.7-6.6-3.3
		c-2.5-0.6-5-0.7-7.5-0.2c-2,0.4-3.9,1.2-5.7,2.3c-2.5,1.6-4.4,3.6-5.9,6.2c-1.5,2.6-2.1,5.4-2.1,8.4c0,1.4,0,2.7,0,4.1"/>
	<line class="st2" x1="76.5" y1="56.5" x2="91.5" y2="56.5"/>
	<line class="st2" x1="6.5" y1="56.5" x2="21.5" y2="56.5"/>
	<line class="st2" x1="65.2" y1="82.2" x2="75.8" y2="92.8"/>
	<line class="st2" x1="21.7" y1="92.8" x2="32.3" y2="82.2"/>
	<g>
		<line class="st2" x1="35.4" y1="45.7" x2="62.6" y2="72.9"/>
		<line class="st2" x1="62.6" y1="45.7" x2="35.4" y2="72.9"/>
	</g>
</g>
</svg>
