<?xml version="1.0" encoding="utf-8"?>
<!-- Generator: Adobe Illustrator 23.0.3, SVG Export Plug-In . SVG Version: 6.00 Build 0)  -->
<svg version="1.1" id="Layer_1" xmlns="http://www.w3.org/2000/svg" xmlns:xlink="http://www.w3.org/1999/xlink" x="0px" y="0px"
	 viewBox="0 0 100 100" style="enable-background:new 0 0 100 100;" xml:space="preserve">
<style type="text/css">
	.st0{fill:none;stroke:#000000;stroke-width:2.0796;stroke-miterlimit:10;}
	.st1{fill:none;stroke:#000000;stroke-width:2;stroke-linecap:round;stroke-linejoin:round;stroke-miterlimit:10;}
</style>
<g>
	<path class="st0" d="M50.4,8.9c1.9,5.1,4.4,10,6.6,14.9c2.9,6.5,5.9,12.9,8.8,19.3c0.2,0.4,0.6,1,0.2,1.4c-0.4,0.5-0.9,0-1.3-0.2
		c-4.5-2.2-9-4.5-13.4-6.8c-1-0.5-1.8-0.5-2.8,0c-4.3,2.2-8.7,4.4-13.1,6.6c-0.5,0.3-1.1,1-1.7,0.4c-0.5-0.5,0.1-1.2,0.4-1.7
		c4.8-10.6,9.6-21.2,14.5-31.8c0.3-0.7,0.5-1.4,0.7-2.1C49.7,8.9,50.1,8.9,50.4,8.9z"/>
	<path class="st1" d="M62.5,17.5c13.1,5,22.4,17.7,22.4,32.5c0,19.2-15.6,34.8-34.8,34.8S15.2,69.2,15.2,50c0-14.7,9.1-27.3,22-32.4
		"/>
	<line class="st1" x1="5" y1="52" x2="26" y2="52"/>
	<line class="st1" x1="74" y1="52" x2="95" y2="52"/>
	<line class="st1" x1="49.5" y1="74.5" x2="49.5" y2="95.5"/>
</g>
</svg>
