<?xml version="1.0" encoding="utf-8"?>
<!-- Generator: Adobe Illustrator 23.0.3, SVG Export Plug-In . SVG Version: 6.00 Build 0)  -->
<svg version="1.1" id="Layer_1" xmlns="http://www.w3.org/2000/svg" xmlns:xlink="http://www.w3.org/1999/xlink" x="0px" y="0px"
	 viewBox="0 0 100 100" style="enable-background:new 0 0 100 100;" xml:space="preserve">
<style type="text/css">
	.st0{fill:none;stroke:#000000;stroke-width:2;stroke-miterlimit:10;}
	.st1{fill:none;stroke:#000000;stroke-width:1.2;stroke-linecap:round;stroke-miterlimit:10;}
	.st2{display:none;}
	.st3{display:inline;fill:none;stroke:#000000;stroke-linejoin:round;stroke-miterlimit:10;}
	.st4{fill:none;stroke:#000000;stroke-width:2;stroke-linecap:round;stroke-miterlimit:10;}
	.st5{fill:none;stroke:#000000;stroke-width:2;stroke-linecap:round;stroke-linejoin:round;stroke-miterlimit:10;}
	.st6{display:none;fill:none;stroke:#000000;stroke-linejoin:round;stroke-miterlimit:10;}
	.st7{fill:none;stroke:#000000;stroke-width:2;stroke-linejoin:round;stroke-miterlimit:10;}
</style>
<path class="st0" d="M60.6,42.1c-0.3,0.5-0.4,0.9-0.4,1.5c0.3,4.4,0.4,4.5,4.4,6.4c4.3,2,8.5,4.2,12.7,6.3c1.8,0.9,2.6,2.4,2.6,4.4
	c0,2.8,0,5.6,0,8.4c0,2.8,0,5.6,0,8.4c0,1.2-0.5,1.9-1.6,2.3c-4.5,1.6-9,3.2-13.5,4.9"/>
<path class="st0" d="M35.9,85c-1.7-0.6-3.4-1.2-5.1-1.8c-3.1-1.1-6.2-2.3-9.3-3.3c-1.1-0.4-1.5-1.1-1.5-2.2c0-5.7,0-11.4,0-17
	c0-2,0.9-3.5,2.8-4.4c5.1-2.5,10.1-5,15.2-7.5c0.8-0.4,1.1-0.9,1.3-1.8c0.6-2.7,0.5-5-1.5-7.2c-1.2-1.3-1.9-3.1-2.6-4.8
	c-0.3-0.6-0.6-1-1.3-1.3c-1.4-0.5-2.1-1.6-2.1-3c0-1.9,0-3.8,0-5.6c0-0.6,0-1.2,0.4-1.6c1.1-1.1,0.9-2.5,1.1-3.8
	c0.8-8,7.5-14,15.6-14.2c3.9-0.1,7.7,0.4,11,2.7c4.6,3.1,6.8,7.5,7.1,13c0,0.4-0.1,0.9,0.2,1.2c1.3,1.3,1.1,3,1.1,4.6
	c0,1.2,0,2.5,0,3.7c0,1.5-0.7,2.6-2.1,3.1c-0.7,0.3-1.1,0.7-1.4,1.4c-1,2.5-2.3,4.7-4,6.8c-0.1,0.1-0.1,0.2-0.2,0.3"/>
<path class="st1" d="M45.4,53.6c1.3,1,2.5,2.1,3.8,3.1c0.6,0.5,1.1,0.6,1.7,0c1.2-1.1,2.4-2,3.6-3"/>
<path class="st0" d="M47.6,61.2c-1.7,9.9-3.4,19.8-5.1,29.8c-0.2,0.9,0.1,1.6,0.8,2.2c1.9,1.7,3.9,3.5,5.8,5.3
	c0.7,0.7,1.2,0.7,1.9,0c1.9-1.8,3.9-3.6,5.9-5.4c0.5-0.4,0.9-0.9,0.8-1.6c-0.6-3.5-1.2-7-1.8-10.6c-1.1-6.5-2.2-13.1-3.4-19.6
	L47.6,61.2z"/>
<g class="st2">
	<circle class="st3" cx="43.5" cy="28" r="3.5"/>
	<circle class="st3" cx="56.5" cy="28" r="3.5"/>
</g>
<line class="st4" x1="60.5" y1="65.3" x2="73.4" y2="63.4"/>
<path class="st5" d="M60.7,42c-2.2,3.6-6.2,6-10.7,6c-4.6,0-8.6-2.5-10.8-6.1"/>
<path class="st6" d="M113.3,31.1c0.2-4.6-2.5-9.1-6.5-11.4c-3.3-1.9-6.9-1.8-10.5-1.5c-6.1,0.5-11.3,6.5-11.1,12.8"/>
<path class="st7" d="M33.5,18.1c0.5-2.1,1.1-4,2.5-5.6c1.3-1.5,2-1.5,3.5-0.2c2.8,2.4,6,3.8,9.8,4c4.4,0.2,8.2-1.2,11.4-4.1
	c1.3-1.1,2.1-1.1,3.3,0.2c0.6,0.7,1.1,1.5,1.5,2.3c0.7,1.6,1.1,3.3,1.4,5.2"/>
</svg>
