<?xml version="1.0" encoding="utf-8"?>
<!-- Generator: Adobe Illustrator 23.0.3, SVG Export Plug-In . SVG Version: 6.00 Build 0)  -->
<svg version="1.1" id="Layer_1" xmlns="http://www.w3.org/2000/svg" xmlns:xlink="http://www.w3.org/1999/xlink" x="0px" y="0px"
	 viewBox="0 0 100 100" style="enable-background:new 0 0 100 100;" xml:space="preserve">
<style type="text/css">
	.st0{fill:none;stroke:#000000;stroke-width:2;stroke-linecap:round;stroke-linejoin:round;stroke-miterlimit:10;}
	.st1{fill:none;stroke:#000000;stroke-width:2;stroke-miterlimit:10;}
</style>
<path class="st0" d="M47.4,14.5c6.3-0.4,12.4,0.6,18.2,3.1"/>
<path class="st1" d="M21.4,80.3c-1.6-1.7-3-3.5-4.3-5.4c-3.4-5.2-5.4-10.8-6.1-17C9.8,45.7,13.6,35.1,22,26.2c1.8-2,3.9-3.6,6.1-5.1
	"/>
<path class="st1" d="M51.6,92.6l-1.6-3c-0.3-0.8-0.5-1.6-0.4-2.4c0.1-1.4,0.8-2.5,1.9-3.4c1.4-1.1,1.6-3.5,0.4-4.8
	c-0.6-0.7-1.3-1.3-1.8-2c-1.5-1.8-1.6-4-0.3-6c0.1-0.1,0.2-0.3,0.3-0.4c1.1-1.7,0.6-3.2-1.3-3.9c-1.4-0.5-2.8-1-4.2-1.4
	c-1.4-0.4-2.3-1.1-3-2.4c-1-1.8-2.1-3.6-3.1-5.4c-0.6-1.1-1.2-1.1-1.9,0c-0.2,0.4-0.4,0.7-0.7,1.1c-1,1.5-2.7,2-4.3,1.3
	c-1.5-0.6-2.3-2.2-1.9-3.9c0.6-2.5,1.3-5,2-7.5c0.3-1,0.9-1.6,1.8-2.1c1.2-0.6,2.3-1.2,3.5-1.8c0.7-0.4,0.9-0.8,0.5-1.6
	c-0.4-0.9-1.1-1.5-2.1-1.7c-0.7-0.1-1.4-0.2-2-0.3c-1.3-0.2-2.6-0.6-3.7-1.4c-1.5-1-3.1-1.9-4.7-2.8c-1.9-1.1-3.3-2.6-3.9-4.7
	c0,0-1-2.5-1-3.4"/>
<path class="st0" d="M70.5,20.2c2.7,1.6,5.1,3.5,7.2,5.7c5.2,5.3,8.6,11.5,10.4,18.7c4.2,17.6-4.5,36.1-20.8,44.1
	c-4.3,2.1-8.7,3.4-13.5,3.9c-0.1,0-0.3,0.1-0.4,0.1c-2.3,0-4.6,0-6.8,0c-2-0.3-4-0.6-5.9-1C35,90.2,29.9,87.7,25.4,84"/>
<path class="st1" d="M80.1,29.2l-1.4,2.9c-0.9,1.7-2.2,2.7-4.2,2.9c-0.9,0.1-1.5,0.6-1.9,1.4c-0.4,0.6-0.7,1.3-1.1,2
	c-1.1,2.3-2.9,3.3-5.5,3.2c-0.7,0-1.5-0.1-2.2,0.1c-2.5,0.7-3.9,2.3-4.3,4.8c-0.4,2.7-1.4,5-3.2,7.1c-0.7,0.8-1.2,1.6-1.8,2.4
	c-0.5,0.7-0.4,1.1,0.2,1.6c0.8,0.6,1.6,1.2,2.4,1.7l3.5,2"/>
<path class="st1" d="M76.5,67l3.3,2.3c1.3,0.9,2.5,1.9,3.7,2.8"/>
<path class="st1" d="M60.4,61.2c0.1,0.6,0.1,1.2,0.2,1.7c0.8,4.8,3.4,8.6,6.5,12.1c0.9,1,2.4,1,3.4,0c3.3-3.6,5.9-7.6,6.6-12.5
	c0.7-5-2.7-9.6-7.5-9.9C64.5,52.2,60.5,56,60.4,61.2z"/>
<path class="st1" d="M47.3,16c0-2.5-1.6-5.6-4.6-7.3c-3.1-1.8-6.3-1.8-9.5,0c-3.7,2.1-5.4,6.5-4.4,11.1c1.1,4.8,3.7,8.8,6.9,12.5
	c1.4,1.6,2.9,1.6,4.4,0c1.7-1.9,3.2-3.8,4.4-6C46,23.4,47.2,20.4,47.3,16z"/>
<path class="st1" d="M63.7,61.9c0-2.9,2.3-5.2,5.2-5.2c2.8,0,5.1,2.4,5.1,5.2c0,2.9-2.4,5.2-5.3,5.2C65.9,67.1,63.7,64.8,63.7,61.9z
	"/>
<path class="st1" d="M43.7,17.9c0,3.2-2.7,5.8-5.8,5.8c-3.2-0.1-5.9-2.8-5.8-5.9c0.1-3.1,2.7-5.8,5.9-5.8
	C41.1,11.9,43.7,14.6,43.7,17.9z"/>
</svg>
