<?xml version="1.0" encoding="utf-8"?>
<!-- Generator: Adobe Illustrator 23.0.3, SVG Export Plug-In . SVG Version: 6.00 Build 0)  -->
<svg version="1.1" id="Layer_1" xmlns="http://www.w3.org/2000/svg" xmlns:xlink="http://www.w3.org/1999/xlink" x="0px" y="0px"
	 viewBox="0 0 100 100" style="enable-background:new 0 0 100 100;" xml:space="preserve">
<style type="text/css">
	.st0{fill:none;stroke:#000000;stroke-width:2;stroke-miterlimit:10;}
	.st1{font-family:'MyriadPro-Regular';}
	.st2{font-size:28.728px;}
	.st3{fill:none;stroke:#000000;stroke-miterlimit:10;}
</style>
<g>
	<path class="st0" d="M41.5,54.1H14.2c-2.1,0-3.9-1.7-3.9-3.9V13.5c0-2.1,1.7-3.9,3.9-3.9h36.7c2.1,0,3.9,1.7,3.9,3.9v27"/>
	<path class="st0" d="M74.9,45.4h11.4c2.1,0,3.9,1.7,3.9,3.9V86c0,2.1-1.7,3.9-3.9,3.9H49.6c-2.1,0-3.9-1.7-3.9-3.9V49.3
		c0-2.1,1.7-3.9,3.9-3.9h21.4"/>
	<line class="st0" x1="19.8" y1="23.2" x2="44.4" y2="23.2"/>
	<path class="st0" d="M39.7,23.2c0,0-4.3,12.9-15.6,20.3"/>
	<path class="st0" d="M25.7,27.1c0,0,3.9,10.9,14.1,15.8"/>
	<text transform="matrix(1 0 0 1 59.2256 78.0303)" class="st1 st2">A</text>
	<g>
		<g>
			<path class="st3" d="M68.7,21.1c4.1,1.5,8.2,5.4,7,15.8"/>
			<g>
				<polygon points="61.7,20.5 71.1,25.7 69.2,21.4 72.1,17.6 				"/>
			</g>
		</g>
	</g>
	<g>
		<g>
			<path class="st3" d="M30,77.1c-4.1-1.5-8.2-5.4-7-15.8"/>
			<g>
				<polygon points="37,77.8 27.6,72.5 29.5,76.8 26.6,80.6 				"/>
			</g>
		</g>
	</g>
</g>
</svg>
