<?xml version="1.0" encoding="utf-8"?>
<!-- Generator: Adobe Illustrator 23.0.3, SVG Export Plug-In . SVG Version: 6.00 Build 0)  -->
<svg version="1.1" id="Layer_1" xmlns="http://www.w3.org/2000/svg" xmlns:xlink="http://www.w3.org/1999/xlink" x="0px" y="0px"
	 viewBox="0 0 100 100" style="enable-background:new 0 0 100 100;" xml:space="preserve">
<style type="text/css">
	.st0{fill:none;stroke:#000000;stroke-width:2;stroke-miterlimit:10;}
	.st1{fill:none;stroke:#000000;stroke-width:2.52;stroke-linecap:round;stroke-miterlimit:10;}
</style>
<g>
	<path class="st0" d="M31,48.8c0.1-10.6,8.8-18.9,19.5-18.7c10.4,0.2,18.6,8.8,18.5,19.3C69,60,60.3,68.3,49.6,68.1
		C39.1,67.9,30.9,59.3,31,48.8z M45.1,40.9c-1.9-0.4-2,0.5-2,1.5c0,4.4,0,8.9,0,13.3c0,1.8,0.8,2.3,2.4,1.5
		c4.5-2.3,9.1-4.5,13.6-6.8c0.8-0.4,1.9-1.2,0.5-2C54.7,45.6,49.7,43.2,45.1,40.9z"/>
	<path class="st1" d="M26.7,66.6c-3.7-4.9-5.9-11-5.9-17.6c0-6.6,2.2-12.7,5.9-17.6"/>
	<path class="st1" d="M73.3,31.3c3.7,4.9,5.9,11,5.9,17.6c0,6.6-2.2,12.7-5.9,17.6"/>
	<path class="st1" d="M16.2,72.1C11.7,65.5,9.1,57.6,9.1,49c0-8.5,2.6-16.4,7-22.9"/>
	<path class="st1" d="M83.9,26.1c4.4,6.5,7,14.4,7,22.9c0,8.5-2.6,16.3-7,22.9"/>
</g>
</svg>
