<?xml version="1.0" encoding="utf-8"?>
<!-- Generator: Adobe Illustrator 23.0.3, SVG Export Plug-In . SVG Version: 6.00 Build 0)  -->
<svg version="1.1" id="Layer_1" xmlns="http://www.w3.org/2000/svg" xmlns:xlink="http://www.w3.org/1999/xlink" x="0px" y="0px"
	 viewBox="0 0 100 100" style="enable-background:new 0 0 100 100;" xml:space="preserve">
<style type="text/css">
	.st0{fill:none;stroke:#000000;stroke-width:2;stroke-linecap:round;stroke-linejoin:round;stroke-miterlimit:10;}
</style>
<g>
	<polyline class="st0" points="88.1,81.3 88.1,88.2 10.9,88.2 10.9,46.8 88.1,46.8 88.1,71.4 	"/>
	<polyline class="st0" points="14,46 72,28 80,46 	"/>
	<polyline class="st0" points="13,46 49,13 65,30 	"/>
	<g>
		<path d="M48.3,81.5V78c-2,0-4-0.6-5.2-1.5l0.8-2.3c1.2,0.8,3,1.5,4.9,1.5c2.4,0,4-1.4,4-3.3c0-1.9-1.3-3-3.8-4
			c-3.5-1.4-5.6-2.9-5.6-5.9c0-2.8,2-5,5.1-5.5v-3.4h2.1v3.3c2,0.1,3.4,0.6,4.4,1.2l-0.9,2.2c-0.7-0.4-2.1-1.2-4.3-1.2
			c-2.6,0-3.6,1.6-3.6,2.9c0,1.8,1.3,2.7,4.2,3.9c3.5,1.4,5.3,3.2,5.3,6.2c0,2.7-1.9,5.2-5.4,5.8v3.5H48.3z"/>
	</g>
</g>
</svg>
