<?xml version="1.0" encoding="utf-8"?>
<!-- Generator: Adobe Illustrator 23.0.3, SVG Export Plug-In . SVG Version: 6.00 Build 0)  -->
<svg version="1.1" id="Layer_1" xmlns="http://www.w3.org/2000/svg" xmlns:xlink="http://www.w3.org/1999/xlink" x="0px" y="0px"
	 viewBox="0 0 100 100" style="enable-background:new 0 0 100 100;" xml:space="preserve">
<style type="text/css">
	.st0{fill:none;stroke:#000000;stroke-width:2;stroke-miterlimit:10;}
</style>
<g>
	<path class="st0" d="M69.8,22.3c-0.5,0.2-1.7,0.7-3.1,1c-1.8,0.4-2.1,1.4-1.5,3c2.5,7.3,5,14.6,7.5,22c0.6,1.8,1.6,2.3,3.3,1.5
		c0.9-0.4,1.8-0.7,2.7-0.9c1.5-0.4,2-1.2,1.5-2.7c-2.6-7.5-5.1-15-7.7-22.6C72.2,22.7,71.9,21.7,69.8,22.3z"/>
	<g>
		<path class="st0" d="M66.8,30.2l-6,2.6c-4.6,1.9-9.1-0.4-13.6-0.8c-7.9-0.7-15.4-0.1-21.7,5.6c-3.3,3-6.9,5.5-10.3,8.3
			c-0.8,0.7-2.6,1.3-1.8,2.5c0.8,1.3,2.1,0,3-0.5c5.2-2.8,10.4-5.5,15.5-8.4c1.9-1.1,3.6-1.2,5.6-0.3c3.7,1.6,7.6,3.1,11.4,4.6
			c1,0.4,2.1,0.8,1.9,2.1c-0.2,1.1-1.2,1.4-2.1,1.6c-2.3,0.4-4.5,0.8-6.8,1.3c-1.4,0.3-2.9,0.8-2.6,2.6c0.3,1.9,1.9,1.9,3.5,1.6
			c7-1.4,14.1-2.2,20.9-4.3"/>
		<path class="st0" d="M7.2,73.9c6.4-0.3,12.8-0.4,19.2,0c1.2,0.1,2.1,0.9,3,1.6c2.9,2.2,5.8,4.6,8.8,6.7c4.7,3.3,10.3,3.2,15-0.1
			c1.3-0.9,2.7-1.7,3.7-2.9c3.7-3.9,8.2-5.6,13.2-5.7h22.5"/>
		<path class="st0" d="M36.5,62c0,2.6-1.9,5.5-3.7,5.5c-1.7,0-3.8-2.9-3.8-5.4c0-2.6,2-5.5,3.7-5.5C34.6,56.5,36.5,59.3,36.5,62z"/>
		<path class="st0" d="M50.2,73.4c0,2.8-1.8,5.5-3.7,5.4c-1.7-0.1-3.7-3-3.7-5.6c0-2.6,2-5.4,3.8-5.4C48.5,67.9,50.3,70.6,50.2,73.4
			z"/>
		<line class="st0" x1="73.5" y1="26.5" x2="82.5" y2="22.5"/>
		<line class="st0" x1="78.5" y1="42.5" x2="83.5" y2="41.5"/>
	</g>
</g>
</svg>
