<?xml version="1.0" encoding="utf-8"?>
<!-- Generator: Adobe Illustrator 23.0.3, SVG Export Plug-In . SVG Version: 6.00 Build 0)  -->
<svg version="1.1" id="Layer_1" xmlns="http://www.w3.org/2000/svg" xmlns:xlink="http://www.w3.org/1999/xlink" x="0px" y="0px"
	 viewBox="0 0 100 100" style="enable-background:new 0 0 100 100;" xml:space="preserve">
<style type="text/css">
	.st0{fill:none;stroke:#000000;stroke-width:2;stroke-miterlimit:10;}
</style>
<g>
	<path class="st0" d="M51.5,31.2c-13.1,0-22,11-19.2,23.6c0.5,2.5,0.1,4.2-1.7,6c-6,5.9-11.8,12-17.7,18.1c-3.5,3.6-3.8,7.3-1,10.1
		c2.6,2.7,6.3,2.5,9.9-0.5c6-5.2,12.2-10.3,18-15.7c2.6-2.4,5.1-3,8.6-2.3c11.8,2.3,23.5-9.3,21.7-21.2c-0.3-2.3-1.1-3-3.1-1.2
		c-3.6,3.2-7.2,6.2-10.8,9.3c-0.9,0.8-1.9,1.9-3.1,1.3c-2.9-1.5-6.2-2.4-7.5-6c-1.4-3.8-1.4-7,2.3-9.7c2.2-1.6,4.1-3.6,6-5.6
		c1.5-1.5,4.6-2.8,3.9-4.5C56.7,30.7,53.4,31.3,51.5,31.2z"/>
	<path class="st0" d="M21.6,58.7c-0.2-0.5-0.4-0.7-1-0.7c-2.3,0-4.6,0-6.9,0c-1.5,0-2.1-0.6-2.1-2.1c0-2.1,0-4.2,0-6.2
		c0-2.1,0-4.2,0-6.3c0-1.3,0.7-2,1.9-2c2.4,0,4.8,0,7.2,0c0.6,0,0.9-0.2,1.1-0.8c0.5-1.6,1.1-3.1,1.9-4.5c0.2-0.4,0.2-0.7-0.1-1
		c-1.8-1.8-3.7-3.7-5.5-5.5c-1.1-1.1-1.1-2.1,0.1-3.2c2.1-2.1,4.1-4.2,6.2-6.2c0.8-0.8,1.6-1.7,2.5-2.5c0.9-0.9,1.9-0.8,2.8,0.1
		c1.9,1.8,3.7,3.7,5.5,5.6c0.4,0.4,0.7,0.5,1.3,0.2c1.4-0.8,2.9-1.4,4.5-1.8c0.5-0.2,0.7-0.4,0.7-1c0-2.3,0-4.6,0-6.9
		c0-1.5,0.7-2.2,2.2-2.2c4,0,8.1,0,12.1,0c1.6,0,2.2,0.7,2.2,2.3c0,2.3,0,4.6,0,6.9c0,0.6,0.1,0.8,0.7,1c1.6,0.5,3.2,1.1,4.7,2
		c0.4,0.2,0.6,0.1,0.9-0.2c1.7-1.8,3.5-3.5,5.3-5.2c1-0.9,1.9-0.9,2.9,0.1c2.9,2.9,5.8,5.8,8.8,8.8c1,1,1,2,0,3
		c-1.7,1.7-3.3,3.3-5,5c-0.4,0.3-0.5,0.6-0.2,1.1c0.9,1.5,1.5,3.2,2,4.8c0.2,0.5,0.4,0.7,1,0.7c2.3,0,4.7,0,7,0
		c1.5,0,2.1,0.6,2.1,2.1c0,4.2,0,8.3,0,12.5c0,1.4-0.6,2-2,2c-2.4,0-4.8,0-7.1,0c-0.6,0-0.8,0.2-1,0.7c-0.5,1.6-1.1,3.1-1.9,4.6
		c-0.2,0.4-0.1,0.7,0.2,1c1.6,1.6,3.3,3.3,4.9,4.9c1.1,1.1,1.1,2,0,3.1c-2.8,2.8-5.6,5.6-8.3,8.4c-0.3,0.3-0.6,0.6-1,0.8
		c-0.7,0.4-1.5,0.3-2.2-0.4c-1.6-1.6-3.3-3.2-4.8-4.9c-0.4-0.5-0.8-0.5-1.3-0.2c-1.5,0.8-3.1,1.5-4.8,2c-0.5,0.2-0.7,0.4-0.7,1
		c0,2.3,0,4.6,0,6.9c0,1.5-0.6,2.1-2.1,2.1c-3.4,0-6.7,0-10.1,0c-0.7,0-1.5,0-2.2,0c-1.4,0-2.1-0.7-2.1-2.1c0-2.3,0-4.5,0-6.8"/>
</g>
</svg>
