<?xml version="1.0" encoding="utf-8"?>
<!-- Generator: Adobe Illustrator 23.0.3, SVG Export Plug-In . SVG Version: 6.00 Build 0)  -->
<svg version="1.1" id="Layer_1" xmlns="http://www.w3.org/2000/svg" xmlns:xlink="http://www.w3.org/1999/xlink" x="0px" y="0px"
	 viewBox="0 0 100 100" style="enable-background:new 0 0 100 100;" xml:space="preserve">
<style type="text/css">
	.st0{fill:none;stroke:#000000;stroke-width:1.5;stroke-miterlimit:10;}
	.st1{fill:#231F20;}
	.st2{fill:none;stroke:#000000;stroke-width:2;stroke-miterlimit:10;}
</style>
<g>
	<path class="st0" d="M43.2,55.2C43.2,55.2,43.2,55.2,43.2,55.2c0,5.1,0,10.3,0,15.4c0,2.3-1,2.9-3,1.7c-0.3-0.2-0.6-0.4-0.9-0.6
		c-3.2-2.1-6.3-4.2-9.5-6.2c-1.4-0.9-2.9-0.9-4,0.5c-1.1,1.4-0.4,2.5,0.6,3.6c0.3,0.3,0.6,0.6,1,0.9C33,75.8,39,80.8,44.5,86.3
		c2.7,2.7,6,4.3,9.8,4.7c3.8,0.5,7.6,0.4,11.3,0.1c4.6-0.4,8-3.6,8.1-8c0.3-7.5,0.1-14.9,0.1-22.4c0-1.8-1.1-2.8-2.9-2.8
		c-1.8,0-2.5,1.2-2.6,2.8c-0.1,1.5,0,3-0.1,4.5c0,0.7-0.4,1.4-1.2,1.4c-0.9,0.1-1.3-0.6-1.5-1.4c-0.1-0.7-0.1-1.4-0.1-2
		c0-2,0-3.9,0-5.9c0-1.7-0.9-2.8-2.6-2.8c-1.8,0-2.7,1.1-2.8,2.9c0,0.8,0,1.7,0,2.5c0,1.3,0,2.6-0.1,3.8c-0.1,0.8-0.4,1.5-1.4,1.5
		c-1,0-1.3-0.7-1.3-1.5c0-0.6,0-1.2,0-1.8c0-2.6,0-5.3,0-7.9c0-1.7-0.9-2.9-2.8-2.9c-1.9,0-2.7,1.1-2.8,2.9c-0.1,1.7,0,3.3,0,5
		c0,1.1,0,2.1,0,3.2c0,0.8-0.4,1.5-1.3,1.5c-0.8-0.1-1.1-0.7-1.2-1.4c0-0.5,0-1.1,0-1.6c0-6.8,0-13.6,0-20.4c0-2.4-1.1-3.6-2.9-3.6
		c-1.9,0-2.8,1.1-2.8,3.6C43.2,45.3,43.2,50.2,43.2,55.2z"/>
	<path class="st1" d="M20.9,28.5c0.7,0.4,1.7,0.8,2.8,0.8c1.6,0,2.5-0.8,2.5-2c0-1.1-0.6-1.7-2.2-2.4c-1.9-0.7-3.1-1.7-3.1-3.4
		c0-1.9,1.5-3.2,3.8-3.2c1.2,0,2.1,0.3,2.6,0.6l-0.4,1.3c-0.4-0.2-1.2-0.6-2.3-0.6c-1.6,0-2.2,1-2.2,1.8c0,1.1,0.7,1.7,2.4,2.3
		c2,0.8,3,1.7,3,3.5c0,1.8-1.4,3.4-4.2,3.4c-1.1,0-2.4-0.3-3-0.8L20.9,28.5z"/>
	<path class="st1" d="M31.3,18.4v11.9h-1.5V18.4H31.3z"/>
	<path class="st1" d="M43.1,29.8c-0.7,0.2-2,0.7-3.7,0.7c-1.8,0-3.3-0.5-4.4-1.6c-1-1-1.7-2.6-1.7-4.4c0-3.5,2.5-6.1,6.4-6.1
		c1.4,0,2.5,0.3,3,0.5l-0.4,1.3c-0.6-0.3-1.4-0.5-2.6-0.5c-2.9,0-4.8,1.8-4.8,4.8c0,3,1.8,4.8,4.6,4.8c1,0,1.7-0.1,2-0.3v-3.5h-2.4
		v-1.2h3.9V29.8z"/>
	<path class="st1" d="M45.4,30.3V18.4h1.7l3.8,6c0.9,1.4,1.6,2.6,2.1,3.9l0,0c-0.1-1.6-0.2-3-0.2-4.9v-5h1.4v11.9h-1.6l-3.8-6
		c-0.8-1.3-1.6-2.7-2.2-4l-0.1,0c0.1,1.5,0.1,2.9,0.1,4.9v5.1H45.4z"/>
	<path class="st1" d="M62.3,18.4v7c0,2.7,1.2,3.8,2.8,3.8c1.8,0,2.9-1.2,2.9-3.8v-7h1.6v6.9c0,3.7-1.9,5.2-4.5,5.2
		c-2.4,0-4.3-1.4-4.3-5.1v-7H62.3z"/>
	<path class="st1" d="M72.2,18.6c0.7-0.1,1.7-0.2,2.9-0.2c1.5,0,2.6,0.4,3.3,1c0.7,0.6,1,1.4,1,2.5c0,1.1-0.3,1.9-0.9,2.5
		c-0.8,0.9-2.1,1.3-3.6,1.3c-0.5,0-0.9,0-1.2-0.1v4.8h-1.5V18.6z M73.7,24.3c0.3,0.1,0.8,0.1,1.3,0.1c1.9,0,3-0.9,3-2.5
		c0-1.6-1.1-2.3-2.8-2.3c-0.7,0-1.2,0.1-1.4,0.1V24.3z"/>
	<path class="st2" d="M38.6,41.7H20.3c-5.7,0-10.4-4.6-10.4-10.4V19c0-5.7,4.6-10.4,10.4-10.4h59.4c5.7,0,10.4,4.6,10.4,10.4v12.3
		c0,5.7-4.6,10.4-10.4,10.4H53.3"/>
</g>
</svg>
