<?xml version="1.0" encoding="utf-8"?>
<!-- Generator: Adobe Illustrator 23.0.3, SVG Export Plug-In . SVG Version: 6.00 Build 0)  -->
<svg version="1.1" id="Layer_1" xmlns="http://www.w3.org/2000/svg" xmlns:xlink="http://www.w3.org/1999/xlink" x="0px" y="0px"
	 viewBox="0 0 100 100" style="enable-background:new 0 0 100 100;" xml:space="preserve">
<style type="text/css">
	.st0{display:none;fill:none;stroke:#000000;stroke-miterlimit:10;}
	.st1{fill:none;stroke:#000000;stroke-width:2;stroke-miterlimit:10;}
</style>
<path class="st0" d="M83.8,24.2c0.1,0.8-0.3,1.6-0.7,2.3c-1.2,2.1-2.3,4.2-3.5,6.3c-0.1,0.2-0.1,0.3,0,0.4c0.9,1.6,1.7,3.3,2.4,5
	c0.4,1.1,0.8,2.2,1.1,3.4c0.1,0.2,0.1,0.4,0.4,0.4c1.6,0.4,3.1,0.9,4.7,1.3c0.9,0.3,1.8,0.5,2.7,0.8c1.8,0.6,2.8,2.1,2.8,3.9
	c0,1.7,0,3.3,0,5c0,2-1.2,3.5-3.1,4.1c-2.3,0.7-4.7,1.3-7,2c-0.3,0.1-0.4,0.2-0.5,0.5c-0.7,2.4-1.6,4.8-2.7,7
	c-0.2,0.4-0.5,0.8-0.7,1.3c-0.1,0.2-0.1,0.3,0,0.5c1,1.8,2,3.6,3,5.4c0.3,0.6,0.7,1.2,1,1.9c0.5,1.7,0.2,3.1-1.1,4.3
	c-1.2,1.2-2.4,2.4-3.7,3.6c-1.2,1.1-3,1.5-4.5,0.7c-1.8-0.9-3.5-1.9-5.2-2.9c-0.5-0.3-1.1-0.6-1.6-0.9c-0.2-0.1-0.4-0.1-0.6,0
	c-2.3,1.4-4.8,2.4-7.3,3.2c-0.3,0.1-0.6,0.2-0.9,0.3c-0.3,0.1-0.4,0.2-0.5,0.5c-0.4,1.4-0.8,2.7-1.1,4.1c-0.3,1.1-0.6,2.2-0.9,3.2
	c-0.5,1.6-2.1,2.8-3.8,2.8c-1.7,0-3.4,0-5.1,0c-2,0.1-3.7-1.3-4.2-3.3c-0.6-2.2-1.2-4.3-1.8-6.5c-0.2-0.6-0.5-0.8-1.1-1
	c-1.9-0.5-3.7-1.2-5.5-2.1c-0.8-0.4-1.6-0.8-2.4-1.3c-0.2-0.1-0.3-0.1-0.5,0c-2.1,1.2-4.2,2.3-6.2,3.5c-1.9,1.1-3.9,0.9-5.4-0.7
	c-1.2-1.2-2.3-2.3-3.5-3.5c-1.2-1.2-1.4-3.3-0.6-4.8c1.2-2.2,2.4-4.4,3.7-6.6c0.1-0.2,0.1-0.3,0-0.5c-1.3-2.2-2.3-4.5-3.1-6.9
	c-0.2-0.5-0.3-0.9-0.4-1.4c-0.1-0.3-0.3-0.4-0.5-0.5c-1.3-0.4-2.6-0.7-3.9-1.1c-1.2-0.3-2.4-0.6-3.5-1.1c-1.6-0.6-2.6-2.1-2.6-3.8
	c0-1.7,0-3.4,0-5.1c0-1.9,1.3-3.5,3.1-4c1.8-0.5,3.6-1,5.4-1.5c0.6-0.2,1.1-0.3,1.7-0.5c0.3-0.1,0.4-0.2,0.5-0.5
	c0.3-1.3,0.8-2.5,1.3-3.7c0.6-1.5,1.3-3,2.2-4.5c0.1-0.2,0.1-0.4,0-0.6c-1.2-2.1-2.4-4.3-3.6-6.4c-1-1.7-0.7-3.7,0.7-5.1
	c1.1-1.1,2.3-2.2,3.4-3.4c1.2-1.3,3.3-1.9,5.3-0.8c2.1,1.2,4.2,2.4,6.3,3.6c0.2,0.1,0.3,0.1,0.5,0c2.1-1.2,4.3-2.2,6.6-2.9
	c0.6-0.2,1.3-0.4,1.9-0.5c0.3-0.1,0.3-0.2,0.4-0.4c0.7-2.5,1.4-5,2.1-7.5c0.4-1.5,2.1-2.7,3.7-2.7c1.8,0,3.6,0,5.4,0
	c1.8,0,3.4,1.2,3.9,3c0.6,2.2,1.2,4.3,1.8,6.5c0,0,0,0,0,0.1c0,0.8,0.5,1,1.2,1.2c2.7,0.7,5.3,1.9,7.8,3.3c0.3,0.1,0.4,0.1,0.7,0
	c2.2-1.2,4.4-2.5,6.6-3.7c1.4-0.8,3.3-0.5,4.5,0.6c1.4,1.3,2.8,2.7,4.1,4C83.5,22.2,83.8,23.1,83.8,24.2z"/>
<g>
	<path class="st1" d="M91.5,50.7c0-1,0-1.7,0-2.5c0-1-0.5-1.7-1.3-2c-1.4-0.4-2.8-0.8-4.2-1.2c-1.3-0.4-2.5-0.7-3.8-1.1
		c-0.6-0.2-0.9-0.5-1-1.1c-0.1-0.6-0.3-1.2-0.5-1.8c-0.8-2.6-1.9-5-3.3-7.3c-0.3-0.4-0.3-0.9,0-1.3c1.3-2.3,2.6-4.6,3.9-6.9
		c0.7-1.3,0.6-1.9-0.4-2.9c-1.1-1.1-2.1-2.2-3.3-3.2c-0.7-0.7-1.5-0.8-2.4-0.4c-0.6,0.3-1.3,0.7-1.9,1.1c-1.7,1-3.4,1.9-5.1,2.9
		c-0.5,0.3-1,0.3-1.5,0c-1.4-0.9-2.9-1.6-4.5-2.3c-1.5-0.6-3.1-1.1-4.7-1.5c-0.6-0.1-0.9-0.5-1.1-1.1c-0.7-2.6-1.5-5.2-2.2-7.8
		c-0.3-0.9-1-1.5-1.9-1.5c-1.6,0-3.2,0-4.9,0c-1,0-1.7,0.5-2,1.6c-0.7,2.6-1.5,5.3-2.2,7.9c-0.1,0.4-0.4,0.7-0.8,0.8
		c-0.5,0.1-1,0.3-1.5,0.4c-2.8,0.8-5.5,2-8,3.5c-0.5,0.3-0.9,0.3-1.4,0c-1-0.6-2.1-1.2-3.1-1.8c-1.4-0.8-2.8-1.6-4.2-2.3
		c-0.7-0.4-1.6-0.2-2.2,0.3c-1.2,1.1-2.3,2.3-3.5,3.5c-0.8,0.8-0.9,1.6-0.3,2.6c1.3,2.4,2.6,4.7,3.9,7.1c0.3,0.5,0.2,0.9,0,1.4
		c-0.9,1.5-1.7,3-2.3,4.6c-0.6,1.4-1.1,2.9-1.4,4.4c-0.1,0.6-0.4,1-1,1.1c-0.6,0.2-1.2,0.3-1.8,0.5c-2,0.6-4.1,1.2-6.1,1.8
		c-0.8,0.2-1.4,1-1.4,1.9c0,1.7,0,3.4,0,5c0,0.8,0.4,1.5,1.2,1.7c0.9,0.3,1.8,0.5,2.7,0.8c1.8,0.5,3.7,1.1,5.5,1.6
		c0.5,0.1,0.8,0.5,0.9,1c0.1,0.3,0.2,0.6,0.3,1c0.8,2.9,1.9,5.6,3.5,8.1c0.3,0.6,0.4,1.1,0,1.6c-0.8,1.4-1.5,2.7-2.3,4.1
		c-0.6,1.1-1.2,2.2-1.8,3.3c-0.3,0.6-0.3,1.4,0.3,1.9c1.2,1.3,2.4,2.5,3.7,3.7c0.6,0.6,1.4,0.8,2.2,0.5c0.3-0.1,0.6-0.3,0.9-0.5
		c2.1-1.2,4.2-2.3,6.3-3.5c0.6-0.4,1.1-0.3,1.7,0c1.4,0.9,3,1.6,4.5,2.3c1.4,0.6,2.9,1.1,4.3,1.4c0.7,0.2,1.1,0.5,1.3,1.2
		c0.2,1,0.6,2,0.8,2.9c0.4,1.5,0.9,3.1,1.3,4.6c0.3,1,1,1.7,2,1.7c1.7,0,3.3,0,5,0c0.9,0,1.5-0.5,1.8-1.3c0.8-2.6,1.5-5.3,2.2-8
		c0.2-0.6,0.5-0.9,1-1c1.2-0.3,2.5-0.6,3.6-1.1c1.9-0.7,3.8-1.6,5.6-2.7c0.5-0.3,0.9-0.3,1.4-0.1c0.6,0.3,1.2,0.7,1.8,1
		c1.8,1,3.7,2.1,5.5,3.1c0.4,0.2,0.8,0.2,1.2,0.2c0.5-0.1,0.8-0.3,1.1-0.6c1.1-1.1,2.2-2.3,3.4-3.4c0.5-0.5,0.8-1.2,0.6-1.9
		c-0.2-0.6-0.6-1.2-0.9-1.8c-1.1-2-2.2-4-3.4-6.1c-0.2-0.4-0.2-0.8,0-1.2c0.6-1,1.2-2,1.7-3.1c1-2,1.7-4.1,2.2-6.3
		c0.1-0.5,0.4-0.8,0.9-0.9c2.6-0.8,5.3-1.5,7.9-2.3c0.8-0.2,1.3-0.8,1.5-1.6C91.5,52.4,91.4,51.5,91.5,50.7z"/>
	<path class="st1" d="M49.6,72.1c12,0,21.4-9.6,21.6-21.1c0.3-12.3-9.7-22.1-21.6-22.1C37.8,29,28,38.4,28.1,50.8
		C28.2,62.5,37.7,72.1,49.6,72.1z"/>
	<path class="st1" d="M43.1,50.6c0-2.1,0-4.2,0-6.4c0-1.6,0.7-2.9,2.2-3.7c1.6-0.9,3.4-0.6,4.9,0.6c1.2,1,2.4,1.9,3.6,2.8
		c1.5,1.2,3.1,2.3,4.6,3.6c2,1.8,1.9,4.7-0.1,6.3c-2.8,2.2-5.6,4.3-8.3,6.5c-1.3,1-2.7,1.2-4.1,0.6c-1.5-0.6-2.3-1.8-2.6-3.4
		c0-0.3-0.1-0.6-0.1-0.9C43.1,54.5,43.1,52.5,43.1,50.6z"/>
</g>
</svg>
