<svg width="24" height="24" viewBox="0 0 24 24" fill="none" xmlns="http://www.w3.org/2000/svg">
<path d="M1 6.0561V4.7087C1 2.81547 2.53477 1.28065 4.42806 1.28065H7.50712C9.40035 1.28065 10.9351 2.81547 10.9351 4.7087V9.38999C10.9351 10.3984 10.1177 11.2158 9.10935 11.2158H4.42806C2.6086 11.2158 1.12019 9.79836 1.00692 8.00748" stroke="white" stroke-width="1.5" stroke-miterlimit="10" stroke-linecap="round" stroke-linejoin="round"/>
<path d="M19.5719 11.2158H14.8906C13.8822 11.2158 13.0648 10.3984 13.0648 9.39005V4.7087C13.0648 2.81547 14.5996 1.2807 16.4928 1.2807H19.5719C21.4652 1.2807 23 2.81547 23 4.7087V7.78776C23 9.68105 21.4652 11.2158 19.5719 11.2158Z" stroke="white" stroke-width="1.5" stroke-miterlimit="10" stroke-linecap="round" stroke-linejoin="round"/>
<path d="M7.50712 23.0312H4.428C2.53477 23.0312 1 21.4965 1 19.6032V16.5241C1 14.6309 2.53477 13.0961 4.428 13.0961H9.10935C10.1177 13.0961 10.9351 13.9135 10.9351 14.9219V19.6032C10.9351 21.4965 9.40035 23.0312 7.50712 23.0312Z" stroke="white" stroke-width="1.5" stroke-miterlimit="10" stroke-linecap="round" stroke-linejoin="round"/>
<path d="M18 15V21" stroke="white" stroke-width="0.943073" stroke-miterlimit="10" stroke-linecap="round" stroke-linejoin="round"/>
<path d="M21 18L15 18" stroke="white" stroke-width="0.943073" stroke-miterlimit="10" stroke-linecap="round" stroke-linejoin="round"/>
</svg>
