<?xml version="1.0" encoding="utf-8"?>
<!-- Generator: Adobe Illustrator 24.1.1, SVG Export Plug-In . SVG Version: 6.00 Build 0)  -->
<svg version="1.1" id="Layer_1" xmlns="http://www.w3.org/2000/svg" xmlns:xlink="http://www.w3.org/1999/xlink" x="0px" y="0px"
	 viewBox="0 0 91.48 56" style="enable-background:new 0 0 91.48 56;" xml:space="preserve">
<style type="text/css">
	.st0{fill:#FFFFFF;}
	.st1{clip-path:url(#SVGID_2_);}
	.st2{fill:#F7901E;}
	.st3{fill:#987C2E;}
	.st4{fill:#ED1C24;}
	.st5{fill:#F15622;}
	.st6{fill:#CA2027;}
</style>
<g>
	<g>
		<g>
			<g>
				<path class="st0" d="M40.87,35.54c-1.23-1.64-2.18-3.41-2.83-5.26l-1.11-3.16l-2.44,2.29c-1.46,1.37-2.79,2.33-3.95,2.85h0
					c-1.29,0.59-2.76,0.88-4.35,0.88c-1.89,0-3.54-0.41-5.06-1.26c-1.49-0.83-2.62-1.94-3.42-3.38c-0.83-1.47-1.23-3.14-1.23-5.09
					c0-2.74,0.9-4.98,2.77-6.83c1.86-1.86,4.1-2.76,6.83-2.76c3.09,0,5.84,1.21,8.42,3.69l2.45,2.36l1.12-3.21
					c0.4-1.14,0.91-2.25,1.52-3.32c0.41-0.7,0.84-1.36,1.3-1.98l1.22-1.63l-1.54-1.33c-1.56-1.34-3.32-2.47-5.22-3.34
					c-2.92-1.33-6.01-2.01-9.17-2.01c-3.72,0-7.25,0.92-10.48,2.73c-3.25,1.82-5.79,4.27-7.54,7.28c-1.75,3.01-2.64,6.48-2.64,10.31
					c0,5.92,1.95,10.86,5.79,14.69c3.84,3.82,8.81,5.76,14.78,5.76c3.21,0,6.12-0.55,8.65-1.62c1.87-0.79,3.82-2.04,5.8-3.71
					l1.58-1.33L40.87,35.54z"/>
			</g>
			<g>
				<g>
					<defs>
						<path id="SVGID_1_" d="M79.5,7.7c-4.32-4.34-9.48-6.52-15.48-6.52c-3.96,0-7.66,0.99-11.1,2.99c-2.66,1.54-4.88,3.5-6.65,5.89
							c-0.52,0.7-1,1.43-1.44,2.19c-0.69,1.19-1.25,2.42-1.69,3.68c-0.83,2.36-1.25,4.87-1.25,7.5c0,2.68,0.42,5.2,1.24,7.56
							c0.72,2.07,1.77,4.02,3.14,5.85c0.59,0.79,1.23,1.54,1.94,2.28c4.21,4.4,9.5,6.61,15.87,6.61c6.08,0,11.25-2.14,15.51-6.43
							c4.26-4.29,6.39-9.52,6.39-15.71C85.97,17.34,83.81,12.04,79.5,7.7z M71.36,31.16c-2.01,2.07-4.45,3.1-7.31,3.1
							c-2.53,0-4.77-0.8-6.73-2.39c-2.52-2.04-3.77-4.81-3.77-8.31c0-3.15,1-5.74,3-7.78c2-2.04,4.46-3.06,7.39-3.06
							c2.91,0,5.37,1.05,7.4,3.13c2.03,2.09,3.04,4.64,3.04,7.66C74.37,26.55,73.37,29.1,71.36,31.16z"/>
					</defs>
					<clipPath id="SVGID_2_">
						<use xlink:href="#SVGID_1_"  style="overflow:visible;"/>
					</clipPath>
					<g class="st1">
						<g>
							<g>
								<polygon class="st2" points="43.74,7.94 43.74,0.19 35.98,0.19 								"/>
								<polygon class="st3" points="43.74,15.69 43.74,7.94 35.98,15.69 								"/>
								<polygon class="st3" points="35.98,7.94 43.74,7.94 35.98,0.19 								"/>
								<polygon class="st4" points="35.98,15.69 43.74,7.94 35.98,7.94 								"/>
								<polygon class="st5" points="67,7.94 59.24,7.94 67,15.69 								"/>
								<polygon class="st2" points="67,23.45 67,15.69 59.24,23.45 								"/>
								<polygon class="st4" points="67,31.2 67,23.45 59.24,23.45 								"/>
								<polygon class="st6" points="59.24,23.45 59.24,31.2 67,31.2 								"/>
								<polygon class="st6" points="59.24,7.94 51.49,7.94 51.49,15.69 								"/>
								<polygon class="st2" points="51.49,31.2 59.24,31.2 59.24,23.45 								"/>
								<polygon class="st2" points="43.74,7.94 43.74,15.69 51.49,15.69 								"/>
								<polygon class="st4" points="51.49,7.94 43.74,7.94 51.49,15.69 								"/>
								<polygon class="st4" points="43.74,15.69 43.74,23.45 51.49,15.69 								"/>
								<polygon class="st3" points="43.74,31.2 51.49,31.2 43.74,23.45 								"/>
								<polygon class="st6" points="67,15.69 59.24,7.94 59.24,15.69 								"/>
								<polygon class="st4" points="59.24,23.45 67,15.69 59.24,15.69 								"/>
								<polygon class="st3" points="59.24,15.69 59.24,7.94 51.49,15.69 								"/>
								<polygon class="st2" points="51.49,15.69 59.24,23.45 59.24,15.69 								"/>
								<polygon class="st6" points="51.49,23.45 59.24,23.45 51.49,15.69 								"/>
								<polygon class="st3" points="51.49,23.45 51.49,31.2 59.24,23.45 								"/>
								<polygon class="st2" points="51.49,15.69 43.74,23.45 51.49,23.45 								"/>
								<polygon class="st4" points="43.74,23.45 51.49,31.2 51.49,23.45 								"/>
								<polygon class="st4" points="67,7.94 67,0.19 59.24,0.19 								"/>
								<polygon class="st3" points="59.24,0.19 59.24,7.94 67,7.94 								"/>
								<polygon class="st2" points="51.49,7.94 59.24,7.94 59.24,0.19 								"/>
								<polygon class="st3" points="43.74,7.94 51.49,7.94 43.74,0.19 								"/>
								<polygon class="st3" points="51.49,0.19 51.49,7.94 59.24,0.19 								"/>
								<polygon class="st4" points="43.74,0.19 51.49,7.94 51.49,0.19 								"/>
								<polygon class="st4" points="43.74,15.69 35.98,15.69 35.98,23.45 								"/>
								<polygon class="st6" points="35.98,23.45 43.74,23.45 43.74,15.69 								"/>
								<polygon class="st2" points="43.74,31.2 43.74,23.45 35.98,23.45 								"/>
								<polygon class="st3" points="43.74,38.95 43.74,31.2 35.98,38.95 								"/>
								<polygon class="st3" points="35.98,31.2 43.74,31.2 35.98,23.45 								"/>
								<polygon class="st4" points="35.98,38.95 43.74,31.2 35.98,31.2 								"/>
								<polygon class="st4" points="43.74,38.95 35.98,38.95 35.98,46.7 								"/>
								<polygon class="st6" points="35.98,46.7 43.74,46.7 43.74,38.95 								"/>
								<polygon class="st3" points="67,31.2 59.24,31.2 67,38.95 								"/>
								<polygon class="st5" points="67,46.7 67,38.95 59.24,46.7 								"/>
								<polygon class="st6" points="59.24,31.2 51.49,31.2 51.49,38.95 								"/>
								<polygon class="st6" points="43.74,31.2 43.74,38.95 51.49,38.95 								"/>
								<polygon class="st4" points="51.49,31.2 43.74,31.2 51.49,38.95 								"/>
								<polygon class="st4" points="43.74,38.95 43.74,46.7 51.49,38.95 								"/>
								<polygon class="st2" points="67,38.95 59.24,31.2 59.24,38.95 								"/>
								<polygon class="st4" points="59.24,46.7 67,38.95 59.24,38.95 								"/>
								<polygon class="st3" points="59.24,38.95 59.24,31.2 51.49,38.95 								"/>
								<polygon class="st2" points="51.49,38.95 59.24,46.7 59.24,38.95 								"/>
								<polygon class="st6" points="51.49,46.7 59.24,46.7 51.49,38.95 								"/>
								<polygon class="st2" points="51.49,38.95 43.74,46.7 51.49,46.7 								"/>
							</g>
						</g>
						<g>
							<g>
								<polygon class="st6" points="67,38.95 67,46.7 74.75,38.95 								"/>
								<polygon class="st4" points="67,31.2 67,38.95 74.75,38.95 								"/>
								<polygon class="st3" points="74.75,38.95 74.75,31.2 67,31.2 								"/>
								<polygon class="st2" points="82.5,31.2 74.75,31.2 74.75,38.95 								"/>
								<polygon class="st4" points="90.25,46.7 90.25,38.95 82.5,46.7 								"/>
								<polygon class="st3" points="90.25,31.2 82.5,31.2 90.25,38.95 								"/>
								<polygon class="st3" points="74.75,38.95 67,46.7 74.75,46.7 								"/>
								<polygon class="st2" points="82.5,46.7 74.75,38.95 74.75,46.7 								"/>
								<polygon class="st6" points="82.5,38.95 74.75,38.95 82.5,46.7 								"/>
								<polygon class="st3" points="82.5,38.95 82.5,31.2 74.75,38.95 								"/>
								<polygon class="st2" points="82.5,46.7 90.25,38.95 82.5,38.95 								"/>
								<polygon class="st6" points="90.25,38.95 82.5,31.2 82.5,38.95 								"/>
								<polygon class="st4" points="90.25,46.7 98.01,46.7 98.01,38.95 								"/>
								<polygon class="st6" points="98.01,38.95 90.25,38.95 90.25,46.7 								"/>
								<polygon class="st2" points="90.25,31.2 90.25,38.95 98.01,38.95 								"/>
								<polygon class="st3" points="90.25,23.45 90.25,31.2 98.01,23.45 								"/>
								<polygon class="st3" points="98.01,31.2 90.25,31.2 98.01,38.95 								"/>
								<polygon class="st4" points="98.01,23.45 90.25,31.2 98.01,31.2 								"/>
								<polygon class="st4" points="90.25,23.45 98.01,23.45 98.01,15.69 								"/>
								<polygon class="st6" points="98.01,15.69 90.25,15.69 90.25,23.45 								"/>
								<polygon class="st2" points="90.25,7.94 90.25,15.69 98.01,15.69 								"/>
								<polygon class="st3" points="90.25,0.19 90.25,7.94 98.01,0.19 								"/>
								<polygon class="st3" points="98.01,7.94 90.25,7.94 98.01,15.69 								"/>
								<polygon class="st4" points="98.01,0.19 90.25,7.94 98.01,7.94 								"/>
								<polygon class="st2" points="67,31.2 74.75,31.2 67,23.45 								"/>
								<polygon class="st6" points="67,15.69 67,23.45 74.75,15.69 								"/>
								<polygon class="st3" points="67,7.94 67,15.69 74.75,15.69 								"/>
								<polygon class="st6" points="74.75,15.69 74.75,7.94 67,7.94 								"/>
								<polygon class="st6" points="74.75,31.2 82.5,31.2 82.5,23.45 								"/>
								<polygon class="st2" points="82.5,7.94 74.75,7.94 74.75,15.69 								"/>
								<polygon class="st2" points="90.25,31.2 90.25,23.45 82.5,23.45 								"/>
								<polygon class="st4" points="82.5,31.2 90.25,31.2 82.5,23.45 								"/>
								<polygon class="st4" points="90.25,23.45 90.25,15.69 82.5,23.45 								"/>
								<polygon class="st3" points="90.25,7.94 82.5,7.94 90.25,15.69 								"/>
								<polygon class="st6" points="67,23.45 74.75,31.2 74.75,23.45 								"/>
								<polygon class="st4" points="74.75,15.69 67,23.45 74.75,23.45 								"/>
								<polygon class="st3" points="74.75,23.45 74.75,31.2 82.5,23.45 								"/>
								<polygon class="st2" points="82.5,23.45 74.75,15.69 74.75,23.45 								"/>
								<polygon class="st6" points="82.5,15.69 74.75,15.69 82.5,23.45 								"/>
								<polygon class="st3" points="82.5,15.69 82.5,7.94 74.75,15.69 								"/>
								<polygon class="st2" points="82.5,23.45 90.25,15.69 82.5,15.69 								"/>
								<polygon class="st4" points="90.25,15.69 82.5,7.94 82.5,15.69 								"/>
								<polygon class="st5" points="67,7.94 74.75,7.94 67,0.19 								"/>
								<polygon class="st6" points="74.75,7.94 82.5,7.94 82.5,0.19 								"/>
								<polygon class="st2" points="90.25,7.94 90.25,0.19 82.5,0.19 								"/>
								<polygon class="st4" points="82.5,7.94 90.25,7.94 82.5,0.19 								"/>
								<polygon class="st6" points="67,0.19 74.75,7.94 74.75,0.19 								"/>
								<polygon class="st3" points="74.75,0.19 74.75,7.94 82.5,0.19 								"/>
							</g>
						</g>
					</g>
				</g>
			</g>
		</g>
	</g>
	<g>
		<g>
			<g>
				<path class="st0" d="M44.87,54.39c-0.51-0.28-0.91-0.67-1.2-1.17c-0.29-0.5-0.44-1.06-0.44-1.68c0-0.62,0.14-1.18,0.44-1.68
					c0.29-0.5,0.7-0.89,1.21-1.17c0.51-0.28,1.09-0.42,1.73-0.42c0.48,0,0.92,0.08,1.32,0.24c0.41,0.16,0.75,0.39,1.03,0.7
					l-0.43,0.43c-0.5-0.51-1.14-0.76-1.9-0.76c-0.51,0-0.97,0.12-1.39,0.35c-0.42,0.23-0.74,0.55-0.98,0.96
					c-0.23,0.41-0.35,0.86-0.35,1.36s0.12,0.96,0.35,1.36c0.23,0.41,0.56,0.72,0.98,0.96c0.42,0.23,0.88,0.35,1.39,0.35
					c0.77,0,1.41-0.26,1.9-0.77l0.43,0.43c-0.28,0.31-0.63,0.54-1.03,0.7c-0.41,0.16-0.85,0.24-1.33,0.24
					C45.96,54.81,45.39,54.67,44.87,54.39z"/>
				<path class="st0" d="M54.81,54.76l-1.47-2.07c-0.16,0.02-0.34,0.03-0.51,0.03h-1.73v2.04h-0.68v-6.44h2.41
					c0.82,0,1.46,0.2,1.93,0.59c0.47,0.39,0.7,0.93,0.7,1.62c0,0.5-0.13,0.93-0.38,1.27c-0.25,0.35-0.62,0.6-1.09,0.75l1.57,2.21
					L54.81,54.76L54.81,54.76z M54.26,51.72c0.34-0.28,0.51-0.68,0.51-1.19c0-0.52-0.17-0.92-0.51-1.2
					c-0.34-0.28-0.82-0.42-1.46-0.42h-1.71v3.23h1.71C53.44,52.14,53.93,52,54.26,51.72z"/>
				<path class="st0" d="M61.61,54.17v0.59h-4.55v-6.44h4.41v0.59h-3.73v2.29h3.33v0.58h-3.33v2.39H61.61z"/>
				<path class="st0" d="M67.24,53.04h-3.58l-0.77,1.72h-0.71l2.94-6.44h0.67l2.94,6.44h-0.72L67.24,53.04z M67,52.49l-1.54-3.46
					l-1.54,3.46H67z"/>
				<path class="st0" d="M70.73,48.91h-2.26v-0.59h5.2v0.59h-2.26v5.85h-0.68V48.91z"/>
				<path class="st0" d="M78.47,53.04h-3.58l-0.77,1.72H73.4l2.94-6.44h0.67l2.94,6.44h-0.72L78.47,53.04z M78.22,52.49l-1.54-3.46
					l-1.54,3.46H78.22z"/>
				<path class="st0" d="M85.66,54.17v0.59h-5.28v-0.47l4.27-5.38h-4.2v-0.59h5.1v0.47l-4.26,5.38H85.66z"/>
			</g>
		</g>
	</g>
</g>
</svg>
