<?xml version="1.0" encoding="utf-8"?>
<!-- Generator: Adobe Illustrator 24.1.1, SVG Export Plug-In . SVG Version: 6.00 Build 0)  -->
<svg version="1.1" id="Layer_1" xmlns="http://www.w3.org/2000/svg" xmlns:xlink="http://www.w3.org/1999/xlink" x="0px" y="0px"
	 viewBox="0 0 91.5 56" style="enable-background:new 0 0 91.5 56;" xml:space="preserve">
<style type="text/css">
	.st0{clip-path:url(#SVGID_2_);}
	.st1{fill:#F7901E;}
	.st2{fill:#987C2E;}
	.st3{fill:#ED1C24;}
	.st4{fill:#F15622;}
	.st5{fill:#CA2027;}
</style>
<g>
	<g>
		<g>
			<g>
				<path d="M40.9,35.5c-1.2-1.6-2.2-3.4-2.8-5.3l-1.1-3.2l-2.4,2.3c-1.5,1.4-2.8,2.3-4,2.8l0,0c-1.3,0.6-2.8,0.9-4.4,0.9
					c-1.9,0-3.5-0.4-5.1-1.3c-1.5-0.8-2.6-1.9-3.4-3.4c-0.8-1.5-1.2-3.1-1.2-5.1c0-2.7,0.9-5,2.8-6.8c1.9-1.9,4.1-2.8,6.8-2.8
					c3.1,0,5.8,1.2,8.4,3.7l2.5,2.4l1.1-3.2c0.4-1.1,0.9-2.3,1.5-3.3c0.4-0.7,0.8-1.4,1.3-2l1.2-1.6l-1.5-1.3
					c-1.6-1.3-3.3-2.5-5.2-3.3c-2.9-1.3-6-2-9.2-2c-3.7,0-7.3,0.9-10.5,2.7c-3.3,1.8-5.8,4.3-7.5,7.3s-2.6,6.5-2.6,10.3
					c0,5.9,1.9,10.9,5.8,14.7c3.8,3.8,8.8,5.8,14.8,5.8c3.2,0,6.1-0.5,8.6-1.6c1.9-0.8,3.8-2,5.8-3.7l1.6-1.3L40.9,35.5z"/>
			</g>
			<g>
				<g>
					<g>
						<defs>
							<path id="SVGID_1_" d="M79.5,7.7C75.2,3.4,70,1.2,64,1.2c-4,0-7.7,1-11.1,3c-2.7,1.5-4.9,3.5-6.7,5.9c-0.5,0.7-1,1.4-1.4,2.2
								c-0.7,1.2-1.3,2.4-1.7,3.7c-0.8,2.4-1.3,4.9-1.3,7.5c0,2.7,0.4,5.2,1.2,7.6c0.7,2.1,1.8,4,3.1,5.9c0.6,0.8,1.2,1.5,1.9,2.3
								c4.2,4.4,9.5,6.6,15.9,6.6c6.1,0,11.3-2.1,15.5-6.4S86,29.8,86,23.6C86,17.3,83.8,12,79.5,7.7z M71.4,31.2
								c-2,2.1-4.4,3.1-7.3,3.1c-2.5,0-4.8-0.8-6.7-2.4c-2.5-2-3.8-4.8-3.8-8.3c0-3.1,1-5.7,3-7.8s4.5-3.1,7.4-3.1
								c2.9,0,5.4,1.1,7.4,3.1c2,2.1,3,4.6,3,7.7C74.4,26.6,73.4,29.1,71.4,31.2z"/>
						</defs>
						<clipPath id="SVGID_2_">
							<use xlink:href="#SVGID_1_"  style="overflow:visible;"/>
						</clipPath>
						<g class="st0">
							<g>
								<g>
									<polygon class="st1" points="43.7,7.9 43.7,0.2 36,0.2 									"/>
									<polygon class="st2" points="43.7,15.7 43.7,7.9 36,15.7 									"/>
									<polygon class="st2" points="36,7.9 43.7,7.9 36,0.2 									"/>
									<polygon class="st3" points="36,15.7 43.7,7.9 36,7.9 									"/>
									<polygon class="st4" points="67,7.9 59.2,7.9 67,15.7 									"/>
									<polygon class="st1" points="67,23.5 67,15.7 59.2,23.5 									"/>
									<polygon class="st3" points="67,31.2 67,23.5 59.2,23.5 									"/>
									<polygon class="st5" points="59.2,23.5 59.2,31.2 67,31.2 									"/>
									<polygon class="st5" points="59.2,7.9 51.5,7.9 51.5,15.7 									"/>
									<polygon class="st1" points="51.5,31.2 59.2,31.2 59.2,23.5 									"/>
									<polygon class="st1" points="43.7,7.9 43.7,15.7 51.5,15.7 									"/>
									<polygon class="st3" points="51.5,7.9 43.7,7.9 51.5,15.7 									"/>
									<polygon class="st3" points="43.7,15.7 43.7,23.5 51.5,15.7 									"/>
									<polygon class="st2" points="43.7,31.2 51.5,31.2 43.7,23.5 									"/>
									<polygon class="st5" points="67,15.7 59.2,7.9 59.2,15.7 									"/>
									<polygon class="st3" points="59.2,23.5 67,15.7 59.2,15.7 									"/>
									<polygon class="st2" points="59.2,15.7 59.2,7.9 51.5,15.7 									"/>
									<polygon class="st1" points="51.5,15.7 59.2,23.5 59.2,15.7 									"/>
									<polygon class="st5" points="51.5,23.5 59.2,23.5 51.5,15.7 									"/>
									<polygon class="st2" points="51.5,23.5 51.5,31.2 59.2,23.5 									"/>
									<polygon class="st1" points="51.5,15.7 43.7,23.5 51.5,23.5 									"/>
									<polygon class="st3" points="43.7,23.5 51.5,31.2 51.5,23.5 									"/>
									<polygon class="st3" points="67,7.9 67,0.2 59.2,0.2 									"/>
									<polygon class="st2" points="59.2,0.2 59.2,7.9 67,7.9 									"/>
									<polygon class="st1" points="51.5,7.9 59.2,7.9 59.2,0.2 									"/>
									<polygon class="st2" points="43.7,7.9 51.5,7.9 43.7,0.2 									"/>
									<polygon class="st2" points="51.5,0.2 51.5,7.9 59.2,0.2 									"/>
									<polygon class="st3" points="43.7,0.2 51.5,7.9 51.5,0.2 									"/>
									<polygon class="st3" points="43.7,15.7 36,15.7 36,23.5 									"/>
									<polygon class="st5" points="36,23.5 43.7,23.5 43.7,15.7 									"/>
									<polygon class="st1" points="43.7,31.2 43.7,23.5 36,23.5 									"/>
									<polygon class="st2" points="43.7,39 43.7,31.2 36,39 									"/>
									<polygon class="st2" points="36,31.2 43.7,31.2 36,23.5 									"/>
									<polygon class="st3" points="36,39 43.7,31.2 36,31.2 									"/>
									<polygon class="st3" points="43.7,39 36,39 36,46.7 									"/>
									<polygon class="st5" points="36,46.7 43.7,46.7 43.7,39 									"/>
									<polygon class="st2" points="67,31.2 59.2,31.2 67,39 									"/>
									<polygon class="st4" points="67,46.7 67,39 59.2,46.7 									"/>
									<polygon class="st5" points="59.2,31.2 51.5,31.2 51.5,39 									"/>
									<polygon class="st5" points="43.7,31.2 43.7,39 51.5,39 									"/>
									<polygon class="st3" points="51.5,31.2 43.7,31.2 51.5,39 									"/>
									<polygon class="st3" points="43.7,39 43.7,46.7 51.5,39 									"/>
									<polygon class="st1" points="67,39 59.2,31.2 59.2,39 									"/>
									<polygon class="st3" points="59.2,46.7 67,39 59.2,39 									"/>
									<polygon class="st2" points="59.2,39 59.2,31.2 51.5,39 									"/>
									<polygon class="st1" points="51.5,39 59.2,46.7 59.2,39 									"/>
									<polygon class="st5" points="51.5,46.7 59.2,46.7 51.5,39 									"/>
									<polygon class="st1" points="51.5,39 43.7,46.7 51.5,46.7 									"/>
								</g>
							</g>
							<g>
								<g>
									<polygon class="st5" points="67,39 67,46.7 74.8,39 									"/>
									<polygon class="st3" points="67,31.2 67,39 74.8,39 									"/>
									<polygon class="st2" points="74.8,39 74.8,31.2 67,31.2 									"/>
									<polygon class="st1" points="82.5,31.2 74.8,31.2 74.8,39 									"/>
									<polygon class="st3" points="90.3,46.7 90.3,39 82.5,46.7 									"/>
									<polygon class="st2" points="90.3,31.2 82.5,31.2 90.3,39 									"/>
									<polygon class="st2" points="74.8,39 67,46.7 74.8,46.7 									"/>
									<polygon class="st1" points="82.5,46.7 74.8,39 74.8,46.7 									"/>
									<polygon class="st5" points="82.5,39 74.8,39 82.5,46.7 									"/>
									<polygon class="st2" points="82.5,39 82.5,31.2 74.8,39 									"/>
									<polygon class="st1" points="82.5,46.7 90.3,39 82.5,39 									"/>
									<polygon class="st5" points="90.3,39 82.5,31.2 82.5,39 									"/>
									<polygon class="st3" points="90.3,46.7 98,46.7 98,39 									"/>
									<polygon class="st5" points="98,39 90.3,39 90.3,46.7 									"/>
									<polygon class="st1" points="90.3,31.2 90.3,39 98,39 									"/>
									<polygon class="st2" points="90.3,23.5 90.3,31.2 98,23.5 									"/>
									<polygon class="st2" points="98,31.2 90.3,31.2 98,39 									"/>
									<polygon class="st3" points="98,23.5 90.3,31.2 98,31.2 									"/>
									<polygon class="st3" points="90.3,23.5 98,23.5 98,15.7 									"/>
									<polygon class="st5" points="98,15.7 90.3,15.7 90.3,23.5 									"/>
									<polygon class="st1" points="90.3,7.9 90.3,15.7 98,15.7 									"/>
									<polygon class="st2" points="90.3,0.2 90.3,7.9 98,0.2 									"/>
									<polygon class="st2" points="98,7.9 90.3,7.9 98,15.7 									"/>
									<polygon class="st3" points="98,0.2 90.3,7.9 98,7.9 									"/>
									<polygon class="st1" points="67,31.2 74.8,31.2 67,23.5 									"/>
									<polygon class="st5" points="67,15.7 67,23.5 74.8,15.7 									"/>
									<polygon class="st2" points="67,7.9 67,15.7 74.8,15.7 									"/>
									<polygon class="st5" points="74.8,15.7 74.8,7.9 67,7.9 									"/>
									<polygon class="st5" points="74.8,31.2 82.5,31.2 82.5,23.5 									"/>
									<polygon class="st1" points="82.5,7.9 74.8,7.9 74.8,15.7 									"/>
									<polygon class="st1" points="90.3,31.2 90.3,23.5 82.5,23.5 									"/>
									<polygon class="st3" points="82.5,31.2 90.3,31.2 82.5,23.5 									"/>
									<polygon class="st3" points="90.3,23.5 90.3,15.7 82.5,23.5 									"/>
									<polygon class="st2" points="90.3,7.9 82.5,7.9 90.3,15.7 									"/>
									<polygon class="st5" points="67,23.5 74.8,31.2 74.8,23.5 									"/>
									<polygon class="st3" points="74.8,15.7 67,23.5 74.8,23.5 									"/>
									<polygon class="st2" points="74.8,23.5 74.8,31.2 82.5,23.5 									"/>
									<polygon class="st1" points="82.5,23.5 74.8,15.7 74.8,23.5 									"/>
									<polygon class="st5" points="82.5,15.7 74.8,15.7 82.5,23.5 									"/>
									<polygon class="st2" points="82.5,15.7 82.5,7.9 74.8,15.7 									"/>
									<polygon class="st1" points="82.5,23.5 90.3,15.7 82.5,15.7 									"/>
									<polygon class="st3" points="90.3,15.7 82.5,7.9 82.5,15.7 									"/>
									<polygon class="st4" points="67,7.9 74.8,7.9 67,0.2 									"/>
									<polygon class="st5" points="74.8,7.9 82.5,7.9 82.5,0.2 									"/>
									<polygon class="st1" points="90.3,7.9 90.3,0.2 82.5,0.2 									"/>
									<polygon class="st3" points="82.5,7.9 90.3,7.9 82.5,0.2 									"/>
									<polygon class="st5" points="67,0.2 74.8,7.9 74.8,0.2 									"/>
									<polygon class="st2" points="74.8,0.2 74.8,7.9 82.5,0.2 									"/>
								</g>
							</g>
						</g>
					</g>
				</g>
			</g>
		</g>
	</g>
	<g>
		<g>
			<g>
				<path d="M44.9,54.4c-0.5-0.3-0.9-0.7-1.2-1.2s-0.4-1.1-0.4-1.7s0.1-1.2,0.4-1.7c0.3-0.5,0.7-0.9,1.2-1.2s1.1-0.4,1.7-0.4
					c0.5,0,0.9,0.1,1.3,0.2c0.4,0.2,0.8,0.4,1,0.7l-0.4,0.4c-0.5-0.5-1.1-0.8-1.9-0.8c-0.5,0-1,0.1-1.4,0.3s-0.7,0.5-1,1
					c-0.2,0.4-0.3,0.9-0.3,1.4s0.1,1,0.3,1.4c0.2,0.4,0.6,0.7,1,1c0.4,0.2,0.9,0.3,1.4,0.3c0.8,0,1.4-0.3,1.9-0.8l0.4,0.4
					c-0.3,0.3-0.6,0.5-1,0.7c-0.4,0.2-0.8,0.2-1.3,0.2C46,54.8,45.4,54.7,44.9,54.4z"/>
				<path d="M54.8,54.8l-1.5-2.1c-0.2,0-0.3,0-0.5,0h-1.7v2h-0.7v-6.4h2.4c0.8,0,1.5,0.2,1.9,0.6s0.7,0.9,0.7,1.6
					c0,0.5-0.1,0.9-0.4,1.3c-0.3,0.3-0.6,0.6-1.1,0.8l1.6,2.2H54.8L54.8,54.8z M54.3,51.7c0.3-0.3,0.5-0.7,0.5-1.2
					c0-0.5-0.2-0.9-0.5-1.2c-0.3-0.3-0.8-0.4-1.5-0.4h-1.7v3.2h1.7C53.4,52.1,53.9,52,54.3,51.7z"/>
				<path d="M61.6,54.2v0.6h-4.5v-6.4h4.4v0.6h-3.7v2.3h3.3v0.6h-3.3v2.4C57.7,54.2,61.6,54.2,61.6,54.2z"/>
				<path d="M67.2,53h-3.6l-0.8,1.7h-0.7l2.9-6.4h0.7l2.9,6.4H68L67.2,53z M67,52.5L65.5,49l-1.5,3.5H67z"/>
				<path d="M70.7,48.9h-2.3v-0.6h5.2v0.6h-2.3v5.8h-0.7C70.7,54.8,70.7,48.9,70.7,48.9z"/>
				<path d="M78.5,53h-3.6l-0.8,1.7h-0.7l2.9-6.4H77l2.9,6.4h-0.7L78.5,53z M78.2,52.5L76.7,49l-1.5,3.5H78.2z"/>
				<path d="M85.7,54.2v0.6h-5.3v-0.5l4.3-5.4h-4.2v-0.6h5.1v0.5l-4.3,5.4H85.7z"/>
			</g>
		</g>
	</g>
</g>
</svg>
