<svg xmlns="http://www.w3.org/2000/svg" width="30" height="30" fill="none" viewBox="0 0 128 128" id="json">
  <path stroke="#000" stroke-width="5" d="M76 27V41C76 42.6569 77.3431 44 79 44H93"></path>
  <path stroke="#000" stroke-linecap="round" stroke-width="5" d="M35 54.5L35 35C35 30.0294 39.0294 26 44 26H74.0785C75.9108 26 77.6701 26.7184 78.9786 28.0011L88.0509 36.8939L91.1244 40.1967C92.3299 41.4921 93 43.1959 93 44.9654V93C93 97.9706 88.9706 102 84 102H44C39.0294 102 35 97.9706 35 93L35 90"></path>
  <path fill="#000" d="M36.8 75.4798V65.5598C36.8 65.3065 36.9267 65.1732 37.18 65.1598H40.14C40.5 65.1598 40.68 65.3332 40.68 65.6798V75.4798C40.68 76.1332 40.5467 76.7465 40.28 77.3198 40.0267 77.8932 39.6733 78.3998 39.22 78.8398 38.78 79.2665 38.26 79.6065 37.66 79.8598 37.0733 80.0998 36.4533 80.2198 35.8 80.2198 35.0133 80.2198 34.2733 80.0532 33.58 79.7198 32.8867 79.3732 32.32 78.8732 31.88 78.2198 31.8667 78.2065 31.86 78.1532 31.86 78.0598 31.86 77.8732 31.9133 77.7465 32.02 77.6798L33.76 76.0398C33.8133 75.9998 33.8667 75.9665 33.92 75.9398 33.9733 75.8998 34.0333 75.8798 34.1 75.8798 34.1933 75.8798 34.2867 75.9198 34.38 75.9998 34.4733 76.0665 34.5733 76.1465 34.68 76.2398 34.7867 76.3332 34.9133 76.4198 35.06 76.4998 35.2067 76.5665 35.3867 76.5998 35.6 76.5998 35.9067 76.5998 36.18 76.4932 36.42 76.2798 36.6733 76.0532 36.8 75.7865 36.8 75.4798zM45.7725 75.2198C45.8925 75.3132 46.0392 75.4398 46.2125 75.5998 46.3858 75.7465 46.5858 75.8998 46.8125 76.0598 47.1458 76.2865 47.4792 76.4665 47.8125 76.5998 48.1592 76.7198 48.5125 76.7798 48.8725 76.7798 49.5658 76.7798 50.0325 76.6398 50.2725 76.3598 50.5258 76.0798 50.6525 75.7532 50.6525 75.3798 50.6525 75.1665 50.5725 74.9798 50.4125 74.8198 50.2525 74.6598 50.0592 74.5198 49.8325 74.3998 49.6192 74.2665 49.3858 74.1598 49.1325 74.0798 48.8925 73.9865 48.6792 73.9065 48.4925 73.8398 46.8792 73.2798 45.6725 72.6198 44.8725 71.8598 44.0858 71.0998 43.6925 70.1332 43.6925 68.9598 43.6925 68.3332 43.8192 67.7665 44.0725 67.2598 44.3258 66.7532 44.6792 66.3198 45.1325 65.9598 45.5992 65.5998 46.1592 65.3265 46.8125 65.1398 47.4658 64.9398 48.1925 64.8398 48.9925 64.8398 49.5925 64.8398 50.1725 64.9065 50.7325 65.0398 51.3058 65.1732 51.8592 65.3932 52.3925 65.6998 52.8458 65.9665 53.2392 66.2398 53.5725 66.5198 53.9058 66.7998 54.0725 67.0332 54.0725 67.2198 54.0725 67.3398 53.9858 67.4998 53.8125 67.6998L52.2725 69.3398C52.1658 69.4465 52.0525 69.4998 51.9325 69.4998 51.8392 69.4998 51.7525 69.4732 51.6725 69.4198 51.6058 69.3665 51.5258 69.2998 51.4325 69.2198L51.3325 69.1398C51.0658 68.9132 50.7392 68.6932 50.3525 68.4798 49.9792 68.2532 49.5792 68.1398 49.1525 68.1398 48.7125 68.1398 48.3325 68.2132 48.0125 68.3598 47.6925 68.5065 47.5325 68.7732 47.5325 69.1598 47.5325 69.5332 47.7192 69.8198 48.0925 70.0198 48.4658 70.2198 49.0192 70.4398 49.7525 70.6798 50.4592 70.9198 51.1125 71.1665 51.7125 71.4198 52.3125 71.6732 52.8258 71.9798 53.2525 72.3398 53.6925 72.6865 54.0325 73.1065 54.2725 73.5998 54.5125 74.0798 54.6325 74.6665 54.6325 75.3598 54.6325 76.0932 54.4792 76.7598 54.1725 77.3598 53.8792 77.9465 53.4725 78.4532 52.9525 78.8798 52.4325 79.2932 51.8192 79.6198 51.1125 79.8598 50.4058 80.0865 49.6458 80.1998 48.8325 80.1998 48.3125 80.1998 47.7992 80.1332 47.2925 79.9998 46.7858 79.8665 46.2925 79.6865 45.8125 79.4598 45.3458 79.2332 44.9058 78.9665 44.4925 78.6598 44.0792 78.3532 43.7125 78.0198 43.3925 77.6598L43.3525 77.6398C43.3392 77.6132 43.3258 77.5998 43.3125 77.5998 43.2992 77.5865 43.2858 77.5732 43.2725 77.5598 43.1258 77.3998 43.0525 77.2665 43.0525 77.1598 43.0525 77.0532 43.1258 76.9265 43.2725 76.7798L45.0125 75.1198C45.1458 75.0265 45.2592 74.9798 45.3525 74.9798 45.4592 74.9798 45.5992 75.0598 45.7725 75.2198zM60.2175 72.5798C60.2175 73.1398 60.3108 73.6598 60.4975 74.1398 60.6842 74.6198 60.9442 75.0398 61.2775 75.3998 61.6108 75.7465 62.0108 76.0265 62.4775 76.2398 62.9442 76.4398 63.4508 76.5398 63.9975 76.5398 64.5442 76.5398 65.0508 76.4398 65.5175 76.2398 65.9842 76.0265 66.3842 75.7465 66.7175 75.3998 67.0508 75.0398 67.3108 74.6198 67.4975 74.1398 67.6842 73.6598 67.7775 73.1398 67.7775 72.5798 67.7775 72.0332 67.6842 71.5198 67.4975 71.0398 67.3108 70.5598 67.0508 70.1398 66.7175 69.7798 66.3842 69.4198 65.9842 69.1398 65.5175 68.9398 65.0508 68.7265 64.5442 68.6198 63.9975 68.6198 63.4508 68.6198 62.9442 68.7265 62.4775 68.9398 62.0108 69.1398 61.6108 69.4198 61.2775 69.7798 60.9442 70.1398 60.6842 70.5598 60.4975 71.0398 60.3108 71.5198 60.2175 72.0332 60.2175 72.5798zM56.3575 72.5998C56.3575 71.5332 56.5575 70.5398 56.9575 69.6198 57.3575 68.6865 57.8975 67.8732 58.5775 67.1798 59.2708 66.4865 60.0842 65.9398 61.0175 65.5398 61.9508 65.1398 62.9442 64.9398 63.9975 64.9398 65.0508 64.9398 66.0375 65.1398 66.9575 65.5398 67.8908 65.9398 68.7042 66.4865 69.3975 67.1798 70.0908 67.8732 70.6375 68.6865 71.0375 69.6198 71.4375 70.5398 71.6375 71.5332 71.6375 72.5998 71.6375 73.6532 71.4375 74.6465 71.0375 75.5798 70.6375 76.4998 70.0908 77.3065 69.3975 77.9998 68.7042 78.6798 67.8908 79.2198 66.9575 79.6198 66.0375 80.0198 65.0508 80.2198 63.9975 80.2198 62.9442 80.2198 61.9508 80.0198 61.0175 79.6198 60.0842 79.2198 59.2708 78.6798 58.5775 77.9998 57.8975 77.3065 57.3575 76.4998 56.9575 75.5798 56.5575 74.6465 56.3575 73.6532 56.3575 72.5998zM83.0687 79.5598L77.8087 70.9198V79.5598C77.8087 79.8532 77.6487 79.9998 77.3287 79.9998H74.5287C74.2487 79.9998 74.1087 79.8532 74.1087 79.5598V65.5998C74.1087 65.4798 74.1421 65.3798 74.2087 65.2998 74.2754 65.2065 74.3821 65.1598 74.5287 65.1598H77.7687C78.0621 65.1598 78.3021 65.3065 78.4887 65.5998L83.4887 73.6998V65.5998C83.4887 65.4798 83.5287 65.3798 83.6087 65.2998 83.6887 65.2065 83.8021 65.1598 83.9487 65.1598H86.7287C86.8354 65.1598 86.9421 65.1998 87.0487 65.2798 87.1554 65.3598 87.2087 65.4665 87.2087 65.5998V79.5598C87.2087 79.8532 87.0487 79.9998 86.7287 79.9998H83.7887C83.4821 79.9998 83.2421 79.8532 83.0687 79.5598z"></path>
  <path stroke="#000" stroke-width=".5" d="M36.8 75.4798V65.5598C36.8 65.3065 36.9267 65.1732 37.18 65.1598H40.14C40.5 65.1598 40.68 65.3332 40.68 65.6798V75.4798C40.68 76.1332 40.5467 76.7465 40.28 77.3198 40.0267 77.8932 39.6733 78.3998 39.22 78.8398 38.78 79.2665 38.26 79.6065 37.66 79.8598 37.0733 80.0998 36.4533 80.2198 35.8 80.2198 35.0133 80.2198 34.2733 80.0532 33.58 79.7198 32.8867 79.3732 32.32 78.8732 31.88 78.2198 31.8667 78.2065 31.86 78.1532 31.86 78.0598 31.86 77.8732 31.9133 77.7465 32.02 77.6798L33.76 76.0398C33.8133 75.9998 33.8667 75.9665 33.92 75.9398 33.9733 75.8998 34.0333 75.8798 34.1 75.8798 34.1933 75.8798 34.2867 75.9198 34.38 75.9998 34.4733 76.0665 34.5733 76.1465 34.68 76.2398 34.7867 76.3332 34.9133 76.4198 35.06 76.4998 35.2067 76.5665 35.3867 76.5998 35.6 76.5998 35.9067 76.5998 36.18 76.4932 36.42 76.2798 36.6733 76.0532 36.8 75.7865 36.8 75.4798zM45.7725 75.2198C45.8925 75.3132 46.0392 75.4398 46.2125 75.5998 46.3858 75.7465 46.5858 75.8998 46.8125 76.0598 47.1458 76.2865 47.4792 76.4665 47.8125 76.5998 48.1592 76.7198 48.5125 76.7798 48.8725 76.7798 49.5658 76.7798 50.0325 76.6398 50.2725 76.3598 50.5258 76.0798 50.6525 75.7532 50.6525 75.3798 50.6525 75.1665 50.5725 74.9798 50.4125 74.8198 50.2525 74.6598 50.0592 74.5198 49.8325 74.3998 49.6192 74.2665 49.3858 74.1598 49.1325 74.0798 48.8925 73.9865 48.6792 73.9065 48.4925 73.8398 46.8792 73.2798 45.6725 72.6198 44.8725 71.8598 44.0858 71.0998 43.6925 70.1332 43.6925 68.9598 43.6925 68.3332 43.8192 67.7665 44.0725 67.2598 44.3258 66.7532 44.6792 66.3198 45.1325 65.9598 45.5992 65.5998 46.1592 65.3265 46.8125 65.1398 47.4658 64.9398 48.1925 64.8398 48.9925 64.8398 49.5925 64.8398 50.1725 64.9065 50.7325 65.0398 51.3058 65.1732 51.8592 65.3932 52.3925 65.6998 52.8458 65.9665 53.2392 66.2398 53.5725 66.5198 53.9058 66.7998 54.0725 67.0332 54.0725 67.2198 54.0725 67.3398 53.9858 67.4998 53.8125 67.6998L52.2725 69.3398C52.1658 69.4465 52.0525 69.4998 51.9325 69.4998 51.8392 69.4998 51.7525 69.4732 51.6725 69.4198 51.6058 69.3665 51.5258 69.2998 51.4325 69.2198L51.3325 69.1398C51.0658 68.9132 50.7392 68.6932 50.3525 68.4798 49.9792 68.2532 49.5792 68.1398 49.1525 68.1398 48.7125 68.1398 48.3325 68.2132 48.0125 68.3598 47.6925 68.5065 47.5325 68.7732 47.5325 69.1598 47.5325 69.5332 47.7192 69.8198 48.0925 70.0198 48.4658 70.2198 49.0192 70.4398 49.7525 70.6798 50.4592 70.9198 51.1125 71.1665 51.7125 71.4198 52.3125 71.6732 52.8258 71.9798 53.2525 72.3398 53.6925 72.6865 54.0325 73.1065 54.2725 73.5998 54.5125 74.0798 54.6325 74.6665 54.6325 75.3598 54.6325 76.0932 54.4792 76.7598 54.1725 77.3598 53.8792 77.9465 53.4725 78.4532 52.9525 78.8798 52.4325 79.2932 51.8192 79.6198 51.1125 79.8598 50.4058 80.0865 49.6458 80.1998 48.8325 80.1998 48.3125 80.1998 47.7992 80.1332 47.2925 79.9998 46.7858 79.8665 46.2925 79.6865 45.8125 79.4598 45.3458 79.2332 44.9058 78.9665 44.4925 78.6598 44.0792 78.3532 43.7125 78.0198 43.3925 77.6598L43.3525 77.6398C43.3392 77.6132 43.3258 77.5998 43.3125 77.5998 43.2992 77.5865 43.2858 77.5732 43.2725 77.5598 43.1258 77.3998 43.0525 77.2665 43.0525 77.1598 43.0525 77.0532 43.1258 76.9265 43.2725 76.7798L45.0125 75.1198C45.1458 75.0265 45.2592 74.9798 45.3525 74.9798 45.4592 74.9798 45.5992 75.0598 45.7725 75.2198zM60.2175 72.5798C60.2175 73.1398 60.3108 73.6598 60.4975 74.1398 60.6842 74.6198 60.9442 75.0398 61.2775 75.3998 61.6108 75.7465 62.0108 76.0265 62.4775 76.2398 62.9442 76.4398 63.4508 76.5398 63.9975 76.5398 64.5442 76.5398 65.0508 76.4398 65.5175 76.2398 65.9842 76.0265 66.3842 75.7465 66.7175 75.3998 67.0508 75.0398 67.3108 74.6198 67.4975 74.1398 67.6842 73.6598 67.7775 73.1398 67.7775 72.5798 67.7775 72.0332 67.6842 71.5198 67.4975 71.0398 67.3108 70.5598 67.0508 70.1398 66.7175 69.7798 66.3842 69.4198 65.9842 69.1398 65.5175 68.9398 65.0508 68.7265 64.5442 68.6198 63.9975 68.6198 63.4508 68.6198 62.9442 68.7265 62.4775 68.9398 62.0108 69.1398 61.6108 69.4198 61.2775 69.7798 60.9442 70.1398 60.6842 70.5598 60.4975 71.0398 60.3108 71.5198 60.2175 72.0332 60.2175 72.5798zM56.3575 72.5998C56.3575 71.5332 56.5575 70.5398 56.9575 69.6198 57.3575 68.6865 57.8975 67.8732 58.5775 67.1798 59.2708 66.4865 60.0842 65.9398 61.0175 65.5398 61.9508 65.1398 62.9442 64.9398 63.9975 64.9398 65.0508 64.9398 66.0375 65.1398 66.9575 65.5398 67.8908 65.9398 68.7042 66.4865 69.3975 67.1798 70.0908 67.8732 70.6375 68.6865 71.0375 69.6198 71.4375 70.5398 71.6375 71.5332 71.6375 72.5998 71.6375 73.6532 71.4375 74.6465 71.0375 75.5798 70.6375 76.4998 70.0908 77.3065 69.3975 77.9998 68.7042 78.6798 67.8908 79.2198 66.9575 79.6198 66.0375 80.0198 65.0508 80.2198 63.9975 80.2198 62.9442 80.2198 61.9508 80.0198 61.0175 79.6198 60.0842 79.2198 59.2708 78.6798 58.5775 77.9998 57.8975 77.3065 57.3575 76.4998 56.9575 75.5798 56.5575 74.6465 56.3575 73.6532 56.3575 72.5998zM83.0687 79.5598L77.8087 70.9198V79.5598C77.8087 79.8532 77.6487 79.9998 77.3287 79.9998H74.5287C74.2487 79.9998 74.1087 79.8532 74.1087 79.5598V65.5998C74.1087 65.4798 74.1421 65.3798 74.2087 65.2998 74.2754 65.2065 74.3821 65.1598 74.5287 65.1598H77.7687C78.0621 65.1598 78.3021 65.3065 78.4887 65.5998L83.4887 73.6998V65.5998C83.4887 65.4798 83.5287 65.3798 83.6087 65.2998 83.6887 65.2065 83.8021 65.1598 83.9487 65.1598H86.7287C86.8354 65.1598 86.9421 65.1998 87.0487 65.2798 87.1554 65.3598 87.2087 65.4665 87.2087 65.5998V79.5598C87.2087 79.8532 87.0487 79.9998 86.7287 79.9998H83.7887C83.4821 79.9998 83.2421 79.8532 83.0687 79.5598z"></path>
</svg>
