<svg id="svg" version="1.1" xmlns="http://www.w3.org/2000/svg" xmlns:xlink="http://www.w3.org/1999/xlink" width="400" height="400" viewBox="0, 0, 400,400"><g id="svgg"><path id="path0" d="M130.337 200.150 C 130.337 249.423,130.404 289.738,130.487 289.738 C 130.781 289.738,309.513 200.297,309.513 200.150 C 309.513 200.003,130.781 110.562,130.487 110.562 C 130.404 110.562,130.337 150.876,130.337 200.150 " stroke="none" fill="#fcfcfc" fill-rule="evenodd"></path><path id="path1" d="M191.011 0.474 C 190.187 0.535,187.423 0.729,184.869 0.907 C 68.008 9.026,-17.227 118.884,3.317 234.906 C 22.553 343.544,126.371 416.201,234.906 396.983 C 347.420 377.060,420.191 267.383,395.028 155.655 C 376.764 74.563,308.448 12.416,226.067 1.950 C 216.806 0.773,197.823 -0.026,191.011 0.474 M220.374 155.131 C 269.730 179.809,310.112 200.067,310.112 200.150 C 310.112 200.346,130.729 290.037,130.337 290.037 C 130.138 290.037,130.037 259.849,130.037 200.150 C 130.037 140.451,130.138 110.262,130.337 110.262 C 130.502 110.262,171.019 130.453,220.374 155.131 " stroke="none" fill="#2494f4" fill-rule="evenodd"></path><path id="path2" d="M130.185 200.150 C 130.185 249.670,130.220 269.929,130.262 245.169 C 130.304 220.408,130.304 179.891,130.262 155.131 C 130.220 130.371,130.185 150.629,130.185 200.150 " stroke="none" fill="#3ca4f4" fill-rule="evenodd"></path><path id="path3" d="" stroke="none" fill="#a4d4fc" fill-rule="evenodd"></path><path id="path4" d="" stroke="none" fill="#2cccf8" fill-rule="evenodd"></path></g></svg>