<svg id="Layer_1" data-name="Layer 1" xmlns="http://www.w3.org/2000/svg" viewBox="0 0 100 100"><defs><style>.cls-1{fill:#45a2d1;}</style></defs><path class="cls-1" d="M50,90A40,40,0,1,1,90,50,40,40,0,0,1,50,90Zm0-77.75A37.75,37.75,0,1,0,87.75,50,37.8,37.8,0,0,0,50,12.25Z"/><path class="cls-1" d="M40.89,73.35a32.76,32.76,0,0,1-17.77-5.22l-3.08-2,3.64.43a22.54,22.54,0,0,0,2.6.16h0A21.92,21.92,0,0,0,38,63.32,12.16,12.16,0,0,1,29,55.13l-.43-1.36,1.4.27a10.76,10.76,0,0,0,1.27.17A12.22,12.22,0,0,1,25,43.58V42l1.25.7a10.22,10.22,0,0,0,1.92.83,12.21,12.21,0,0,1-1.44-14.2l.62-1.06.77.95A31.34,31.34,0,0,0,49.71,40.67,12.17,12.17,0,0,1,70.29,30.34a21.69,21.69,0,0,0,6.48-2.55l1.92-1.14L78,28.77a12.07,12.07,0,0,1-2.63,4.52,20.8,20.8,0,0,0,3-1.08l1.58-.7-.46,1.83-.08.12a23.69,23.69,0,0,1-5.49,5.81c0,.34,0,.69,0,1,0,16.24-12.36,33-33,33ZM27,68.41a31.06,31.06,0,0,0,13.86,3.25h0c19.62,0,31.34-15.94,31.34-31.35,0-.47,0-1,0-1.42l0-.46.37-.26a22.08,22.08,0,0,0,3.71-3.38,24.33,24.33,0,0,1-4,.82l-3.93.47,3.4-2a10.43,10.43,0,0,0,3.64-3.65,23.84,23.84,0,0,1-5.25,1.69l-.46.09-.32-.34a10.48,10.48,0,0,0-17.84,9.55l.25,1.09-1.12,0a33,33,0,0,1-23.1-11.16,10.49,10.49,0,0,0,3.8,12.88l2.45,1.64-3-.09a12,12,0,0,1-4.18-.89,10.52,10.52,0,0,0,8.32,9l3.5.71-3.44.93a12.19,12.19,0,0,1-4,.4,10.47,10.47,0,0,0,9.28,6l2.37,0L40.85,63.4A23.63,23.63,0,0,1,27,68.41Z"/></svg>