<svg id="Layer_1" data-name="Layer 1" xmlns="http://www.w3.org/2000/svg" viewBox="0 0 100 100"><defs><style>.cls-1{fill:#45a2d1;}.cls-2{fill:none;stroke:#45a2d1;stroke-miterlimit:10;}</style></defs><path class="cls-1" d="M52.94,78H16A11.57,11.57,0,0,1,4.46,66.39V20.11A11.57,11.57,0,0,1,16,8.55H68.86A11.57,11.57,0,0,1,80.42,20.11V48.4a.81.81,0,0,1-1.62,0V20.11a10,10,0,0,0-9.94-9.94H16a10,10,0,0,0-9.94,9.94V66.39A9.94,9.94,0,0,0,16,76.32H52.94a.82.82,0,0,1,0,1.63Z"/><path class="cls-1" d="M75.32,91.45A20.22,20.22,0,1,1,95.54,71.23,20.24,20.24,0,0,1,75.32,91.45Zm0-38.81a18.6,18.6,0,1,0,18.6,18.59A18.61,18.61,0,0,0,75.32,52.64Z"/><path class="cls-2" d="M55.28,45.32,32,58.76a2.39,2.39,0,0,1-3.58-2.07V29.8A2.39,2.39,0,0,1,32,27.74L55.28,41.18A2.39,2.39,0,0,1,55.28,45.32Z"/><path class="cls-2" d="M30.8,59.9a3.2,3.2,0,0,1-3.2-3.2V29.8A3.2,3.2,0,0,1,32.4,27L55.69,40.48a3.2,3.2,0,0,1,0,5.54L32.4,59.47A3.18,3.18,0,0,1,30.8,59.9Zm0-31.68a1.62,1.62,0,0,0-.79.22,1.55,1.55,0,0,0-.79,1.36V56.7A1.57,1.57,0,0,0,30,58.06a1.54,1.54,0,0,0,1.58,0L54.87,44.61a1.53,1.53,0,0,0,.79-1.36,1.56,1.56,0,0,0-.79-1.37L31.59,28.44A1.62,1.62,0,0,0,30.8,28.22Z"/><path class="cls-1" d="M82.25,74.44H73.33A2.49,2.49,0,0,1,70.84,72V61.82a.81.81,0,0,1,.81-.81.82.82,0,0,1,.82.81V72a.86.86,0,0,0,.86.86h8.92a.81.81,0,0,1,0,1.62Z"/></svg>