<svg id="Layer_1" data-name="Layer 1" xmlns="http://www.w3.org/2000/svg" viewBox="0 0 100 100"><defs><style>.cls-1{fill:#45a2d1;}</style></defs><path class="cls-1" d="M55,90.23V60.34h9.29l1.39-9.07H55V42.81a7,7,0,0,1,0-1.45,6.81,6.81,0,0,1,7.56-5.86h3.75V28a59.47,59.47,0,0,0-7.66-.61C50.12,27.36,45,32.64,45,41.49v9.78H35v9.07H45V90.23L43.69,90A40.37,40.37,0,0,1,50,9.77h0A40.39,40.39,0,0,1,90.38,50.14h0A40.39,40.39,0,0,1,56.31,90ZM50,12h0a38.11,38.11,0,0,0-7.26,75.51V62.62h-10V49h10V41.49c0-10.12,6.12-16.4,16-16.4a60.74,60.74,0,0,1,9,.78l1,.15V37.77H62.36a4.54,4.54,0,0,0-5.09,3.9,4.78,4.78,0,0,0,0,1V49H68.33L66.24,62.62h-9V87.55A38.11,38.11,0,0,0,50,12Z"/></svg>