<svg id="Layer_1" data-name="Layer 1" xmlns="http://www.w3.org/2000/svg" viewBox="0 0 100 100"><defs><style>.cls-1{fill:#45a2d1;}</style></defs><g id="Icon_ionic-md-thumbs-up" data-name="Icon ionic-md-thumbs-up"><path class="cls-1" d="M39.07,87.93a8.65,8.65,0,0,1-8.64-8.62v-36a8.72,8.72,0,0,1,2.51-6.18l24.77-25L62.6,17a7,7,0,0,1,2,4.92V22l-.14,1.31-3,13.4H81.93c5,0,8.66,5.25,8.66,9.94v7.24a8.56,8.56,0,0,1-.59,3.2L79.26,82.59a8.37,8.37,0,0,1-7.84,5.34H39.07ZM57.72,16.51,35.17,39.28a5.63,5.63,0,0,0-1.61,4V79.31a5.51,5.51,0,0,0,5.51,5.49H71.42a5.27,5.27,0,0,0,4.94-3.39L87.1,56a5.56,5.56,0,0,0,.37-2V46.69c0-3.07-2.56-6.81-5.54-6.81H57.62L61.4,22.77l.1-.95a3.85,3.85,0,0,0-1.12-2.64Z"/><path class="cls-1" d="M24.55,87.93H9.41V42.76H24.55Zm-12-3.13h8.89V45.89H12.53Z"/></g></svg>