<svg id="Layer_1" data-name="Layer 1" xmlns="http://www.w3.org/2000/svg" viewBox="0 0 100 100"><defs><style>.cls-1{fill:#45a2d1;}</style></defs><g id="Icon_ionic-md-thumbs-up" data-name="Icon ionic-md-thumbs-up"><path class="cls-1" d="M42.31,87.84,37.43,83a7,7,0,0,1-2-4.9v-.16l.14-1.31,2.95-13.36H18.14C13.2,63.22,9.5,58,9.5,53.31V46.07a8.87,8.87,0,0,1,.59-3.18L20.8,17.49a8.36,8.36,0,0,1,7.83-5.33H60.91a8.6,8.6,0,0,1,8.61,8.59v36A8.72,8.72,0,0,1,67,62.88Zm-3.78-9.72a3.83,3.83,0,0,0,1.11,2.63l2.66,2.67L64.79,60.69a5.59,5.59,0,0,0,1.61-4v-36a5.43,5.43,0,0,0-1.62-3.88,5.32,5.32,0,0,0-3.89-1.6H28.63a5.26,5.26,0,0,0-4.93,3.38L13,44.06a5.6,5.6,0,0,0-.37,2v7.24c0,3,2.55,6.79,5.52,6.79H42.4L38.63,77.17Z"/><path class="cls-1" d="M90.5,57.23H75.39V12.16H90.5Zm-12-3.12h8.87V15.28H78.51Z"/></g></svg>