<?xml version="1.0" standalone="no"?>
<!DOCTYPE svg PUBLIC "-//W3C//DTD SVG 20010904//EN"
 "http://www.w3.org/TR/2001/REC-SVG-20010904/DTD/svg10.dtd">
<svg version="1.0" xmlns="http://www.w3.org/2000/svg"
 width="512.000000pt" height="512.000000pt" viewBox="0 0 512.000000 512.000000"
 preserveAspectRatio="xMidYMid meet">
<metadata>
Created by potrace 1.16, written by Peter Selinger 2001-2019
</metadata>
<g transform="translate(0.000000,512.000000) scale(0.100000,-0.100000)"
fill="#000000" stroke="none">
<path d="M1043 3760 c-412 -58 -776 -332 -943 -707 -69 -156 -92 -263 -97
-458 -4 -147 -2 -184 17 -274 98 -480 466 -847 944 -946 316 -64 653 3 923
186 l72 48 1193 3 1193 3 89 28 c331 104 564 338 658 664 20 68 23 101 23 253
0 152 -3 185 -23 253 -96 331 -329 563 -673 669 l-74 23 -1193 3 -1193 3 -74
49 c-108 74 -250 138 -383 171 -95 25 -143 31 -257 34 -77 2 -168 0 -202 -5z
m372 -325 c181 -48 326 -134 447 -264 158 -170 238 -376 238 -611 0 -424 -278
-773 -696 -877 -98 -24 -295 -24 -398 1 -275 64 -496 244 -616 499 -113 240
-111 536 5 768 130 260 367 442 642 494 96 18 292 13 378 -10z m1436 -474 l24
-19 3 -321 3 -321 90 0 c88 0 92 -1 121 -30 25 -26 29 -36 24 -63 -12 -61 -31
-67 -198 -67 -82 0 -158 4 -168 10 -36 19 -40 63 -40 411 0 341 4 381 37 407
25 18 77 15 104 -7z m509 -1 c19 -19 20 -33 20 -400 0 -367 -1 -381 -20 -400
-26 -26 -80 -26 -111 -1 l-24 19 0 382 0 382 24 19 c31 25 85 25 111 -1z m267
-2 c11 -13 58 -132 104 -265 46 -134 86 -240 90 -235 3 4 41 113 84 242 43
132 87 245 98 258 41 44 137 12 137 -47 0 -11 -52 -178 -116 -372 -126 -382
-134 -399 -199 -399 -46 0 -71 14 -89 48 -23 46 -246 696 -246 718 0 12 9 33
21 48 27 35 86 37 116 4z m1038 -3 c16 -15 25 -36 25 -55 0 -19 -9 -40 -25
-55 -23 -24 -30 -25 -140 -25 l-115 0 0 -90 0 -90 105 0 c99 0 107 -2 130 -25
16 -15 25 -36 25 -55 0 -19 -9 -40 -25 -55 -23 -23 -31 -25 -130 -25 l-105 0
0 -90 0 -90 115 0 c110 0 117 -1 140 -25 16 -15 25 -36 25 -55 0 -19 -9 -40
-25 -55 -24 -25 -27 -25 -195 -25 l-172 0 -29 29 -29 29 0 360 0 360 26 31 26
31 174 0 c172 0 175 0 199 -25z"/>
<path d="M985 2975 l-25 -24 0 -391 0 -391 25 -24 c14 -15 36 -25 53 -25 35 0
57 15 337 223 232 172 249 190 227 248 -9 21 -334 273 -497 384 -48 32 -89 32
-120 0z"/>
</g>
</svg>
