<svg width="25" height="27" viewBox="0 0 25 27" fill="none" xmlns="http://www.w3.org/2000/svg">
<path d="M18.25 2.92285H21.7C22.31 2.92285 22.895 3.12546 23.3263 3.48611C23.7577 3.84675 24 4.3359 24 4.84593V24.0767C24 24.5867 23.7577 25.0759 23.3263 25.4365C22.895 25.7972 22.31 25.9998 21.7 25.9998H3.3C2.69 25.9998 2.10499 25.7972 1.67365 25.4365C1.24232 25.0759 1 24.5867 1 24.0767V4.84593C1 4.3359 1.24232 3.84675 1.67365 3.48611C2.10499 3.12546 2.69 2.92285 3.3 2.92285H6.75" stroke="black" stroke-width="1.71429" stroke-linecap="round" stroke-linejoin="round"/>
<path d="M15.95 1H9.05C7.77974 1 6.75 1.86099 6.75 2.92308V3.88462C6.75 4.9467 7.77974 5.80769 9.05 5.80769H15.95C17.2203 5.80769 18.25 4.9467 18.25 3.88462V2.92308C18.25 1.86099 17.2203 1 15.95 1Z" stroke="black" stroke-width="1.71429" stroke-linecap="round" stroke-linejoin="round"/>
</svg>
