<?xml version="1.0" encoding="utf-8"?>
<!-- Generator: Adobe Illustrator 23.0.3, SVG Export Plug-In . SVG Version: 6.00 Build 0)  -->
<svg version="1.1" id="Layer_1" xmlns="http://www.w3.org/2000/svg" xmlns:xlink="http://www.w3.org/1999/xlink" x="0px" y="0px"
	 viewBox="0 0 70 70" style="enable-background:new 0 0 70 70;" xml:space="preserve">
<path d="M59.8,52.5c-0.4,2.1-2,4-4.4,4.5c-0.4,0.1-0.8,0.1-1.1,0.1H16.8c-0.4,0-0.8,0-1.1-0.1c-2.8-0.6-4.5-3-4.5-5.5l0-30
	c0-0.4,0-0.8,0.1-1.1c0.6-2.8,3-4.5,5.5-4.5l37.5,0c0.4,0,0.8,0,1.1,0.1c2.8,0.6,4.5,3,4.5,5.5v7.4c0,1-0.6,1.9-1.6,2
	c-1.2,0.2-2.2-0.7-2.2-1.9v-7.5c0-0.5-0.2-1-0.5-1.3c-0.4-0.4-0.8-0.5-1.3-0.5H16.8c-0.5,0-1,0.2-1.3,0.5c-0.4,0.4-0.5,0.8-0.5,1.3
	v30c0,0.5,0.2,1,0.5,1.3c0.4,0.4,0.8,0.5,1.3,0.5h37.5c0.5,0,1-0.2,1.3-0.5c0.2-0.2,0.4-0.5,0.5-0.8c0.1-0.3,0.4-0.6,0.7-0.6h2.2
	C59.5,51.4,59.9,51.9,59.8,52.5z M18.8,46.7h3.8c1,0,1.9,0.8,1.9,1.9s-0.8,1.9-1.9,1.9h-3.8c-1,0-1.9-0.8-1.9-1.9
	S17.8,46.7,18.8,46.7z M30.1,46.7h18.8c1,0,1.9,0.8,1.9,1.9s-0.8,1.9-1.9,1.9H30.1c-1,0-1.9-0.8-1.9-1.9S29,46.7,30.1,46.7z
	 M32,23.2c-1.2-0.6-2.8-0.5-4,0.2c-1.2,0.7-1.9,2.1-1.9,3.5v11.6c0,1.4,0.7,2.7,1.9,3.5c1.2,0.7,2.7,0.8,4,0.2l11.6-5.8
	c1.4-0.7,2.3-2.1,2.3-3.6c0-1.5-0.9-3-2.3-3.6L32,23.2z M30.4,26.6L42,32.4c0.1,0.1,0.2,0.2,0.2,0.3S42.1,32.9,42,33l-11.6,5.8
	c-0.1,0.1-0.2,0-0.3,0c-0.1-0.1-0.2-0.2-0.2-0.3V26.9c0-0.1,0.1-0.2,0.2-0.3C30.1,26.5,30.3,26.5,30.4,26.6L30.4,26.6z"/>
<path d="M66.6,41c0,0.4-0.2,0.8-0.5,1.2s-0.8,0.5-1.2,0.5H60v4.9c0,0.6-0.3,1.1-0.8,1.4c-0.5,0.3-1.1,0.3-1.6,0s-0.8-0.8-0.8-1.4
	v-4.9h-4.9c-0.6,0-1.1-0.3-1.4-0.8c-0.3-0.5-0.3-1.1,0-1.6c0.3-0.5,0.8-0.8,1.4-0.8h4.9v-4.9c0-0.6,0.3-1.1,0.8-1.4
	c0.5-0.3,1.1-0.3,1.6,0c0.5,0.3,0.8,0.8,0.8,1.4v4.9h5c0.4,0,0.8,0.2,1.2,0.5C66.4,40.1,66.6,40.6,66.6,41z"/>
</svg>
