<?xml version="1.0" encoding="utf-8"?>
<!-- Generator: Adobe Illustrator 23.0.3, SVG Export Plug-In . SVG Version: 6.00 Build 0)  -->
<svg version="1.1" id="Layer_1" xmlns="http://www.w3.org/2000/svg" xmlns:xlink="http://www.w3.org/1999/xlink" x="0px" y="0px"
	 viewBox="0 0 70 70" style="enable-background:new 0 0 70 70;" xml:space="preserve">
<path d="M60.8,17.4c-0.4-0.1-0.8-0.2-1.2-0.1c-0.4,0.1-0.7,0.3-1,0.6L46.6,31.4V23c0-1.5-0.6-3-1.7-4.1c-1.1-1.1-2.6-1.7-4.1-1.7
	H13.7c-1.5,0-3,0.6-4.1,1.7C8.5,20,7.9,21.5,7.9,23v27.1c0,1.5,0.6,3,1.7,4.1c1.1,1.1,2.6,1.7,4.1,1.7h27.1c1.5,0,3-0.6,4.1-1.7
	c1.1-1.1,1.7-2.6,1.7-4.1v-8.5l12.1,13.5c0.4,0.4,0.9,0.7,1.5,0.7c0.2,0,0.5,0,0.7-0.1c0.4-0.1,0.7-0.4,0.9-0.7
	c0.2-0.3,0.3-0.7,0.3-1.1V19.2c0-0.4-0.1-0.8-0.3-1.1C61.5,17.8,61.2,17.5,60.8,17.4L60.8,17.4z M42.7,50.1c0,0.5-0.2,1-0.6,1.4
	c-0.4,0.4-0.9,0.6-1.4,0.6H13.7c-0.5,0-1-0.2-1.4-0.6c-0.4-0.4-0.6-0.9-0.6-1.4V23c0-0.5,0.2-1,0.6-1.4c0.4-0.4,0.9-0.6,1.4-0.6
	h27.1c0.5,0,1,0.2,1.4,0.6s0.6,0.9,0.6,1.4V50.1z M58.2,48.9L47.3,36.6l10.9-12.3V48.9z M36.9,36.6c0,0.5-0.2,1-0.6,1.4
	c-0.4,0.4-0.9,0.6-1.4,0.6h-5.8v5.8c0,0.7-0.4,1.3-1,1.7c-0.6,0.3-1.3,0.3-1.9,0c-0.6-0.3-1-1-1-1.7v-5.8h-5.8c-0.7,0-1.3-0.4-1.7-1
	c-0.3-0.6-0.3-1.3,0-1.9c0.3-0.6,1-1,1.7-1h5.8v-5.8c0-0.7,0.4-1.3,1-1.7c0.6-0.3,1.3-0.3,1.9,0c0.6,0.3,1,1,1,1.7v5.8H35
	c0.5,0,1,0.2,1.4,0.6C36.7,35.6,36.9,36.1,36.9,36.6z"/>
</svg>
