<?xml version="1.0" encoding="utf-8"?>
<!-- Generator: Adobe Illustrator 23.0.3, SVG Export Plug-In . SVG Version: 6.00 Build 0)  -->
<svg version="1.1" id="Layer_1" xmlns="http://www.w3.org/2000/svg" xmlns:xlink="http://www.w3.org/1999/xlink" x="0px" y="0px"
	 viewBox="0 0 70 70" style="enable-background:new 0 0 70 70;" xml:space="preserve">
<style type="text/css">
	.st0{fill:none;stroke:#000000;stroke-width:2.5;stroke-miterlimit:10;}
</style>
<g>
	<path class="st0" d="M56.2,47.9c0,2.2-0.9,4.3-2.4,5.9c-1.6,1.6-3.7,2.4-5.9,2.4H22.1c-2.2,0-4.3-0.9-5.9-2.4
		c-1.6-1.6-2.4-3.7-2.4-5.9V22.1c0-2.2,0.9-4.3,2.4-5.9c1.6-1.6,3.7-2.4,5.9-2.4h25.7c2.2,0,4.3,0.9,5.9,2.4
		c1.6,1.6,2.4,3.7,2.4,5.9V47.9z"/>
	<path class="st0" d="M42.5,36.1l-11.1,7.4c-0.3,0.2-0.6,0.3-0.9,0.2c-0.3,0-0.6-0.2-0.8-0.5c-0.2-0.2-0.3-0.6-0.3-0.9V27.6
		c0-0.2,0.1-0.5,0.2-0.7c0.1-0.2,0.3-0.4,0.5-0.5c0.2-0.1,0.4-0.2,0.7-0.2c0.3,0,0.5,0.1,0.7,0.2l11.1,7.4c0.4,0.3,0.6,0.7,0.6,1.1
		S42.9,35.9,42.5,36.1L42.5,36.1z"/>
</g>
</svg>
