<?xml version="1.0" encoding="utf-8"?>
<!-- Generator: Adobe Illustrator 23.0.3, SVG Export Plug-In . SVG Version: 6.00 Build 0)  -->
<svg version="1.1" id="Layer_1" xmlns="http://www.w3.org/2000/svg" xmlns:xlink="http://www.w3.org/1999/xlink" x="0px" y="0px"
	 viewBox="0 0 70 70" style="enable-background:new 0 0 70 70;" xml:space="preserve">
<path d="M54.3,15.8c1.5,0,2.9,0.6,4,1.6c1.1,1.1,1.6,2.5,1.6,4V29c0,1-0.8,1.9-1.9,1.9S56.1,30,56.1,29v-7.5c0-0.5-0.2-1-0.5-1.3
	c-0.4-0.4-0.8-0.5-1.3-0.5H16.8c-0.5,0-1,0.2-1.3,0.5c-0.4,0.4-0.5,0.8-0.5,1.3v30c0,0.5,0.2,1,0.5,1.3c0.4,0.4,0.8,0.5,1.3,0.5
	h37.5c0.5,0,1-0.2,1.3-0.5c0.4-0.4,0.5-0.8,0.5-1.3v-15c0-1,0.8-1.9,1.9-1.9s1.9,0.8,1.9,1.9v15c0,1.5-0.6,2.9-1.6,4
	c-1.1,1.1-2.5,1.6-4,1.6H16.8c-1.5,0-2.9-0.6-4-1.6c-1.1-1.1-1.6-2.5-1.6-4v-30c0-1.5,0.6-2.9,1.6-4c1.1-1.1,2.5-1.6,4-1.6
	L54.3,15.8z M20.5,45.8h3.8c1,0,1.9,0.8,1.9,1.9s-0.8,1.9-1.9,1.9h-3.8c-1,0-1.9-0.8-1.9-1.9S19.5,45.8,20.5,45.8z M31.7,45.8h18.8
	c1,0,1.9,0.8,1.9,1.9s-0.8,1.9-1.9,1.9H31.7c-1,0-1.9-0.8-1.9-1.9S30.7,45.8,31.7,45.8z M32,23.2c-1.2-0.6-2.8-0.5-4,0.2
	c-1.2,0.7-1.9,2.1-1.9,3.5v11.6c0,1.4,0.7,2.7,1.9,3.5c1.2,0.7,2.7,0.8,4,0.2l11.6-5.8c1.4-0.7,2.3-2.1,2.3-3.6c0-1.5-0.9-3-2.3-3.6
	L32,23.2z M30.4,26.6L42,32.4c0.1,0.1,0.2,0.2,0.2,0.3S42.1,32.9,42,33l-11.6,5.8c-0.1,0.1-0.2,0-0.3,0c-0.1-0.1-0.2-0.2-0.2-0.3
	V26.9c0-0.1,0.1-0.2,0.2-0.3C30.1,26.5,30.3,26.5,30.4,26.6L30.4,26.6z"/>
</svg>
