<?xml version="1.0" encoding="utf-8"?>
<!-- Generator: Adobe Illustrator 23.0.3, SVG Export Plug-In . SVG Version: 6.00 Build 0)  -->
<svg version="1.1" id="Layer_1" xmlns="http://www.w3.org/2000/svg" xmlns:xlink="http://www.w3.org/1999/xlink" x="0px" y="0px"
	 viewBox="0 0 70 70" style="enable-background:new 0 0 70 70;" xml:space="preserve">
<g>
	<path d="M53.8,11H23c-1.4,0-2.7,0.5-3.6,1.5c-1,1-1.5,2.3-1.5,3.6V47c0,1.4,0.5,2.7,1.5,3.6c1,1,2.3,1.5,3.6,1.5h30.8
		c1.4,0,2.7-0.5,3.6-1.5c1-1,1.5-2.3,1.5-3.6V16.2c0-1.4-0.5-2.7-1.5-3.6C56.5,11.6,55.2,11,53.8,11z M55.5,47
		c0,0.5-0.2,0.9-0.5,1.2c-0.3,0.3-0.8,0.5-1.2,0.5H23c-0.5,0-0.9-0.2-1.2-0.5c-0.3-0.3-0.5-0.8-0.5-1.2V16.2c0-0.5,0.2-0.9,0.5-1.2
		s0.8-0.5,1.2-0.5h30.8c0.5,0,0.9,0.2,1.2,0.5s0.5,0.8,0.5,1.2V47z"/>
	<path d="M16.2,59h34.2c0.6,0,1.2-0.3,1.5-0.9c0.3-0.5,0.3-1.2,0-1.7c-0.3-0.5-0.9-0.9-1.5-0.9H16.2c-0.5,0-0.9-0.2-1.2-0.5
		c-0.3-0.3-0.5-0.8-0.5-1.2V19.6c0-0.6-0.3-1.2-0.9-1.5c-0.5-0.3-1.2-0.3-1.7,0C11.4,18.4,11,19,11,19.6v34.2c0,1.4,0.5,2.7,1.5,3.6
		C13.5,58.4,14.8,59,16.2,59L16.2,59z"/>
	<path d="M48.7,21.3H28.2c-0.6,0-1.2,0.3-1.5,0.9s-0.3,1.2,0,1.7c0.3,0.5,0.9,0.9,1.5,0.9h20.5c0.6,0,1.2-0.3,1.5-0.9
		c0.3-0.5,0.3-1.2,0-1.7S49.3,21.3,48.7,21.3z"/>
	<path d="M48.7,29.9H28.2c-0.6,0-1.2,0.3-1.5,0.9c-0.3,0.5-0.3,1.2,0,1.7s0.9,0.9,1.5,0.9h20.5c0.6,0,1.2-0.3,1.5-0.9
		c0.3-0.5,0.3-1.2,0-1.7S49.3,29.9,48.7,29.9z"/>
	<path d="M38.4,38.4H28.2c-0.6,0-1.2,0.3-1.5,0.9s-0.3,1.2,0,1.7s0.9,0.9,1.5,0.9h10.3c0.6,0,1.2-0.3,1.5-0.9c0.3-0.5,0.3-1.2,0-1.7
		C39.6,38.7,39,38.4,38.4,38.4z"/>
</g>
</svg>
