<?xml version="1.0" encoding="utf-8"?>
<!-- Generator: Adobe Illustrator 23.0.3, SVG Export Plug-In . SVG Version: 6.00 Build 0)  -->
<svg version="1.1" id="Layer_1" xmlns="http://www.w3.org/2000/svg" xmlns:xlink="http://www.w3.org/1999/xlink" x="0px" y="0px"
	 viewBox="0 0 70 70" style="enable-background:new 0 0 70 70;" xml:space="preserve">
<g>
	<path d="M59.1,57.8h-8.6c-0.6,0-1.1-0.4-1.1-1.1V41.5v-0.7c0-0.3,0.1-0.6,0.2-0.9c0.1-0.2,0.5-0.3,0.7-0.3h3.3
		c3.5,0,6.4,2.9,6.4,6.4v10.7C60.2,57.4,59.8,57.8,59.1,57.8z M51.6,55.7h6.4V46c0-2.4-1.9-4.3-4.3-4.3h-2.1V55.7z"/>
	<path d="M22.8,57.8h-8.6c-0.6,0-1.1-0.4-1.1-1.1V46c0-3.5,2.9-6.4,6.4-6.4h3.3c0.3,0,0.6,0.1,0.7,0.3c0.2,0.2,0.3,0.5,0.2,0.9v0.7
		v15.2C23.8,57.4,23.4,57.8,22.8,57.8z M15.3,55.7h6.4V41.7h-2.1c-2.4,0-4.3,1.9-4.3,4.3V55.7z"/>
	<path d="M36.7,31.5c-5.4,0-9.6-4.3-9.6-9.6s4.3-9.6,9.6-9.6s9.6,4.3,9.6,9.6S42,31.5,36.7,31.5z M36.7,14.3c-4.2,0-7.5,3.3-7.5,7.5
		s3.3,7.5,7.5,7.5s7.5-3.3,7.5-7.5S40.8,14.3,36.7,14.3z"/>
	<path d="M47.4,57.8H26c-0.6,0-1.1-0.4-1.1-1.1V41.5c0-4.5,3.5-8.3,7.7-8.3h8.1c4.2,0,7.7,3.9,7.7,8.3v15.2
		C48.4,57.4,48,57.8,47.4,57.8z M27,55.7h19.3V41.5c0-3-2.2-6.2-5.6-6.2h-8.1c-3.3,0-5.6,3.2-5.6,6.2V55.7z"/>
	<path d="M20.7,38c-4.2,0-7.5-3.3-7.5-7.5s3.3-7.5,7.5-7.5s7.5,3.3,7.5,7.5S24.9,38,20.7,38z M20.7,25.2c-3,0-5.4,2.4-5.4,5.4
		s2.4,5.4,5.4,5.4s5.4-2.4,5.4-5.4S23.7,25.2,20.7,25.2z"/>
	<path d="M52.8,38c-4.2,0-7.5-3.3-7.5-7.5s3.3-7.5,7.5-7.5s7.5,3.3,7.5,7.5S57,38,52.8,38z M52.8,25.2c-3,0-5.4,2.4-5.4,5.4
		s2.4,5.4,5.4,5.4s5.4-2.4,5.4-5.4S55.8,25.2,52.8,25.2z"/>
</g>
</svg>
