<?xml version="1.0" encoding="utf-8"?>
<!-- Generator: Adobe Illustrator 23.0.3, SVG Export Plug-In . SVG Version: 6.00 Build 0)  -->
<svg version="1.1" id="Layer_1" xmlns="http://www.w3.org/2000/svg" xmlns:xlink="http://www.w3.org/1999/xlink" x="0px" y="0px"
	 viewBox="0 0 70 70" style="enable-background:new 0 0 70 70;" xml:space="preserve">
<g>
	<path d="M39.1,25.8c0.7-0.2,1.1-0.9,0.9-1.5c-0.2-0.7-0.9-1.1-1.5-0.9c-6.7,1.7-13.9-8-14-8.1c-0.3-0.4-0.9-0.6-1.4-0.5
		c-0.5,0.2-0.9,0.7-0.9,1.2v21.8c-1.6-1.7-3.9-2.7-6.4-2.7c-4.9,0-8.9,4-8.9,8.9s4,8.9,8.9,8.9s8.9-4,8.9-8.9V19.5
		C27.8,22.6,33.4,27.3,39.1,25.8L39.1,25.8z M15.9,50.5c-3.5,0-6.4-2.9-6.4-6.4s2.9-6.4,6.4-6.4s6.4,2.9,6.4,6.4
		S19.4,50.5,15.9,50.5z M28.6,16c0-0.7,0.6-1.3,1.3-1.3h31.9c0.7,0,1.3,0.6,1.3,1.3c0,0.7-0.6,1.3-1.3,1.3l-31.9,0
		C29.2,17.3,28.6,16.7,28.6,16L28.6,16z M63.1,25c0,0.7-0.6,1.3-1.3,1.3H43.9c-0.7,0-1.3-0.6-1.3-1.3s0.6-1.3,1.3-1.3h17.9
		C62.5,23.7,63.1,24.3,63.1,25z M63.1,33.9c0,0.7-0.6,1.3-1.3,1.3H28.6c-0.7,0-1.3-0.6-1.3-1.3c0-0.7,0.6-1.3,1.3-1.3h33.2
		C62.5,32.6,63.1,33.2,63.1,33.9z M63.1,42.8c0,0.7-0.6,1.3-1.3,1.3l-33.2,0c-0.7,0-1.3-0.6-1.3-1.3c0-0.7,0.6-1.3,1.3-1.3h33.2
		C62.5,41.5,63.1,42.1,63.1,42.8L63.1,42.8z M63.1,51.7c0,0.7-0.6,1.3-1.3,1.3H28.6c-0.7,0-1.3-0.6-1.3-1.3c0-0.7,0.6-1.3,1.3-1.3
		h33.2C62.5,50.5,63.1,51,63.1,51.7z"/>
</g>
</svg>
