<?xml version="1.0" encoding="utf-8"?>
<!-- Generator: Adobe Illustrator 23.0.3, SVG Export Plug-In . SVG Version: 6.00 Build 0)  -->
<svg version="1.1" id="Layer_1" xmlns="http://www.w3.org/2000/svg" xmlns:xlink="http://www.w3.org/1999/xlink" x="0px" y="0px"
	 viewBox="0 0 70 70" style="enable-background:new 0 0 70 70;" xml:space="preserve">
<style type="text/css">
	.st0{fill:none;stroke:#000000;stroke-width:2.5;stroke-linecap:round;stroke-linejoin:round;}
</style>
<path class="st0" d="M49.2,26.1c3.9,0,7.1-3.2,7.1-7.1c0-3.9-3.2-7.1-7.1-7.1s-7.1,3.2-7.1,7.1C42.1,22.9,45.3,26.1,49.2,26.1z"/>
<path class="st0" d="M49.2,33.2c-8.9,0-8.9,24.9-8.9,24.9h17.8C58.1,58.1,58.1,33.2,49.2,33.2z"/>
<path class="st0" d="M20.8,26.1c3.9,0,7.1-3.2,7.1-7.1c0-3.9-3.2-7.1-7.1-7.1c-3.9,0-7.1,3.2-7.1,7.1C13.7,22.9,16.8,26.1,20.8,26.1
	z"/>
<path class="st0" d="M20.8,58.1c-8.9,0-8.9-24.9-8.9-24.9h17.8C29.7,33.2,29.7,58.1,20.8,58.1z"/>
</svg>
