<?xml version="1.0" encoding="utf-8"?>
<!-- Generator: Adobe Illustrator 23.0.3, SVG Export Plug-In . SVG Version: 6.00 Build 0)  -->
<svg version="1.1" id="Layer_1" xmlns="http://www.w3.org/2000/svg" xmlns:xlink="http://www.w3.org/1999/xlink" x="0px" y="0px"
	 viewBox="0 0 70 70" style="enable-background:new 0 0 70 70;" xml:space="preserve">
<g>
	<path d="M29.3,27.6H10.9c-0.9,0-1.6-0.7-1.6-1.6c0-0.9,0.7-1.6,1.6-1.6h18.4c0.9,0,1.6,0.7,1.6,1.6C30.9,26.9,30.2,27.6,29.3,27.6
		L29.3,27.6z"/>
	<path d="M24,34.1h-13c-0.9,0-1.6-0.7-1.6-1.6c0-0.9,0.7-1.6,1.6-1.6h13c0.9,0,1.6,0.7,1.6,1.6C25.6,33.4,24.8,34.1,24,34.1L24,34.1
		z"/>
	<path d="M24,40.5h-13c-0.9,0-1.6-0.7-1.6-1.6c0-0.9,0.7-1.6,1.6-1.6h13c0.9,0,1.6,0.7,1.6,1.6C25.6,39.8,24.8,40.5,24,40.5L24,40.5
		z"/>
	<path d="M28.4,47H10.9c-0.9,0-1.6-0.7-1.6-1.6c0-0.9,0.7-1.6,1.6-1.6h17.5c0.9,0,1.6,0.7,1.6,1.6C30,46.3,29.3,47,28.4,47z"/>
	<path d="M47,47c-9.4,0-16.3-10.2-16.6-10.6c-0.4-0.5-0.4-1.2,0-1.8C30.6,34.2,37.3,24,47,24c9.9,0,16.4,10.2,16.7,10.7
		c0.3,0.5,0.3,1.2,0,1.7C63.3,36.8,56.6,47,47,47L47,47z M33.7,35.5c1.8,2.3,7,8.3,13.3,8.3c6.4,0,11.6-6,13.3-8.3
		c-1.7-2.3-6.7-8.3-13.3-8.3C40.5,27.2,35.4,33.2,33.7,35.5z"/>
	<path d="M46.8,41.4c-3.3,0-6-2.7-6-6c0-3.3,2.7-6,6-6c3.3,0,6,2.7,6,6C52.8,38.7,50.1,41.4,46.8,41.4z M46.8,32.6
		c-1.5,0-2.8,1.2-2.8,2.8s1.2,2.8,2.8,2.8c1.5,0,2.8-1.2,2.8-2.8C49.5,33.9,48.3,32.6,46.8,32.6z"/>
</g>
</svg>
