<?xml version="1.0" encoding="utf-8"?>
<!-- Generator: Adobe Illustrator 23.0.3, SVG Export Plug-In . SVG Version: 6.00 Build 0)  -->
<svg version="1.1" id="Layer_1" xmlns="http://www.w3.org/2000/svg" xmlns:xlink="http://www.w3.org/1999/xlink" x="0px" y="0px"
	 viewBox="0 0 70 70" style="enable-background:new 0 0 70 70;" xml:space="preserve">
<g>
	<path d="M24.6,30.6h-4.4c-0.5,0-1,0.4-1,1c0,0.5,0.4,1,1,1h4.4c0.5,0,1-0.4,1-1S25.2,30.6,24.6,30.6z"/>
	<path d="M37.2,30.6h-4.4c-0.5,0-1,0.4-1,1c0,0.5,0.4,1,1,1h4.4c0.5,0,1-0.4,1-1C38.1,31,37.7,30.6,37.2,30.6z"/>
	<path d="M49.7,30.6h-4.4c-0.5,0-1,0.4-1,1c0,0.5,0.4,1,1,1h4.4c0.5,0,1-0.4,1-1S50.3,30.6,49.7,30.6L49.7,30.6z"/>
	<path d="M24.6,37.1h-4.4c-0.5,0-1,0.4-1,1c0,0.5,0.4,1,1,1h4.4c0.5,0,1-0.4,1-1S25.2,37.1,24.6,37.1z"/>
	<path d="M37.2,37.1h-4.4c-0.5,0-1,0.4-1,1c0,0.5,0.4,1,1,1h4.4c0.5,0,1-0.4,1-1C38.1,37.5,37.7,37.1,37.2,37.1z"/>
	<path d="M49.7,37.1h-4.4c-0.5,0-1,0.4-1,1c0,0.5,0.4,1,1,1h4.4c0.5,0,1-0.4,1-1S50.3,37.1,49.7,37.1L49.7,37.1z"/>
	<path d="M24.6,43.6h-4.4c-0.5,0-1,0.4-1,1c0,0.5,0.4,1,1,1h4.4c0.5,0,1-0.4,1-1S25.2,43.6,24.6,43.6z"/>
	<path d="M37.2,43.6h-4.4c-0.5,0-1,0.4-1,1c0,0.5,0.4,1,1,1h4.4c0.5,0,1-0.4,1-1C38.1,44,37.7,43.6,37.2,43.6z"/>
	<path d="M49.7,43.6h-4.4c-0.5,0-1,0.4-1,1c0,0.5,0.4,1,1,1h4.4c0.5,0,1-0.4,1-1S50.3,43.6,49.7,43.6L49.7,43.6z"/>
	<path d="M24.6,50.1h-4.4c-0.5,0-1,0.4-1,1c0,0.5,0.4,1,1,1h4.4c0.5,0,1-0.4,1-1S25.2,50.1,24.6,50.1z"/>
	<path d="M37.2,50.1h-4.4c-0.5,0-1,0.4-1,1c0,0.5,0.4,1,1,1h4.4c0.5,0,1-0.4,1-1S37.7,50.1,37.2,50.1z"/>
	<path d="M49.7,50.1h-4.4c-0.5,0-1,0.4-1,1c0,0.5,0.4,1,1,1h4.4c0.5,0,1-0.4,1-1S50.3,50.1,49.7,50.1L49.7,50.1z"/>
	<path d="M51.7,13.5h-3v2.6c0,0.6-0.5,1.1-1.1,1.1s-1.1-0.5-1.1-1.1v-2.6H23.6v2.6c0,0.6-0.5,1.1-1.1,1.1s-1.1-0.5-1.1-1.1v-2.6h-3
		c-2.6,0-4.7,2.1-4.7,4.7v32.1c0,5.4,4.4,9.7,9.7,9.7h23.3c5.4,0,9.7-4.4,9.7-9.7V18.2C56.4,15.6,54.3,13.5,51.7,13.5L51.7,13.5z
		 M18.3,15.4h1.1v0.7c0,1.7,1.4,3.1,3.1,3.1s3.1-1.4,3.1-3.1v-0.7h18.9v0.7c0,1.7,1.4,3.1,3.1,3.1c1.7,0,3.1-1.4,3.1-3.1v-0.7h1.1
		c1.5,0,2.8,1.2,2.8,2.8v3.2H15.5v-3.2C15.5,16.7,16.8,15.4,18.3,15.4L18.3,15.4z M46.7,58.1H23.3c-4.3,0-7.8-3.5-7.8-7.8v-27h38.9
		v27C54.5,54.6,51,58.1,46.7,58.1L46.7,58.1z"/>
</g>
</svg>
