<?xml version="1.0" encoding="utf-8"?>
<!-- Generator: Adobe Illustrator 23.0.3, SVG Export Plug-In . SVG Version: 6.00 Build 0)  -->
<svg version="1.1" id="Layer_1" xmlns="http://www.w3.org/2000/svg" xmlns:xlink="http://www.w3.org/1999/xlink" x="0px" y="0px"
	 viewBox="0 0 70 70" style="enable-background:new 0 0 70 70;" xml:space="preserve">
<g>
	<path d="M19.9,57.7h31.9c0.8,0,1.6-0.3,2.1-0.9c0.6-0.6,0.9-1.3,0.9-2.1V22.8c0-0.8-0.3-1.6-0.9-2.1c-0.6-0.6-1.3-0.9-2.1-0.9h-4.6
		v-4.6c0-0.8-0.3-1.6-0.9-2.1c-0.6-0.6-1.3-0.9-2.1-0.9c-0.8,0-1.6,0.3-2.1,0.9c-1.2,1.2-2.7,2-4.4,2.3L32.7,16h-6
		c-0.6,0-1.2,0.2-1.6,0.7c-0.4,0.4-0.7,1-0.7,1.6v1.5l-4.6,0c-0.8,0-1.6,0.3-2.1,0.9c-0.6,0.6-0.9,1.3-0.9,2.1v31.9
		c0,0.8,0.3,1.6,0.9,2.1C18.3,57.4,19.1,57.7,19.9,57.7L19.9,57.7z M37.8,16.9c2-0.3,3.8-1.3,5.2-2.7c0.3-0.3,0.7-0.4,1.1-0.4
		c0.4,0,0.8,0.2,1.1,0.4c0.3,0.3,0.4,0.7,0.4,1.1v9c0,0.3-0.1,0.7-0.3,0.9c-0.2,0.3-0.4,0.5-0.7,0.6c-0.3,0.1-0.5,0.1-0.8,0.1
		c-0.3-0.1-0.5-0.2-0.7-0.4c-1.4-1.4-3.3-2.4-5.3-2.8l-4.3-0.5v-4.7L37.8,16.9z M31.9,27.7c0.2,0.4,0,0.9-0.4,1.1
		c-0.2,0.1-0.5,0.1-0.7,0c-0.2-0.1-0.4-0.3-0.5-0.5L29,23.6h1.5L31.9,27.7z M25.9,18.3c0-0.4,0.3-0.8,0.8-0.8H32v1.5h-3.8
		c-0.4,0-0.8,0.3-0.8,0.8c0,0.4,0.3,0.8,0.8,0.8H32v1.5l-5.3,0c-0.4,0-0.8-0.3-0.8-0.8V18.3z M18.3,22.8c0-0.4,0.2-0.8,0.4-1.1
		c0.3-0.3,0.7-0.4,1.1-0.4h4.6c0,0.6,0.2,1.2,0.7,1.6c0.4,0.4,1,0.7,1.6,0.7h0.8l1.4,5.1c0.2,0.6,0.6,1.1,1.2,1.4
		c0.6,0.3,1.2,0.4,1.9,0.1c0.6-0.2,1.1-0.6,1.4-1.2c0.3-0.6,0.3-1.2,0.1-1.9l-1.2-3.6h0.6l4.9,0.6c1.7,0.3,3.2,1.1,4.4,2.4
		c0.6,0.5,1.3,0.8,2.1,0.8c0.3,0,0.7-0.1,1-0.2c0.6-0.2,1.1-0.6,1.5-1.2c0.4-0.5,0.6-1.2,0.5-1.8v-2.9h4.6c0.4,0,0.8,0.2,1.1,0.4
		c0.3,0.3,0.4,0.7,0.4,1.1v31.9c0,0.4-0.2,0.8-0.4,1.1c-0.3,0.3-0.7,0.4-1.1,0.4H19.9c-0.4,0-0.8-0.2-1.1-0.4s-0.4-0.7-0.4-1.1
		L18.3,22.8z"/>
	<path d="M21.4,33.5h19.8c0.2,0.9,0.8,1.6,1.6,2c0.8,0.4,1.8,0.4,2.6,0c0.8-0.4,1.4-1.1,1.6-2h3.1c0.4,0,0.8-0.3,0.8-0.8
		S50.6,32,50.2,32h-3.1c-0.2-0.9-0.8-1.6-1.6-2c-0.8-0.4-1.8-0.4-2.6,0c-0.8,0.4-1.4,1.1-1.6,2H21.4c-0.4,0-0.8,0.3-0.8,0.8
		S21,33.5,21.4,33.5L21.4,33.5z M44.1,31.2c0.4,0,0.8,0.2,1.1,0.4c0.3,0.3,0.4,0.7,0.4,1.1c0,0.4-0.2,0.8-0.4,1.1
		c-0.3,0.3-0.7,0.4-1.1,0.4c-0.4,0-0.8-0.2-1.1-0.4c-0.3-0.3-0.4-0.7-0.4-1.1c0-0.4,0.2-0.8,0.4-1.1C43.4,31.4,43.7,31.2,44.1,31.2
		L44.1,31.2z"/>
	<path d="M21.4,39.5h2.4c0.2,0.9,0.8,1.6,1.6,2c0.8,0.4,1.8,0.4,2.6,0c0.8-0.4,1.4-1.1,1.6-2h20.6c0.4,0,0.8-0.3,0.8-0.8
		c0-0.4-0.3-0.8-0.8-0.8H29.6c-0.2-0.9-0.8-1.6-1.6-2s-1.8-0.4-2.6,0c-0.8,0.4-1.4,1.1-1.6,2h-2.4c-0.4,0-0.8,0.3-0.8,0.8
		C20.6,39.2,21,39.5,21.4,39.5z M26.7,37.3c0.4,0,0.8,0.2,1.1,0.4c0.3,0.3,0.4,0.7,0.4,1.1c0,0.4-0.2,0.8-0.4,1.1
		c-0.3,0.3-0.7,0.4-1.1,0.4c-0.4,0-0.8-0.2-1.1-0.4c-0.3-0.3-0.4-0.7-0.4-1.1c0-0.4,0.2-0.8,0.4-1.1C25.9,37.4,26.3,37.3,26.7,37.3z
		"/>
	<path d="M21.4,45.6h13c0.2,0.9,0.8,1.6,1.6,2c0.8,0.4,1.8,0.4,2.6,0c0.8-0.4,1.4-1.1,1.6-2h10c0.4,0,0.8-0.3,0.8-0.8
		c0-0.4-0.3-0.8-0.8-0.8h-10c-0.2-0.9-0.8-1.6-1.6-2c-0.8-0.4-1.8-0.4-2.6,0c-0.8,0.4-1.4,1.1-1.6,2h-13c-0.4,0-0.8,0.3-0.8,0.8
		C20.6,45.3,21,45.6,21.4,45.6z M37.3,43.3c0.4,0,0.8,0.2,1.1,0.4c0.3,0.3,0.4,0.7,0.4,1.1c0,0.4-0.2,0.8-0.4,1.1
		c-0.3,0.3-0.7,0.4-1.1,0.4c-0.4,0-0.8-0.2-1.1-0.4c-0.3-0.3-0.4-0.7-0.4-1.1c0-0.4,0.2-0.8,0.4-1.1C36.5,43.5,36.9,43.3,37.3,43.3z
		"/>
	<path d="M21.4,51.7h19.8c0.2,0.9,0.8,1.6,1.6,2c0.8,0.4,1.8,0.4,2.6,0c0.8-0.4,1.4-1.1,1.6-2h3.1c0.4,0,0.8-0.3,0.8-0.8
		c0-0.4-0.3-0.8-0.8-0.8h-3.1c-0.2-0.9-0.8-1.6-1.6-2c-0.8-0.4-1.8-0.4-2.6,0c-0.8,0.4-1.4,1.1-1.6,2H21.4c-0.4,0-0.8,0.3-0.8,0.8
		C20.6,51.3,21,51.7,21.4,51.7L21.4,51.7z M44.1,49.4c0.4,0,0.8,0.2,1.1,0.4c0.3,0.3,0.4,0.7,0.4,1.1c0,0.4-0.2,0.8-0.4,1.1
		c-0.3,0.3-0.7,0.4-1.1,0.4c-0.4,0-0.8-0.2-1.1-0.4c-0.3-0.3-0.4-0.7-0.4-1.1c0-0.4,0.2-0.8,0.4-1.1C43.4,49.6,43.7,49.4,44.1,49.4z
		"/>
</g>
</svg>
