<svg width="24" height="24" viewBox="0 0 24 24" fill="none" xmlns="http://www.w3.org/2000/svg">
<path d="M8.15385 2H3.53846C2.68879 2 2 2.68879 2 3.53846V8.15385C2 9.00352 2.68879 9.69231 3.53846 9.69231H8.15385C9.00352 9.69231 9.69231 9.00352 9.69231 8.15385V3.53846C9.69231 2.68879 9.00352 2 8.15385 2Z" stroke="black" stroke-width="2.5" stroke-linecap="round" stroke-linejoin="round"/>
<path d="M20.4616 2H15.8462C14.9965 2 14.3077 2.68879 14.3077 3.53846V8.15385C14.3077 9.00352 14.9965 9.69231 15.8462 9.69231H20.4616C21.3112 9.69231 22 9.00352 22 8.15385V3.53846C22 2.68879 21.3112 2 20.4616 2Z" stroke="black" stroke-width="2.5" stroke-linecap="round" stroke-linejoin="round"/>
<path d="M8.15385 14.3076H3.53846C2.68879 14.3076 2 14.9964 2 15.8461V20.4615C2 21.3111 2.68879 21.9999 3.53846 21.9999H8.15385C9.00352 21.9999 9.69231 21.3111 9.69231 20.4615V15.8461C9.69231 14.9964 9.00352 14.3076 8.15385 14.3076Z" stroke="black" stroke-width="2.5" stroke-linecap="round" stroke-linejoin="round"/>
<path d="M20.4616 14.3076H15.8462C14.9965 14.3076 14.3077 14.9964 14.3077 15.8461V20.4615C14.3077 21.3111 14.9965 21.9999 15.8462 21.9999H20.4616C21.3112 21.9999 22 21.3111 22 20.4615V15.8461C22 14.9964 21.3112 14.3076 20.4616 14.3076Z" stroke="black" stroke-width="2.5" stroke-linecap="round" stroke-linejoin="round"/>
</svg>
