<svg width="19" height="21" viewBox="0 0 19 21" fill="none" xmlns="http://www.w3.org/2000/svg">
<path d="M1 5.31055H18.2414" stroke="black" stroke-linecap="round" stroke-linejoin="round"/>
<path d="M3.15527 5.31055H16.0863V18.2416C16.0863 18.6226 15.9349 18.9881 15.6655 19.2575C15.396 19.527 15.0306 19.6784 14.6495 19.6784H4.59205C4.211 19.6784 3.84555 19.527 3.5761 19.2575C3.30665 18.9881 3.15527 18.6226 3.15527 18.2416V5.31055Z" stroke="black" stroke-linecap="round" stroke-linejoin="round"/>
<path d="M6.02881 5.31034V4.59195C6.02881 3.63931 6.40725 2.72568 7.08087 2.05206C7.75449 1.37844 8.66812 1 9.62076 1C10.5734 1 11.487 1.37844 12.1607 2.05206C12.8343 2.72568 13.2127 3.63931 13.2127 4.59195V5.31034" stroke="black" stroke-linecap="round" stroke-linejoin="round"/>
<path d="M7.46533 8.18359V16.0859" stroke="black" stroke-linecap="round" stroke-linejoin="round"/>
<path d="M11.7759 8.18359V16.0859" stroke="black" stroke-linecap="round" stroke-linejoin="round"/>
</svg>
