<svg width="19" height="19" viewBox="0 0 19 19" fill="none" xmlns="http://www.w3.org/2000/svg">
<path d="M1 17.6338H15.0688" stroke="black" stroke-linecap="round" stroke-linejoin="round"/>
<path d="M8.67386 13.1577L4.83691 13.8484L5.47641 9.96029L14.084 1.37832C14.2029 1.25844 14.3443 1.16329 14.5002 1.09836C14.656 1.03343 14.8232 1 14.992 1C15.1609 1 15.328 1.03343 15.4839 1.09836C15.6398 1.16329 15.7812 1.25844 15.9001 1.37832L17.2558 2.73404C17.3757 2.85294 17.4709 2.9944 17.5358 3.15025C17.6007 3.30611 17.6342 3.47328 17.6342 3.64212C17.6342 3.81096 17.6007 3.97813 17.5358 4.13399C17.4709 4.28984 17.3757 4.4313 17.2558 4.5502L8.67386 13.1577Z" stroke="black" stroke-linecap="round" stroke-linejoin="round"/>
</svg>
