<svg width="26" height="26" viewBox="0 0 26 26" fill="none" xmlns="http://www.w3.org/2000/svg">
<path d="M1 2.84615L1 23.1538C1 24.1734 1.82655 25 2.84615 25H23.1538C24.1734 25 25 24.1734 25 23.1538V2.84615C25 1.82655 24.1734 1 23.1538 1H2.84615C1.82655 1 1 1.82655 1 2.84615Z" stroke="black" stroke-width="1.71429" stroke-linecap="round" stroke-linejoin="round"/>
<path d="M8.38458 20.3851V11.1543" stroke="black" stroke-width="1.71429" stroke-linecap="round" stroke-linejoin="round"/>
<path d="M8.38459 11.1537C9.91399 11.1537 11.1538 9.91387 11.1538 8.38446C11.1538 6.85506 9.91399 5.61523 8.38459 5.61523C6.85518 5.61523 5.61536 6.85506 5.61536 8.38446C5.61536 9.91387 6.85518 11.1537 8.38459 11.1537Z" stroke="black" stroke-width="1.71429" stroke-linecap="round" stroke-linejoin="round"/>
<path d="M17.6154 5.61523V11.1537" stroke="black" stroke-width="1.71429" stroke-linecap="round" stroke-linejoin="round"/>
<path d="M17.6154 16.6914V20.3837" stroke="black" stroke-width="1.71429" stroke-linecap="round" stroke-linejoin="round"/>
<path d="M17.6154 16.6928C19.1448 16.6928 20.3846 15.4529 20.3846 13.9235C20.3846 12.3941 19.1448 11.1543 17.6154 11.1543C16.086 11.1543 14.8461 12.3941 14.8461 13.9235C14.8461 15.4529 16.086 16.6928 17.6154 16.6928Z" stroke="black" stroke-width="1.71429" stroke-linecap="round" stroke-linejoin="round"/>
</svg>
