<svg width="63" height="51" viewBox="0 0 63 51" fill="none" xmlns="http://www.w3.org/2000/svg">
<path d="M7.46205 50.1006L56.2459 50.1006C59.4156 50.1006 61.9852 47.531 61.9852 44.3613L61.9852 7.05603C61.9852 3.88632 59.4156 1.31676 56.2459 1.31676L7.46205 1.31676C4.29234 1.31676 1.72277 3.88632 1.72277 7.05603L1.72277 44.3613C1.72277 47.531 4.29234 50.1006 7.46205 50.1006Z" stroke="#464646" stroke-width="1.71429" stroke-linecap="round" stroke-linejoin="round"/>
<path d="M5.16632 49.6413L27.7217 25.8233C28.2551 25.2371 28.9042 24.7677 29.6281 24.4448C30.352 24.1218 31.1349 23.9523 31.9275 23.9469C32.7201 23.9415 33.5052 24.1004 34.2334 24.4134C34.9616 24.7265 35.617 25.187 36.1584 25.7659L58.8285 49.5265" stroke="#464646" stroke-width="1.71429" stroke-linecap="round" stroke-linejoin="round"/>
</svg>
