<?xml version="1.0" encoding="utf-8"?>
<!-- Generator: Adobe Illustrator 23.0.3, SVG Export Plug-In . SVG Version: 6.00 Build 0)  -->
<svg version="1.1" id="Layer_1" xmlns="http://www.w3.org/2000/svg" xmlns:xlink="http://www.w3.org/1999/xlink" x="0px" y="0px"
	 viewBox="0 0 70 70" style="enable-background:new 0 0 70 70;" xml:space="preserve">
<style type="text/css">
	.st0{fill:none;stroke:#000000;stroke-width:2.5;stroke-miterlimit:10;}
</style>
<g>
	<path class="st0" d="M15.9,52.1h34.9c0.8,0,1.4-0.6,1.4-1.4V15.8c0-1.1-0.9-1.9-1.9-1.9H15.6c-0.9,0-1.6,0.7-1.6,1.6v34.7
		C14,51.3,14.8,52.1,15.9,52.1z"/>
	<path class="st0" d="M18.7,56.1l33-0.1c2.4,0,4.3-1.9,4.3-4.3V18.9"/>
</g>
<path d="M45.2,26H27.5c-0.4,0-0.7-0.3-0.7-0.7v-0.4c0-0.4,0.3-0.7,0.7-0.7h17.7c0.4,0,0.7,0.3,0.7,0.7v0.4
	C45.9,25.7,45.6,26,45.2,26z"/>
<path d="M45.2,34.5H27.5c-0.4,0-0.7-0.3-0.7-0.7v-0.4c0-0.4,0.3-0.7,0.7-0.7h17.8c0.4,0,0.7,0.3,0.7,0.7v0.4
	C45.9,34.2,45.6,34.5,45.2,34.5z"/>
<path d="M45.2,42.8H27.5c-0.4,0-0.7-0.3-0.7-0.7v-0.4c0-0.4,0.3-0.7,0.7-0.7h17.8c0.4,0,0.7,0.3,0.7,0.7v0.4
	C45.9,42.5,45.6,42.8,45.2,42.8z"/>
<circle cx="21.1" cy="25.1" r="1"/>
<circle cx="21.1" cy="33.5" r="1"/>
<circle cx="21.1" cy="41.8" r="1"/>
</svg>
