<?xml version="1.0" encoding="utf-8"?>
<!-- Generator: Adobe Illustrator 23.0.3, SVG Export Plug-In . SVG Version: 6.00 Build 0)  -->
<svg version="1.1" id="Layer_1" xmlns="http://www.w3.org/2000/svg" xmlns:xlink="http://www.w3.org/1999/xlink" x="0px" y="0px"
	 viewBox="0 0 70 70" style="enable-background:new 0 0 70 70;" xml:space="preserve">
<path d="M16.8,15.7c-5.8,0-10.5,4.7-10.5,10.5v19.6c0,5.8,4.7,10.5,10.5,10.5h34c5.8,0,10.5-4.7,10.5-10.5V26.2
	c0-5.8-4.7-10.5-10.5-10.5L16.8,15.7z M16.8,18.3h34c4.4,0,7.9,3.5,7.9,7.9v19.6c0,4.4-3.5,7.9-7.9,7.9h-34c-4.4,0-7.9-3.5-7.9-7.9
	V26.2C9,21.8,12.5,18.3,16.8,18.3z M28.5,26.2c-0.7,0.1-1.2,0.6-1.2,1.3v17v0c0,0.6,0.5,1.2,1.1,1.3c0.3,0.1,0.6,0,0.9-0.2l14.4-8.5
	c0.4-0.2,0.7-0.7,0.7-1.1c0-0.5-0.3-0.9-0.7-1.1l-14.4-8.5v0C29,26.2,28.8,26.1,28.5,26.2L28.5,26.2z M29.9,29.8L40.4,36l-10.5,6.2
	V29.8z"/>
<g>
	<path d="M43.7,50.2l-4.2-4.2c-0.6-0.6-0.6-1.5,0-2l0,0c0.6-0.6,1.5-0.6,2,0l4.2,4.2c0.6,0.6,0.6,1.5,0,2l0,0
		C45.2,50.8,44.3,50.8,43.7,50.2z"/>
	<path d="M54.5,38.8l-8.3,11.3c-0.5,0.6-1.4,0.8-2,0.3h0c-0.6-0.5-0.8-1.4-0.3-2l8.3-11.3c0.5-0.6,1.4-0.8,2-0.3l0,0
		C54.8,37.3,54.9,38.2,54.5,38.8z"/>
</g>
</svg>
