<?xml version="1.0" encoding="utf-8"?>
<!-- Generator: Adobe Illustrator 23.0.3, SVG Export Plug-In . SVG Version: 6.00 Build 0)  -->
<svg version="1.1" id="Layer_1" xmlns="http://www.w3.org/2000/svg" xmlns:xlink="http://www.w3.org/1999/xlink" x="0px" y="0px"
	 viewBox="0 0 70 70" style="enable-background:new 0 0 70 70;" xml:space="preserve">
<style type="text/css">
	.st0{fill:none;stroke:#000000;stroke-width:2.5;stroke-linecap:round;stroke-linejoin:round;}
</style>
<g>
	<path class="st0" d="M30.8,43.6V31.2c0-0.9,0.8-1.5,1.5-1l9,6.2c0.2,0.1,0.3,0.3,0.4,0.5c0.1,0.2,0.1,0.4,0.1,0.6
		c0,0.2,0,0.4-0.1,0.6c-0.1,0.2-0.2,0.3-0.4,0.5l-9,6.3C31.5,45.1,30.8,44.5,30.8,43.6z"/>
	<path class="st0" d="M47.4,17.2H25.3c-2,0-3.7,1.7-3.7,3.7V54c0,2,1.7,3.7,3.7,3.7h22.1c2,0,3.7-1.7,3.7-3.7V20.8
		C51,18.8,49.4,17.2,47.4,17.2z"/>
	<path class="st0" d="M12.3,22.7v29.5"/>
	<path class="st0" d="M60.3,22.7v29.5"/>
</g>
</svg>
