<?xml version="1.0" encoding="utf-8"?>
<!-- Generator: Adobe Illustrator 23.0.3, SVG Export Plug-In . SVG Version: 6.00 Build 0)  -->
<svg version="1.1" id="Layer_1" xmlns="http://www.w3.org/2000/svg" xmlns:xlink="http://www.w3.org/1999/xlink" x="0px" y="0px"
	 viewBox="0 0 70 70" style="enable-background:new 0 0 70 70;" xml:space="preserve">
<g>
	<path d="M11.6,29.5c0.3,0.1,0.6,0.2,0.9,0.2c0.3,0,0.6-0.1,0.9-0.3l10.4-7.4c0.5-0.3,0.7-0.9,0.7-1.4s-0.3-1.1-0.7-1.4l-10.4-7.4
		c-0.3-0.2-0.8-0.4-1.2-0.3c-0.4,0-0.8,0.2-1.1,0.6c-0.3,0.3-0.4,0.7-0.4,1.2v14.9v0c0,0.3,0.1,0.6,0.3,0.9
		C11.1,29.1,11.4,29.3,11.6,29.5L11.6,29.5z M14.2,16.4l5.7,4.1l-5.7,4.1V16.4z"/>
	<path d="M57.6,55.2H12.4c-0.6,0-1.2,0.3-1.5,0.9c-0.3,0.5-0.3,1.2,0,1.7c0.3,0.5,0.9,0.9,1.5,0.9h45.1c0.6,0,1.2-0.3,1.5-0.9
		s0.3-1.2,0-1.7C58.8,55.5,58.2,55.2,57.6,55.2z"/>
	<path d="M57.6,44.8H12.4c-0.6,0-1.2,0.3-1.5,0.9c-0.3,0.5-0.3,1.2,0,1.7c0.3,0.5,0.9,0.9,1.5,0.9h45.1c0.6,0,1.2-0.3,1.5-0.9
		s0.3-1.2,0-1.7S58.2,44.8,57.6,44.8z"/>
	<path d="M57.6,34.4H12.4c-0.6,0-1.2,0.3-1.5,0.9c-0.3,0.5-0.3,1.2,0,1.7c0.3,0.5,0.9,0.9,1.5,0.9h45.1c0.6,0,1.2-0.3,1.5-0.9
		s0.3-1.2,0-1.7S58.2,34.4,57.6,34.4z"/>
	<path d="M57.6,24h-26c-0.6,0-1.2,0.3-1.5,0.9c-0.3,0.5-0.3,1.2,0,1.7s0.9,0.9,1.5,0.9h26c0.6,0,1.2-0.3,1.5-0.9
		c0.3-0.5,0.3-1.2,0-1.7C58.8,24.3,58.2,24,57.6,24z"/>
	<path d="M31.5,17h26c0.6,0,1.2-0.3,1.5-0.9c0.3-0.5,0.3-1.2,0-1.7c-0.3-0.5-0.9-0.9-1.5-0.9h-26c-0.6,0-1.2,0.3-1.5,0.9
		s-0.3,1.2,0,1.7C30.3,16.7,30.9,17,31.5,17z"/>
</g>
</svg>
