<?xml version="1.0" encoding="utf-8"?>
<!-- Generator: Adobe Illustrator 23.0.3, SVG Export Plug-In . SVG Version: 6.00 Build 0)  -->
<svg version="1.1" id="Layer_1" xmlns="http://www.w3.org/2000/svg" xmlns:xlink="http://www.w3.org/1999/xlink" x="0px" y="0px"
	 viewBox="0 0 70 70" style="enable-background:new 0 0 70 70;" xml:space="preserve">
<style type="text/css">
	.st0{clip-path:url(#SVGID_2_);}
	.st1{fill:#010101;}
</style>
<g>
	<defs>
		<rect id="SVGID_1_" x="15.9" y="13.3" width="38.2" height="43.3"/>
	</defs>
	<clipPath id="SVGID_2_">
		<use xlink:href="#SVGID_1_"  style="overflow:visible;"/>
	</clipPath>
	<g class="st0">
		<path class="st1" d="M17.3,50.8c0.9,0.9,2.1,1.4,3.4,1.4c1.3,0,2.5-0.5,3.4-1.4l0.7-0.7c0.9,0.6,1.9,1,3,0.9c1-0.1,2-0.5,2.8-1.3
			l1.3-1.3l7.3,7.4c0.6,0.6,1.4,0.9,2.3,0.9c1,0,1.9-0.4,2.6-1.1c0.7-0.7,1.1-1.6,1.2-2.6c0.1-1-0.3-1.9-0.9-2.5L37,43.1
			c2.9-2.6,5.8-3.3,9.6-3.4l0.4,0.4c0.7,0.7,1.6,1.1,2.5,1.1s1.9-0.4,2.5-1.1c0.7-0.7,1-1.6,1-2.6s-0.3-1.9-1-2.6L32.9,15.3
			c-0.7-0.7-1.6-1.1-2.5-1.1c-1,0-1.8,0.4-2.5,1.1c-0.8,0.7-1.1,1.6-1.1,2.6c0,1,0.3,1.9,1,2.6l0.4,0.4c-0.2,4.2-0.9,7.3-4,10.5
			l-5.7,5.8C17.7,38,17.3,39,17.2,40c-0.1,1.1,0.3,2.1,0.9,3l-0.7,0.7c-0.9,0.9-1.4,2.1-1.4,3.4C16,48.5,16.4,49.9,17.3,50.8z
			 M18.8,49.2c-0.5-0.5-0.8-1.1-0.8-1.9c0-0.7,0.3-1.4,0.8-1.9l0.7-0.7l3.7,3.8l-0.7,0.7c-0.5,0.5-1.1,0.8-1.8,0.8
			C20,50,19.3,49.8,18.8,49.2z M42.5,53.9c-0.5,0.5-1.4,0.7-1.8,0.3l-7.3-7.4l2.1-2.1l7.3,7.4C43.2,52.5,43.1,53.3,42.5,53.9z
			 M29.3,16.9c0.3-0.4,0.7-0.4,1-0.4c0.3,0,0.8,0.2,1,0.4l19.3,19.6c0.3,0.3,0.4,0.6,0.4,1.1c0,0.4-0.2,0.8-0.4,1.1
			c-0.3,0.3-0.6,0.4-1,0.4c-0.3,0-0.8-0.2-1-0.4L29.3,18.9c-0.3-0.3-0.3-0.6-0.3-1.1C28.9,17.5,29,17.1,29.3,16.9z M44.6,37.6
			c-3.4,0.4-6.3,1.3-9.1,3.9l-9-9.1c2.5-2.9,3.5-5.8,3.8-9.3L44.6,37.6z M20,38.9l5-5l9,9.1l-5,5.1c-0.4,0.4-1,0.7-1.6,0.7
			c-0.6,0-1.1-0.3-1.6-0.7L20,42.2c-0.4-0.4-0.6-1.1-0.6-1.7S19.5,39.3,20,38.9z"/>
		<path class="st1" d="M48.2,17.8l-2.3,2.4c-0.3,0.4-0.3,1.1,0.1,1.5c0.4,0.4,1,0.4,1.5,0.1l2.3-2.4c0.4-0.4,0.4-1.1,0-1.6
			C49.3,17.3,48.6,17.3,48.2,17.8z"/>
		<path class="st1" d="M53,25.5l-3.2,0.1c-0.6,0-1,0.5-1,1.1c0,0.6,0.5,1.1,1.1,1.1h0.1l3.2-0.2c0.6,0,1-0.5,1-1.1
			C54,26,53.5,25.4,53,25.5z"/>
		<path class="st1" d="M40.9,18.8c0.6,0,1-0.5,1-1.1l0.2-3.3c0-0.6-0.4-1.1-1-1.1c-0.6,0-1.1,0.4-1.1,1.1l-0.2,3.3
			c0,0.3,0.1,0.6,0.3,0.8C40.3,18.6,40.6,18.8,40.9,18.8z"/>
	</g>
</g>
</svg>
