<?xml version="1.0" encoding="utf-8"?>
<!-- Generator: Adobe Illustrator 23.0.3, SVG Export Plug-In . SVG Version: 6.00 Build 0)  -->
<svg version="1.1" id="Layer_1" xmlns="http://www.w3.org/2000/svg" xmlns:xlink="http://www.w3.org/1999/xlink" x="0px" y="0px"
	 viewBox="0 0 70 70" style="enable-background:new 0 0 70 70;" xml:space="preserve">
<style type="text/css">
	.st0{fill:none;stroke:#000000;stroke-width:2.5;stroke-miterlimit:10;}
	.st1{stroke:#000000;stroke-width:0.25;stroke-miterlimit:10;}
</style>
<g>
	<path class="st0" d="M15.9,52.1h34.9c0.8,0,1.4-0.6,1.4-1.4V15.8c0-1.1-0.9-1.9-1.9-1.9H15.6c-0.9,0-1.6,0.7-1.6,1.6v34.7
		C14,51.3,14.8,52.1,15.9,52.1z"/>
	<path class="st0" d="M18.7,56.1l33-0.1c2.4,0,4.3-1.9,4.3-4.3V18.9"/>
</g>
<path class="st1" d="M43.9,27.4c0.5-0.1,0.8-0.6,0.6-1.1c-0.1-0.5-0.6-0.8-1.1-0.6c-4.7,1.2-9.7-5.5-9.7-5.6c-0.2-0.3-0.6-0.4-1-0.3
	c-0.4,0.1-0.6,0.5-0.6,0.8v15.2c-1.1-1.2-2.7-1.9-4.4-1.9c-3.4,0-6.2,2.8-6.2,6.2s2.8,6.2,6.2,6.2s6.2-2.8,6.2-6.2V23
	C36.1,25.2,39.9,28.4,43.9,27.4L43.9,27.4z M27.8,44.5c-2.4,0-4.4-2-4.4-4.4c0-2.4,2-4.4,4.4-4.4s4.4,2,4.4,4.4
	C32.2,42.5,30.2,44.5,27.8,44.5z"/>
</svg>
