<?xml version="1.0" encoding="utf-8"?>
<!-- Generator: Adobe Illustrator 23.0.3, SVG Export Plug-In . SVG Version: 6.00 Build 0)  -->
<svg version="1.1" id="Layer_1" xmlns="http://www.w3.org/2000/svg" xmlns:xlink="http://www.w3.org/1999/xlink" x="0px" y="0px"
	 viewBox="0 0 70 70" style="enable-background:new 0 0 70 70;" xml:space="preserve">
<style type="text/css">
	.st0{fill:none;stroke:#000000;stroke-width:2.5;stroke-linecap:round;stroke-linejoin:round;}
</style>
<g>
	<path class="st0" d="M23,61.6l11.1-26c0.1-0.3,0.3-0.5,0.5-0.6c0.2-0.2,0.5-0.2,0.8-0.2s0.5,0.1,0.8,0.2c0.2,0.2,0.4,0.4,0.5,0.6
		l11.1,26"/>
	<path class="st0" d="M28,50h14.8"/>
	<path class="st0" d="M12.4,27.9c0-3.3,1.3-6.5,3.6-8.8s5.5-3.6,8.8-3.6"/>
	<path class="st0" d="M12.4,27.9c0-3.3,1.3-6.5,3.6-8.8s5.5-3.6,8.8-3.6"/>
	<path class="st0" d="M21.2,27.9c0-0.9,0.4-1.8,1-2.5c0.7-0.7,1.6-1,2.5-1"/>
	<path class="st0" d="M21.2,27.9c0-0.9,0.4-1.8,1-2.5c0.7-0.7,1.6-1,2.5-1"/>
	<path class="st0" d="M46.1,15.5c3.3,0,6.5,1.3,8.8,3.6s3.6,5.5,3.6,8.8"/>
	<path class="st0" d="M46.1,15.5c3.3,0,6.5,1.3,8.8,3.6s3.6,5.5,3.6,8.8"/>
	<path class="st0" d="M46.1,24.4c0.9,0,1.8,0.4,2.5,1c0.7,0.7,1,1.6,1,2.5"/>
	<path class="st0" d="M46.1,24.4c0.9,0,1.8,0.4,2.5,1c0.7,0.7,1,1.6,1,2.5"/>
</g>
</svg>
