<?xml version="1.0" encoding="utf-8"?>
<!-- Generator: Adobe Illustrator 23.0.3, SVG Export Plug-In . SVG Version: 6.00 Build 0)  -->
<svg version="1.1" id="Layer_1" xmlns="http://www.w3.org/2000/svg" xmlns:xlink="http://www.w3.org/1999/xlink" x="0px" y="0px"
	 viewBox="0 0 70 70" style="enable-background:new 0 0 70 70;" xml:space="preserve">
<g>
	<path d="M43.1,12.3c-0.5,0-0.9,0.2-1,0.7l-1.6,3.7H15.1c-3,0-5.4,2.4-5.4,5.4v15.2c0,3,2.4,5.4,5.4,5.4h1.1v5.4
		c0,0.4,0.2,0.9,0.7,0.9c0,0.2,0.2,0.2,0.4,0.2c0.2,0,0.4,0,0.7-0.2l8.5-6.3h2.7L26,49.9c-0.2,0.7,0,1.3,0.7,1.5h0.4
		c0.4,0,0.9-0.2,1.1-0.7l1.6-3.7c0.2,0,0.4,0,0.6,0h14.7l8.5,6.3c0.2,0.2,0.4,0.2,0.7,0.2c0.2,0,0.2,0,0.4-0.2
		c0.4,0,0.7-0.4,0.7-0.9v-5.4h1.1c3,0,5.4-2.4,5.4-5.4V26.5c0-3-2.4-5.4-5.4-5.4H41.1l3.1-7.2c0.2-0.4,0-1.1-0.7-1.5
		C43.4,12.4,43.2,12.3,43.1,12.3L43.1,12.3z M15.1,18.9h24.3l-8.3,19c0.2-0.6,0-1.3-0.4-1.5c-1.8-0.9-3.3-2.2-4.5-3.7
		c1.6-2.1,2.6-4.7,2.9-7.4h1.2c0.7,0,1.1-0.4,1.1-1.1c0-0.7-0.4-1.1-1.1-1.1H26v-1.1c0-0.7-0.4-1.1-1.1-1.1s-1.1,0.4-1.1,1.1v1.1
		h-4.3c-0.7,0-1.1,0.4-1.1,1.1c0,0.7,0.4,1.1,1.1,1.1h1.4c0.3,2.6,1.2,5.1,2.7,7.3c-0.7,0.7-1.5,1.4-2.3,2c-0.7,0.4-0.7,1.1-0.4,1.5
		c0.2,0.2,0.4,0.4,0.9,0.4c0.2,0,0.4,0,0.7-0.2c0.9-0.6,1.8-1.3,2.5-2c1.4,1.5,3,2.8,4.8,3.8c0,0.2,0.2,0.2,0.4,0.2
		c0.2,0,0.6-0.2,1.1-0.4l-1.1,2.6H26c-0.2,0-0.4,0-0.7,0.2L18.4,46v-4.3c0-0.7-0.4-1.1-1.1-1.1h-2.2c-1.7,0-3.3-1.5-3.3-3.3V22.2
		C11.9,20.4,13.4,18.9,15.1,18.9L15.1,18.9z M40.1,23.3h16.2c1.7,0,3.3,1.5,3.3,3.3v15.2c0,1.7-1.5,3.3-3.3,3.3h-2.2
		c-0.7,0-1.1,0.4-1.1,1.1v4.3l-6.9-5c-0.2-0.2-0.4-0.2-0.7-0.2H30.6L40.1,23.3z M23.1,25.4H27c-0.3,2-1,3.9-2,5.5
		C23.9,29.3,23.3,27.4,23.1,25.4L23.1,25.4z M43.3,27.6c-1.7,0-3.3,1.5-3.3,3.3v8.7c0,0.7,0.4,1.1,1.1,1.1s1.1-0.4,1.1-1.1v-3.3h6.5
		v3.3c0,0.7,0.4,1.1,1.1,1.1c0.7,0,1.1-0.4,1.1-1.1v-8.7c0-1.7-1.5-3.3-3.3-3.3L43.3,27.6z M43.3,29.8h4.3c0.7,0,1.1,0.4,1.1,1.1
		v3.3h-6.5v-3.3C42.3,30.2,42.7,29.8,43.3,29.8L43.3,29.8z"/>
</g>
</svg>
