<?xml version="1.0" encoding="utf-8"?>
<!-- Generator: Adobe Illustrator 23.0.3, SVG Export Plug-In . SVG Version: 6.00 Build 0)  -->
<svg version="1.1" id="Layer_1" xmlns="http://www.w3.org/2000/svg" xmlns:xlink="http://www.w3.org/1999/xlink" x="0px" y="0px"
	 viewBox="0 0 70 70" style="enable-background:new 0 0 70 70;" xml:space="preserve">
<style type="text/css">
	.st0{stroke:#000000;stroke-width:0.25;stroke-miterlimit:10;}
</style>
<g>
	<path class="st0" d="M50.8,36.8c-1.4,0-2.7,0.7-3.4,1.9c-0.7-1.1-2-1.9-3.4-1.9c-1.1,0-2.1,0.4-2.9,1.2c-0.2,0.2-0.4,0.4-0.5,0.7
		c-0.7-1.1-2-1.9-3.4-1.9c-1,0-2,0.4-2.8,1.1v-3.3l6.9-6.9c1.9-1.9,2.9-4.3,2.9-6.9c0-2.4-0.8-4.6-2.4-6.4l0.8-0.8
		c0.4-0.4,0.6-1,0.6-1.5c0-0.6-0.2-1.1-0.6-1.5l-0.9-0.9c-0.8-0.8-2.2-0.8-3.1,0l-0.8,0.8c-3.9-3.3-9.7-3.2-13.4,0.5L17.2,18
		l-4.8,1.6c-0.5,0.2-0.9,0.6-1,1.1c-0.1,0.5,0,1.1,0.4,1.5l6.1,6.1c-1.2,1.7-1.1,4,0.4,5.5c0.8,0.8,1.9,1.2,3,1.2
		c0.9,0,1.8-0.3,2.5-0.8l2.4,2.4V47l-6.3-6.3c-0.8-0.8-1.8-1.2-2.9-1.2c-1.1,0-2.1,0.4-2.9,1.2c-1.6,1.6-1.6,4.2,0,5.8l12.3,12.3
		c0.1,0.1,0.3,0.2,0.5,0.2h23.7c0,0,0,0,0,0c0,0,0,0,0,0h3.8c0.4,0,0.7-0.3,0.7-0.7l0-17.4C54.9,38.7,53.1,36.8,50.8,36.8L50.8,36.8
		z M19.2,32.9c-1-1-1.1-2.5-0.4-3.6l4,4C21.7,34,20.2,33.9,19.2,32.9L19.2,32.9z M40.7,10.5l0.9,0.9c0.2,0.2,0.2,0.4,0.2,0.6
		c0,0.2-0.1,0.4-0.2,0.6l-0.8,0.8L39.5,12l-0.7-0.7l0.8-0.8C39.9,10.2,40.4,10.2,40.7,10.5L40.7,10.5z M20,28.5l-0.7-0.7
		c0,0,0,0,0,0l-6.5-6.5c-0.1-0.1-0.1-0.2-0.1-0.2c0,0,0-0.1,0.2-0.2l5-1.7c0.1,0,0.2-0.1,0.3-0.2l7.3-7.3c1.7-1.7,3.8-2.5,6-2.5
		c2.2,0,4.3,0.8,6,2.5l1.1,1.1l1.9,1.9c1.6,1.6,2.5,3.7,2.5,6c0,2.3-0.9,4.4-2.5,6l-6,6v-7.4c0-2.3-1.8-4.1-4.1-4.1
		c-1.1,0-2.1,0.4-2.9,1.2c-0.8,0.8-1.2,1.8-1.2,2.9v9.4L20,28.5z M53.6,57.7h-2.4v-4c0-0.4-0.3-0.7-0.7-0.7s-0.7,0.3-0.7,0.7v4H27.1
		L15,45.5c-1.1-1.1-1.1-2.8,0-3.9c0.5-0.5,1.2-0.8,2-0.8c0.7,0,1.4,0.3,2,0.8l7.5,7.5c0.2,0.2,0.5,0.2,0.7,0.1
		c0.2-0.1,0.4-0.3,0.4-0.6V25.4c0-0.7,0.3-1.4,0.8-1.9c0.5-0.5,1.2-0.8,2-0.8c1.5,0,2.8,1.2,2.8,2.8v15.5c0,0.4,0.3,0.7,0.7,0.7
		c0.4,0,0.7-0.3,0.7-0.7c0-0.7,0.3-1.4,0.8-2c0.5-0.5,1.2-0.8,2-0.8c1.5,0,2.8,1.2,2.8,2.8c0,0.4,0.3,0.7,0.7,0.7
		c0.4,0,0.7-0.3,0.7-0.7c0-0.7,0.3-1.4,0.8-2c0.5-0.5,1.2-0.8,2-0.8c1.5,0,2.8,1.2,2.8,2.8c0,0.4,0.3,0.7,0.7,0.7s0.7-0.3,0.7-0.7
		c0-1.5,1.2-2.8,2.8-2.8c1.5,0,2.8,1.2,2.8,2.8L53.6,57.7z"/>
	<path class="st0" d="M50.5,48.3c-0.4,0-0.7,0.3-0.7,0.7v1c0,0.4,0.3,0.7,0.7,0.7s0.7-0.3,0.7-0.7v-1C51.1,48.6,50.8,48.3,50.5,48.3
		z"/>
	<path class="st0" d="M22.4,17.7l-0.5,0.5c-0.3,0.3-0.3,0.7,0,0.9c0.1,0.1,0.3,0.2,0.5,0.2s0.3-0.1,0.5-0.2l0.5-0.5
		c0.3-0.3,0.3-0.7,0-0.9C23,17.5,22.6,17.5,22.4,17.7L22.4,17.7z"/>
	<path class="st0" d="M27.8,14.2c1-1,2.2-1.5,3.6-1.5c1.4,0,2.6,0.5,3.6,1.5c0.3,0.3,0.7,0.3,0.9,0s0.3-0.7,0-0.9
		c-1.2-1.2-2.8-1.9-4.5-1.9c-1.7,0-3.3,0.7-4.5,1.9l-1.5,1.5c-0.3,0.3-0.3,0.7,0,0.9c0.1,0.1,0.3,0.2,0.5,0.2c0.2,0,0.3-0.1,0.5-0.2
		L27.8,14.2z"/>
</g>
</svg>
