<svg width="26" height="26" viewBox="0 0 26 26" fill="none" xmlns="http://www.w3.org/2000/svg">
<path d="M20.3846 8.38462C22.4238 8.38462 24.0769 6.73151 24.0769 4.69231C24.0769 2.6531 22.4238 1 20.3846 1C18.3454 1 16.6923 2.6531 16.6923 4.69231C16.6923 6.73151 18.3454 8.38462 20.3846 8.38462Z" stroke="black" stroke-width="1.71429" stroke-linecap="round" stroke-linejoin="round"/>
<path d="M20.3846 12.0771C15.7692 12.0771 15.7692 25.0002 15.7692 25.0002H25C25 25.0002 25 12.0771 20.3846 12.0771Z" stroke="black" stroke-width="1.71429" stroke-linecap="round" stroke-linejoin="round"/>
<path d="M5.61534 8.38462C7.65455 8.38462 9.30765 6.73151 9.30765 4.69231C9.30765 2.6531 7.65455 1 5.61534 1C3.57614 1 1.92303 2.6531 1.92303 4.69231C1.92303 6.73151 3.57614 8.38462 5.61534 8.38462Z" stroke="black" stroke-width="1.71429" stroke-linecap="round" stroke-linejoin="round"/>
<path d="M5.61538 25.0002C1 25.0002 1 12.0771 1 12.0771H10.2308C10.2308 12.0771 10.2308 25.0002 5.61538 25.0002Z" stroke="black" stroke-width="1.71429" stroke-linecap="round" stroke-linejoin="round"/>
</svg>
