<?xml version="1.0" encoding="utf-8"?>
<!-- Generator: Adobe Illustrator 23.0.3, SVG Export Plug-In . SVG Version: 6.00 Build 0)  -->
<svg version="1.1" id="Layer_1" xmlns="http://www.w3.org/2000/svg" xmlns:xlink="http://www.w3.org/1999/xlink" x="0px" y="0px"
	 viewBox="0 0 70 70" style="enable-background:new 0 0 70 70;" xml:space="preserve">
<style type="text/css">
	.st0{fill:none;stroke:#000000;stroke-width:2.5;stroke-linecap:round;stroke-linejoin:round;}
</style>
<g>
	<path class="st0" d="M39.4,57.3c0,0.6-0.2,1.2-0.5,1.7s-0.7,1-1.3,1.3c-0.5,0.3-1.1,0.5-1.7,0.5c-0.6,0-1.2-0.1-1.8-0.4l-14.3-7.2
		c-0.6-0.3-1.1-0.8-1.4-1.3c-0.3-0.6-0.5-1.2-0.5-1.9V14.3l19.5,9.8c0.6,0.3,1.1,0.8,1.4,1.3c0.3,0.6,0.5,1.2,0.5,1.9L39.4,57.3
		L39.4,57.3z"/>
	<path class="st0" d="M17.9,14.3h32.3c1,0,1.9,0.4,2.5,1c0.7,0.7,1,1.6,1,2.5v32.3c0,1-0.4,1.9-1,2.5c-0.7,0.7-1.6,1-2.5,1H39.4"/>
</g>
</svg>
