<?xml version="1.0" encoding="utf-8"?>
<!-- Generator: Adobe Illustrator 23.0.3, SVG Export Plug-In . SVG Version: 6.00 Build 0)  -->
<svg version="1.1" id="Layer_1" xmlns="http://www.w3.org/2000/svg" xmlns:xlink="http://www.w3.org/1999/xlink" x="0px" y="0px"
	 viewBox="0 0 70 70" style="enable-background:new 0 0 70 70;" xml:space="preserve">
<style type="text/css">
	.st0{fill:none;stroke:#000000;stroke-width:2.5;stroke-linecap:round;stroke-linejoin:round;}
</style>
<g>
	<path class="st0" d="M51.6,36.7V30c0-0.9-0.3-1.7-1-2.3c-0.6-0.6-1.5-1-2.3-1H16.8c-0.9,0-1.7,0.3-2.3,1c-0.6,0.6-1,1.5-1,2.3v23.2
		c0,0.9,0.3,1.7,1,2.3c0.6,0.6,1.5,1,2.3,1h31.5c0.9,0,1.7-0.3,2.3-1c0.6-0.6,1-1.5,1-2.3v-8.3"/>
	<path class="st0" d="M24.5,18.4l18.8-4.9c0.2-0.1,0.4-0.1,0.7,0c0.2,0,0.4,0.1,0.6,0.2c0.2,0.1,0.4,0.3,0.5,0.4
		c0.1,0.2,0.2,0.4,0.3,0.6l0.9,3.7"/>
	<path class="st0" d="M54.9,36.7h-8.3c-0.9,0-1.7,0.7-1.7,1.7v5c0,0.9,0.7,1.7,1.7,1.7h8.3c0.9,0,1.7-0.7,1.7-1.7v-5
		C56.6,37.4,55.8,36.7,54.9,36.7z"/>
</g>
</svg>
