<svg width="23" height="23" viewBox="0 0 23 23" fill="none" xmlns="http://www.w3.org/2000/svg">
<path d="M9.43063 0.948997C9.61258 0.658541 9.86534 0.419077 10.1652 0.253081C10.4651 0.0870848 10.8022 0 11.1449 0C11.4877 0 11.8248 0.0870848 12.1246 0.253081C12.4245 0.419077 12.6773 0.658541 12.8592 0.948997L16.1849 6.21185L20.5221 6.74328C20.8818 6.78347 21.2237 6.92107 21.511 7.14125C21.7982 7.36143 22.02 7.65583 22.1522 7.99273C22.2845 8.32963 22.3224 8.69625 22.2617 9.05307C22.201 9.40988 22.044 9.74337 21.8078 10.0176L18.1906 14.1661L19.3563 19.909C19.4294 20.2837 19.394 20.6715 19.2543 21.0268C19.1147 21.3821 18.8765 21.6901 18.5678 21.9147C18.2552 22.1352 17.8869 22.2634 17.505 22.2846C17.1231 22.3058 16.7428 22.2192 16.4078 22.0347L11.1449 19.1547L5.88206 22.0347C5.54698 22.2192 5.16678 22.3058 4.78484 22.2846C4.40291 22.2634 4.03463 22.1352 3.72206 21.9147C3.41336 21.6901 3.17518 21.3821 3.03549 21.0268C2.89581 20.6715 2.86042 20.2837 2.93349 19.909L4.0992 14.1661L0.482058 10.0176C0.245805 9.74337 0.0888692 9.40988 0.0281669 9.05307C-0.0325355 8.69625 0.00529777 8.32963 0.137589 7.99273C0.269879 7.65583 0.49161 7.36143 0.778881 7.14125C1.06615 6.92107 1.40807 6.78347 1.76777 6.74328L6.10492 6.21185L9.43063 0.948997Z" fill="#E69C24"/>
</svg>
