<svg width="26" height="23" viewBox="0 0 26 23" fill="none" xmlns="http://www.w3.org/2000/svg">
<path d="M6.92 9.85267L11.2743 2.89267C11.443 2.61757 11.6802 2.39087 11.9626 2.23465C12.245 2.07843 12.563 1.99802 12.8857 2.00124V2.00124C13.1399 1.99206 13.3933 2.03393 13.631 2.12437C13.8687 2.21481 14.0859 2.35198 14.2696 2.52777C14.4534 2.70357 14.6001 2.91442 14.701 3.14787C14.8019 3.38133 14.855 3.63264 14.8571 3.88695V8.87552H22.3829C22.6609 8.88454 22.934 8.95232 23.184 9.0744C23.434 9.19648 23.6553 9.3701 23.8335 9.58384C24.0116 9.79758 24.1424 10.0466 24.2174 10.3145C24.2924 10.5825 24.3098 10.8632 24.2686 11.1384L22.8971 19.9841C22.8386 20.4568 22.6095 20.8919 22.2528 21.2076C21.8961 21.5233 21.4363 21.6978 20.96 21.6984H9.71428C9.17895 21.7005 8.65055 21.5772 8.17143 21.3384L6.93714 20.7212" stroke="black" stroke-width="2.5" stroke-linecap="round" stroke-linejoin="round"/>
<path d="M6.92 9.85278V20.6699" stroke="black" stroke-width="2.5" stroke-linecap="round" stroke-linejoin="round"/>
<path d="M2.85714 9.85278H6.92V20.6699H2.85714C2.62981 20.6699 2.4118 20.5796 2.25105 20.4189C2.09031 20.2581 2 20.0401 2 19.8128V10.7099C2 10.4826 2.09031 10.2646 2.25105 10.1038C2.4118 9.94309 2.62981 9.85278 2.85714 9.85278V9.85278Z" stroke="black" stroke-width="2.5" stroke-linecap="round" stroke-linejoin="round"/>
</svg>
