<?xml version="1.0" encoding="utf-8"?>
<!-- Generator: Adobe Illustrator 23.0.3, SVG Export Plug-In . SVG Version: 6.00 Build 0)  -->
<svg version="1.1" id="Layer_1" xmlns="http://www.w3.org/2000/svg" xmlns:xlink="http://www.w3.org/1999/xlink" x="0px" y="0px"
	 viewBox="0 0 70 70" style="enable-background:new 0 0 70 70;" xml:space="preserve">
<g>
	<g>
		<path d="M45.1,57.2c-0.5,0-0.9-0.2-1.1-0.6L31.5,25.7L19,56.5c-0.2,0.5-0.8,0.8-1.4,0.6c-0.6-0.2-0.9-0.7-0.7-1.2l13.6-33.5
			c0.3-0.8,1.8-0.8,2.2,0l13.6,33.5c0.2,0.5-0.1,1-0.7,1.2C45.3,57.2,45.2,57.2,45.1,57.2L45.1,57.2z"/>
		<path d="M21.3,46h20.5v1.9H21.3L21.3,46z"/>
	</g>
	<g>
		<path d="M54.5,17h-0.3c-0.2-0.7-0.5-1.3-0.8-1.9l0.2-0.2c0.3-0.3,0.5-0.7,0.5-1.1c0-0.4-0.2-0.8-0.5-1.1l-0.8-0.8
			c-0.3-0.3-0.7-0.5-1.1-0.5c-0.4,0-0.8,0.2-1.1,0.5l-0.2,0.2c-0.6-0.4-1.3-0.6-1.9-0.8v-0.3c0-0.4-0.2-0.8-0.5-1.1
			c-0.3-0.3-0.7-0.5-1.1-0.5h-1.1c-0.4,0-0.8,0.2-1.1,0.5C44.2,10,44,10.4,44,10.8v0.3c-0.7,0.2-1.3,0.5-1.9,0.8l-0.2-0.2
			c-0.3-0.3-0.7-0.5-1.1-0.5c-0.4,0-0.8,0.2-1.1,0.5l-0.8,0.8c-0.3,0.3-0.5,0.7-0.5,1.1c0,0.4,0.2,0.8,0.5,1.1L39,15
			c-0.4,0.6-0.6,1.3-0.8,1.9h-0.3c-0.4,0-0.8,0.2-1.1,0.5c-0.3,0.3-0.5,0.7-0.5,1.1v1.1c0,0.4,0.2,0.8,0.5,1.1
			c0.3,0.3,0.7,0.5,1.1,0.5h0.3c0.2,0.7,0.4,1.3,0.8,1.9l-0.2,0.2c-0.3,0.3-0.5,0.7-0.5,1.1c0,0.4,0.2,0.8,0.5,1.1l0.8,0.8
			c0.3,0.3,0.7,0.5,1.1,0.5c0.4,0,0.8-0.2,1.1-0.5l0.2-0.2c0.6,0.3,1.3,0.6,1.9,0.8v0.3c0,0.4,0.2,0.8,0.5,1.1
			c0.3,0.3,0.7,0.5,1.1,0.5h1.1c0.4,0,0.8-0.2,1.1-0.5c0.3-0.3,0.5-0.7,0.5-1.1v-0.3c0.7-0.2,1.3-0.5,1.9-0.8l0.2,0.2
			c0.3,0.3,0.7,0.5,1.1,0.5c0.4,0,0.8-0.2,1.1-0.5l0.8-0.8h0c0.3-0.3,0.5-0.7,0.5-1.1c0-0.4-0.2-0.8-0.5-1.1l-0.2-0.2
			c0.4-0.6,0.6-1.3,0.8-1.9h0.3c0.4,0,0.8-0.2,1.1-0.5c0.3-0.3,0.5-0.7,0.5-1.1v-1.1c0-0.4-0.2-0.8-0.5-1.1
			C55.4,17.1,54.9,17,54.5,17L54.5,17z M54.7,19.7c0,0.1-0.1,0.2-0.2,0.2h-1.4L53,20.5c-0.2,0.9-0.5,1.7-1,2.5l-0.3,0.5l1,1h0
			c0.1,0.1,0.1,0.2,0,0.3l-0.8,0.8h0c0,0-0.1,0.1-0.1,0.1c-0.1,0-0.1,0-0.1-0.1l-1-1l-0.5,0.3c-0.8,0.5-1.6,0.9-2.5,1L47,26v1.4
			c0,0.1-0.1,0.2-0.2,0.2h-1.1c-0.1,0-0.2-0.1-0.2-0.2V26l-0.6-0.1c-0.9-0.2-1.7-0.5-2.5-1l-0.5-0.3l-1,1c-0.1,0.1-0.2,0.1-0.3,0
			l-0.8-0.8h0c-0.1-0.1-0.1-0.2,0-0.3l1-1L40.5,23h0c-0.5-0.8-0.9-1.6-1-2.5l-0.1-0.6h-1.4c-0.1,0-0.2-0.1-0.2-0.2v-1.1
			c0-0.1,0.1-0.2,0.2-0.2h1.4l0.1-0.6h0c0.2-0.9,0.5-1.7,1-2.5l0.3-0.5l-1-1.1c-0.1-0.1-0.1-0.2,0-0.3l0.8-0.8l0,0
			c0.1-0.1,0.2-0.1,0.3,0l1,1l0.5-0.3v0c0.8-0.5,1.6-0.8,2.5-1l0.6-0.1v-1.4c0-0.1,0.1-0.2,0.2-0.2h1.1c0.1,0,0.2,0.1,0.2,0.2v1.4
			l0.6,0.1c0.9,0.2,1.7,0.5,2.5,1l0.5,0.3l1-1v0c0,0,0.1-0.1,0.1-0.1c0.1,0,0.1,0,0.1,0.1l0.8,0.8h0c0.1,0.1,0.1,0.2,0,0.3l-1,1
			l0.3,0.5l0,0c0.5,0.8,0.9,1.6,1,2.5l0.1,0.6h1.4c0.1,0,0.2,0.1,0.2,0.2L54.7,19.7z"/>
		<path d="M46.2,14.1c-1.3,0-2.6,0.5-3.6,1.5c-0.9,0.9-1.5,2.2-1.5,3.6s0.5,2.6,1.5,3.6c0.9,0.9,2.2,1.5,3.6,1.5
			c1.3,0,2.6-0.5,3.6-1.5c0.9-0.9,1.5-2.2,1.5-3.6c0-1.3-0.5-2.6-1.5-3.6C48.9,14.6,47.6,14.1,46.2,14.1z M46.2,22.8
			c-1,0-1.9-0.4-2.6-1.1c-0.7-0.7-1.1-1.6-1.1-2.6c0-1,0.4-1.9,1.1-2.6c0.7-0.7,1.6-1.1,2.6-1.1c1,0,1.9,0.4,2.6,1.1
			c0.7,0.7,1.1,1.6,1.1,2.6c0,1-0.4,1.9-1.1,2.6C48.1,22.4,47.2,22.8,46.2,22.8z"/>
	</g>
</g>
</svg>
