<?xml version="1.0" encoding="utf-8"?>
<!-- Generator: Adobe Illustrator 23.0.3, SVG Export Plug-In . SVG Version: 6.00 Build 0)  -->
<svg version="1.1" id="Layer_1" xmlns="http://www.w3.org/2000/svg" xmlns:xlink="http://www.w3.org/1999/xlink" x="0px" y="0px"
	 viewBox="0 0 70 70" style="enable-background:new 0 0 70 70;" xml:space="preserve">
<style type="text/css">
	.st0{stroke:#000000;stroke-width:0.25;stroke-miterlimit:10;}
</style>
<g>
	<path class="st0" d="M56.2,49.4H13.8c-1.8,0-3.3-1.5-3.3-3.3V16.8c0-1.8,1.5-3.3,3.3-3.3h42.4c1.8,0,3.3,1.5,3.3,3.3v29.3
		C59.5,47.9,58,49.4,56.2,49.4L56.2,49.4z M13.8,14.6c-1.2,0-2.2,1-2.2,2.2v29.3c0,1.2,1,2.2,2.2,2.2h42.4c1.2,0,2.2-1,2.2-2.2
		l0-29.3c0-1.2-1-2.2-2.2-2.2L13.8,14.6z"/>
	<path class="st0" d="M44.7,57.3H25.3c-0.2,0-0.4-0.1-0.5-0.3c-0.1-0.2-0.1-0.4,0.1-0.6l0.7-0.8c1.5-1.9,2.1-4.3,1.6-6.7
		c0-0.2,0-0.3,0.1-0.4c0.1-0.1,0.2-0.2,0.4-0.2h14.7c0.2,0,0.3,0.1,0.4,0.2c0.1,0.1,0.1,0.3,0.1,0.4c-0.5,2.4,0.1,4.8,1.6,6.7v0
		l0.7,0.8c0.1,0.2,0.2,0.4,0.1,0.6C45.1,57.2,44.9,57.3,44.7,57.3L44.7,57.3z M26.4,56.3h17.3c-1.6-1.9-2.3-4.4-1.9-6.9l-13.4,0
		C28.6,51.8,28,54.3,26.4,56.3L26.4,56.3z"/>
	<path class="st0" d="M34.7,32.2c-2.3,0-4.5-0.4-6.7-1.1c-0.2-0.1-0.3-0.2-0.3-0.3c-0.1-0.2,0-0.3,0.1-0.5c0.4-0.5,0.9-1.7,1-2.1
		c0,0,0-0.1,0.1-0.1c0,0,0.2-0.6,0.7-4.4c0.2-1.6,0.9-3,1.9-4c1.3-1.2,2.7-1.3,3.2-1.4c0.5,0,1.9,0.2,3.3,1.4c1.1,1,1.8,2.4,1.9,4
		c0.4,3.8,0.7,4.4,0.7,4.4c0,0,0,0,0,0.1c0.2,0.4,0.7,1.6,1,2.1c0.1,0.1,0.1,0.3,0.1,0.5c-0.1,0.2-0.2,0.3-0.3,0.3l-0.2,0.1
		C39.1,31.9,36.9,32.2,34.7,32.2L34.7,32.2z M29,30.4c3.8,1.1,7.7,1.1,11.5,0c-0.4-0.7-0.7-1.4-0.8-1.7c-0.1-0.2-0.4-0.9-0.8-4.8
		c-0.1-1.3-0.7-2.5-1.6-3.3c-1.1-1-2.2-1.1-2.6-1.1c-0.4,0-1.5,0.1-2.6,1.1c-0.9,0.8-1.5,2-1.6,3.3c-0.4,4-0.7,4.6-0.8,4.8
		C29.7,28.9,29.3,29.7,29,30.4L29,30.4z"/>
	<path class="st0" d="M43.8,44.5H26.2c-0.5,0-0.8-0.4-0.8-0.8c0,0,0-0.1,0-0.1l1.1-4.4c0.4-1.8,1.7-3.2,3.4-3.6l0.2-0.1
		c3.2-0.7,6.4-0.7,9.3-0.1c0.4,0.1,0.7,0.2,1.1,0.3c1.5,0.4,2.7,1.8,3.1,3.4l1.1,4.6c0,0,0,0.1,0,0.1C44.6,44.1,44.3,44.5,43.8,44.5
		L43.8,44.5z M26.5,43.4h17.1l-1-4.2c0,0,0,0,0,0c-0.3-1.3-1.2-2.3-2.3-2.6c-0.4-0.1-0.7-0.2-1.1-0.3c-2.8-0.6-6-0.6-8.8,0.1
		L30,36.5c-1.2,0.3-2.3,1.5-2.6,2.9L26.5,43.4z"/>
	<path class="st0" d="M56.2,49.4H13.8c-1.8,0-3.3-1.5-3.3-3.3V16.8c0-1.8,1.5-3.3,3.3-3.3h42.4c1.8,0,3.3,1.5,3.3,3.3v29.3
		C59.5,47.9,58,49.4,56.2,49.4L56.2,49.4z M13.8,14.6c-1.2,0-2.2,1-2.2,2.2v29.3c0,1.2,1,2.2,2.2,2.2h42.4c1.2,0,2.2-1,2.2-2.2
		l0-29.3c0-1.2-1-2.2-2.2-2.2L13.8,14.6z"/>
	<path class="st0" d="M44.7,57.3H25.3c-0.2,0-0.4-0.1-0.5-0.3c-0.1-0.2-0.1-0.4,0.1-0.6l0.7-0.8c1.5-1.9,2.1-4.3,1.6-6.7
		c0-0.2,0-0.3,0.1-0.4c0.1-0.1,0.2-0.2,0.4-0.2h14.7c0.2,0,0.3,0.1,0.4,0.2c0.1,0.1,0.1,0.3,0.1,0.4c-0.5,2.4,0.1,4.8,1.6,6.7v0
		l0.7,0.8c0.1,0.2,0.2,0.4,0.1,0.6C45.1,57.2,44.9,57.3,44.7,57.3L44.7,57.3z M26.4,56.3h17.3c-1.6-1.9-2.3-4.4-1.9-6.9l-13.4,0
		C28.6,51.8,28,54.3,26.4,56.3L26.4,56.3z"/>
	<path class="st0" d="M34.7,32.2c-2.3,0-4.5-0.4-6.7-1.1c-0.2-0.1-0.3-0.2-0.3-0.3c-0.1-0.2,0-0.3,0.1-0.5c0.4-0.5,0.9-1.7,1-2.1
		c0,0,0-0.1,0.1-0.1c0,0,0.2-0.6,0.7-4.4c0.2-1.6,0.9-3,1.9-4c1.3-1.2,2.7-1.3,3.2-1.4c0.5,0,1.9,0.2,3.3,1.4c1.1,1,1.8,2.4,1.9,4
		c0.4,3.8,0.7,4.4,0.7,4.4c0,0,0,0,0,0.1c0.2,0.4,0.7,1.6,1,2.1c0.1,0.1,0.1,0.3,0.1,0.5c-0.1,0.2-0.2,0.3-0.3,0.3l-0.2,0.1
		C39.1,31.9,36.9,32.2,34.7,32.2L34.7,32.2z M29,30.4c3.8,1.1,7.7,1.1,11.5,0c-0.4-0.7-0.7-1.4-0.8-1.7c-0.1-0.2-0.4-0.9-0.8-4.8
		c-0.1-1.3-0.7-2.5-1.6-3.3c-1.1-1-2.2-1.1-2.6-1.1c-0.4,0-1.5,0.1-2.6,1.1c-0.9,0.8-1.5,2-1.6,3.3c-0.4,4-0.7,4.6-0.8,4.8
		C29.7,28.9,29.3,29.7,29,30.4L29,30.4z"/>
	<path class="st0" d="M43.8,44.5H26.2c-0.5,0-0.8-0.4-0.8-0.8c0,0,0-0.1,0-0.1l1.1-4.4c0.4-1.8,1.7-3.2,3.4-3.6l0.2-0.1
		c3.2-0.7,6.4-0.7,9.3-0.1c0.4,0.1,0.7,0.2,1.1,0.3c1.5,0.4,2.7,1.8,3.1,3.4l1.1,4.6c0,0,0,0.1,0,0.1C44.6,44.1,44.3,44.5,43.8,44.5
		L43.8,44.5z M26.5,43.4h17.1l-1-4.2c0,0,0,0,0,0c-0.3-1.3-1.2-2.3-2.3-2.6c-0.4-0.1-0.7-0.2-1.1-0.3c-2.8-0.6-6-0.6-8.8,0.1
		L30,36.5c-1.2,0.3-2.3,1.5-2.6,2.9L26.5,43.4z"/>
</g>
</svg>
