<?xml version="1.0" encoding="utf-8"?>
<!-- Generator: Adobe Illustrator 23.0.3, SVG Export Plug-In . SVG Version: 6.00 Build 0)  -->
<svg version="1.1" id="Layer_1" xmlns="http://www.w3.org/2000/svg" xmlns:xlink="http://www.w3.org/1999/xlink" x="0px" y="0px"
	 viewBox="0 0 70 70" style="enable-background:new 0 0 70 70;" xml:space="preserve">
<path d="M44.6,38.3h-0.3c-0.2-0.8-0.5-1.5-0.9-2.2l0.2-0.2c0.3-0.3,0.5-0.8,0.5-1.3c0-0.5-0.2-1-0.5-1.3l-0.9-0.9
	c-0.3-0.3-0.8-0.5-1.3-0.5c-0.5,0-1,0.2-1.3,0.5l-0.2,0.2c-0.7-0.4-1.4-0.7-2.2-0.9v-0.3c0-0.5-0.2-1-0.5-1.3
	c-0.3-0.3-0.8-0.5-1.3-0.5h-1.3c-0.5,0-1,0.2-1.3,0.5c-0.3,0.3-0.5,0.8-0.5,1.3v0.3c-0.8,0.2-1.5,0.5-2.2,0.9l-0.2-0.2
	c-0.3-0.3-0.8-0.5-1.3-0.5c-0.5,0-1,0.2-1.3,0.5l-0.9,0.9c-0.3,0.3-0.5,0.8-0.5,1.3c0,0.5,0.2,1,0.5,1.3l0.2,0.2
	c-0.4,0.7-0.7,1.4-0.9,2.2h-0.3c-0.5,0-0.9,0.2-1.3,0.6c-0.3,0.3-0.5,0.8-0.5,1.3v1.3c0,0.5,0.2,1,0.5,1.3c0.3,0.3,0.8,0.5,1.3,0.5
	h0.3c0.2,0.8,0.5,1.5,0.9,2.2l-0.2,0.2c-0.3,0.3-0.5,0.8-0.5,1.3c0,0.5,0.2,1,0.5,1.3l0.9,0.9c0.3,0.3,0.8,0.5,1.3,0.5
	c0.5,0,1-0.2,1.3-0.5l0.2-0.2c0.7,0.4,1.4,0.7,2.2,0.9v0.3c0,0.5,0.2,1,0.5,1.3c0.3,0.3,0.8,0.5,1.3,0.5h1.3c0.5,0,1-0.2,1.3-0.5
	c0.3-0.3,0.5-0.8,0.5-1.3v-0.3c0.8-0.2,1.5-0.5,2.2-0.9l0.2,0.2c0.3,0.3,0.8,0.5,1.3,0.5s1-0.2,1.3-0.5l0.9-0.9h0
	c0.3-0.3,0.5-0.8,0.5-1.3c0-0.5-0.2-1-0.5-1.3l-0.2-0.2c0.4-0.7,0.7-1.4,0.9-2.2h0.3c0.5,0,1-0.2,1.3-0.5c0.3-0.3,0.5-0.8,0.5-1.3
	v-1.3c0-0.5-0.2-1-0.5-1.3C45.6,38.5,45.1,38.3,44.6,38.3L44.6,38.3z M44.9,41.4c0,0.1-0.1,0.2-0.2,0.2H43l-0.1,0.6
	c-0.2,1-0.6,2-1.2,2.8l-0.4,0.5l1.2,1.2h0c0.1,0.1,0.1,0.2,0,0.3l-0.9,0.9h0c0,0-0.1,0.1-0.2,0.1s-0.1,0-0.2-0.1L40.1,47l-0.5,0.4
	c-0.9,0.6-1.8,1-2.8,1.2l-0.6,0.1v1.6c0,0.1-0.1,0.2-0.2,0.2h-1.3c-0.1,0-0.2-0.1-0.2-0.2v-1.6l-0.6-0.1c-1-0.2-2-0.6-2.8-1.2
	L30.3,47l-1.2,1.2c-0.1,0.1-0.2,0.1-0.3,0l-0.9-0.9h0c-0.1-0.1-0.1-0.2,0-0.3l1.2-1.2l-0.4-0.5h0c-0.6-0.9-1-1.8-1.2-2.8l-0.1-0.6
	h-1.6c-0.1,0-0.2-0.1-0.2-0.2v-1.3c0-0.1,0.1-0.2,0.2-0.2h1.6l0.1-0.6h0c0.2-1,0.6-2,1.2-2.8l0.4-0.5l-1.1-1.2
	c-0.1-0.1-0.1-0.2,0-0.3l0.9-0.9l0,0c0.1-0.1,0.2-0.1,0.3,0l1.2,1.2l0.5-0.4v0c0.9-0.6,1.8-1,2.8-1.1l0.6-0.1v-1.6
	c0-0.1,0.1-0.2,0.2-0.2h1.3c0.1,0,0.2,0.1,0.2,0.2v1.6l0.6,0.1c1,0.2,2,0.6,2.8,1.2l0.5,0.4l1.2-1.2v0c0-0.1,0.1-0.1,0.2-0.1
	c0.1,0,0.1,0,0.2,0.1l0.9,0.9h0c0.1,0.1,0.1,0.2,0,0.3l-1.2,1.2l0.4,0.5l0,0c0.6,0.9,1,1.8,1.2,2.8l0.1,0.6h1.6
	c0.1,0,0.2,0.1,0.2,0.2L44.9,41.4z"/>
<path d="M35.2,35c-1.5,0-3,0.6-4.1,1.7c-1.1,1.1-1.7,2.5-1.7,4.1c0,1.5,0.6,3,1.7,4.1c1.1,1.1,2.5,1.7,4.1,1.7c1.5,0,3-0.6,4.1-1.7
	c1.1-1.1,1.7-2.5,1.7-4.1c0-1.5-0.6-3-1.7-4.1C38.2,35.6,36.7,35,35.2,35z M35.2,44.9c-1.1,0-2.2-0.4-2.9-1.2
	c-0.8-0.8-1.2-1.8-1.2-2.9c0-1.1,0.4-2.2,1.2-2.9c0.8-0.8,1.8-1.2,2.9-1.2c1.1,0,2.2,0.4,2.9,1.2c0.8,0.8,1.2,1.8,1.2,2.9
	c0,1.1-0.4,2.2-1.2,2.9C37.4,44.5,36.3,44.9,35.2,44.9z"/>
<path d="M55.1,27.1L37.3,9.2c-0.6-0.6-1.4-1-2.3-1c-0.9,0-1.7,0.3-2.3,1L14.8,27.1c-0.6,0.6-1,1.4-1,2.3c0,0.9,0.3,1.7,1,2.3
	l2.6,2.6c0.5,0.5,1.1,0.8,1.7,0.9v17.7c0,1.3,0.5,2.6,1.5,3.6c1,1,2.2,1.5,3.6,1.5h22.3c1.2,0.1,2.5-0.3,3.4-1.2
	c0.9-0.9,1.3-2.1,1.2-3.4v-18c0-0.1,0-0.1,0-0.2c0.5-0.1,1-0.4,1.4-0.8l2.6-2.6c0.6-0.6,1-1.4,1-2.3C56.1,28.5,55.8,27.7,55.1,27.1
	L55.1,27.1z M46.6,56.2l-22.3,0c-0.9,0-1.8-0.4-2.5-1c-0.7-0.6-1-1.5-1-2.5V35.2l0.3-0.3c0.3-0.2,0.7-0.4,0.9-0.6l4.7-4.7l8.2-7.9
	l7.1,6.9l5.7,5.7c0.2,0.2,0.5,0.4,0.9,0.6l0.8,0.8v17.7v0c0.1,0.8-0.2,1.6-0.8,2.2C48.2,56,47.4,56.3,46.6,56.2L46.6,56.2z M54,30.5
	l-2.6,2.6c-0.2,0.2-0.5,0.4-0.8,0.4c-0.3,0.1-0.6,0-0.9-0.1l-6.4-6.1L35,19l-9.4,9.4l-5.4,5.1c-0.3,0.1-0.6,0.1-0.9,0
	c-0.3-0.1-0.5-0.2-0.8-0.4L16,30.5c-0.3-0.3-0.5-0.7-0.5-1.2c0-0.4,0.2-0.9,0.5-1.2l17.8-17.8c0.3-0.3,0.7-0.5,1.2-0.5
	c0.4,0,0.9,0.2,1.2,0.5L54,28.2c0.3,0.3,0.5,0.7,0.5,1.1C54.5,29.8,54.3,30.2,54,30.5L54,30.5z"/>
</svg>
