<?xml version="1.0" encoding="utf-8"?>
<!-- Generator: Adobe Illustrator 23.0.3, SVG Export Plug-In . SVG Version: 6.00 Build 0)  -->
<svg version="1.1" id="Layer_1" xmlns="http://www.w3.org/2000/svg" xmlns:xlink="http://www.w3.org/1999/xlink" x="0px" y="0px"
	 viewBox="0 0 70 70" style="enable-background:new 0 0 70 70;" xml:space="preserve">
<g>
	<path d="M52,56.5h-3.4c-0.5,0-0.9-0.2-1.3-0.5c-0.3-0.3-0.5-0.8-0.5-1.3v-0.9l-0.6,0.6c-0.3,0.3-0.8,0.5-1.3,0.5
		c-0.5,0-0.9-0.2-1.3-0.5L41.1,52c-0.3-0.3-0.5-0.8-0.5-1.3c0-0.5,0.2-0.9,0.5-1.3l0.6-0.6h-0.9c-0.5,0-0.9-0.2-1.3-0.5
		C39.2,47.9,39,47.5,39,47v-3.4c0-0.5,0.2-0.9,0.5-1.3c0.3-0.3,0.8-0.5,1.3-0.5h0.9l-0.6-0.6h0c-0.3-0.3-0.5-0.8-0.5-1.3
		c0-0.5,0.2-0.9,0.5-1.3l2.4-2.4c0.3-0.3,0.8-0.5,1.3-0.5c0.5,0,0.9,0.2,1.3,0.5l0.6,0.6v-0.9c0-0.5,0.2-0.9,0.5-1.3
		c0.3-0.3,0.8-0.5,1.3-0.5H52c0.5,0,0.9,0.2,1.3,0.5c0.3,0.3,0.5,0.8,0.5,1.3v0.9l0.6-0.6c0.3-0.3,0.8-0.5,1.3-0.5
		c0.5,0,0.9,0.2,1.3,0.5l2.4,2.4h0c0.3,0.3,0.5,0.8,0.5,1.3c0,0.5-0.2,0.9-0.5,1.3l-0.6,0.6h0.9c0.5,0,0.9,0.2,1.3,0.5
		c0.3,0.3,0.5,0.8,0.5,1.3V47c0,0.5-0.2,0.9-0.5,1.3c-0.3,0.3-0.8,0.5-1.3,0.5h-0.9l0.6,0.6c0.3,0.3,0.5,0.8,0.5,1.3
		c0,0.5-0.2,0.9-0.5,1.3L57,54.4c-0.3,0.3-0.8,0.5-1.3,0.5c-0.5,0-0.9-0.2-1.3-0.5l-0.6-0.6v0.9c0,0.5-0.2,0.9-0.5,1.3
		C52.9,56.3,52.4,56.5,52,56.5L52,56.5z M46.9,51.3c0.1,0,0.3,0,0.4,0.1c0.2,0.1,0.4,0.2,0.6,0.3c0.4,0.1,0.6,0.5,0.6,0.9v2.1
		l3.3-0.1l-0.1-2c0-0.4,0.3-0.8,0.6-0.9c0.2-0.1,0.4-0.2,0.6-0.3c0.4-0.2,0.8-0.1,1.1,0.2l1.5,1.5l2.3-2.4l-1.5-1.4v0
		c-0.3-0.3-0.4-0.7-0.2-1.1c0.1-0.2,0.2-0.4,0.3-0.7c0.1-0.4,0.5-0.6,0.9-0.6h2.1l-0.1-3.3l-2,0.1c-0.4,0-0.8-0.3-0.9-0.6
		c-0.1-0.2-0.2-0.4-0.3-0.7v0c-0.2-0.4-0.1-0.8,0.2-1.1l1.5-1.5l-2.4-2.3L54.3,39c-0.3,0.3-0.7,0.4-1.1,0.2
		c-0.2-0.1-0.4-0.2-0.7-0.3c-0.4-0.1-0.6-0.5-0.6-0.9v-2.1L48.7,36v2c0,0.4-0.3,0.8-0.6,0.9c-0.2,0.1-0.4,0.2-0.7,0.3
		c-0.4,0.2-0.8,0.1-1.1-0.2l-1.5-1.5l-2.3,2.4l1.5,1.4c0.3,0.3,0.4,0.7,0.2,1.1c-0.1,0.2-0.2,0.4-0.3,0.7c-0.1,0.4-0.5,0.6-0.9,0.6
		h-2.1L41,47l2-0.1c0.4,0,0.8,0.3,0.9,0.6c0.1,0.2,0.2,0.4,0.3,0.7c0.2,0.4,0.1,0.8-0.2,1.1l-1.5,1.5l2.4,2.3l1.4-1.5v0
		C46.4,51.4,46.7,51.3,46.9,51.3L46.9,51.3z"/>
	<path d="M50.3,49.7c-1.2,0-2.3-0.5-3.1-1.3c-0.8-0.8-1.3-1.9-1.3-3.1c0-1.2,0.5-2.3,1.3-3.1c0.8-0.8,1.9-1.3,3.1-1.3
		c1.2,0,2.3,0.5,3.1,1.3c0.8,0.8,1.3,1.9,1.3,3.1c0,1.2-0.5,2.3-1.3,3.1C52.5,49.2,51.4,49.7,50.3,49.7L50.3,49.7z M50.3,42.8
		c-0.7,0-1.3,0.3-1.7,0.7c-0.5,0.5-0.7,1.1-0.7,1.7c0,0.7,0.3,1.3,0.7,1.7c0.5,0.5,1.1,0.7,1.7,0.7c0.7,0,1.3-0.3,1.7-0.7
		c0.5-0.5,0.7-1.1,0.7-1.7c0-0.7-0.3-1.3-0.7-1.7C51.5,43.1,50.9,42.8,50.3,42.8L50.3,42.8z"/>
	<path d="M33.6,52.6H11.3c-1.3,0-2.5-0.5-3.4-1.4c-0.9-0.9-1.4-2.1-1.4-3.4v-27c0-1.3,0.5-2.5,1.4-3.4c0.9-0.9,2.1-1.4,3.4-1.4h44.5
		c1.3,0,2.5,0.5,3.4,1.4c0.9,0.9,1.4,2.1,1.4,3.4v9.9c0,0.5-0.4,1-1,1c-0.5,0-1-0.4-1-1v-9.9c0-0.8-0.3-1.5-0.8-2
		c-0.5-0.5-1.3-0.8-2-0.8H11.3c-0.8,0-1.5,0.3-2,0.8c-0.5,0.5-0.8,1.3-0.8,2v27c0,0.8,0.3,1.5,0.8,2c0.5,0.5,1.3,0.8,2,0.8h22.3
		c0.5,0,1,0.4,1,1C34.6,52.2,34.1,52.6,33.6,52.6L33.6,52.6z"/>
	<path d="M33.6,37.5c-1.1,0-2.2-0.4-3-1.1L8.9,19.1c-0.2-0.2-0.3-0.4-0.4-0.6c0-0.3,0-0.5,0.2-0.7c0.3-0.4,0.9-0.5,1.4-0.1
		l21.6,17.3c0.5,0.4,1.1,0.6,1.8,0.6c0.7,0,1.3-0.2,1.8-0.6l21.7-17.2c0.4-0.3,1-0.3,1.4,0.2c0.3,0.4,0.3,1-0.2,1.4L36.6,36.4
		C35.8,37.1,34.7,37.5,33.6,37.5L33.6,37.5z"/>
	<path d="M9.4,51.1c-0.4,0-0.8-0.3-0.9-0.6c-0.1-0.4,0-0.8,0.3-1.1l19.6-16.2c0.4-0.3,1-0.3,1.4,0.1c0.3,0.4,0.3,1-0.1,1.4L10,50.9
		C9.8,51,9.6,51.1,9.4,51.1L9.4,51.1z"/>
</g>
</svg>
