<?xml version="1.0" encoding="utf-8"?>
<!-- Generator: Adobe Illustrator 23.0.3, SVG Export Plug-In . SVG Version: 6.00 Build 0)  -->
<svg version="1.1" id="Layer_1" xmlns="http://www.w3.org/2000/svg" xmlns:xlink="http://www.w3.org/1999/xlink" x="0px" y="0px"
	 viewBox="0 0 70 70" style="enable-background:new 0 0 70 70;" xml:space="preserve">
<g>
	<path d="M48.9,37.1c0.3,0,0.6-0.3,0.6-0.6v-4.4v0c0-0.3-0.2-0.6-0.6-0.6L46,31.2c-0.3-1.2-0.8-2.3-1.4-3.4l1.8-2.2
		c0.2-0.2,0.2-0.6,0-0.8l-3.1-3.1c-0.2-0.2-0.6-0.2-0.8,0l-2.2,1.8c-1.1-0.6-2.2-1.1-3.4-1.4l-0.3-2.8c0-0.3-0.3-0.6-0.6-0.6h-4.4
		c-0.3,0-0.6,0.2-0.6,0.6L30.7,22v0c-1.2,0.3-2.3,0.8-3.4,1.4l-2.2-1.8v0c-0.2-0.2-0.6-0.2-0.8,0l-3.1,3.1c-0.2,0.2-0.2,0.6,0,0.8
		l1.8,2.2h0c-0.6,1.1-1.1,2.2-1.4,3.4l-2.8,0.3h0c-0.3,0-0.6,0.3-0.6,0.6v4.4v0c0,0.3,0.2,0.6,0.6,0.6l2.8,0.3
		c0.3,1.2,0.8,2.3,1.4,3.4l-1.8,2.2h0c-0.2,0.2-0.2,0.6,0,0.8l3.1,3.1c0.2,0.2,0.6,0.2,0.8,0l2.2-1.8c1.1,0.6,2.2,1.1,3.4,1.4
		l0.3,2.8c0,0.3,0.3,0.6,0.6,0.6H36c0.3,0,0.6-0.2,0.6-0.6l0.3-2.8c1.2-0.3,2.3-0.8,3.4-1.4l2.2,1.8c0.2,0.2,0.6,0.2,0.8,0l3.1-3.1
		l0,0c0.2-0.2,0.2-0.6,0-0.8l-1.8-2.2v0c0.6-1.1,1.1-2.2,1.4-3.4L48.9,37.1z M45,36.7L45,36.7c-0.3,1.4-0.8,2.6-1.6,3.8
		c-0.1,0.2-0.1,0.5,0,0.7l1.7,2.1l-2.3,2.3l-2.1-1.7c-0.2-0.2-0.5-0.2-0.7,0c-1.2,0.8-2.4,1.3-3.8,1.6c-0.3,0.1-0.5,0.3-0.5,0.6
		l-0.3,2.7h-3.3L31.9,46h0c0-0.3-0.2-0.5-0.5-0.5c-1.4-0.3-2.6-0.8-3.8-1.6c-0.2-0.1-0.5-0.1-0.7,0l-2.1,1.7l-2.3-2.3l1.7-2.1l0,0
		c0.2-0.2,0.2-0.5,0-0.7c-0.8-1.2-1.3-2.4-1.6-3.8c-0.1-0.3-0.3-0.5-0.5-0.5l-2.7-0.3v-3.3l2.7-0.3c0.3,0,0.5-0.2,0.5-0.5
		c0.3-1.4,0.8-2.6,1.6-3.8c0.1-0.2,0.1-0.5,0-0.7l-1.7-2.1l2.3-2.3l2.1,1.7h0c0.2,0.2,0.5,0.2,0.7,0c1.2-0.8,2.4-1.3,3.8-1.6
		c0.3-0.1,0.5-0.3,0.5-0.6l0.3-2.7h3.3l0.3,2.7h0c0,0.3,0.2,0.5,0.5,0.5c1.4,0.3,2.6,0.8,3.8,1.6c0.2,0.1,0.5,0.1,0.7,0l2.1-1.7
		l2.3,2.3l-1.7,2.1c-0.2,0.2-0.2,0.5,0,0.7c0.8,1.2,1.3,2.4,1.6,3.8c0.1,0.3,0.3,0.5,0.5,0.5l2.7,0.3v3.3l-2.7,0.3
		C45.3,36.2,45,36.4,45,36.7L45,36.7z"/>
	<path d="M33.8,24.7c-2.5,0-5,1-6.8,2.8c-1.8,1.8-2.8,4.2-2.8,6.8c0,2.5,1,5,2.8,6.8c1.8,1.8,4.2,2.8,6.8,2.8c2.5,0,5-1,6.8-2.8
		c1.8-1.8,2.8-4.2,2.8-6.8c0-2.5-1-5-2.8-6.8C38.8,25.7,36.3,24.7,33.8,24.7L33.8,24.7z M33.8,42.7L33.8,42.7
		c-2.2,0-4.4-0.9-5.9-2.5c-1.6-1.6-2.5-3.7-2.5-5.9c0-2.2,0.9-4.4,2.5-5.9c1.6-1.6,3.7-2.5,5.9-2.5c2.2,0,4.4,0.9,5.9,2.5
		c1.6,1.6,2.5,3.7,2.5,5.9c0,2.2-0.9,4.4-2.5,5.9C38.2,41.8,36,42.7,33.8,42.7L33.8,42.7z"/>
	<path d="M33.8,31.4c0.6,0,1.1,0.5,1.1,1.1c0,0.3,0.3,0.6,0.6,0.6s0.6-0.3,0.6-0.6c0-0.5-0.2-1-0.5-1.4c-0.3-0.4-0.7-0.7-1.2-0.9
		v-0.4c0-0.3-0.3-0.6-0.6-0.6s-0.6,0.3-0.6,0.6v0.4c-0.8,0.2-1.4,0.7-1.7,1.4c-0.3,0.7-0.2,1.6,0.2,2.2c0.4,0.7,1.2,1,2,1
		c0.5,0,0.9,0.3,1.1,0.7c0.2,0.4,0.1,0.9-0.2,1.3c-0.3,0.3-0.8,0.4-1.3,0.2c-0.4-0.2-0.7-0.6-0.7-1.1c0-0.3-0.3-0.6-0.6-0.6
		c-0.3,0-0.6,0.3-0.6,0.6c0,0.5,0.2,1,0.5,1.4c0.3,0.4,0.8,0.7,1.3,0.8V39c0,0.3,0.3,0.6,0.6,0.6s0.6-0.3,0.6-0.6v-0.6
		c0.7-0.2,1.4-0.8,1.6-1.5c0.3-0.7,0.2-1.5-0.3-2.2c-0.4-0.6-1.2-1-1.9-1c-0.6,0-1.1-0.5-1.1-1.1C32.7,31.9,33.2,31.4,33.8,31.4
		L33.8,31.4z"/>
	<path d="M55.2,32.2c-0.1-0.1-0.3-0.2-0.5-0.2c-0.2,0-0.4,0.1-0.5,0.2l-3.9,4.7c-0.2,0.2-0.2,0.4-0.1,0.7c0.1,0.2,0.3,0.4,0.6,0.4
		h3.1c-0.7,5.2-3.3,9.9-7.2,13.3c-3.7,3.2-8.4,5-12.9,5c-2.9,0-5.9-0.8-8.8-2.3c-2.9-1.5-5.5-3.7-7.5-6.4c-0.1-0.1-0.2-0.2-0.4-0.3
		c-0.2,0-0.3,0-0.5,0.1c-0.1,0.1-0.2,0.2-0.2,0.4c0,0.2,0,0.3,0.1,0.5c2.1,2.8,4.8,5.1,7.9,6.8c3,1.6,6.2,2.4,9.3,2.4
		c4.7,0,9.7-1.9,13.7-5.3c4.2-3.6,7-8.7,7.7-14.2h3.5c0.2,0,0.5-0.2,0.6-0.4c0.1-0.2,0.1-0.5-0.1-0.7L55.2,32.2z M52.1,36.7l2.6-3.1
		l2.6,3.1H52.1z"/>
	<path d="M17.3,31c-0.1-0.2-0.3-0.4-0.6-0.4h-3.1c0.7-5.2,3.3-9.9,7.2-13.3c3.7-3.2,8.4-5,12.9-5c2.9,0,5.9,0.8,8.8,2.3v0
		c2.9,1.5,5.5,3.7,7.5,6.4c0.1,0.1,0.2,0.2,0.4,0.3c0.2,0,0.3,0,0.5-0.1c0.1-0.1,0.2-0.2,0.2-0.4c0-0.2,0-0.3-0.1-0.5
		c-2.1-2.8-4.8-5.1-7.9-6.8c-3-1.6-6.2-2.4-9.3-2.4c-4.7,0-9.7,1.9-13.7,5.3c-4.2,3.6-7,8.7-7.7,14.2H9c-0.2,0-0.5,0.2-0.6,0.4
		c-0.1,0.2-0.1,0.5,0.1,0.7l3.9,4.7c0.1,0.1,0.3,0.2,0.5,0.2c0.2,0,0.4-0.1,0.5-0.2l3.9-4.7v0C17.4,31.5,17.4,31.2,17.3,31L17.3,31z
		 M12.9,35l-2.6-3.1h5.2L12.9,35z"/>
</g>
</svg>
