<?xml version="1.0" encoding="utf-8"?>
<!-- Generator: Adobe Illustrator 23.0.3, SVG Export Plug-In . SVG Version: 6.00 Build 0)  -->
<svg version="1.1" id="Layer_1" xmlns="http://www.w3.org/2000/svg" xmlns:xlink="http://www.w3.org/1999/xlink" x="0px" y="0px"
	 viewBox="0 0 70 70" style="enable-background:new 0 0 70 70;" xml:space="preserve">
<style type="text/css">
	.st0{fill:none;stroke:#000000;stroke-width:2.5;stroke-linecap:round;stroke-linejoin:round;}
</style>
<g>
	<path class="st0" d="M16.6,22.1c3.1,0,5.5-2.5,5.5-5.5S19.6,11,16.6,11S11,13.5,11,16.6S13.5,22.1,16.6,22.1z"/>
	<path class="st0" d="M22.1,16.6H59"/>
	<path class="st0" d="M35,40.5c3.1,0,5.5-2.5,5.5-5.5c0-3.1-2.5-5.5-5.5-5.5c-3.1,0-5.5,2.5-5.5,5.5C29.5,38.1,31.9,40.5,35,40.5z"
		/>
	<path class="st0" d="M11,35h18.4"/>
	<path class="st0" d="M40.5,35H59"/>
	<path class="st0" d="M53.4,59c3.1,0,5.5-2.5,5.5-5.5c0-3.1-2.5-5.5-5.5-5.5c-3.1,0-5.5,2.5-5.5,5.5S50.4,59,53.4,59z"/>
	<path class="st0" d="M47.9,53.4H11"/>
</g>
</svg>
