<?xml version="1.0" encoding="utf-8"?>
<!-- Generator: Adobe Illustrator 23.0.3, SVG Export Plug-In . SVG Version: 6.00 Build 0)  -->
<svg version="1.1" id="Layer_1" xmlns="http://www.w3.org/2000/svg" xmlns:xlink="http://www.w3.org/1999/xlink" x="0px" y="0px"
	 viewBox="0 0 70 70" style="enable-background:new 0 0 70 70;" xml:space="preserve">
<g>
	<path d="M45.1,15.7v3.7v8.8v10.6v9.1c0,1.4,0,2.9,0,4.3c0,0,0,0,0,0v0c0,0,0,0.1,0,0c0,0,0,0.1,0,0.1c0-0.1,0,0,0,0
		c0.5-0.1,0.9-0.1,1.4-0.2c-1.3-1.2-2.6-2.4-3.9-3.6c-1.8-1.6-3.5-3.2-5.3-4.8c-0.6-0.6-1.3-1.1-1.9-1.7c-0.6-0.5-1.5-0.2-1.5,0.6
		c0,1.5,0,3,0,4.5c0,1.2,0,2.4,0,3.6c0,0.8,0,1.7,0,2.5l0.9-0.9h-7.4h-1.7c-0.1,0-0.3,0-0.4,0c0,0,0,0-0.1,0c0,0-0.1,0-0.1,0
		c0.2,0-0.1-0.1,0.1,0c0,0-0.1,0-0.1-0.1c0.1,0.1,0.1,0.1,0,0c0,0.1,0.1,0.1,0,0c0,0,0,0,0,0c0-0.1,0-0.1,0,0c0,0,0-0.1,0-0.1
		c0,0.1,0,0.1,0,0c0,0,0,0,0,0v0c0,0,0-0.1,0-0.1v-0.6v-5.6v-9v-9.7v-7.9c0-1.2,0-2.4,0-3.6v0c0,0,0-0.1,0,0c0,0,0,0,0,0
		c0,0.1,0,0.1,0,0c0,0,0,0,0,0.1c0,0,0-0.1,0.1-0.1c0-0.1,0,0,0,0c0.1-0.1,0.1-0.1,0,0c0,0,0.2-0.1,0.1-0.1c-0.1,0.1,0.2,0,0,0
		c0,0,0.1,0,0.1,0c0,0,0,0,0,0c0.2,0,0.4,0,0.7,0h3.1h9.4h6.4c0,0,0.1,0,0.1,0h0c0.2,0,0,0,0,0c0,0,0.1,0,0,0c0,0,0,0,0.1,0
		c0.1,0.1,0.1,0.1,0,0C45,15.6,45,15.6,45.1,15.7c-0.1-0.2-0.1-0.2,0-0.1C45,15.6,45,15.6,45.1,15.7C45.1,15.7,45.1,15.7,45.1,15.7
		C45,15.7,45,15.7,45.1,15.7C45,15.6,45,15.6,45.1,15.7c0,0.5,0.4,0.9,0.9,0.9c0.5,0,0.9-0.4,0.9-0.9c0-1.1-0.9-1.9-2-1.9
		c-0.2,0-0.5,0-0.7,0h-3.2h-9.6c-2,0-4.1,0-6.1,0c-1.1,0-2,0.8-2,1.9c0,0.1,0,0.2,0,0.2v1.7v7.1v9.7V44v6.7c0,0.5,0,1,0,1.4
		c0,0.6,0.2,1.1,0.6,1.5c0.5,0.5,1.1,0.5,1.7,0.5h8.4h0.8c0.5,0,0.9-0.4,0.9-0.9c0-1.3,0-2.7,0-4c0-1.6,0-3.2,0-4.7
		c0-0.6,0-1.3,0-1.9c-0.5,0.2-1,0.4-1.5,0.6c1.6,1.4,3.1,2.8,4.7,4.2c1.3,1.1,2.5,2.3,3.8,3.4c0.9,0.8,1.8,1.6,2.7,2.4
		c0.4,0.4,1.1,0.3,1.4-0.2c0.3-0.6,0.3-1.2,0.3-1.8v-2.6v-8.7V29.6v-9.2c0-1.5,0-3,0-4.5c0,0,0,0,0-0.1c0-0.5-0.4-0.9-0.9-0.9
		C45.5,14.9,45.1,15.2,45.1,15.7L45.1,15.7z"/>
	<path d="M39,24.9c0,0.1,0,0.2,0,0.4c0,0.1,0,0.1,0,0.2c0,0,0-0.2,0,0c0,0.2-0.1,0.5-0.2,0.7c0,0,0,0.1-0.1,0.1c0,0-0.1,0.2,0,0.1
		c0-0.1,0,0.1,0,0.1c0,0.1-0.1,0.1-0.1,0.2c-0.1,0.2-0.2,0.4-0.4,0.6c0,0-0.1,0.1-0.1,0.1c0.1-0.1,0,0,0,0c-0.1,0.1-0.2,0.2-0.2,0.3
		c-0.1,0.1-0.1,0.1-0.2,0.2c0,0-0.1,0.1-0.1,0.1c0,0-0.2,0.2-0.1,0.1c-0.2,0.1-0.4,0.3-0.5,0.4c-0.1,0.1-0.2,0.1-0.3,0.2
		c0,0-0.1,0-0.1,0.1c0.2-0.1-0.1,0-0.1,0c-0.2,0.1-0.4,0.1-0.6,0.2c-0.1,0-0.4,0.1-0.2,0c-0.1,0-0.3,0-0.4,0c-0.2,0-0.5,0-0.7,0
		c-0.2,0,0.2,0,0,0c-0.1,0-0.1,0-0.2,0c-0.1,0-0.3-0.1-0.4-0.1c-0.1,0-0.2-0.1-0.3-0.1c0,0-0.1,0-0.1-0.1c0.2,0.1,0,0,0,0
		c-0.2-0.1-0.4-0.2-0.6-0.4c-0.1-0.1-0.2-0.1-0.3-0.2c0.1,0.1-0.1-0.1-0.1-0.1c-0.2-0.2-0.3-0.3-0.5-0.5c0,0-0.1-0.1,0,0
		c0,0-0.1-0.1-0.1-0.1c-0.1-0.1-0.1-0.2-0.2-0.3c-0.1-0.1-0.1-0.2-0.2-0.3c0-0.1-0.1-0.1-0.1-0.2c0,0-0.1-0.2,0-0.1
		c0,0.1,0-0.1,0-0.1c0,0,0-0.1-0.1-0.1c0-0.1-0.1-0.2-0.1-0.3c0-0.1-0.1-0.2-0.1-0.4c0,0,0-0.2,0,0c0-0.1,0-0.1,0-0.2
		c0-0.2,0-0.5,0-0.7c0-0.1,0-0.1,0-0.2c0-0.3,0,0.1,0,0c0-0.1,0-0.3,0.1-0.4c0.1-0.2,0.1-0.4,0.2-0.6c-0.1,0.2,0.1-0.1,0.1-0.2
		c0.1-0.1,0.1-0.2,0.2-0.3c0.1-0.1,0.1-0.2,0.2-0.3c0,0,0.1-0.1,0.1-0.1c0,0-0.1,0.1,0,0c0.2-0.2,0.3-0.3,0.5-0.5
		c0,0,0.1-0.1,0.1-0.1c0,0,0.2-0.1,0,0c0.1-0.1,0.2-0.1,0.3-0.2c0.2-0.1,0.4-0.2,0.6-0.3c0,0,0.2-0.1,0.1,0c-0.1,0,0.1,0,0.1,0
		c0.1,0,0.2-0.1,0.3-0.1c0.1,0,0.2-0.1,0.3-0.1c0.1,0,0.1,0,0.2,0c0.1,0,0.2,0,0.1,0c0.2,0,0.5,0,0.7,0c0.1,0,0.2,0,0.3,0
		c0.2,0,0,0,0,0c0.1,0,0.2,0,0.2,0c0.3,0.1,0.5,0.1,0.8,0.2c0.2,0.1,0,0,0,0c0.1,0,0.1,0.1,0.2,0.1c0.1,0.1,0.2,0.1,0.3,0.2
		c0.1,0.1,0.2,0.1,0.3,0.2c0,0,0.2,0.1,0.1,0.1c-0.1-0.1,0.1,0.1,0.1,0.1c0.2,0.2,0.4,0.3,0.5,0.5c0,0,0.2,0.2,0.1,0.1
		c-0.1-0.1,0.1,0.1,0.1,0.1c0.1,0.1,0.2,0.2,0.2,0.4c0.1,0.1,0.1,0.2,0.2,0.3c0,0,0,0.1,0.1,0.1c0,0.1,0,0,0,0c0,0,0,0.1,0,0.1
		c0.1,0.3,0.2,0.5,0.2,0.8c0,0.1,0,0.1,0,0.2c0,0.1,0,0.1,0,0c0,0,0,0.1,0,0.1C39,24.6,39,24.7,39,24.9c0,0.5,0.4,0.9,0.9,0.9
		c0.5,0,0.9-0.4,0.9-0.9c0-2.4-1.5-4.6-3.8-5.4c-2.2-0.8-4.9-0.1-6.4,1.7C29,23,28.8,25.8,30,27.9c1.3,2.1,3.8,3.2,6.2,2.7
		c2.7-0.5,4.6-3,4.6-5.7c0-0.5-0.4-0.9-0.9-0.9C39.4,24,39,24.4,39,24.9L39,24.9z"/>
	<path d="M50.4,18.2h5.1h2.8c0.2,0,0.3,0,0.5,0c0.1,0,0,0,0,0c0,0,0.1,0,0,0c0,0,0.1,0,0.1,0.1c0,0-0.1-0.1,0,0c0.1,0.1-0.1-0.1,0,0
		c0,0,0.1,0.2,0,0.1c-0.1-0.1,0,0,0,0c0,0,0-0.1,0,0c0,0,0,0,0,0c0,0.8,0,1.6,0,2.5v5.4v6.9v7.1v5.9v3.3v0.3v0c0,0.2,0,0,0,0
		c0,0-0.1,0.2,0,0c0,0,0,0.1-0.1,0.1c0,0,0.1-0.1,0,0c-0.1,0.1,0.1-0.1,0,0c0,0-0.1,0-0.1,0.1c0.2-0.1,0,0,0,0c0,0,0.2,0,0,0
		c-0.6,0-1.1,0-1.7,0h-6.2h-0.4c-0.5,0-0.9,0.4-0.9,0.9c0,0.5,0.4,0.9,0.9,0.9h5.2h2.8c0.3,0,0.6,0,0.9-0.1c0.9-0.2,1.4-1,1.4-1.9
		c0-0.8,0-1.6,0-2.3v-5.4v-7v-7.2v-5.9v-3.2c0-0.1,0-0.1,0-0.2c0-0.9-0.6-1.7-1.5-1.9c-0.6-0.1-1.4-0.1-2-0.1h-6.4h-0.5
		c-0.5,0-0.9,0.4-0.9,0.9C49.5,17.8,49.9,18.2,50.4,18.2L50.4,18.2z"/>
	<path d="M50.4,23c0.1,0,0.2,0,0.3,0c0,0,0.1,0,0.1,0c0.1,0-0.1,0,0,0c0.2,0,0.4,0.1,0.6,0.1c0.1,0,0.2,0.1,0.3,0.1
		c-0.2-0.1,0.1,0,0.1,0.1c0.2,0.1,0.4,0.2,0.5,0.3c0,0,0.1,0,0.1,0.1c-0.1-0.1,0,0,0,0c0.1,0.1,0.2,0.1,0.2,0.2
		c0.1,0.1,0.1,0.1,0.2,0.2c0,0,0.1,0.1,0.1,0.1c0,0,0.1,0.2,0.1,0.1c0-0.1,0.1,0.1,0.1,0.2c0.1,0.1,0.1,0.2,0.2,0.3
		c0,0.1,0.1,0.2,0.1,0.2c0,0,0.1,0.2,0,0.1c0-0.1,0,0.1,0,0.1c0.1,0.2,0.1,0.4,0.2,0.5c0,0,0.1,0.3,0,0.2c0,0.1,0,0.2,0,0.3
		c0,0.2,0,0.4,0,0.6c0,0.2,0,0,0,0c0,0.1,0,0.1,0,0.2c0,0.1,0,0.2-0.1,0.3c0,0.1-0.1,0.2-0.1,0.3c0,0,0,0.1,0,0.1c0,0.1,0.1-0.1,0,0
		c-0.1,0.2-0.2,0.4-0.3,0.5c0,0.1-0.1,0.1-0.2,0.2c0.1-0.1,0,0.1-0.1,0.1c-0.1,0.2-0.3,0.3-0.4,0.4c0,0-0.1,0.1-0.1,0.1
		c0.1-0.1-0.1,0.1-0.1,0.1c-0.1,0.1-0.2,0.1-0.3,0.2c-0.1,0.1-0.2,0.1-0.3,0.1c0,0-0.1,0-0.1,0.1c0.1-0.1,0,0,0,0
		c-0.2,0.1-0.4,0.1-0.6,0.2c-0.1,0-0.1,0-0.2,0c0.1,0,0.1,0,0,0c-0.1,0-0.3,0-0.4,0c-0.5,0-0.9,0.4-0.9,0.9c0,0.5,0.4,0.9,0.9,0.9
		c2.2,0,4-1.4,4.8-3.4c0.7-1.9,0.1-4.3-1.5-5.6c-0.9-0.8-2.1-1.2-3.3-1.2c-0.5,0-0.9,0.4-0.9,0.9C49.5,22.6,49.9,23,50.4,23L50.4,23
		z"/>
	<path d="M19.6,49.8h-5.1h-2.8c-0.2,0-0.3,0-0.5,0c-0.1,0,0,0,0,0c0,0-0.1,0,0,0c0,0-0.1,0-0.1-0.1c0,0,0.1,0.1,0,0
		c-0.1-0.1,0.1,0.1,0,0c0,0-0.1-0.2,0-0.1c0.1,0.1,0,0,0,0c0,0,0,0.1,0,0c0,0,0,0,0,0c0-0.8,0-1.6,0-2.5v-5.4v-6.9v-7.1V22v-3.3
		v-0.3v0c0-0.2,0,0,0,0c0,0,0.1-0.2,0,0c0,0,0-0.1,0.1-0.1c0,0-0.1,0.1,0,0c0.1-0.1-0.1,0.1,0,0c0,0,0.1,0,0.1-0.1c-0.2,0.1,0,0,0,0
		c0,0-0.2,0,0,0c0.6,0,1.1,0,1.7,0h6.2h0.4c0.5,0,0.9-0.4,0.9-0.9c0-0.5-0.4-0.9-0.9-0.9h-5.2h-2.8c-0.3,0-0.6,0-0.9,0.1
		c-0.9,0.2-1.4,1-1.4,1.9c0,0.8,0,1.6,0,2.3v5.4v7v7.2v5.9v3.2c0,0.1,0,0.1,0,0.2c0,0.9,0.6,1.7,1.5,1.9c0.6,0.1,1.4,0.1,2,0.1h6.4
		h0.5c0.5,0,0.9-0.4,0.9-0.9C20.5,50.2,20.1,49.8,19.6,49.8L19.6,49.8z"/>
	<path d="M19.6,30.3c-0.1,0-0.2,0-0.3,0c0,0-0.1,0-0.1,0c-0.1,0,0.1,0,0,0c-0.2,0-0.4-0.1-0.6-0.1c-0.1,0-0.2-0.1-0.3-0.1
		c0.2,0.1-0.1,0-0.1-0.1c-0.2-0.1-0.4-0.2-0.5-0.3c0,0-0.1,0-0.1-0.1c0.1,0.1,0,0,0,0c-0.1-0.1-0.2-0.1-0.2-0.2
		c-0.1-0.1-0.1-0.1-0.2-0.2c0,0-0.1-0.1-0.1-0.1c0,0-0.1-0.2-0.1-0.1c0,0.1-0.1-0.1-0.1-0.2c-0.1-0.1-0.1-0.2-0.2-0.3
		c0-0.1-0.1-0.2-0.1-0.2c0,0-0.1-0.2,0-0.1c0,0.1,0-0.1,0-0.1c-0.1-0.2-0.1-0.4-0.2-0.5c0,0-0.1-0.3,0-0.2c0-0.1,0-0.2,0-0.3
		c0-0.2,0-0.4,0-0.6c0-0.2,0,0,0,0c0-0.1,0-0.1,0-0.2c0-0.1,0-0.2,0.1-0.3c0-0.1,0.1-0.2,0.1-0.3c0,0,0-0.1,0-0.1c0-0.1-0.1,0.1,0,0
		c0.1-0.2,0.2-0.4,0.3-0.5c0-0.1,0.1-0.1,0.2-0.2c-0.1,0.1,0-0.1,0.1-0.1c0.1-0.2,0.3-0.3,0.4-0.4c0,0,0.1-0.1,0.1-0.1
		c-0.1,0.1,0.1-0.1,0.1-0.1c0.1-0.1,0.2-0.1,0.3-0.2c0.1-0.1,0.2-0.1,0.3-0.1c0,0,0.1,0,0.1-0.1c-0.1,0.1,0,0,0,0
		c0.2-0.1,0.4-0.1,0.6-0.2c0.1,0,0.1,0,0.2,0c-0.1,0-0.1,0,0,0c0.1,0,0.3,0,0.4,0c0.5,0,0.9-0.4,0.9-0.9c0-0.5-0.4-0.9-0.9-0.9
		c-2.2,0-4,1.4-4.8,3.4c-0.7,1.9-0.1,4.3,1.5,5.6c0.9,0.8,2.1,1.2,3.3,1.2c0.5,0,0.9-0.4,0.9-0.9C20.5,30.7,20.1,30.3,19.6,30.3
		L19.6,30.3z"/>
	<path d="M42,56.9c0.7,1.5,1.3,3,2,4.4c0.1-0.4,0.2-0.8,0.3-1.2c-1.1,0.5-2.3,1-3.4,1.5c0.4,0.1,0.8,0.2,1.2,0.3
		c-0.7-1.5-1.3-3-2-4.4c-0.2-0.5-0.8-0.5-1.2-0.3c-1.4,0.6-2.7,1.2-4.1,1.8c-0.2,0.1-0.4,0.2-0.6,0.3c0.4,0.3,0.9,0.5,1.3,0.8
		c0-2.2,0-4.5,0-6.7c0-2.2,0-4.4,0-6.6c0-1.3,0-2.7,0-4c-0.5,0.2-1,0.4-1.5,0.6c1.9,1.7,3.7,3.4,5.6,5.1c1.6,1.4,3.2,2.9,4.8,4.3
		c0.8,0.7,1.6,1.5,2.5,2.2c0.1-0.5,0.1-0.9,0.2-1.4c-1.4,0.6-2.7,1.2-4.1,1.8c-0.2,0.1-0.4,0.2-0.6,0.3C41.9,55.9,41.8,56.5,42,56.9
		c0.3,0.4,0.8,0.5,1.2,0.3c1.4-0.6,2.7-1.2,4.1-1.8c0.2-0.1,0.4-0.2,0.6-0.3c0.5-0.2,0.6-1,0.2-1.4c-1.8-1.6-3.6-3.2-5.3-4.8
		c-1.7-1.5-3.4-3.1-5.1-4.6c-0.8-0.7-1.6-1.5-2.4-2.2c-0.6-0.5-1.5-0.2-1.5,0.6c0,2.2,0,4.4,0,6.6c0,2.2,0,4.5,0,6.7
		c0,1.3,0,2.7,0,4c0,0.7,0.7,1,1.3,0.8c1.4-0.6,2.7-1.2,4.1-1.8c0.2-0.1,0.4-0.2,0.6-0.3c-0.4-0.1-0.8-0.2-1.2-0.3
		c0.7,1.5,1.3,3,2,4.4c0.2,0.5,0.8,0.5,1.2,0.3c1.1-0.5,2.3-1,3.4-1.5c0.5-0.2,0.5-0.8,0.3-1.2c-0.7-1.5-1.3-3-2-4.4
		c-0.2-0.4-0.8-0.5-1.2-0.3C41.9,56,41.8,56.5,42,56.9L42,56.9z"/>
	<path d="M31.5,43.7c0.1,0.1,0-0.1,0-0.1c0-0.1-0.1-0.2-0.1-0.3c0-0.1,0-0.2-0.1-0.3c0,0,0-0.1,0,0c0,0.1,0-0.1,0-0.1
		c0-0.2,0-0.4,0-0.5c0-0.1,0-0.3,0-0.2c0,0.1,0,0,0-0.1c0-0.1,0-0.1,0-0.2c0-0.2,0.1-0.4,0.2-0.6c0,0,0-0.1,0-0.1c0-0.1-0.1,0.1,0,0
		c0-0.1,0.1-0.2,0.1-0.3c0.1-0.2,0.2-0.3,0.3-0.5c0.1-0.1-0.1,0.1,0,0c0,0,0.1-0.1,0.1-0.1c0.1-0.1,0.1-0.2,0.2-0.2
		c0.1-0.1,0.2-0.1,0.2-0.2c0,0,0.1-0.1,0,0c-0.1,0.1,0.1,0,0.1,0c0.2-0.1,0.3-0.2,0.5-0.3c0,0,0.1,0,0.1-0.1c0,0-0.1,0,0,0
		c0.1,0,0.2-0.1,0.3-0.1c0.1,0,0.2-0.1,0.3-0.1c0,0,0.4-0.1,0.2,0c0.2,0,0.4,0,0.5,0c0.1,0,0.2,0,0.3,0c0,0,0.1,0,0.1,0
		c-0.2,0,0,0,0,0c0.2,0,0.4,0.1,0.5,0.1c0.1,0,0.2,0.1,0.3,0.1c0.2,0.1,0,0,0,0c0.1,0,0.1,0.1,0.2,0.1c0.2,0.1,0.4,0.2,0.5,0.3
		c0,0,0.1,0.1,0.1,0c-0.1-0.1,0.1,0.1,0.1,0.1c0.1,0.1,0.2,0.1,0.2,0.2c0.1,0.1,0.1,0.2,0.2,0.2c0,0,0.1,0.1,0,0
		c0,0,0.1,0.1,0.1,0.1c0.1,0.2,0.3,0.4,0.4,0.6c0.2,0.4,0.8,0.5,1.2,0.3c0.4-0.3,0.5-0.8,0.3-1.2c-0.8-1.8-2.9-3-4.9-2.9
		c-2.1,0.2-3.9,1.6-4.5,3.6c-0.3,1.2-0.2,2.4,0.3,3.5c0.2,0.4,0.8,0.5,1.2,0.3C31.7,44.7,31.7,44.2,31.5,43.7L31.5,43.7z"/>
</g>
</svg>
