<?xml version="1.0" encoding="utf-8"?>
<!-- Generator: Adobe Illustrator 23.0.3, SVG Export Plug-In . SVG Version: 6.00 Build 0)  -->
<svg version="1.1" id="Layer_1" xmlns="http://www.w3.org/2000/svg" xmlns:xlink="http://www.w3.org/1999/xlink" x="0px" y="0px"
	 viewBox="0 0 70 70" style="enable-background:new 0 0 70 70;" xml:space="preserve">
<style type="text/css">
	.st0{fill:none;stroke:#000000;stroke-width:2.5;stroke-linecap:round;stroke-linejoin:round;}
</style>
<g>
	<path class="st0" d="M55.7,49.8c-13.7-2-27.7-2-41.4,0c-0.2,0-0.5,0-0.7-0.1s-0.5-0.2-0.6-0.4c-0.2-0.2-0.3-0.4-0.4-0.6
		c-0.1-0.2-0.2-0.5-0.2-0.7V18.9c0-0.3,0-0.5,0.2-0.7c0.1-0.2,0.3-0.4,0.4-0.6c0.2-0.2,0.4-0.3,0.7-0.4c0.2-0.1,0.5-0.1,0.7,0
		c13.7,1.9,27.7,1.9,41.4,0c0.2,0,0.5,0,0.7,0c0.2,0.1,0.5,0.2,0.6,0.3c0.2,0.2,0.3,0.4,0.4,0.6c0.1,0.2,0.2,0.5,0.2,0.7V48
		c0,0.3,0,0.5-0.2,0.7c-0.1,0.2-0.3,0.4-0.4,0.6c-0.2,0.2-0.4,0.3-0.7,0.4C56.2,49.8,56,49.9,55.7,49.8L55.7,49.8z"/>
	<path class="st0" d="M35,48.4v8.7"/>
	<path class="st0" d="M26.3,57.1h17.5"/>
</g>
</svg>
