<svg width="26" height="21" viewBox="0 0 26 21" fill="none" xmlns="http://www.w3.org/2000/svg">
<path d="M20.8571 2H5.42857C3.53502 2 2 3.53502 2 5.42857V15.7143C2 17.6078 3.53502 19.1429 5.42857 19.1429H20.8571C22.7507 19.1429 24.2857 17.6078 24.2857 15.7143V5.42857C24.2857 3.53502 22.7507 2 20.8571 2Z" stroke="black" stroke-width="2.5" stroke-linecap="round" stroke-linejoin="round"/>
<path d="M10.2457 14.5486V7.34864C10.2421 7.22708 10.2718 7.10685 10.3315 7.00089C10.3911 6.89493 10.4786 6.80725 10.5844 6.7473C10.6902 6.68734 10.8103 6.65738 10.9319 6.66064C11.0535 6.6639 11.1718 6.70025 11.2743 6.76579L17.4457 10.3658C17.5488 10.4263 17.6343 10.5127 17.6937 10.6164C17.7532 10.7202 17.7844 10.8377 17.7844 10.9572C17.7844 11.0768 17.7532 11.1942 17.6937 11.298C17.6343 11.4017 17.5488 11.4881 17.4457 11.5486L11.2743 15.1486C11.1696 15.2091 11.0508 15.2408 10.9299 15.2405C10.809 15.2403 10.6903 15.208 10.5859 15.1471C10.4815 15.0862 10.395 14.9988 10.3353 14.8937C10.2755 14.7886 10.2446 14.6695 10.2457 14.5486V14.5486Z" stroke="black" stroke-width="2.5" stroke-linecap="round" stroke-linejoin="round"/>
</svg>
