<?xml version="1.0" encoding="utf-8"?>
<!-- Generator: Adobe Illustrator 23.0.3, SVG Export Plug-In . SVG Version: 6.00 Build 0)  -->
<svg version="1.1" id="Layer_1" xmlns="http://www.w3.org/2000/svg" xmlns:xlink="http://www.w3.org/1999/xlink" x="0px" y="0px"
	 viewBox="0 0 70 70" style="enable-background:new 0 0 70 70;" xml:space="preserve">
<path d="M35,22c-9.4,0-18,5.1-22.4,13.4c-0.2,0.4-0.2,0.9,0,1.3C17,44.9,25.6,50,35,50h0c9.4,0,18-5.1,22.4-13.3
	c0.2-0.4,0.2-0.9,0-1.3C53,27.1,44.4,22,35,22L35,22L35,22z M35,24.7c8.2,0,15.7,4.3,19.7,11.4C50.6,43,43.1,47.3,35,47.3h0
	c-8.1,0-15.6-4.3-19.7-11.3C19.3,29,26.9,24.7,35,24.7L35,24.7z M35,26.6c-5.2,0-9.4,4.2-9.4,9.4c0,2.5,1,4.9,2.8,6.6
	c1.8,1.8,4.2,2.8,6.6,2.8s4.9-1,6.6-2.8c1.8-1.8,2.8-4.2,2.8-6.6c0-2.5-1-4.9-2.8-6.6C39.9,27.6,37.5,26.6,35,26.6L35,26.6z
	 M35,29.3c1.8,0,3.5,0.7,4.8,2c1.3,1.3,2,3,2,4.8c0,1.8-0.7,3.5-2,4.8c-1.3,1.3-3,2-4.8,2s-3.5-0.7-4.8-2c-1.3-1.3-2-3-2-4.8
	C28.3,32.3,31.3,29.3,35,29.3L35,29.3z"/>
</svg>
