<svg width="26" height="18" viewBox="0 0 26 18" fill="none" xmlns="http://www.w3.org/2000/svg">
<path d="M23.7446 3.14286L18.5384 5.28571V2.71429C18.5384 2.25963 18.3439 1.82359 17.9977 1.5021C17.6515 1.18061 17.1819 1 16.6923 1H2.84615C2.35652 1 1.88695 1.18061 1.54073 1.5021C1.1945 1.82359 1 2.25963 1 2.71429V14.7143C1 15.1689 1.1945 15.605 1.54073 15.9265C1.88695 16.248 2.35652 16.4286 2.84615 16.4286H16.6923C17.1819 16.4286 17.6515 16.248 17.9977 15.9265C18.3439 15.605 18.5384 15.1689 18.5384 14.7143V12.1429L23.7446 14.2857C23.885 14.336 24.0364 14.3537 24.1858 14.3372C24.3352 14.3207 24.478 14.2706 24.6018 14.1912C24.7255 14.1117 24.8265 14.0054 24.8959 13.8815C24.9653 13.7575 25.001 13.6197 25 13.48V3.94857C25.001 3.80887 24.9653 3.67105 24.8959 3.54711C24.8265 3.42316 24.7255 3.31684 24.6018 3.23741C24.478 3.15798 24.3352 3.10784 24.1858 3.09136C24.0364 3.07488 23.885 3.09256 23.7446 3.14286V3.14286Z" stroke="#161616" stroke-width="1.71429" stroke-linecap="round" stroke-linejoin="round"/>
</svg>
