<svg id="Layer_1" data-name="Layer 1" xmlns="http://www.w3.org/2000/svg" viewBox="0 0 512 512"><path d="M249.18,246.62a3.37,3.37,0,0,0-2.63,2.5c-.09.33-.09.5-.09,4.2,0,4.16,0,4.15.24,4.74a3.4,3.4,0,0,0,2.06,1.9,5.11,5.11,0,0,0,1.82.2,2.71,2.71,0,0,0,1-.07.56.56,0,0,0,.22-.77c-.15-.24-.18-.25-1.38-.28s-1.3,0-1.78-.32a2.4,2.4,0,0,1-1-1.52c0-.17-.05-1.51-.05-3.88,0-3.95,0-3.91.26-4.44a2.34,2.34,0,0,1,1.37-1.13l.31-.1h6.4c6.09,0,6.42,0,6.67.08a2.53,2.53,0,0,1,1.8,1.81,8.67,8.67,0,0,1,.05,1.13c0,1,0,1.06.26,1.22a.45.45,0,0,0,.52,0c.29-.14.3-.22.28-1.49a3.79,3.79,0,0,0-.12-1.43,3.39,3.39,0,0,0-1-1.46,3.86,3.86,0,0,0-1.94-1C262,246.53,249.55,246.55,249.18,246.62Z"/><path d="M254.25,250a1,1,0,0,0-.39.26c-.36.36-.36.32-.34,3.15v2.45l.14.25a.89.89,0,0,0,.77.52,1.43,1.43,0,0,0,.43,0A40.93,40.93,0,0,0,258.3,254a1.13,1.13,0,0,0-.05-1.36c-.13-.16-3.14-2.44-3.31-2.51A1.25,1.25,0,0,0,254.25,250Zm1.84,2.23,1.34,1-1.21,1-1.41,1.1-.19.15v-2.17a10.76,10.76,0,0,1,.06-2.14Z"/><path d="M262.83,256.3a2,2,0,0,0-1.47,1.92v.31l-1.43.87a6.3,6.3,0,0,1-1.51.82l-1.68-1c-1.46-.88-1.63-1-1.81-1a.45.45,0,0,0-.46.27.48.48,0,0,0,0,.54,27.92,27.92,0,0,0,2.88,1.82,8.63,8.63,0,0,1-1.38.89c-1.5.9-1.6,1-1.6,1.28a.55.55,0,0,0,.65.52c.08,0,.89-.49,1.79-1l1.65-1,1.43.86,1.43.86v.23a2,2,0,0,0,.72,1.45,2,2,0,0,0,2.64-2.94,2,2,0,0,0-2.77,0l-.23.22-1-.59c-.54-.33-1-.63-1.07-.67s0-.12,1-.74l1.15-.67a1.09,1.09,0,0,1,.23.18,1.9,1.9,0,0,0,1.57.45,2,2,0,1,0-.8-3.87Zm.95,1.15a1,1,0,0,1,.42,1,1.15,1.15,0,0,1-.47.58.91.91,0,0,1-1.3-.81,1,1,0,0,1,.61-.84.43.43,0,0,0,.17-.05A1.15,1.15,0,0,1,263.78,257.45Zm0,5.14a1.2,1.2,0,0,1,.44.51,1.17,1.17,0,0,1,0,.39.88.88,0,0,1-1.7.23A.9.9,0,0,1,263.73,262.59Z"/></svg>