<svg width="34" height="22" viewBox="0 0 34 22" fill="none" xmlns="http://www.w3.org/2000/svg">
<path d="M31.7502 9.78982C32.1381 10.2197 32.3529 10.7781 32.3529 11.3571C32.3529 11.9362 32.1381 12.4946 31.7502 12.9245C29.2939 15.5679 23.703 20.7143 17.1764 20.7143C10.6498 20.7143 5.05894 15.5679 2.60269 12.9245C2.21474 12.4946 2 11.9362 2 11.3571C2 10.7781 2.21474 10.2197 2.60269 9.78982C5.05894 7.14643 10.6498 2 17.1764 2C23.703 2 29.2939 7.14643 31.7502 9.78982Z" stroke="black" stroke-width="2.5" stroke-linecap="round" stroke-linejoin="round"/>
<path d="M17.1764 16.0359C19.7603 16.0359 21.855 13.9412 21.855 11.3573C21.855 8.77338 19.7603 6.67871 17.1764 6.67871C14.5925 6.67871 12.4979 8.77338 12.4979 11.3573C12.4979 13.9412 14.5925 16.0359 17.1764 16.0359Z" stroke="black" stroke-width="2.5" stroke-linecap="round" stroke-linejoin="round"/>
</svg>
