<?xml version="1.0" encoding="utf-8"?>
<!-- Generator: Adobe Illustrator 23.0.3, SVG Export Plug-In . SVG Version: 6.00 Build 0)  -->
<svg version="1.1" id="Layer_1" xmlns="http://www.w3.org/2000/svg" xmlns:xlink="http://www.w3.org/1999/xlink" x="0px" y="0px"
	 viewBox="0 0 70 70" style="enable-background:new 0 0 70 70;" xml:space="preserve">
<style type="text/css">
	.st0{fill:#1C8FCE;}
</style>
<g>
	<path class="st0" d="M52.5,37.8c-1.7,0-3.2,0.5-4.5,1.2c-2.4-2-5-3.7-8-4.6c4.5-3,7.2-8.2,6.4-13.8c-0.8-6.4-6.1-11.7-12.5-12.4
		c-4.1-0.5-8.1,0.8-11.2,3.6c-3.1,2.7-4.8,6.6-4.8,10.7c0,4.9,2.5,9.4,6.6,12c-5,1.7-9.3,5.1-12.3,9.5c-1.7,2.6-1.1,6.2,1.3,8
		C19,55.9,25.4,58,32.2,58c4.9,0,9.8-1.2,14.2-3.5c1.7,1.4,3.7,2.3,6.1,2.3c5.2,0,9.5-4.3,9.5-9.5S57.7,37.8,52.5,37.8L52.5,37.8z
		 M20.3,22.3c0-3.3,1.4-6.7,3.9-8.9c2.3-2,5-3,7.9-3c0.5,0,1,0,1.4,0.1c5.4,0.6,9.8,4.9,10.4,10.2c0.7,5.6-2.5,10.8-7.9,12.8
		l-3.8,1.4l-3.9-1.4C23.5,31.8,20.3,27.3,20.3,22.3L20.3,22.3z M15.1,49.9c-1.4-1.1-1.8-3.2-0.8-4.8c3.1-4.8,8.2-8.2,13.8-9.3
		l4.2-0.8l4.2,0.8c3.6,0.7,6.8,2.3,9.7,4.5c-1.9,1.7-3.1,4.2-3.1,6.9c0,2,0.6,3.9,1.8,5.5c-3.9,1.9-8.2,2.9-12.5,2.9
		C26,55.6,20.1,53.6,15.1,49.9L15.1,49.9z M52.5,54.5c-3.9,0-7.2-3.2-7.2-7.2s3.2-7.2,7.2-7.2s7.2,3.2,7.2,7.2S56.4,54.5,52.5,54.5z
		 M57.5,45.6L55,48l0.6,3.5l-3.1-1.7l-3.1,1.7L50,48l-2.5-2.4l3.5-0.5l1.5-3.1l1.5,3.1L57.5,45.6z"/>
</g>
</svg>
