<svg width="31" height="21" viewBox="0 0 31 21" fill="none" xmlns="http://www.w3.org/2000/svg">
<path d="M7.49167 7.875C6.975 6.3 5.55417 5.25 3.875 5.25C1.67917 5.25 0 6.95625 0 9.1875C0 11.4188 1.67917 13.125 3.875 13.125C5.55417 13.125 6.975 12.075 7.49167 10.5H9.04167V13.125H11.625V10.5H14.2083V7.875H7.49167ZM3.875 10.5C3.1 10.5 2.58333 9.975 2.58333 9.1875C2.58333 8.4 3.1 7.875 3.875 7.875C4.65 7.875 5.16667 8.4 5.16667 9.1875C5.16667 9.975 4.65 10.5 3.875 10.5ZM20.6667 0C17.825 0 15.5 2.3625 15.5 5.25C15.5 8.1375 17.825 10.5 20.6667 10.5C23.5083 10.5 25.8333 8.1375 25.8333 5.25C25.8333 2.3625 23.5083 0 20.6667 0ZM20.6667 8.00625C19.1167 8.00625 17.9542 6.825 17.9542 5.25C17.9542 3.675 19.1167 2.49375 20.6667 2.49375C22.2167 2.49375 23.3792 3.675 23.3792 5.25C23.3792 6.825 22.2167 8.00625 20.6667 8.00625ZM20.6667 11.8125C17.1792 11.8125 10.3333 13.5187 10.3333 17.0625V21H31V17.0625C31 13.5187 24.1542 11.8125 20.6667 11.8125ZM28.5458 18.5063H12.7875V17.0625C12.7875 16.275 16.7917 14.3062 20.6667 14.3062C24.5417 14.3062 28.5458 16.275 28.5458 17.0625V18.5063Z" fill="#4295D1"/>
</svg>
