<?xml version="1.0" encoding="utf-8"?>
<!-- Generator: Adobe Illustrator 23.0.3, SVG Export Plug-In . SVG Version: 6.00 Build 0)  -->
<svg version="1.1" id="Layer_1" xmlns="http://www.w3.org/2000/svg" xmlns:xlink="http://www.w3.org/1999/xlink" x="0px" y="0px"
	 viewBox="0 0 70 70" style="enable-background:new 0 0 70 70;" xml:space="preserve">
<style type="text/css">
	.st0{fill:none;stroke:#1C8FCE;stroke-width:3;stroke-linecap:round;stroke-linejoin:round;}
</style>
<g>
	<path class="st0" d="M53.4,33.7H30.7"/>
	<path class="st0" d="M36.4,28.1l-5.7,5.7l5.7,5.7"/>
	<path class="st0" d="M50.5,43.7c-2.1,3.4-5.3,5.9-9.1,7.3c-3.7,1.4-7.8,1.6-11.7,0.4c-3.8-1.1-7.2-3.4-9.6-6.6
		c-2.4-3.2-3.7-7.1-3.7-11.1c0-4,1.3-7.9,3.7-11.1c2.4-3.2,5.8-5.5,9.6-6.6c3.8-1.1,7.9-1,11.7,0.4c3.7,1.4,6.9,4,9.1,7.3"/>
</g>
</svg>
