<svg width="19" height="21" viewBox="0 0 19 21" fill="none" xmlns="http://www.w3.org/2000/svg">
<path d="M13.7222 15.75V12.6H6.33333V8.4H13.7222V5.25L19 10.5L13.7222 15.75ZM11.6111 0C12.171 0 12.708 0.221249 13.1039 0.615076C13.4998 1.0089 13.7222 1.54305 13.7222 2.1V4.2H11.6111V2.1H2.11111V18.9H11.6111V16.8H13.7222V18.9C13.7222 19.457 13.4998 19.9911 13.1039 20.3849C12.708 20.7787 12.171 21 11.6111 21H2.11111C1.55121 21 1.01424 20.7787 0.61833 20.3849C0.22242 19.9911 0 19.457 0 18.9V2.1C0 1.54305 0.22242 1.0089 0.61833 0.615076C1.01424 0.221249 1.55121 0 2.11111 0H11.6111Z" fill="#4295D1"/>
</svg>
