<?xml version="1.0" encoding="utf-8"?>
<!-- Generator: Adobe Illustrator 23.0.3, SVG Export Plug-In . SVG Version: 6.00 Build 0)  -->
<svg version="1.1" id="Layer_1" xmlns="http://www.w3.org/2000/svg" xmlns:xlink="http://www.w3.org/1999/xlink" x="0px" y="0px"
	 viewBox="0 0 70 70" style="enable-background:new 0 0 70 70;" xml:space="preserve">
<style type="text/css">
	.st0{fill:#198FCF;}
</style>
<g>
	<path class="st0" d="M20.9,18.3h-1.2c-0.7,0-1.2-0.5-1.2-1.2s0.5-1.2,1.2-1.2h1.2c0.7,0,1.2,0.5,1.2,1.2S21.5,18.3,20.9,18.3z"/>
	<path class="st0" d="M43.5,18.3H25.6c-0.7,0-1.2-0.5-1.2-1.2s0.5-1.2,1.2-1.2h17.9c0.7,0,1.2,0.5,1.2,1.2S44.1,18.3,43.5,18.3z"/>
	<path class="st0" d="M20.9,25.4h-1.2c-0.7,0-1.2-0.5-1.2-1.2S19,23,19.7,23h1.2c0.7,0,1.2,0.5,1.2,1.2S21.5,25.4,20.9,25.4z"/>
	<path class="st0" d="M43.5,25.4H25.6c-0.7,0-1.2-0.5-1.2-1.2s0.5-1.2,1.2-1.2h17.9c0.7,0,1.2,0.5,1.2,1.2S44.1,25.4,43.5,25.4z"/>
	<path class="st0" d="M20.9,32.5h-1.2c-0.7,0-1.2-0.5-1.2-1.2s0.5-1.2,1.2-1.2h1.2c0.7,0,1.2,0.5,1.2,1.2S21.5,32.5,20.9,32.5z"/>
	<path class="st0" d="M43.5,32.5H25.6c-0.7,0-1.2-0.5-1.2-1.2s0.5-1.2,1.2-1.2h17.9c0.7,0,1.2,0.5,1.2,1.2S44.1,32.5,43.5,32.5z"/>
	<path class="st0" d="M20.9,39.7h-1.2c-0.7,0-1.2-0.5-1.2-1.2s0.5-1.2,1.2-1.2h1.2c0.7,0,1.2,0.5,1.2,1.2S21.5,39.7,20.9,39.7z"/>
	<path class="st0" d="M43.5,39.7H25.6c-0.7,0-1.2-0.5-1.2-1.2s0.5-1.2,1.2-1.2h17.9c0.7,0,1.2,0.5,1.2,1.2S44.1,39.7,43.5,39.7z"/>
	<path class="st0" d="M20.9,46.8h-1.2c-0.7,0-1.2-0.5-1.2-1.2s0.5-1.2,1.2-1.2h1.2c0.7,0,1.2,0.5,1.2,1.2S21.5,46.8,20.9,46.8z"/>
	<path class="st0" d="M56.7,42.9c-1.5-1.5-3.5-2.2-5.5-2.2c-0.3,0-0.5-0.2-0.5-0.5V8.7c0-0.3-0.1-0.6-0.3-0.8s-0.5-0.3-0.8-0.3H13.5
		c-0.6,0-1,0.4-1,1V54c0,0.3,0.1,0.6,0.3,0.8s0.5,0.3,0.8,0.3H39c0.1,0,0.3,0.1,0.4,0.1l6.8,6.8c0.5,0.5,1.2,0.5,1.7,0l8.8-8.8l0,0
		c1.4-1.4,2.2-3.3,2.2-5.2C58.8,46.1,58.1,44.2,56.7,42.9L56.7,42.9z M36.2,44.4H25.6c-0.7,0-1.2,0.5-1.2,1.2s0.5,1.2,1.2,1.2h9.7
		c-0.1,0.4-0.1,0.9-0.1,1.3c0,1.4,0.4,2.7,1.1,3.9c0.2,0.3,0,0.8-0.4,0.8c-3.8,0-17.7,0-20.5,0c-0.3,0-0.5-0.2-0.5-0.5V10.4
		c0-0.3,0.2-0.5,0.5-0.5h32.3c0.3,0,0.5,0.2,0.5,0.5v30.7c0,0.2-0.1,0.3-0.3,0.4c-0.3,0.2-0.6,0.4-0.9,0.6c-1.7-1.3-3.9-1.7-5.9-1.3
		C39,41.3,37.3,42.6,36.2,44.4L36.2,44.4z M55,51.6l-7.6,7.6c-0.2,0.2-0.5,0.2-0.7,0l-7.6-7.6l0,0c-1.3-1.3-1.8-3.1-1.3-4.9
		c0.5-1.7,1.8-3.1,3.6-3.6c2-0.5,4.1,0.2,5.3,1.8c0.2,0.3,0.6,0.3,0.8,0c1.3-1.7,3.4-2.4,5.3-1.8c1.7,0.5,3.1,1.8,3.6,3.6
		C56.8,48.5,56.3,50.4,55,51.6L55,51.6z"/>
</g>
</svg>
