<svg width="26" height="18" viewBox="0 0 26 18" fill="none" xmlns="http://www.w3.org/2000/svg">
<path d="M0 0H26V18H0V0ZM13 4.5C14.1493 4.5 15.2515 4.97411 16.0641 5.81802C16.8768 6.66193 17.3333 7.80653 17.3333 9C17.3333 10.1935 16.8768 11.3381 16.0641 12.182C15.2515 13.0259 14.1493 13.5 13 13.5C11.8507 13.5 10.7485 13.0259 9.93587 12.182C9.12321 11.3381 8.66667 10.1935 8.66667 9C8.66667 7.80653 9.12321 6.66193 9.93587 5.81802C10.7485 4.97411 11.8507 4.5 13 4.5V4.5ZM5.77778 3C5.77778 3.79565 5.47341 4.55871 4.93164 5.12132C4.38987 5.68393 3.65507 6 2.88889 6V12C3.65507 12 4.38987 12.3161 4.93164 12.8787C5.47341 13.4413 5.77778 14.2044 5.77778 15H20.2222C20.2222 14.2044 20.5266 13.4413 21.0684 12.8787C21.6101 12.3161 22.3449 12 23.1111 12V6C22.3449 6 21.6101 5.68393 21.0684 5.12132C20.5266 4.55871 20.2222 3.79565 20.2222 3H5.77778Z" fill="#4295D1"/>
</svg>
