<?xml version="1.0" encoding="utf-8"?>
<!-- Generator: Adobe Illustrator 23.0.3, SVG Export Plug-In . SVG Version: 6.00 Build 0)  -->
<svg version="1.1" id="Layer_1" xmlns="http://www.w3.org/2000/svg" xmlns:xlink="http://www.w3.org/1999/xlink" x="0px" y="0px"
	 viewBox="0 0 70 70" style="enable-background:new 0 0 70 70;" xml:space="preserve">
<style type="text/css">
	.st0{fill:#198FCF;stroke:#198FCF;stroke-width:0.5;stroke-miterlimit:10;}
</style>
<g>
	<path class="st0" d="M45.8,28.7c-0.5,0-0.9-0.4-0.9-0.9V17.5c0-2.4-1.9-4.3-4.3-4.3H30.2c-2.4,0-4.3,1.9-4.3,4.3v10.4
		c0,0.5-0.4,0.9-0.9,0.9s-0.9-0.4-0.9-0.9V17.5c0-3.3,2.7-6,6-6h10.4c3.3,0,6,2.7,6,6v10.4C46.6,28.4,46.2,28.7,45.8,28.7z"/>
	<path class="st0" d="M42.3,23.6H28.5c-0.5,0-0.9-0.4-0.9-0.9s0.4-0.9,0.9-0.9h13.8c0.5,0,0.9,0.4,0.9,0.9
		C43.2,23.2,42.8,23.6,42.3,23.6L42.3,23.6z"/>
	<path class="st0" d="M54.4,52.9h-37c-1,0-1.9-0.8-1.9-1.9V23.7c0-1,0.8-1.9,1.9-1.9h4.2c0.5,0,0.9,0.4,0.9,0.9s-0.4,0.9-0.9,0.9
		h-3.3c-0.6,0-1,0.5-1,1v25.6c0,0.6,0.5,1,1,1h34.2c0.6,0,1-0.5,1-1V24.6c0-0.6-0.5-1-1-1h-3.3c-0.5,0-0.9-0.4-0.9-0.9
		s0.4-0.9,0.9-0.9h4.2c1,0,1.9,0.8,1.9,1.9V52C55.3,52.5,54.9,52.9,54.4,52.9L54.4,52.9z"/>
	<path class="st0" d="M30.2,46c-0.2,0-0.3,0-0.4-0.1c-0.3-0.2-0.4-0.4-0.4-0.7V31.3c0-0.3,0.2-0.6,0.4-0.7c0.3-0.2,0.6-0.2,0.9,0
		l12.1,6.9c0.3,0.2,0.4,0.4,0.4,0.7s-0.2,0.6-0.4,0.7l-12.1,6.9C30.5,46,30.4,46,30.2,46L30.2,46z M31.1,32.8v10.8l9.5-5.4
		L31.1,32.8z"/>
</g>
</svg>
