<?xml version="1.0" encoding="utf-8"?>
<!-- Generator: Adobe Illustrator 23.0.3, SVG Export Plug-In . SVG Version: 6.00 Build 0)  -->
<svg version="1.1" id="Layer_1" xmlns="http://www.w3.org/2000/svg" xmlns:xlink="http://www.w3.org/1999/xlink" x="0px" y="0px"
	 viewBox="0 0 70 70" style="enable-background:new 0 0 70 70;" xml:space="preserve">
<style type="text/css">
	.st0{fill:#1C8FCE;}
</style>
<path class="st0" d="M11.2,22.1v23.2c0,1.4,0.5,2.7,1.5,3.6c1,1,2.3,1.5,3.6,1.5h37.7c1.4,0,2.7-0.5,3.6-1.5c1-1,1.5-2.3,1.5-3.6
	V22.1c0-1.4-0.5-2.7-1.5-3.6c-1-1-2.3-1.5-3.6-1.5H16.4c-1.4,0-2.7,0.5-3.6,1.5C11.8,19.5,11.2,20.8,11.2,22.1L11.2,22.1z
	 M16.8,32.3v-3c1.9,0.2,3.7-0.4,5.1-1.7c1.3-1.3,2-3.2,1.7-5.1h23.3c0,0.2,0,0.5,0,0.7c0,1.8,0.7,3.4,2.1,4.6
	c1.3,1.2,3.1,1.7,4.8,1.5v8.8c-1.9-0.2-3.7,0.4-5.1,1.7c-1.3,1.3-2,3.2-1.7,5.1H23.6c0.2-1.9-0.4-3.7-1.7-5.1
	c-1.3-1.3-3.2-2-5.1-1.7L16.8,32.3z M28.4,33.7c0-1.8,0.7-3.5,2-4.8c1.3-1.3,3-2,4.8-2s3.5,0.7,4.8,2c1.3,1.3,2,3,2,4.8
	c0,1.8-0.7,3.5-2,4.8c-1.3,1.3-3,2-4.8,2s-3.5-0.7-4.8-2C29.1,37.3,28.4,35.5,28.4,33.7z"/>
</svg>
