<svg width="21" height="21" viewBox="0 0 21 21" fill="none" xmlns="http://www.w3.org/2000/svg">
<path d="M2.1 4.2H0V18.9C0 19.457 0.221249 19.9911 0.615076 20.3849C1.0089 20.7787 1.54305 21 2.1 21H16.8V18.9H2.1V4.2ZM18.9 0H6.3C5.74305 0 5.2089 0.221249 4.81508 0.615076C4.42125 1.0089 4.2 1.54305 4.2 2.1V14.7C4.2 15.257 4.42125 15.7911 4.81508 16.1849C5.2089 16.5787 5.74305 16.8 6.3 16.8H18.9C19.457 16.8 19.9911 16.5787 20.3849 16.1849C20.7787 15.7911 21 15.257 21 14.7V2.1C21 1.54305 20.7787 1.0089 20.3849 0.615076C19.9911 0.221249 19.457 0 18.9 0ZM8.4 13.65H6.3V11.55H8.4V13.65ZM8.4 9.45H6.3V7.35H8.4V9.45ZM8.4 5.25H6.3V3.15H8.4V5.25ZM18.9 13.65H16.8V11.55H18.9V13.65ZM18.9 9.45H16.8V7.35H18.9V9.45ZM18.9 5.25H16.8V3.15H18.9V5.25Z" fill="#4295D1"/>
</svg>
