<?xml version="1.0" encoding="utf-8"?>
<!-- Generator: Adobe Illustrator 23.0.3, SVG Export Plug-In . SVG Version: 6.00 Build 0)  -->
<svg version="1.1" id="Layer_1" xmlns="http://www.w3.org/2000/svg" xmlns:xlink="http://www.w3.org/1999/xlink" x="0px" y="0px"
	 viewBox="0 0 70 70" style="enable-background:new 0 0 70 70;" xml:space="preserve">
<style type="text/css">
	.st0{fill:#1E8FCE;}
</style>
<g>
	<path class="st0" d="M13.4,33.7c0,0.5,0.2,0.9,0.5,1.2c0.3,0.3,0.8,0.5,1.2,0.5h22.2l-4,4.1c-0.4,0.3-0.6,0.8-0.6,1.3
		c0,0.5,0.2,1,0.5,1.3c0.3,0.3,0.8,0.5,1.3,0.5c0.5,0,1-0.2,1.3-0.6l7.1-7.1h0c0.7-0.7,0.7-1.8,0-2.5l-7.1-7.1h0
		c-0.7-0.6-1.7-0.6-2.4,0.1c-0.7,0.7-0.7,1.7-0.1,2.4l4,4.1H15.2C14.2,32,13.4,32.8,13.4,33.7L13.4,33.7z"/>
	<path class="st0" d="M52.3,17.8c0-1.4-0.6-2.8-1.6-3.7c-1-1-2.3-1.6-3.7-1.6H27.5c-1.4,0-2.8,0.6-3.7,1.6c-1,1-1.6,2.3-1.6,3.7v7.1
		c0,1,0.8,1.8,1.8,1.8s1.8-0.8,1.8-1.8v-7.1c0-1,0.8-1.8,1.8-1.8H47c0.5,0,0.9,0.2,1.2,0.5c0.3,0.3,0.5,0.8,0.5,1.2v31.8
		c0,0.5-0.2,0.9-0.5,1.2c-0.3,0.3-0.8,0.5-1.2,0.5H27.5c-1,0-1.8-0.8-1.8-1.8v-7.1c0-1-0.8-1.8-1.8-1.8s-1.8,0.8-1.8,1.8v7.1
		c0,1.4,0.6,2.8,1.6,3.7c1,1,2.3,1.6,3.7,1.6H47c1.4,0,2.8-0.6,3.7-1.6c1-1,1.6-2.3,1.6-3.7L52.3,17.8z"/>
</g>
</svg>
