<svg width="25" height="22" viewBox="0 0 25 22" fill="none" xmlns="http://www.w3.org/2000/svg">
<path d="M9.58169 0C8.31108 0 7.09251 0.496631 6.19405 1.38064C5.2956 2.26465 4.79085 3.46363 4.79085 4.7138C4.79085 5.96398 5.2956 7.16296 6.19405 8.04697C7.09251 8.93098 8.31108 9.42761 9.58169 9.42761C10.8523 9.42761 12.0709 8.93098 12.9693 8.04697C13.8678 7.16296 14.3725 5.96398 14.3725 4.7138C14.3725 3.46363 13.8678 2.26465 12.9693 1.38064C12.0709 0.496631 10.8523 0 9.58169 0ZM9.58169 2.3569C10.217 2.3569 10.8263 2.60522 11.2755 3.04722C11.7247 3.48923 11.9771 4.08872 11.9771 4.7138C11.9771 5.33889 11.7247 5.93838 11.2755 6.38039C10.8263 6.82239 10.217 7.07071 9.58169 7.07071C8.94639 7.07071 8.3371 6.82239 7.88787 6.38039C7.43864 5.93838 7.18627 5.33889 7.18627 4.7138C7.18627 4.08872 7.43864 3.48923 7.88787 3.04722C8.3371 2.60522 8.94639 2.3569 9.58169 2.3569ZM17.9657 9.42761C17.774 9.42761 17.6782 9.52189 17.6782 9.71044L17.3668 11.1953C17.1033 11.4074 16.7201 11.596 16.4326 11.7845L14.8995 11.1953C14.8037 11.1953 14.6121 11.1953 14.5163 11.3131L13.3665 13.3872C13.2706 13.4815 13.2706 13.67 13.4623 13.7643L14.7079 14.7306V15.9091L13.4623 16.8754C13.3665 16.9697 13.2706 17.1582 13.3665 17.2525L14.5163 19.3266C14.6121 19.4444 14.8037 19.4444 14.8995 19.4444L16.4326 18.8552C16.7201 19.0438 17.1033 19.2323 17.3668 19.4444L17.6782 20.9293C17.6782 21.1178 17.774 21.2121 17.9657 21.2121H20.3611C20.4569 21.2121 20.6485 21.1178 20.6485 20.9293L20.8402 19.4444C21.2235 19.2323 21.6067 19.0438 21.8942 18.8552L23.3554 19.4444C23.5231 19.4444 23.7147 19.4444 23.7147 19.3266L24.9603 17.2525C25.0561 17.1582 24.9603 16.9697 24.8645 16.8754L23.6189 15.9091V14.7306L24.8645 13.7643C24.9603 13.67 25.0561 13.4815 24.9603 13.3872L23.7147 11.3131C23.7147 11.1953 23.5231 11.1953 23.3554 11.1953L21.8942 11.7845C21.6067 11.596 21.2235 11.4074 20.8402 11.1953L20.6485 9.71044C20.6485 9.52189 20.4569 9.42761 20.3611 9.42761H17.9657ZM9.58169 10.6061C6.3838 10.6061 0 12.1734 0 15.3199V18.8552H11.5819C11.2465 18.1599 11.007 17.4057 10.8872 16.6162H2.27565V15.3199C2.27565 14.5657 6.02449 12.8451 9.58169 12.8451C10.0967 12.8451 10.6237 12.8923 11.1387 12.963C11.3783 12.2088 11.7016 11.5017 12.1208 10.8535C11.1866 10.7003 10.3003 10.6061 9.58169 10.6061ZM19.2113 13.5522C20.1695 13.5522 20.96 14.33 20.96 15.367C20.96 16.3098 20.1695 17.0875 19.2113 17.0875C18.1573 17.0875 17.3668 16.3098 17.3668 15.367C17.3668 14.33 18.1573 13.5522 19.2113 13.5522Z" fill="#4295D1"/>
</svg>
