<?xml version="1.0" encoding="utf-8"?>
<!-- Generator: Adobe Illustrator 23.0.3, SVG Export Plug-In . SVG Version: 6.00 Build 0)  -->
<svg version="1.1" id="Layer_1" xmlns="http://www.w3.org/2000/svg" xmlns:xlink="http://www.w3.org/1999/xlink" x="0px" y="0px"
	 viewBox="0 0 70 70" style="enable-background:new 0 0 70 70;" xml:space="preserve">
<style type="text/css">
	.st0{fill:#198FCF;stroke:#198FCF;stroke-width:0.75;stroke-miterlimit:10;}
	.st1{fill:#198FCF;stroke:#198FCF;stroke-width:0.5;stroke-miterlimit:10;}
	.st2{fill:#198FCF;}
	.st3{fill:none;stroke:#198FCF;stroke-width:2;stroke-miterlimit:10;}
	.st4{fill:none;stroke:#000000;stroke-width:2.2;stroke-miterlimit:10;}
</style>
<g>
	<path class="st0" d="M21.5,23.7h14c0.2,0,0.3,0.2,0.3,0.4v0.8c0,0.2-0.1,0.4-0.3,0.4h-14c-0.2,0-0.3-0.2-0.3-0.4V24
		C21.2,23.9,21.4,23.7,21.5,23.7z"/>
	<path class="st0" d="M21.5,32h13.4c0.2,0,0.3,0.2,0.3,0.4v0.8c0,0.2-0.1,0.4-0.3,0.4H21.5c-0.2,0-0.3-0.2-0.3-0.4v-0.8
		C21.2,32.2,21.4,32,21.5,32z"/>
	<path class="st0" d="M21.5,40.3h23.1c0.2,0,0.3,0.2,0.3,0.4v0.8c0,0.2-0.1,0.4-0.3,0.4H21.5c-0.2,0-0.3-0.2-0.3-0.4v-0.7
		C21.2,40.5,21.4,40.3,21.5,40.3z"/>
	<path class="st0" d="M21.5,48.7h23.1c0.2,0,0.3,0.2,0.3,0.4v0.8c0,0.2-0.1,0.4-0.3,0.4H21.5c-0.2,0-0.3-0.2-0.3-0.4v-0.8
		C21.2,48.8,21.4,48.7,21.5,48.7z"/>
	<path class="st1" d="M48.4,37c-5.1,0-9.2-4.1-9.2-9.2s4.1-9.2,9.2-9.2s9.2,4.1,9.2,9.2S53.5,37,48.4,37z M48.4,20.3
		c-4.2,0-7.5,3.3-7.5,7.5s3.3,7.5,7.5,7.5s7.5-3.3,7.5-7.5S52.6,20.3,48.4,20.3z"/>
	<path class="st2" d="M52.1,28.7h-3.8c-0.4,0-0.7-0.3-0.7-0.7v-3.8c0-0.2,0.2-0.4,0.4-0.4h0.8c0.2,0,0.4,0.2,0.4,0.4v2.2
		c0,0.4,0.3,0.7,0.7,0.7h2.2c0.2,0,0.4,0.2,0.4,0.4v0.8C52.6,28.5,52.4,28.7,52.1,28.7z"/>
	<path class="st3" d="M54.3,34v20.1c0,1-0.8,1.9-1.9,1.9H17.3c-1,0-1.9-0.8-1.9-1.9V17.5c0-1,0.8-1.9,1.9-1.9h35.1l0,0
		c1,0,1.9,0.8,1.9,1.9v4.2"/>
	<path class="st4" d="M54.3,21.7"/>
</g>
</svg>
