<svg width="19" height="21" viewBox="0 0 19 21" fill="none" xmlns="http://www.w3.org/2000/svg">
<path d="M17.1 9.65045V3.81818C17.1 2.76818 16.2545 1.90909 15.2 1.90909H11.229C10.83 0.801818 9.785 0 8.55 0C7.315 0 6.27 0.801818 5.871 1.90909H1.9C0.855 1.90909 0 2.76818 0 3.81818V17.1818C0 18.2414 0.855 19.0909 1.9 19.0909H7.7045C8.9015 20.2745 10.5355 21 12.35 21C16.0265 21 19 18.0123 19 14.3182C19 12.495 18.278 10.8532 17.1 9.65045ZM8.55 1.90909C9.0725 1.90909 9.5 2.33864 9.5 2.86364C9.5 3.38864 9.0725 3.81818 8.55 3.81818C8.0275 3.81818 7.6 3.38864 7.6 2.86364C7.6 2.33864 8.0275 1.90909 8.55 1.90909ZM1.9 17.1818V3.81818H3.8V5.72727H13.3V3.81818H15.2V8.28545C14.3355 7.875 13.376 7.63636 12.35 7.63636H3.8V9.54545H7.695C7.125 10.0895 6.688 10.7386 6.346 11.4545H3.8V13.3636H5.776C5.7285 13.6786 5.7 13.9936 5.7 14.3182C5.7 15.3491 5.9375 16.3132 6.346 17.1818H1.9ZM12.35 19.0909C9.728 19.0909 7.6 16.9527 7.6 14.3182C7.6 11.6836 9.728 9.54545 12.35 9.54545C14.972 9.54545 17.1 11.6836 17.1 14.3182C17.1 16.9527 14.972 19.0909 12.35 19.0909ZM12.825 14.5568L15.542 16.17L14.8295 17.3345L11.4 15.2727V10.5H12.825V14.5568Z" fill="#4295D1"/>
</svg>
